G04 #@! TF.GenerationSoftware,KiCad,Pcbnew,(5.1.0-0)*
G04 #@! TF.CreationDate,2019-04-25T22:15:39+08:00*
G04 #@! TF.ProjectId,ws2812b,77733238-3132-4622-9e6b-696361645f70,rev?*
G04 #@! TF.SameCoordinates,Original*
G04 #@! TF.FileFunction,Legend,Top*
G04 #@! TF.FilePolarity,Positive*
%FSLAX46Y46*%
G04 Gerber Fmt 4.6, Leading zero omitted, Abs format (unit mm)*
G04 Created by KiCad (PCBNEW (5.1.0-0)) date 2019-04-25 22:15:39*
%MOMM*%
%LPD*%
G04 APERTURE LIST*
%ADD10C,0.100000*%
%ADD11C,0.120000*%
%ADD12C,0.150000*%
G04 APERTURE END LIST*
D10*
X91059047Y-36580000D02*
X91011428Y-36556190D01*
X90940000Y-36556190D01*
X90868571Y-36580000D01*
X90820952Y-36627619D01*
X90797142Y-36675238D01*
X90773333Y-36770476D01*
X90773333Y-36841904D01*
X90797142Y-36937142D01*
X90820952Y-36984761D01*
X90868571Y-37032380D01*
X90940000Y-37056190D01*
X90987619Y-37056190D01*
X91059047Y-37032380D01*
X91082857Y-37008571D01*
X91082857Y-36841904D01*
X90987619Y-36841904D01*
X91297142Y-37056190D02*
X91297142Y-36556190D01*
X91582857Y-37056190D01*
X91582857Y-36556190D01*
X91820952Y-37056190D02*
X91820952Y-36556190D01*
X91940000Y-36556190D01*
X92011428Y-36580000D01*
X92059047Y-36627619D01*
X92082857Y-36675238D01*
X92106666Y-36770476D01*
X92106666Y-36841904D01*
X92082857Y-36937142D01*
X92059047Y-36984761D01*
X92011428Y-37032380D01*
X91940000Y-37056190D01*
X91820952Y-37056190D01*
X90380476Y-33222380D02*
X90451904Y-33246190D01*
X90570952Y-33246190D01*
X90618571Y-33222380D01*
X90642380Y-33198571D01*
X90666190Y-33150952D01*
X90666190Y-33103333D01*
X90642380Y-33055714D01*
X90618571Y-33031904D01*
X90570952Y-33008095D01*
X90475714Y-32984285D01*
X90428095Y-32960476D01*
X90404285Y-32936666D01*
X90380476Y-32889047D01*
X90380476Y-32841428D01*
X90404285Y-32793809D01*
X90428095Y-32770000D01*
X90475714Y-32746190D01*
X90594761Y-32746190D01*
X90666190Y-32770000D01*
X90832857Y-32746190D02*
X90951904Y-33246190D01*
X91047142Y-32889047D01*
X91142380Y-33246190D01*
X91261428Y-32746190D01*
X91451904Y-33246190D02*
X91451904Y-32746190D01*
X91570952Y-32746190D01*
X91642380Y-32770000D01*
X91690000Y-32817619D01*
X91713809Y-32865238D01*
X91737619Y-32960476D01*
X91737619Y-33031904D01*
X91713809Y-33127142D01*
X91690000Y-33174761D01*
X91642380Y-33222380D01*
X91570952Y-33246190D01*
X91451904Y-33246190D01*
X91951904Y-33246190D02*
X91951904Y-32746190D01*
X92285238Y-32746190D02*
X92380476Y-32746190D01*
X92428095Y-32770000D01*
X92475714Y-32817619D01*
X92499523Y-32912857D01*
X92499523Y-33079523D01*
X92475714Y-33174761D01*
X92428095Y-33222380D01*
X92380476Y-33246190D01*
X92285238Y-33246190D01*
X92237619Y-33222380D01*
X92190000Y-33174761D01*
X92166190Y-33079523D01*
X92166190Y-32912857D01*
X92190000Y-32817619D01*
X92237619Y-32770000D01*
X92285238Y-32746190D01*
X90309047Y-30682380D02*
X90380476Y-30706190D01*
X90499523Y-30706190D01*
X90547142Y-30682380D01*
X90570952Y-30658571D01*
X90594761Y-30610952D01*
X90594761Y-30563333D01*
X90570952Y-30515714D01*
X90547142Y-30491904D01*
X90499523Y-30468095D01*
X90404285Y-30444285D01*
X90356666Y-30420476D01*
X90332857Y-30396666D01*
X90309047Y-30349047D01*
X90309047Y-30301428D01*
X90332857Y-30253809D01*
X90356666Y-30230000D01*
X90404285Y-30206190D01*
X90523333Y-30206190D01*
X90594761Y-30230000D01*
X90761428Y-30206190D02*
X90880476Y-30706190D01*
X90975714Y-30349047D01*
X91070952Y-30706190D01*
X91190000Y-30206190D01*
X91666190Y-30658571D02*
X91642380Y-30682380D01*
X91570952Y-30706190D01*
X91523333Y-30706190D01*
X91451904Y-30682380D01*
X91404285Y-30634761D01*
X91380476Y-30587142D01*
X91356666Y-30491904D01*
X91356666Y-30420476D01*
X91380476Y-30325238D01*
X91404285Y-30277619D01*
X91451904Y-30230000D01*
X91523333Y-30206190D01*
X91570952Y-30206190D01*
X91642380Y-30230000D01*
X91666190Y-30253809D01*
X92118571Y-30706190D02*
X91880476Y-30706190D01*
X91880476Y-30206190D01*
X92285238Y-30706190D02*
X92285238Y-30206190D01*
X92570952Y-30706190D02*
X92356666Y-30420476D01*
X92570952Y-30206190D02*
X92285238Y-30491904D01*
X90440000Y-27975714D02*
X90820952Y-27975714D01*
X90630476Y-28166190D02*
X90630476Y-27785238D01*
X91011428Y-27666190D02*
X91320952Y-27666190D01*
X91154285Y-27856666D01*
X91225714Y-27856666D01*
X91273333Y-27880476D01*
X91297142Y-27904285D01*
X91320952Y-27951904D01*
X91320952Y-28070952D01*
X91297142Y-28118571D01*
X91273333Y-28142380D01*
X91225714Y-28166190D01*
X91082857Y-28166190D01*
X91035238Y-28142380D01*
X91011428Y-28118571D01*
X91535238Y-28118571D02*
X91559047Y-28142380D01*
X91535238Y-28166190D01*
X91511428Y-28142380D01*
X91535238Y-28118571D01*
X91535238Y-28166190D01*
X91725714Y-27666190D02*
X92035238Y-27666190D01*
X91868571Y-27856666D01*
X91940000Y-27856666D01*
X91987619Y-27880476D01*
X92011428Y-27904285D01*
X92035238Y-27951904D01*
X92035238Y-28070952D01*
X92011428Y-28118571D01*
X91987619Y-28142380D01*
X91940000Y-28166190D01*
X91797142Y-28166190D01*
X91749523Y-28142380D01*
X91725714Y-28118571D01*
X92178095Y-27666190D02*
X92344761Y-28166190D01*
X92511428Y-27666190D01*
X53475000Y-70211190D02*
X53570238Y-70211190D01*
X53617857Y-70235000D01*
X53665476Y-70282619D01*
X53689285Y-70377857D01*
X53689285Y-70544523D01*
X53665476Y-70639761D01*
X53617857Y-70687380D01*
X53570238Y-70711190D01*
X53475000Y-70711190D01*
X53427380Y-70687380D01*
X53379761Y-70639761D01*
X53355952Y-70544523D01*
X53355952Y-70377857D01*
X53379761Y-70282619D01*
X53427380Y-70235000D01*
X53475000Y-70211190D01*
X53903571Y-70211190D02*
X53903571Y-70615952D01*
X53927380Y-70663571D01*
X53951190Y-70687380D01*
X53998809Y-70711190D01*
X54094047Y-70711190D01*
X54141666Y-70687380D01*
X54165476Y-70663571D01*
X54189285Y-70615952D01*
X54189285Y-70211190D01*
X54355952Y-70211190D02*
X54641666Y-70211190D01*
X54498809Y-70711190D02*
X54498809Y-70211190D01*
X53594047Y-67060000D02*
X53546428Y-67036190D01*
X53475000Y-67036190D01*
X53403571Y-67060000D01*
X53355952Y-67107619D01*
X53332142Y-67155238D01*
X53308333Y-67250476D01*
X53308333Y-67321904D01*
X53332142Y-67417142D01*
X53355952Y-67464761D01*
X53403571Y-67512380D01*
X53475000Y-67536190D01*
X53522619Y-67536190D01*
X53594047Y-67512380D01*
X53617857Y-67488571D01*
X53617857Y-67321904D01*
X53522619Y-67321904D01*
X53832142Y-67536190D02*
X53832142Y-67036190D01*
X54117857Y-67536190D01*
X54117857Y-67036190D01*
X54355952Y-67536190D02*
X54355952Y-67036190D01*
X54475000Y-67036190D01*
X54546428Y-67060000D01*
X54594047Y-67107619D01*
X54617857Y-67155238D01*
X54641666Y-67250476D01*
X54641666Y-67321904D01*
X54617857Y-67417142D01*
X54594047Y-67464761D01*
X54546428Y-67512380D01*
X54475000Y-67536190D01*
X54355952Y-67536190D01*
X63793809Y-60075000D02*
X63746190Y-60051190D01*
X63674761Y-60051190D01*
X63603333Y-60075000D01*
X63555714Y-60122619D01*
X63531904Y-60170238D01*
X63508095Y-60265476D01*
X63508095Y-60336904D01*
X63531904Y-60432142D01*
X63555714Y-60479761D01*
X63603333Y-60527380D01*
X63674761Y-60551190D01*
X63722380Y-60551190D01*
X63793809Y-60527380D01*
X63817619Y-60503571D01*
X63817619Y-60336904D01*
X63722380Y-60336904D01*
X64031904Y-60551190D02*
X64031904Y-60051190D01*
X64222380Y-60051190D01*
X64270000Y-60075000D01*
X64293809Y-60098809D01*
X64317619Y-60146428D01*
X64317619Y-60217857D01*
X64293809Y-60265476D01*
X64270000Y-60289285D01*
X64222380Y-60313095D01*
X64031904Y-60313095D01*
X64531904Y-60551190D02*
X64531904Y-60051190D01*
X64865238Y-60051190D02*
X64960476Y-60051190D01*
X65008095Y-60075000D01*
X65055714Y-60122619D01*
X65079523Y-60217857D01*
X65079523Y-60384523D01*
X65055714Y-60479761D01*
X65008095Y-60527380D01*
X64960476Y-60551190D01*
X64865238Y-60551190D01*
X64817619Y-60527380D01*
X64770000Y-60479761D01*
X64746190Y-60384523D01*
X64746190Y-60217857D01*
X64770000Y-60122619D01*
X64817619Y-60075000D01*
X64865238Y-60051190D01*
X65555714Y-60551190D02*
X65270000Y-60551190D01*
X65412857Y-60551190D02*
X65412857Y-60051190D01*
X65365238Y-60122619D01*
X65317619Y-60170238D01*
X65270000Y-60194047D01*
X65984285Y-60051190D02*
X65889047Y-60051190D01*
X65841428Y-60075000D01*
X65817619Y-60098809D01*
X65770000Y-60170238D01*
X65746190Y-60265476D01*
X65746190Y-60455952D01*
X65770000Y-60503571D01*
X65793809Y-60527380D01*
X65841428Y-60551190D01*
X65936666Y-60551190D01*
X65984285Y-60527380D01*
X66008095Y-60503571D01*
X66031904Y-60455952D01*
X66031904Y-60336904D01*
X66008095Y-60289285D01*
X65984285Y-60265476D01*
X65936666Y-60241666D01*
X65841428Y-60241666D01*
X65793809Y-60265476D01*
X65770000Y-60289285D01*
X65746190Y-60336904D01*
X63793809Y-57535000D02*
X63746190Y-57511190D01*
X63674761Y-57511190D01*
X63603333Y-57535000D01*
X63555714Y-57582619D01*
X63531904Y-57630238D01*
X63508095Y-57725476D01*
X63508095Y-57796904D01*
X63531904Y-57892142D01*
X63555714Y-57939761D01*
X63603333Y-57987380D01*
X63674761Y-58011190D01*
X63722380Y-58011190D01*
X63793809Y-57987380D01*
X63817619Y-57963571D01*
X63817619Y-57796904D01*
X63722380Y-57796904D01*
X64031904Y-58011190D02*
X64031904Y-57511190D01*
X64222380Y-57511190D01*
X64270000Y-57535000D01*
X64293809Y-57558809D01*
X64317619Y-57606428D01*
X64317619Y-57677857D01*
X64293809Y-57725476D01*
X64270000Y-57749285D01*
X64222380Y-57773095D01*
X64031904Y-57773095D01*
X64531904Y-58011190D02*
X64531904Y-57511190D01*
X64865238Y-57511190D02*
X64960476Y-57511190D01*
X65008095Y-57535000D01*
X65055714Y-57582619D01*
X65079523Y-57677857D01*
X65079523Y-57844523D01*
X65055714Y-57939761D01*
X65008095Y-57987380D01*
X64960476Y-58011190D01*
X64865238Y-58011190D01*
X64817619Y-57987380D01*
X64770000Y-57939761D01*
X64746190Y-57844523D01*
X64746190Y-57677857D01*
X64770000Y-57582619D01*
X64817619Y-57535000D01*
X64865238Y-57511190D01*
X65555714Y-58011190D02*
X65270000Y-58011190D01*
X65412857Y-58011190D02*
X65412857Y-57511190D01*
X65365238Y-57582619D01*
X65317619Y-57630238D01*
X65270000Y-57654047D01*
X65984285Y-57677857D02*
X65984285Y-58011190D01*
X65865238Y-57487380D02*
X65746190Y-57844523D01*
X66055714Y-57844523D01*
X72838571Y-60551190D02*
X72838571Y-60051190D01*
X73124285Y-60551190D01*
X73124285Y-60051190D01*
X73648095Y-60551190D02*
X73481428Y-60313095D01*
X73362380Y-60551190D02*
X73362380Y-60051190D01*
X73552857Y-60051190D01*
X73600476Y-60075000D01*
X73624285Y-60098809D01*
X73648095Y-60146428D01*
X73648095Y-60217857D01*
X73624285Y-60265476D01*
X73600476Y-60289285D01*
X73552857Y-60313095D01*
X73362380Y-60313095D01*
X73838571Y-60527380D02*
X73910000Y-60551190D01*
X74029047Y-60551190D01*
X74076666Y-60527380D01*
X74100476Y-60503571D01*
X74124285Y-60455952D01*
X74124285Y-60408333D01*
X74100476Y-60360714D01*
X74076666Y-60336904D01*
X74029047Y-60313095D01*
X73933809Y-60289285D01*
X73886190Y-60265476D01*
X73862380Y-60241666D01*
X73838571Y-60194047D01*
X73838571Y-60146428D01*
X73862380Y-60098809D01*
X73886190Y-60075000D01*
X73933809Y-60051190D01*
X74052857Y-60051190D01*
X74124285Y-60075000D01*
X74267142Y-60051190D02*
X74552857Y-60051190D01*
X74410000Y-60551190D02*
X74410000Y-60051190D01*
X72743333Y-57749285D02*
X72814761Y-57773095D01*
X72838571Y-57796904D01*
X72862380Y-57844523D01*
X72862380Y-57915952D01*
X72838571Y-57963571D01*
X72814761Y-57987380D01*
X72767142Y-58011190D01*
X72576666Y-58011190D01*
X72576666Y-57511190D01*
X72743333Y-57511190D01*
X72790952Y-57535000D01*
X72814761Y-57558809D01*
X72838571Y-57606428D01*
X72838571Y-57654047D01*
X72814761Y-57701666D01*
X72790952Y-57725476D01*
X72743333Y-57749285D01*
X72576666Y-57749285D01*
X73171904Y-57511190D02*
X73267142Y-57511190D01*
X73314761Y-57535000D01*
X73362380Y-57582619D01*
X73386190Y-57677857D01*
X73386190Y-57844523D01*
X73362380Y-57939761D01*
X73314761Y-57987380D01*
X73267142Y-58011190D01*
X73171904Y-58011190D01*
X73124285Y-57987380D01*
X73076666Y-57939761D01*
X73052857Y-57844523D01*
X73052857Y-57677857D01*
X73076666Y-57582619D01*
X73124285Y-57535000D01*
X73171904Y-57511190D01*
X73695714Y-57511190D02*
X73790952Y-57511190D01*
X73838571Y-57535000D01*
X73886190Y-57582619D01*
X73910000Y-57677857D01*
X73910000Y-57844523D01*
X73886190Y-57939761D01*
X73838571Y-57987380D01*
X73790952Y-58011190D01*
X73695714Y-58011190D01*
X73648095Y-57987380D01*
X73600476Y-57939761D01*
X73576666Y-57844523D01*
X73576666Y-57677857D01*
X73600476Y-57582619D01*
X73648095Y-57535000D01*
X73695714Y-57511190D01*
X74052857Y-57511190D02*
X74338571Y-57511190D01*
X74195714Y-58011190D02*
X74195714Y-57511190D01*
X74600476Y-57511190D02*
X74648095Y-57511190D01*
X74695714Y-57535000D01*
X74719523Y-57558809D01*
X74743333Y-57606428D01*
X74767142Y-57701666D01*
X74767142Y-57820714D01*
X74743333Y-57915952D01*
X74719523Y-57963571D01*
X74695714Y-57987380D01*
X74648095Y-58011190D01*
X74600476Y-58011190D01*
X74552857Y-57987380D01*
X74529047Y-57963571D01*
X74505238Y-57915952D01*
X74481428Y-57820714D01*
X74481428Y-57701666D01*
X74505238Y-57606428D01*
X74529047Y-57558809D01*
X74552857Y-57535000D01*
X74600476Y-57511190D01*
X91190000Y-57530952D02*
X91166190Y-57578571D01*
X91166190Y-57650000D01*
X91190000Y-57721428D01*
X91237619Y-57769047D01*
X91285238Y-57792857D01*
X91380476Y-57816666D01*
X91451904Y-57816666D01*
X91547142Y-57792857D01*
X91594761Y-57769047D01*
X91642380Y-57721428D01*
X91666190Y-57650000D01*
X91666190Y-57602380D01*
X91642380Y-57530952D01*
X91618571Y-57507142D01*
X91451904Y-57507142D01*
X91451904Y-57602380D01*
X91666190Y-57292857D02*
X91166190Y-57292857D01*
X91666190Y-57007142D01*
X91166190Y-57007142D01*
X91666190Y-56769047D02*
X91166190Y-56769047D01*
X91166190Y-56650000D01*
X91190000Y-56578571D01*
X91237619Y-56530952D01*
X91285238Y-56507142D01*
X91380476Y-56483333D01*
X91451904Y-56483333D01*
X91547142Y-56507142D01*
X91594761Y-56530952D01*
X91642380Y-56578571D01*
X91666190Y-56650000D01*
X91666190Y-56769047D01*
X88935714Y-58150000D02*
X88935714Y-57769047D01*
X89126190Y-57959523D02*
X88745238Y-57959523D01*
X88626190Y-57578571D02*
X88626190Y-57269047D01*
X88816666Y-57435714D01*
X88816666Y-57364285D01*
X88840476Y-57316666D01*
X88864285Y-57292857D01*
X88911904Y-57269047D01*
X89030952Y-57269047D01*
X89078571Y-57292857D01*
X89102380Y-57316666D01*
X89126190Y-57364285D01*
X89126190Y-57507142D01*
X89102380Y-57554761D01*
X89078571Y-57578571D01*
X89078571Y-57054761D02*
X89102380Y-57030952D01*
X89126190Y-57054761D01*
X89102380Y-57078571D01*
X89078571Y-57054761D01*
X89126190Y-57054761D01*
X88626190Y-56864285D02*
X88626190Y-56554761D01*
X88816666Y-56721428D01*
X88816666Y-56650000D01*
X88840476Y-56602380D01*
X88864285Y-56578571D01*
X88911904Y-56554761D01*
X89030952Y-56554761D01*
X89078571Y-56578571D01*
X89102380Y-56602380D01*
X89126190Y-56650000D01*
X89126190Y-56792857D01*
X89102380Y-56840476D01*
X89078571Y-56864285D01*
X88626190Y-56411904D02*
X89126190Y-56245238D01*
X88626190Y-56078571D01*
X81506190Y-58118333D02*
X81268095Y-58285000D01*
X81506190Y-58404047D02*
X81006190Y-58404047D01*
X81006190Y-58213571D01*
X81030000Y-58165952D01*
X81053809Y-58142142D01*
X81101428Y-58118333D01*
X81172857Y-58118333D01*
X81220476Y-58142142D01*
X81244285Y-58165952D01*
X81268095Y-58213571D01*
X81268095Y-58404047D01*
X81006190Y-57951666D02*
X81506190Y-57618333D01*
X81006190Y-57618333D02*
X81506190Y-57951666D01*
X81506190Y-57427857D02*
X81006190Y-57427857D01*
X81006190Y-57308809D01*
X81030000Y-57237380D01*
X81077619Y-57189761D01*
X81125238Y-57165952D01*
X81220476Y-57142142D01*
X81291904Y-57142142D01*
X81387142Y-57165952D01*
X81434761Y-57189761D01*
X81482380Y-57237380D01*
X81506190Y-57308809D01*
X81506190Y-57427857D01*
X83546190Y-58415952D02*
X83546190Y-58130238D01*
X84046190Y-58273095D02*
X83546190Y-58273095D01*
X83546190Y-58011190D02*
X84046190Y-57677857D01*
X83546190Y-57677857D02*
X84046190Y-58011190D01*
X84046190Y-57487380D02*
X83546190Y-57487380D01*
X83546190Y-57368333D01*
X83570000Y-57296904D01*
X83617619Y-57249285D01*
X83665238Y-57225476D01*
X83760476Y-57201666D01*
X83831904Y-57201666D01*
X83927142Y-57225476D01*
X83974761Y-57249285D01*
X84022380Y-57296904D01*
X84046190Y-57368333D01*
X84046190Y-57487380D01*
X91190000Y-66778095D02*
X91166190Y-66825714D01*
X91166190Y-66897142D01*
X91190000Y-66968571D01*
X91237619Y-67016190D01*
X91285238Y-67040000D01*
X91380476Y-67063809D01*
X91451904Y-67063809D01*
X91547142Y-67040000D01*
X91594761Y-67016190D01*
X91642380Y-66968571D01*
X91666190Y-66897142D01*
X91666190Y-66849523D01*
X91642380Y-66778095D01*
X91618571Y-66754285D01*
X91451904Y-66754285D01*
X91451904Y-66849523D01*
X91666190Y-66540000D02*
X91166190Y-66540000D01*
X91166190Y-66349523D01*
X91190000Y-66301904D01*
X91213809Y-66278095D01*
X91261428Y-66254285D01*
X91332857Y-66254285D01*
X91380476Y-66278095D01*
X91404285Y-66301904D01*
X91428095Y-66349523D01*
X91428095Y-66540000D01*
X91666190Y-66040000D02*
X91166190Y-66040000D01*
X91166190Y-65706666D02*
X91166190Y-65611428D01*
X91190000Y-65563809D01*
X91237619Y-65516190D01*
X91332857Y-65492380D01*
X91499523Y-65492380D01*
X91594761Y-65516190D01*
X91642380Y-65563809D01*
X91666190Y-65611428D01*
X91666190Y-65706666D01*
X91642380Y-65754285D01*
X91594761Y-65801904D01*
X91499523Y-65825714D01*
X91332857Y-65825714D01*
X91237619Y-65801904D01*
X91190000Y-65754285D01*
X91166190Y-65706666D01*
X91213809Y-65301904D02*
X91190000Y-65278095D01*
X91166190Y-65230476D01*
X91166190Y-65111428D01*
X91190000Y-65063809D01*
X91213809Y-65040000D01*
X91261428Y-65016190D01*
X91309047Y-65016190D01*
X91380476Y-65040000D01*
X91666190Y-65325714D01*
X91666190Y-65016190D01*
X88650000Y-66778095D02*
X88626190Y-66825714D01*
X88626190Y-66897142D01*
X88650000Y-66968571D01*
X88697619Y-67016190D01*
X88745238Y-67040000D01*
X88840476Y-67063809D01*
X88911904Y-67063809D01*
X89007142Y-67040000D01*
X89054761Y-67016190D01*
X89102380Y-66968571D01*
X89126190Y-66897142D01*
X89126190Y-66849523D01*
X89102380Y-66778095D01*
X89078571Y-66754285D01*
X88911904Y-66754285D01*
X88911904Y-66849523D01*
X89126190Y-66540000D02*
X88626190Y-66540000D01*
X88626190Y-66349523D01*
X88650000Y-66301904D01*
X88673809Y-66278095D01*
X88721428Y-66254285D01*
X88792857Y-66254285D01*
X88840476Y-66278095D01*
X88864285Y-66301904D01*
X88888095Y-66349523D01*
X88888095Y-66540000D01*
X89126190Y-66040000D02*
X88626190Y-66040000D01*
X88626190Y-65706666D02*
X88626190Y-65611428D01*
X88650000Y-65563809D01*
X88697619Y-65516190D01*
X88792857Y-65492380D01*
X88959523Y-65492380D01*
X89054761Y-65516190D01*
X89102380Y-65563809D01*
X89126190Y-65611428D01*
X89126190Y-65706666D01*
X89102380Y-65754285D01*
X89054761Y-65801904D01*
X88959523Y-65825714D01*
X88792857Y-65825714D01*
X88697619Y-65801904D01*
X88650000Y-65754285D01*
X88626190Y-65706666D01*
X88626190Y-65182857D02*
X88626190Y-65135238D01*
X88650000Y-65087619D01*
X88673809Y-65063809D01*
X88721428Y-65040000D01*
X88816666Y-65016190D01*
X88935714Y-65016190D01*
X89030952Y-65040000D01*
X89078571Y-65063809D01*
X89102380Y-65087619D01*
X89126190Y-65135238D01*
X89126190Y-65182857D01*
X89102380Y-65230476D01*
X89078571Y-65254285D01*
X89030952Y-65278095D01*
X88935714Y-65301904D01*
X88816666Y-65301904D01*
X88721428Y-65278095D01*
X88673809Y-65254285D01*
X88650000Y-65230476D01*
X88626190Y-65182857D01*
X86586190Y-66790000D02*
X86086190Y-66790000D01*
X86086190Y-66670952D01*
X86110000Y-66599523D01*
X86157619Y-66551904D01*
X86205238Y-66528095D01*
X86300476Y-66504285D01*
X86371904Y-66504285D01*
X86467142Y-66528095D01*
X86514761Y-66551904D01*
X86562380Y-66599523D01*
X86586190Y-66670952D01*
X86586190Y-66790000D01*
X86443333Y-66313809D02*
X86443333Y-66075714D01*
X86586190Y-66361428D02*
X86086190Y-66194761D01*
X86586190Y-66028095D01*
X86086190Y-65932857D02*
X86086190Y-65647142D01*
X86586190Y-65790000D02*
X86086190Y-65790000D01*
X86443333Y-65504285D02*
X86443333Y-65266190D01*
X86586190Y-65551904D02*
X86086190Y-65385238D01*
X86586190Y-65218571D01*
X83546190Y-68627380D02*
X83950952Y-68627380D01*
X83998571Y-68603571D01*
X84022380Y-68579761D01*
X84046190Y-68532142D01*
X84046190Y-68436904D01*
X84022380Y-68389285D01*
X83998571Y-68365476D01*
X83950952Y-68341666D01*
X83546190Y-68341666D01*
X84022380Y-68127380D02*
X84046190Y-68055952D01*
X84046190Y-67936904D01*
X84022380Y-67889285D01*
X83998571Y-67865476D01*
X83950952Y-67841666D01*
X83903333Y-67841666D01*
X83855714Y-67865476D01*
X83831904Y-67889285D01*
X83808095Y-67936904D01*
X83784285Y-68032142D01*
X83760476Y-68079761D01*
X83736666Y-68103571D01*
X83689047Y-68127380D01*
X83641428Y-68127380D01*
X83593809Y-68103571D01*
X83570000Y-68079761D01*
X83546190Y-68032142D01*
X83546190Y-67913095D01*
X83570000Y-67841666D01*
X83903333Y-67651190D02*
X83903333Y-67413095D01*
X84046190Y-67698809D02*
X83546190Y-67532142D01*
X84046190Y-67365476D01*
X84046190Y-66913095D02*
X83808095Y-67079761D01*
X84046190Y-67198809D02*
X83546190Y-67198809D01*
X83546190Y-67008333D01*
X83570000Y-66960714D01*
X83593809Y-66936904D01*
X83641428Y-66913095D01*
X83712857Y-66913095D01*
X83760476Y-66936904D01*
X83784285Y-66960714D01*
X83808095Y-67008333D01*
X83808095Y-67198809D01*
X83546190Y-66770238D02*
X83546190Y-66484523D01*
X84046190Y-66627380D02*
X83546190Y-66627380D01*
X84046190Y-66055952D02*
X84046190Y-66341666D01*
X84046190Y-66198809D02*
X83546190Y-66198809D01*
X83617619Y-66246428D01*
X83665238Y-66294047D01*
X83689047Y-66341666D01*
X84093809Y-65960714D02*
X84093809Y-65579761D01*
X84046190Y-65175000D02*
X83808095Y-65341666D01*
X84046190Y-65460714D02*
X83546190Y-65460714D01*
X83546190Y-65270238D01*
X83570000Y-65222619D01*
X83593809Y-65198809D01*
X83641428Y-65175000D01*
X83712857Y-65175000D01*
X83760476Y-65198809D01*
X83784285Y-65222619D01*
X83808095Y-65270238D01*
X83808095Y-65460714D01*
X83546190Y-65008333D02*
X84046190Y-64675000D01*
X83546190Y-64675000D02*
X84046190Y-65008333D01*
X81006190Y-68567857D02*
X81410952Y-68567857D01*
X81458571Y-68544047D01*
X81482380Y-68520238D01*
X81506190Y-68472619D01*
X81506190Y-68377380D01*
X81482380Y-68329761D01*
X81458571Y-68305952D01*
X81410952Y-68282142D01*
X81006190Y-68282142D01*
X81482380Y-68067857D02*
X81506190Y-67996428D01*
X81506190Y-67877380D01*
X81482380Y-67829761D01*
X81458571Y-67805952D01*
X81410952Y-67782142D01*
X81363333Y-67782142D01*
X81315714Y-67805952D01*
X81291904Y-67829761D01*
X81268095Y-67877380D01*
X81244285Y-67972619D01*
X81220476Y-68020238D01*
X81196666Y-68044047D01*
X81149047Y-68067857D01*
X81101428Y-68067857D01*
X81053809Y-68044047D01*
X81030000Y-68020238D01*
X81006190Y-67972619D01*
X81006190Y-67853571D01*
X81030000Y-67782142D01*
X81363333Y-67591666D02*
X81363333Y-67353571D01*
X81506190Y-67639285D02*
X81006190Y-67472619D01*
X81506190Y-67305952D01*
X81506190Y-66853571D02*
X81268095Y-67020238D01*
X81506190Y-67139285D02*
X81006190Y-67139285D01*
X81006190Y-66948809D01*
X81030000Y-66901190D01*
X81053809Y-66877380D01*
X81101428Y-66853571D01*
X81172857Y-66853571D01*
X81220476Y-66877380D01*
X81244285Y-66901190D01*
X81268095Y-66948809D01*
X81268095Y-67139285D01*
X81006190Y-66710714D02*
X81006190Y-66425000D01*
X81506190Y-66567857D02*
X81006190Y-66567857D01*
X81506190Y-65996428D02*
X81506190Y-66282142D01*
X81506190Y-66139285D02*
X81006190Y-66139285D01*
X81077619Y-66186904D01*
X81125238Y-66234523D01*
X81149047Y-66282142D01*
X81553809Y-65901190D02*
X81553809Y-65520238D01*
X81006190Y-65472619D02*
X81006190Y-65186904D01*
X81506190Y-65329761D02*
X81006190Y-65329761D01*
X81006190Y-65067857D02*
X81506190Y-64734523D01*
X81006190Y-64734523D02*
X81506190Y-65067857D01*
X86352380Y-71222857D02*
X86447619Y-71556190D01*
X86542857Y-71318095D01*
X86638095Y-71556190D01*
X86733333Y-71222857D01*
X86900000Y-71532380D02*
X86947619Y-71556190D01*
X87042857Y-71556190D01*
X87090476Y-71532380D01*
X87114285Y-71484761D01*
X87114285Y-71460952D01*
X87090476Y-71413333D01*
X87042857Y-71389523D01*
X86971428Y-71389523D01*
X86923809Y-71365714D01*
X86900000Y-71318095D01*
X86900000Y-71294285D01*
X86923809Y-71246666D01*
X86971428Y-71222857D01*
X87042857Y-71222857D01*
X87090476Y-71246666D01*
X87304761Y-71103809D02*
X87328571Y-71080000D01*
X87376190Y-71056190D01*
X87495238Y-71056190D01*
X87542857Y-71080000D01*
X87566666Y-71103809D01*
X87590476Y-71151428D01*
X87590476Y-71199047D01*
X87566666Y-71270476D01*
X87280952Y-71556190D01*
X87590476Y-71556190D01*
X87876190Y-71270476D02*
X87828571Y-71246666D01*
X87804761Y-71222857D01*
X87780952Y-71175238D01*
X87780952Y-71151428D01*
X87804761Y-71103809D01*
X87828571Y-71080000D01*
X87876190Y-71056190D01*
X87971428Y-71056190D01*
X88019047Y-71080000D01*
X88042857Y-71103809D01*
X88066666Y-71151428D01*
X88066666Y-71175238D01*
X88042857Y-71222857D01*
X88019047Y-71246666D01*
X87971428Y-71270476D01*
X87876190Y-71270476D01*
X87828571Y-71294285D01*
X87804761Y-71318095D01*
X87780952Y-71365714D01*
X87780952Y-71460952D01*
X87804761Y-71508571D01*
X87828571Y-71532380D01*
X87876190Y-71556190D01*
X87971428Y-71556190D01*
X88019047Y-71532380D01*
X88042857Y-71508571D01*
X88066666Y-71460952D01*
X88066666Y-71365714D01*
X88042857Y-71318095D01*
X88019047Y-71294285D01*
X87971428Y-71270476D01*
X88542857Y-71556190D02*
X88257142Y-71556190D01*
X88400000Y-71556190D02*
X88400000Y-71056190D01*
X88352380Y-71127619D01*
X88304761Y-71175238D01*
X88257142Y-71199047D01*
X88733333Y-71103809D02*
X88757142Y-71080000D01*
X88804761Y-71056190D01*
X88923809Y-71056190D01*
X88971428Y-71080000D01*
X88995238Y-71103809D01*
X89019047Y-71151428D01*
X89019047Y-71199047D01*
X88995238Y-71270476D01*
X88709523Y-71556190D01*
X89019047Y-71556190D01*
X89233333Y-71556190D02*
X89233333Y-71056190D01*
X89233333Y-71246666D02*
X89280952Y-71222857D01*
X89376190Y-71222857D01*
X89423809Y-71246666D01*
X89447619Y-71270476D01*
X89471428Y-71318095D01*
X89471428Y-71460952D01*
X89447619Y-71508571D01*
X89423809Y-71532380D01*
X89376190Y-71556190D01*
X89280952Y-71556190D01*
X89233333Y-71532380D01*
X89566666Y-71603809D02*
X89947619Y-71603809D01*
X90019047Y-71222857D02*
X90138095Y-71556190D01*
X90257142Y-71222857D01*
X90542857Y-71056190D02*
X90590476Y-71056190D01*
X90638095Y-71080000D01*
X90661904Y-71103809D01*
X90685714Y-71151428D01*
X90709523Y-71246666D01*
X90709523Y-71365714D01*
X90685714Y-71460952D01*
X90661904Y-71508571D01*
X90638095Y-71532380D01*
X90590476Y-71556190D01*
X90542857Y-71556190D01*
X90495238Y-71532380D01*
X90471428Y-71508571D01*
X90447619Y-71460952D01*
X90423809Y-71365714D01*
X90423809Y-71246666D01*
X90447619Y-71151428D01*
X90471428Y-71103809D01*
X90495238Y-71080000D01*
X90542857Y-71056190D01*
X90923809Y-71508571D02*
X90947619Y-71532380D01*
X90923809Y-71556190D01*
X90900000Y-71532380D01*
X90923809Y-71508571D01*
X90923809Y-71556190D01*
X91423809Y-71556190D02*
X91138095Y-71556190D01*
X91280952Y-71556190D02*
X91280952Y-71056190D01*
X91233333Y-71127619D01*
X91185714Y-71175238D01*
X91138095Y-71199047D01*
X87090476Y-71953809D02*
X87114285Y-71930000D01*
X87161904Y-71906190D01*
X87280952Y-71906190D01*
X87328571Y-71930000D01*
X87352380Y-71953809D01*
X87376190Y-72001428D01*
X87376190Y-72049047D01*
X87352380Y-72120476D01*
X87066666Y-72406190D01*
X87376190Y-72406190D01*
X87685714Y-71906190D02*
X87733333Y-71906190D01*
X87780952Y-71930000D01*
X87804761Y-71953809D01*
X87828571Y-72001428D01*
X87852380Y-72096666D01*
X87852380Y-72215714D01*
X87828571Y-72310952D01*
X87804761Y-72358571D01*
X87780952Y-72382380D01*
X87733333Y-72406190D01*
X87685714Y-72406190D01*
X87638095Y-72382380D01*
X87614285Y-72358571D01*
X87590476Y-72310952D01*
X87566666Y-72215714D01*
X87566666Y-72096666D01*
X87590476Y-72001428D01*
X87614285Y-71953809D01*
X87638095Y-71930000D01*
X87685714Y-71906190D01*
X88328571Y-72406190D02*
X88042857Y-72406190D01*
X88185714Y-72406190D02*
X88185714Y-71906190D01*
X88138095Y-71977619D01*
X88090476Y-72025238D01*
X88042857Y-72049047D01*
X88566666Y-72406190D02*
X88661904Y-72406190D01*
X88709523Y-72382380D01*
X88733333Y-72358571D01*
X88780952Y-72287142D01*
X88804761Y-72191904D01*
X88804761Y-72001428D01*
X88780952Y-71953809D01*
X88757142Y-71930000D01*
X88709523Y-71906190D01*
X88614285Y-71906190D01*
X88566666Y-71930000D01*
X88542857Y-71953809D01*
X88519047Y-72001428D01*
X88519047Y-72120476D01*
X88542857Y-72168095D01*
X88566666Y-72191904D01*
X88614285Y-72215714D01*
X88709523Y-72215714D01*
X88757142Y-72191904D01*
X88780952Y-72168095D01*
X88804761Y-72120476D01*
X89114285Y-71906190D02*
X89161904Y-71906190D01*
X89209523Y-71930000D01*
X89233333Y-71953809D01*
X89257142Y-72001428D01*
X89280952Y-72096666D01*
X89280952Y-72215714D01*
X89257142Y-72310952D01*
X89233333Y-72358571D01*
X89209523Y-72382380D01*
X89161904Y-72406190D01*
X89114285Y-72406190D01*
X89066666Y-72382380D01*
X89042857Y-72358571D01*
X89019047Y-72310952D01*
X88995238Y-72215714D01*
X88995238Y-72096666D01*
X89019047Y-72001428D01*
X89042857Y-71953809D01*
X89066666Y-71930000D01*
X89114285Y-71906190D01*
X89709523Y-72072857D02*
X89709523Y-72406190D01*
X89590476Y-71882380D02*
X89471428Y-72239523D01*
X89780952Y-72239523D01*
X89947619Y-71953809D02*
X89971428Y-71930000D01*
X90019047Y-71906190D01*
X90138095Y-71906190D01*
X90185714Y-71930000D01*
X90209523Y-71953809D01*
X90233333Y-72001428D01*
X90233333Y-72049047D01*
X90209523Y-72120476D01*
X89923809Y-72406190D01*
X90233333Y-72406190D01*
X90685714Y-71906190D02*
X90447619Y-71906190D01*
X90423809Y-72144285D01*
X90447619Y-72120476D01*
X90495238Y-72096666D01*
X90614285Y-72096666D01*
X90661904Y-72120476D01*
X90685714Y-72144285D01*
X90709523Y-72191904D01*
X90709523Y-72310952D01*
X90685714Y-72358571D01*
X90661904Y-72382380D01*
X90614285Y-72406190D01*
X90495238Y-72406190D01*
X90447619Y-72382380D01*
X90423809Y-72358571D01*
D11*
X66522600Y-55295800D02*
X65989200Y-54737000D01*
X59242000Y-66234000D02*
X56582000Y-66234000D01*
X59242000Y-68834000D02*
X59242000Y-66234000D01*
X56582000Y-68834000D02*
X56582000Y-66234000D01*
X59242000Y-68834000D02*
X56582000Y-68834000D01*
X59242000Y-70104000D02*
X59242000Y-71434000D01*
X59242000Y-71434000D02*
X57912000Y-71434000D01*
X62310000Y-46355000D02*
G75*
G03X62310000Y-46355000I-5120000J0D01*
G01*
X57190000Y-51435000D02*
X57190000Y-41275000D01*
X57150000Y-51435000D02*
X57150000Y-41275000D01*
X57110000Y-51435000D02*
X57110000Y-41275000D01*
X57070000Y-51434000D02*
X57070000Y-41276000D01*
X57030000Y-51433000D02*
X57030000Y-41277000D01*
X56990000Y-51432000D02*
X56990000Y-41278000D01*
X56950000Y-51430000D02*
X56950000Y-41280000D01*
X56910000Y-51428000D02*
X56910000Y-41282000D01*
X56870000Y-51425000D02*
X56870000Y-41285000D01*
X56830000Y-51423000D02*
X56830000Y-41287000D01*
X56790000Y-51420000D02*
X56790000Y-41290000D01*
X56750000Y-51417000D02*
X56750000Y-41293000D01*
X56710000Y-51413000D02*
X56710000Y-41297000D01*
X56670000Y-51409000D02*
X56670000Y-41301000D01*
X56630000Y-51405000D02*
X56630000Y-41305000D01*
X56590000Y-51400000D02*
X56590000Y-41310000D01*
X56550000Y-51395000D02*
X56550000Y-41315000D01*
X56510000Y-51390000D02*
X56510000Y-41320000D01*
X56469000Y-51385000D02*
X56469000Y-41325000D01*
X56429000Y-51379000D02*
X56429000Y-41331000D01*
X56389000Y-51373000D02*
X56389000Y-41337000D01*
X56349000Y-51366000D02*
X56349000Y-41344000D01*
X56309000Y-51359000D02*
X56309000Y-41351000D01*
X56269000Y-51352000D02*
X56269000Y-41358000D01*
X56229000Y-51345000D02*
X56229000Y-41365000D01*
X56189000Y-51337000D02*
X56189000Y-41373000D01*
X56149000Y-51329000D02*
X56149000Y-41381000D01*
X56109000Y-51320000D02*
X56109000Y-41390000D01*
X56069000Y-51311000D02*
X56069000Y-41399000D01*
X56029000Y-51302000D02*
X56029000Y-41408000D01*
X55989000Y-51293000D02*
X55989000Y-41417000D01*
X55949000Y-51283000D02*
X55949000Y-41427000D01*
X55909000Y-51273000D02*
X55909000Y-47596000D01*
X55909000Y-45114000D02*
X55909000Y-41437000D01*
X55869000Y-51262000D02*
X55869000Y-47596000D01*
X55869000Y-45114000D02*
X55869000Y-41448000D01*
X55829000Y-51252000D02*
X55829000Y-47596000D01*
X55829000Y-45114000D02*
X55829000Y-41458000D01*
X55789000Y-51240000D02*
X55789000Y-47596000D01*
X55789000Y-45114000D02*
X55789000Y-41470000D01*
X55749000Y-51229000D02*
X55749000Y-47596000D01*
X55749000Y-45114000D02*
X55749000Y-41481000D01*
X55709000Y-51217000D02*
X55709000Y-47596000D01*
X55709000Y-45114000D02*
X55709000Y-41493000D01*
X55669000Y-51205000D02*
X55669000Y-47596000D01*
X55669000Y-45114000D02*
X55669000Y-41505000D01*
X55629000Y-51192000D02*
X55629000Y-47596000D01*
X55629000Y-45114000D02*
X55629000Y-41518000D01*
X55589000Y-51179000D02*
X55589000Y-47596000D01*
X55589000Y-45114000D02*
X55589000Y-41531000D01*
X55549000Y-51166000D02*
X55549000Y-47596000D01*
X55549000Y-45114000D02*
X55549000Y-41544000D01*
X55509000Y-51152000D02*
X55509000Y-47596000D01*
X55509000Y-45114000D02*
X55509000Y-41558000D01*
X55469000Y-51138000D02*
X55469000Y-47596000D01*
X55469000Y-45114000D02*
X55469000Y-41572000D01*
X55429000Y-51123000D02*
X55429000Y-47596000D01*
X55429000Y-45114000D02*
X55429000Y-41587000D01*
X55389000Y-51109000D02*
X55389000Y-47596000D01*
X55389000Y-45114000D02*
X55389000Y-41601000D01*
X55349000Y-51093000D02*
X55349000Y-47596000D01*
X55349000Y-45114000D02*
X55349000Y-41617000D01*
X55309000Y-51078000D02*
X55309000Y-47596000D01*
X55309000Y-45114000D02*
X55309000Y-41632000D01*
X55269000Y-51062000D02*
X55269000Y-47596000D01*
X55269000Y-45114000D02*
X55269000Y-41648000D01*
X55229000Y-51045000D02*
X55229000Y-47596000D01*
X55229000Y-45114000D02*
X55229000Y-41665000D01*
X55189000Y-51029000D02*
X55189000Y-47596000D01*
X55189000Y-45114000D02*
X55189000Y-41681000D01*
X55149000Y-51012000D02*
X55149000Y-47596000D01*
X55149000Y-45114000D02*
X55149000Y-41698000D01*
X55109000Y-50994000D02*
X55109000Y-47596000D01*
X55109000Y-45114000D02*
X55109000Y-41716000D01*
X55069000Y-50976000D02*
X55069000Y-47596000D01*
X55069000Y-45114000D02*
X55069000Y-41734000D01*
X55029000Y-50958000D02*
X55029000Y-47596000D01*
X55029000Y-45114000D02*
X55029000Y-41752000D01*
X54989000Y-50939000D02*
X54989000Y-47596000D01*
X54989000Y-45114000D02*
X54989000Y-41771000D01*
X54949000Y-50919000D02*
X54949000Y-47596000D01*
X54949000Y-45114000D02*
X54949000Y-41791000D01*
X54909000Y-50900000D02*
X54909000Y-47596000D01*
X54909000Y-45114000D02*
X54909000Y-41810000D01*
X54869000Y-50880000D02*
X54869000Y-47596000D01*
X54869000Y-45114000D02*
X54869000Y-41830000D01*
X54829000Y-50859000D02*
X54829000Y-47596000D01*
X54829000Y-45114000D02*
X54829000Y-41851000D01*
X54789000Y-50838000D02*
X54789000Y-47596000D01*
X54789000Y-45114000D02*
X54789000Y-41872000D01*
X54749000Y-50817000D02*
X54749000Y-47596000D01*
X54749000Y-45114000D02*
X54749000Y-41893000D01*
X54709000Y-50795000D02*
X54709000Y-47596000D01*
X54709000Y-45114000D02*
X54709000Y-41915000D01*
X54669000Y-50772000D02*
X54669000Y-47596000D01*
X54669000Y-45114000D02*
X54669000Y-41938000D01*
X54629000Y-50750000D02*
X54629000Y-47596000D01*
X54629000Y-45114000D02*
X54629000Y-41960000D01*
X54589000Y-50726000D02*
X54589000Y-47596000D01*
X54589000Y-45114000D02*
X54589000Y-41984000D01*
X54549000Y-50702000D02*
X54549000Y-47596000D01*
X54549000Y-45114000D02*
X54549000Y-42008000D01*
X54509000Y-50678000D02*
X54509000Y-47596000D01*
X54509000Y-45114000D02*
X54509000Y-42032000D01*
X54469000Y-50653000D02*
X54469000Y-47596000D01*
X54469000Y-45114000D02*
X54469000Y-42057000D01*
X54429000Y-50628000D02*
X54429000Y-47596000D01*
X54429000Y-45114000D02*
X54429000Y-42082000D01*
X54389000Y-50602000D02*
X54389000Y-47596000D01*
X54389000Y-45114000D02*
X54389000Y-42108000D01*
X54349000Y-50576000D02*
X54349000Y-47596000D01*
X54349000Y-45114000D02*
X54349000Y-42134000D01*
X54309000Y-50549000D02*
X54309000Y-47596000D01*
X54309000Y-45114000D02*
X54309000Y-42161000D01*
X54269000Y-50521000D02*
X54269000Y-47596000D01*
X54269000Y-45114000D02*
X54269000Y-42189000D01*
X54229000Y-50493000D02*
X54229000Y-47596000D01*
X54229000Y-45114000D02*
X54229000Y-42217000D01*
X54189000Y-50465000D02*
X54189000Y-47596000D01*
X54189000Y-45114000D02*
X54189000Y-42245000D01*
X54149000Y-50435000D02*
X54149000Y-47596000D01*
X54149000Y-45114000D02*
X54149000Y-42275000D01*
X54109000Y-50405000D02*
X54109000Y-47596000D01*
X54109000Y-45114000D02*
X54109000Y-42305000D01*
X54069000Y-50375000D02*
X54069000Y-47596000D01*
X54069000Y-45114000D02*
X54069000Y-42335000D01*
X54029000Y-50344000D02*
X54029000Y-47596000D01*
X54029000Y-45114000D02*
X54029000Y-42366000D01*
X53989000Y-50312000D02*
X53989000Y-47596000D01*
X53989000Y-45114000D02*
X53989000Y-42398000D01*
X53949000Y-50280000D02*
X53949000Y-47596000D01*
X53949000Y-45114000D02*
X53949000Y-42430000D01*
X53909000Y-50247000D02*
X53909000Y-47596000D01*
X53909000Y-45114000D02*
X53909000Y-42463000D01*
X53869000Y-50213000D02*
X53869000Y-47596000D01*
X53869000Y-45114000D02*
X53869000Y-42497000D01*
X53829000Y-50179000D02*
X53829000Y-47596000D01*
X53829000Y-45114000D02*
X53829000Y-42531000D01*
X53789000Y-50144000D02*
X53789000Y-47596000D01*
X53789000Y-45114000D02*
X53789000Y-42566000D01*
X53749000Y-50108000D02*
X53749000Y-47596000D01*
X53749000Y-45114000D02*
X53749000Y-42602000D01*
X53709000Y-50071000D02*
X53709000Y-47596000D01*
X53709000Y-45114000D02*
X53709000Y-42639000D01*
X53669000Y-50034000D02*
X53669000Y-47596000D01*
X53669000Y-45114000D02*
X53669000Y-42676000D01*
X53629000Y-49995000D02*
X53629000Y-47596000D01*
X53629000Y-45114000D02*
X53629000Y-42715000D01*
X53589000Y-49956000D02*
X53589000Y-47596000D01*
X53589000Y-45114000D02*
X53589000Y-42754000D01*
X53549000Y-49916000D02*
X53549000Y-47596000D01*
X53549000Y-45114000D02*
X53549000Y-42794000D01*
X53509000Y-49875000D02*
X53509000Y-47596000D01*
X53509000Y-45114000D02*
X53509000Y-42835000D01*
X53469000Y-49833000D02*
X53469000Y-47596000D01*
X53469000Y-45114000D02*
X53469000Y-42877000D01*
X53429000Y-49791000D02*
X53429000Y-42919000D01*
X53389000Y-49747000D02*
X53389000Y-42963000D01*
X53349000Y-49702000D02*
X53349000Y-43008000D01*
X53309000Y-49656000D02*
X53309000Y-43054000D01*
X53269000Y-49609000D02*
X53269000Y-43101000D01*
X53229000Y-49561000D02*
X53229000Y-43149000D01*
X53189000Y-49511000D02*
X53189000Y-43199000D01*
X53149000Y-49461000D02*
X53149000Y-43249000D01*
X53109000Y-49409000D02*
X53109000Y-43301000D01*
X53069000Y-49355000D02*
X53069000Y-43355000D01*
X53029000Y-49300000D02*
X53029000Y-43410000D01*
X52989000Y-49244000D02*
X52989000Y-43466000D01*
X52949000Y-49185000D02*
X52949000Y-43525000D01*
X52909000Y-49125000D02*
X52909000Y-43585000D01*
X52869000Y-49064000D02*
X52869000Y-43646000D01*
X52829000Y-49000000D02*
X52829000Y-43710000D01*
X52789000Y-48934000D02*
X52789000Y-43776000D01*
X52749000Y-48865000D02*
X52749000Y-43845000D01*
X52709000Y-48794000D02*
X52709000Y-43916000D01*
X52669000Y-48720000D02*
X52669000Y-43990000D01*
X52629000Y-48644000D02*
X52629000Y-44066000D01*
X52589000Y-48564000D02*
X52589000Y-44146000D01*
X52549000Y-48480000D02*
X52549000Y-44230000D01*
X52509000Y-48392000D02*
X52509000Y-44318000D01*
X52469000Y-48299000D02*
X52469000Y-44411000D01*
X52429000Y-48201000D02*
X52429000Y-44509000D01*
X52389000Y-48097000D02*
X52389000Y-44613000D01*
X52349000Y-47985000D02*
X52349000Y-44725000D01*
X52309000Y-47865000D02*
X52309000Y-44845000D01*
X52269000Y-47733000D02*
X52269000Y-44977000D01*
X52229000Y-47585000D02*
X52229000Y-45125000D01*
X52189000Y-47417000D02*
X52189000Y-45293000D01*
X52149000Y-47217000D02*
X52149000Y-45493000D01*
X52109000Y-46954000D02*
X52109000Y-45756000D01*
X62669646Y-49230000D02*
X61669646Y-49230000D01*
X62169646Y-49730000D02*
X62169646Y-48730000D01*
X68759000Y-52824748D02*
X68759000Y-53347252D01*
X70179000Y-52824748D02*
X70179000Y-53347252D01*
X68020000Y-52824748D02*
X68020000Y-53347252D01*
X66600000Y-52824748D02*
X66600000Y-53347252D01*
X62060000Y-28635000D02*
X62060000Y-27585000D01*
X61010000Y-27585000D02*
X62060000Y-27585000D01*
X55960000Y-36985000D02*
X47160000Y-36985000D01*
X47160000Y-36985000D02*
X47160000Y-27785000D01*
X61860000Y-34285000D02*
X61860000Y-36985000D01*
X61860000Y-36985000D02*
X59960000Y-36985000D01*
X47160000Y-27785000D02*
X61860000Y-27785000D01*
X61860000Y-27785000D02*
X61860000Y-30385000D01*
X61860000Y-52550000D02*
X61860000Y-55150000D01*
X47160000Y-52550000D02*
X61860000Y-52550000D01*
X61860000Y-61750000D02*
X59960000Y-61750000D01*
X61860000Y-59050000D02*
X61860000Y-61750000D01*
X47160000Y-61750000D02*
X47160000Y-52550000D01*
X55960000Y-61750000D02*
X47160000Y-61750000D01*
X61010000Y-52350000D02*
X62060000Y-52350000D01*
X62060000Y-53400000D02*
X62060000Y-52350000D01*
X71942000Y-61782000D02*
X70612000Y-61782000D01*
X71942000Y-60452000D02*
X71942000Y-61782000D01*
X69342000Y-61782000D02*
X66742000Y-61782000D01*
X69342000Y-59182000D02*
X69342000Y-61782000D01*
X71942000Y-59182000D02*
X69342000Y-59182000D01*
X66742000Y-61782000D02*
X66742000Y-56582000D01*
X71942000Y-59182000D02*
X71942000Y-56582000D01*
X71942000Y-56582000D02*
X66742000Y-56582000D01*
X93666000Y-26864000D02*
X94996000Y-26864000D01*
X93666000Y-28194000D02*
X93666000Y-26864000D01*
X93666000Y-29464000D02*
X96326000Y-29464000D01*
X96326000Y-29464000D02*
X96326000Y-37144000D01*
X93666000Y-29464000D02*
X93666000Y-37144000D01*
X93666000Y-37144000D02*
X96326000Y-37144000D01*
X67997000Y-41394748D02*
X67997000Y-41917252D01*
X69417000Y-41394748D02*
X69417000Y-41917252D01*
X69417000Y-36568748D02*
X69417000Y-37091252D01*
X67997000Y-36568748D02*
X67997000Y-37091252D01*
X90730000Y-44696748D02*
X90730000Y-45219252D01*
X92150000Y-44696748D02*
X92150000Y-45219252D01*
X92150000Y-50792748D02*
X92150000Y-51315252D01*
X90730000Y-50792748D02*
X90730000Y-51315252D01*
X72144000Y-29282000D02*
X88384000Y-29282000D01*
X88384000Y-29282000D02*
X88384000Y-36902000D01*
X88384000Y-52902000D02*
X88384000Y-53522000D01*
X88384000Y-53522000D02*
X86264000Y-53522000D01*
X74264000Y-53522000D02*
X72144000Y-53522000D01*
X72144000Y-53522000D02*
X72144000Y-52902000D01*
X72144000Y-36902000D02*
X72144000Y-29282000D01*
X72144000Y-36902000D02*
X71534000Y-36902000D01*
X92770000Y-64068000D02*
X92770000Y-58868000D01*
X82550000Y-64068000D02*
X92770000Y-64068000D01*
X79950000Y-58868000D02*
X92770000Y-58868000D01*
X82550000Y-64068000D02*
X82550000Y-61468000D01*
X82550000Y-61468000D02*
X79950000Y-61468000D01*
X79950000Y-61468000D02*
X79950000Y-58868000D01*
X81280000Y-64068000D02*
X79950000Y-64068000D01*
X79950000Y-64068000D02*
X79950000Y-62738000D01*
D12*
X60880666Y-68540380D02*
X60880666Y-69254666D01*
X60833047Y-69397523D01*
X60737809Y-69492761D01*
X60594952Y-69540380D01*
X60499714Y-69540380D01*
X61785428Y-68540380D02*
X61594952Y-68540380D01*
X61499714Y-68588000D01*
X61452095Y-68635619D01*
X61356857Y-68778476D01*
X61309238Y-68968952D01*
X61309238Y-69349904D01*
X61356857Y-69445142D01*
X61404476Y-69492761D01*
X61499714Y-69540380D01*
X61690190Y-69540380D01*
X61785428Y-69492761D01*
X61833047Y-69445142D01*
X61880666Y-69349904D01*
X61880666Y-69111809D01*
X61833047Y-69016571D01*
X61785428Y-68968952D01*
X61690190Y-68921333D01*
X61499714Y-68921333D01*
X61404476Y-68968952D01*
X61356857Y-69016571D01*
X61309238Y-69111809D01*
X64095333Y-48363142D02*
X64047714Y-48410761D01*
X63904857Y-48458380D01*
X63809619Y-48458380D01*
X63666761Y-48410761D01*
X63571523Y-48315523D01*
X63523904Y-48220285D01*
X63476285Y-48029809D01*
X63476285Y-47886952D01*
X63523904Y-47696476D01*
X63571523Y-47601238D01*
X63666761Y-47506000D01*
X63809619Y-47458380D01*
X63904857Y-47458380D01*
X64047714Y-47506000D01*
X64095333Y-47553619D01*
X64476285Y-47553619D02*
X64523904Y-47506000D01*
X64619142Y-47458380D01*
X64857238Y-47458380D01*
X64952476Y-47506000D01*
X65000095Y-47553619D01*
X65047714Y-47648857D01*
X65047714Y-47744095D01*
X65000095Y-47886952D01*
X64428666Y-48458380D01*
X65047714Y-48458380D01*
X72112142Y-55411666D02*
X72159761Y-55459285D01*
X72207380Y-55602142D01*
X72207380Y-55697380D01*
X72159761Y-55840238D01*
X72064523Y-55935476D01*
X71969285Y-55983095D01*
X71778809Y-56030714D01*
X71635952Y-56030714D01*
X71445476Y-55983095D01*
X71350238Y-55935476D01*
X71255000Y-55840238D01*
X71207380Y-55697380D01*
X71207380Y-55602142D01*
X71255000Y-55459285D01*
X71302619Y-55411666D01*
X71207380Y-55078333D02*
X71207380Y-54459285D01*
X71588333Y-54792619D01*
X71588333Y-54649761D01*
X71635952Y-54554523D01*
X71683571Y-54506904D01*
X71778809Y-54459285D01*
X72016904Y-54459285D01*
X72112142Y-54506904D01*
X72159761Y-54554523D01*
X72207380Y-54649761D01*
X72207380Y-54935476D01*
X72159761Y-55030714D01*
X72112142Y-55078333D01*
X65127142Y-53506666D02*
X65174761Y-53554285D01*
X65222380Y-53697142D01*
X65222380Y-53792380D01*
X65174761Y-53935238D01*
X65079523Y-54030476D01*
X64984285Y-54078095D01*
X64793809Y-54125714D01*
X64650952Y-54125714D01*
X64460476Y-54078095D01*
X64365238Y-54030476D01*
X64270000Y-53935238D01*
X64222380Y-53792380D01*
X64222380Y-53697142D01*
X64270000Y-53554285D01*
X64317619Y-53506666D01*
X64222380Y-52649523D02*
X64222380Y-52840000D01*
X64270000Y-52935238D01*
X64317619Y-52982857D01*
X64460476Y-53078095D01*
X64650952Y-53125714D01*
X65031904Y-53125714D01*
X65127142Y-53078095D01*
X65174761Y-53030476D01*
X65222380Y-52935238D01*
X65222380Y-52744761D01*
X65174761Y-52649523D01*
X65127142Y-52601904D01*
X65031904Y-52554285D01*
X64793809Y-52554285D01*
X64698571Y-52601904D01*
X64650952Y-52649523D01*
X64603333Y-52744761D01*
X64603333Y-52935238D01*
X64650952Y-53030476D01*
X64698571Y-53078095D01*
X64793809Y-53125714D01*
X52176666Y-38060380D02*
X52176666Y-38774666D01*
X52129047Y-38917523D01*
X52033809Y-39012761D01*
X51890952Y-39060380D01*
X51795714Y-39060380D01*
X53176666Y-39060380D02*
X52605238Y-39060380D01*
X52890952Y-39060380D02*
X52890952Y-38060380D01*
X52795714Y-38203238D01*
X52700476Y-38298476D01*
X52605238Y-38346095D01*
X52498666Y-62952380D02*
X52498666Y-63666666D01*
X52451047Y-63809523D01*
X52355809Y-63904761D01*
X52212952Y-63952380D01*
X52117714Y-63952380D01*
X52927238Y-63047619D02*
X52974857Y-63000000D01*
X53070095Y-62952380D01*
X53308190Y-62952380D01*
X53403428Y-63000000D01*
X53451047Y-63047619D01*
X53498666Y-63142857D01*
X53498666Y-63238095D01*
X53451047Y-63380952D01*
X52879619Y-63952380D01*
X53498666Y-63952380D01*
X69008666Y-62698380D02*
X69008666Y-63412666D01*
X68961047Y-63555523D01*
X68865809Y-63650761D01*
X68722952Y-63698380D01*
X68627714Y-63698380D01*
X69389619Y-62698380D02*
X70008666Y-62698380D01*
X69675333Y-63079333D01*
X69818190Y-63079333D01*
X69913428Y-63126952D01*
X69961047Y-63174571D01*
X70008666Y-63269809D01*
X70008666Y-63507904D01*
X69961047Y-63603142D01*
X69913428Y-63650761D01*
X69818190Y-63698380D01*
X69532476Y-63698380D01*
X69437238Y-63650761D01*
X69389619Y-63603142D01*
X94408666Y-38314380D02*
X94408666Y-39028666D01*
X94361047Y-39171523D01*
X94265809Y-39266761D01*
X94122952Y-39314380D01*
X94027714Y-39314380D01*
X95313428Y-38647714D02*
X95313428Y-39314380D01*
X95075333Y-38266761D02*
X94837238Y-38981047D01*
X95456285Y-38981047D01*
X66492380Y-41568666D02*
X66016190Y-41902000D01*
X66492380Y-42140095D02*
X65492380Y-42140095D01*
X65492380Y-41759142D01*
X65540000Y-41663904D01*
X65587619Y-41616285D01*
X65682857Y-41568666D01*
X65825714Y-41568666D01*
X65920952Y-41616285D01*
X65968571Y-41663904D01*
X66016190Y-41759142D01*
X66016190Y-42140095D01*
X66492380Y-40616285D02*
X66492380Y-41187714D01*
X66492380Y-40902000D02*
X65492380Y-40902000D01*
X65635238Y-40997238D01*
X65730476Y-41092476D01*
X65778095Y-41187714D01*
X66619380Y-36996666D02*
X66143190Y-37330000D01*
X66619380Y-37568095D02*
X65619380Y-37568095D01*
X65619380Y-37187142D01*
X65667000Y-37091904D01*
X65714619Y-37044285D01*
X65809857Y-36996666D01*
X65952714Y-36996666D01*
X66047952Y-37044285D01*
X66095571Y-37091904D01*
X66143190Y-37187142D01*
X66143190Y-37568095D01*
X65619380Y-36663333D02*
X65619380Y-36044285D01*
X66000333Y-36377619D01*
X66000333Y-36234761D01*
X66047952Y-36139523D01*
X66095571Y-36091904D01*
X66190809Y-36044285D01*
X66428904Y-36044285D01*
X66524142Y-36091904D01*
X66571761Y-36139523D01*
X66619380Y-36234761D01*
X66619380Y-36520476D01*
X66571761Y-36615714D01*
X66524142Y-36663333D01*
X93924380Y-45124666D02*
X93448190Y-45458000D01*
X93924380Y-45696095D02*
X92924380Y-45696095D01*
X92924380Y-45315142D01*
X92972000Y-45219904D01*
X93019619Y-45172285D01*
X93114857Y-45124666D01*
X93257714Y-45124666D01*
X93352952Y-45172285D01*
X93400571Y-45219904D01*
X93448190Y-45315142D01*
X93448190Y-45696095D01*
X92924380Y-44219904D02*
X92924380Y-44696095D01*
X93400571Y-44743714D01*
X93352952Y-44696095D01*
X93305333Y-44600857D01*
X93305333Y-44362761D01*
X93352952Y-44267523D01*
X93400571Y-44219904D01*
X93495809Y-44172285D01*
X93733904Y-44172285D01*
X93829142Y-44219904D01*
X93876761Y-44267523D01*
X93924380Y-44362761D01*
X93924380Y-44600857D01*
X93876761Y-44696095D01*
X93829142Y-44743714D01*
X93924380Y-51220666D02*
X93448190Y-51554000D01*
X93924380Y-51792095D02*
X92924380Y-51792095D01*
X92924380Y-51411142D01*
X92972000Y-51315904D01*
X93019619Y-51268285D01*
X93114857Y-51220666D01*
X93257714Y-51220666D01*
X93352952Y-51268285D01*
X93400571Y-51315904D01*
X93448190Y-51411142D01*
X93448190Y-51792095D01*
X92924380Y-50363523D02*
X92924380Y-50554000D01*
X92972000Y-50649238D01*
X93019619Y-50696857D01*
X93162476Y-50792095D01*
X93352952Y-50839714D01*
X93733904Y-50839714D01*
X93829142Y-50792095D01*
X93876761Y-50744476D01*
X93924380Y-50649238D01*
X93924380Y-50458761D01*
X93876761Y-50363523D01*
X93829142Y-50315904D01*
X93733904Y-50268285D01*
X93495809Y-50268285D01*
X93400571Y-50315904D01*
X93352952Y-50363523D01*
X93305333Y-50458761D01*
X93305333Y-50649238D01*
X93352952Y-50744476D01*
X93400571Y-50792095D01*
X93495809Y-50839714D01*
X73152095Y-26884380D02*
X73152095Y-27693904D01*
X73199714Y-27789142D01*
X73247333Y-27836761D01*
X73342571Y-27884380D01*
X73533047Y-27884380D01*
X73628285Y-27836761D01*
X73675904Y-27789142D01*
X73723523Y-27693904D01*
X73723523Y-26884380D01*
X74152095Y-26979619D02*
X74199714Y-26932000D01*
X74294952Y-26884380D01*
X74533047Y-26884380D01*
X74628285Y-26932000D01*
X74675904Y-26979619D01*
X74723523Y-27074857D01*
X74723523Y-27170095D01*
X74675904Y-27312952D01*
X74104476Y-27884380D01*
X74723523Y-27884380D01*
X77938380Y-61801333D02*
X78652666Y-61801333D01*
X78795523Y-61848952D01*
X78890761Y-61944190D01*
X78938380Y-62087047D01*
X78938380Y-62182285D01*
X77938380Y-60848952D02*
X77938380Y-61325142D01*
X78414571Y-61372761D01*
X78366952Y-61325142D01*
X78319333Y-61229904D01*
X78319333Y-60991809D01*
X78366952Y-60896571D01*
X78414571Y-60848952D01*
X78509809Y-60801333D01*
X78747904Y-60801333D01*
X78843142Y-60848952D01*
X78890761Y-60896571D01*
X78938380Y-60991809D01*
X78938380Y-61229904D01*
X78890761Y-61325142D01*
X78843142Y-61372761D01*
M02*
