M48
; DRILL file {KiCad (5.1.0-0)} date 2019 April 25, Thursday 22:15:43
; FORMAT={-:-/ absolute / inch / decimal}
; #@! TF.CreationDate,2019-04-25T22:15:43+08:00
; #@! TF.GenerationSoftware,Kicad,Pcbnew,(5.1.0-0)
; #@! TF.FileFunction,Plated,1,2,PTH
FMAT,2
INCH
T1C0.0157
T2C0.0394
T3C0.0591
T4C0.1378
%
G90
G05
T1
X2.2455Y-1.1205
X2.325Y-1.1
X2.421Y-1.1
X2.5Y-1.1
X2.6004Y-2.1304
X2.65Y-1.97
X2.7Y-1.33
X2.8648Y-2.8352
X3.05Y-1.73
X3.1Y-2.0
X3.1Y-2.2
X3.1Y-2.825
X3.17Y-1.6
X3.23Y-2.19
X3.33Y-1.75
X3.55Y-1.41
X3.6Y-2.125
X3.6Y-2.19
X3.64Y-1.41
X3.66Y-1.73
X3.68Y-2.18
X3.72Y-2.13
X3.79Y-2.52
T2
X3.2Y-2.37
X3.2Y-2.47
X3.3Y-2.37
X3.3Y-2.47
X3.4Y-2.37
X3.4Y-2.47
X3.5Y-2.37
X3.5Y-2.47
X3.6Y-2.37
X3.6Y-2.47
X2.28Y-2.66
X2.68Y-2.28
X2.68Y-2.38
X2.78Y-2.28
X2.78Y-2.38
X3.74Y-1.11
X3.74Y-1.21
X3.74Y-1.31
X3.74Y-1.41
X2.1531Y-1.825
X2.35Y-1.825
X2.28Y-2.76
T3
X2.62Y-1.1
X3.12Y-1.44
T4
X3.725Y-2.725
T2
G00X2.1638Y-1.2356
M15
G01X2.1638Y-1.3144
M16
G05
G00X2.2425Y-1.46
M15
G01X2.3213Y-1.46
M16
G05
G00X2.4Y-1.2356
M15
G01X2.4Y-1.3144
M16
G05
G00X2.1638Y-2.2106
M15
G01X2.1638Y-2.2894
M16
G05
G00X2.2425Y-2.435
M15
G01X2.3213Y-2.435
M16
G05
G00X2.4Y-2.2106
M15
G01X2.4Y-2.2894
M16
G05
T0
M30
