G04 #@! TF.GenerationSoftware,KiCad,Pcbnew,(5.1.0-0)*
G04 #@! TF.CreationDate,2019-04-25T22:15:39+08:00*
G04 #@! TF.ProjectId,ws2812b,77733238-3132-4622-9e6b-696361645f70,rev?*
G04 #@! TF.SameCoordinates,Original*
G04 #@! TF.FileFunction,Copper,L1,Top*
G04 #@! TF.FilePolarity,Positive*
%FSLAX46Y46*%
G04 Gerber Fmt 4.6, Leading zero omitted, Abs format (unit mm)*
G04 Created by KiCad (PCBNEW (5.1.0-0)) date 2019-04-25 22:15:39*
%MOMM*%
%LPD*%
G04 APERTURE LIST*
%ADD10R,1.700000X1.700000*%
%ADD11O,1.700000X1.700000*%
%ADD12R,2.000000X2.000000*%
%ADD13C,2.000000*%
%ADD14C,0.100000*%
%ADD15C,1.150000*%
%ADD16R,3.500000X3.500000*%
%ADD17C,3.000000*%
%ADD18C,3.500000*%
%ADD19R,2.500000X1.000000*%
%ADD20R,1.000000X1.800000*%
%ADD21C,5.000000*%
%ADD22C,0.800000*%
%ADD23C,0.254000*%
%ADD24C,0.508000*%
%ADD25C,1.524000*%
%ADD26C,2.032000*%
G04 APERTURE END LIST*
D10*
X57912000Y-70104000D03*
D11*
X57912000Y-67564000D03*
D12*
X59690000Y-46355000D03*
D13*
X54690000Y-46355000D03*
D14*
G36*
X69943505Y-53537204D02*
G01*
X69967773Y-53540804D01*
X69991572Y-53546765D01*
X70014671Y-53555030D01*
X70036850Y-53565520D01*
X70057893Y-53578132D01*
X70077599Y-53592747D01*
X70095777Y-53609223D01*
X70112253Y-53627401D01*
X70126868Y-53647107D01*
X70139480Y-53668150D01*
X70149970Y-53690329D01*
X70158235Y-53713428D01*
X70164196Y-53737227D01*
X70167796Y-53761495D01*
X70169000Y-53785999D01*
X70169000Y-54436001D01*
X70167796Y-54460505D01*
X70164196Y-54484773D01*
X70158235Y-54508572D01*
X70149970Y-54531671D01*
X70139480Y-54553850D01*
X70126868Y-54574893D01*
X70112253Y-54594599D01*
X70095777Y-54612777D01*
X70077599Y-54629253D01*
X70057893Y-54643868D01*
X70036850Y-54656480D01*
X70014671Y-54666970D01*
X69991572Y-54675235D01*
X69967773Y-54681196D01*
X69943505Y-54684796D01*
X69919001Y-54686000D01*
X69018999Y-54686000D01*
X68994495Y-54684796D01*
X68970227Y-54681196D01*
X68946428Y-54675235D01*
X68923329Y-54666970D01*
X68901150Y-54656480D01*
X68880107Y-54643868D01*
X68860401Y-54629253D01*
X68842223Y-54612777D01*
X68825747Y-54594599D01*
X68811132Y-54574893D01*
X68798520Y-54553850D01*
X68788030Y-54531671D01*
X68779765Y-54508572D01*
X68773804Y-54484773D01*
X68770204Y-54460505D01*
X68769000Y-54436001D01*
X68769000Y-53785999D01*
X68770204Y-53761495D01*
X68773804Y-53737227D01*
X68779765Y-53713428D01*
X68788030Y-53690329D01*
X68798520Y-53668150D01*
X68811132Y-53647107D01*
X68825747Y-53627401D01*
X68842223Y-53609223D01*
X68860401Y-53592747D01*
X68880107Y-53578132D01*
X68901150Y-53565520D01*
X68923329Y-53555030D01*
X68946428Y-53546765D01*
X68970227Y-53540804D01*
X68994495Y-53537204D01*
X69018999Y-53536000D01*
X69919001Y-53536000D01*
X69943505Y-53537204D01*
X69943505Y-53537204D01*
G37*
D15*
X69469000Y-54111000D03*
D14*
G36*
X69943505Y-51487204D02*
G01*
X69967773Y-51490804D01*
X69991572Y-51496765D01*
X70014671Y-51505030D01*
X70036850Y-51515520D01*
X70057893Y-51528132D01*
X70077599Y-51542747D01*
X70095777Y-51559223D01*
X70112253Y-51577401D01*
X70126868Y-51597107D01*
X70139480Y-51618150D01*
X70149970Y-51640329D01*
X70158235Y-51663428D01*
X70164196Y-51687227D01*
X70167796Y-51711495D01*
X70169000Y-51735999D01*
X70169000Y-52386001D01*
X70167796Y-52410505D01*
X70164196Y-52434773D01*
X70158235Y-52458572D01*
X70149970Y-52481671D01*
X70139480Y-52503850D01*
X70126868Y-52524893D01*
X70112253Y-52544599D01*
X70095777Y-52562777D01*
X70077599Y-52579253D01*
X70057893Y-52593868D01*
X70036850Y-52606480D01*
X70014671Y-52616970D01*
X69991572Y-52625235D01*
X69967773Y-52631196D01*
X69943505Y-52634796D01*
X69919001Y-52636000D01*
X69018999Y-52636000D01*
X68994495Y-52634796D01*
X68970227Y-52631196D01*
X68946428Y-52625235D01*
X68923329Y-52616970D01*
X68901150Y-52606480D01*
X68880107Y-52593868D01*
X68860401Y-52579253D01*
X68842223Y-52562777D01*
X68825747Y-52544599D01*
X68811132Y-52524893D01*
X68798520Y-52503850D01*
X68788030Y-52481671D01*
X68779765Y-52458572D01*
X68773804Y-52434773D01*
X68770204Y-52410505D01*
X68769000Y-52386001D01*
X68769000Y-51735999D01*
X68770204Y-51711495D01*
X68773804Y-51687227D01*
X68779765Y-51663428D01*
X68788030Y-51640329D01*
X68798520Y-51618150D01*
X68811132Y-51597107D01*
X68825747Y-51577401D01*
X68842223Y-51559223D01*
X68860401Y-51542747D01*
X68880107Y-51528132D01*
X68901150Y-51515520D01*
X68923329Y-51505030D01*
X68946428Y-51496765D01*
X68970227Y-51490804D01*
X68994495Y-51487204D01*
X69018999Y-51486000D01*
X69919001Y-51486000D01*
X69943505Y-51487204D01*
X69943505Y-51487204D01*
G37*
D15*
X69469000Y-52061000D03*
D14*
G36*
X67784505Y-51487204D02*
G01*
X67808773Y-51490804D01*
X67832572Y-51496765D01*
X67855671Y-51505030D01*
X67877850Y-51515520D01*
X67898893Y-51528132D01*
X67918599Y-51542747D01*
X67936777Y-51559223D01*
X67953253Y-51577401D01*
X67967868Y-51597107D01*
X67980480Y-51618150D01*
X67990970Y-51640329D01*
X67999235Y-51663428D01*
X68005196Y-51687227D01*
X68008796Y-51711495D01*
X68010000Y-51735999D01*
X68010000Y-52386001D01*
X68008796Y-52410505D01*
X68005196Y-52434773D01*
X67999235Y-52458572D01*
X67990970Y-52481671D01*
X67980480Y-52503850D01*
X67967868Y-52524893D01*
X67953253Y-52544599D01*
X67936777Y-52562777D01*
X67918599Y-52579253D01*
X67898893Y-52593868D01*
X67877850Y-52606480D01*
X67855671Y-52616970D01*
X67832572Y-52625235D01*
X67808773Y-52631196D01*
X67784505Y-52634796D01*
X67760001Y-52636000D01*
X66859999Y-52636000D01*
X66835495Y-52634796D01*
X66811227Y-52631196D01*
X66787428Y-52625235D01*
X66764329Y-52616970D01*
X66742150Y-52606480D01*
X66721107Y-52593868D01*
X66701401Y-52579253D01*
X66683223Y-52562777D01*
X66666747Y-52544599D01*
X66652132Y-52524893D01*
X66639520Y-52503850D01*
X66629030Y-52481671D01*
X66620765Y-52458572D01*
X66614804Y-52434773D01*
X66611204Y-52410505D01*
X66610000Y-52386001D01*
X66610000Y-51735999D01*
X66611204Y-51711495D01*
X66614804Y-51687227D01*
X66620765Y-51663428D01*
X66629030Y-51640329D01*
X66639520Y-51618150D01*
X66652132Y-51597107D01*
X66666747Y-51577401D01*
X66683223Y-51559223D01*
X66701401Y-51542747D01*
X66721107Y-51528132D01*
X66742150Y-51515520D01*
X66764329Y-51505030D01*
X66787428Y-51496765D01*
X66811227Y-51490804D01*
X66835495Y-51487204D01*
X66859999Y-51486000D01*
X67760001Y-51486000D01*
X67784505Y-51487204D01*
X67784505Y-51487204D01*
G37*
D15*
X67310000Y-52061000D03*
D14*
G36*
X67784505Y-53537204D02*
G01*
X67808773Y-53540804D01*
X67832572Y-53546765D01*
X67855671Y-53555030D01*
X67877850Y-53565520D01*
X67898893Y-53578132D01*
X67918599Y-53592747D01*
X67936777Y-53609223D01*
X67953253Y-53627401D01*
X67967868Y-53647107D01*
X67980480Y-53668150D01*
X67990970Y-53690329D01*
X67999235Y-53713428D01*
X68005196Y-53737227D01*
X68008796Y-53761495D01*
X68010000Y-53785999D01*
X68010000Y-54436001D01*
X68008796Y-54460505D01*
X68005196Y-54484773D01*
X67999235Y-54508572D01*
X67990970Y-54531671D01*
X67980480Y-54553850D01*
X67967868Y-54574893D01*
X67953253Y-54594599D01*
X67936777Y-54612777D01*
X67918599Y-54629253D01*
X67898893Y-54643868D01*
X67877850Y-54656480D01*
X67855671Y-54666970D01*
X67832572Y-54675235D01*
X67808773Y-54681196D01*
X67784505Y-54684796D01*
X67760001Y-54686000D01*
X66859999Y-54686000D01*
X66835495Y-54684796D01*
X66811227Y-54681196D01*
X66787428Y-54675235D01*
X66764329Y-54666970D01*
X66742150Y-54656480D01*
X66721107Y-54643868D01*
X66701401Y-54629253D01*
X66683223Y-54612777D01*
X66666747Y-54594599D01*
X66652132Y-54574893D01*
X66639520Y-54553850D01*
X66629030Y-54531671D01*
X66620765Y-54508572D01*
X66614804Y-54484773D01*
X66611204Y-54460505D01*
X66610000Y-54436001D01*
X66610000Y-53785999D01*
X66611204Y-53761495D01*
X66614804Y-53737227D01*
X66620765Y-53713428D01*
X66629030Y-53690329D01*
X66639520Y-53668150D01*
X66652132Y-53647107D01*
X66666747Y-53627401D01*
X66683223Y-53609223D01*
X66701401Y-53592747D01*
X66721107Y-53578132D01*
X66742150Y-53565520D01*
X66764329Y-53555030D01*
X66787428Y-53546765D01*
X66811227Y-53540804D01*
X66835495Y-53537204D01*
X66859999Y-53536000D01*
X67760001Y-53536000D01*
X67784505Y-53537204D01*
X67784505Y-53537204D01*
G37*
D15*
X67310000Y-54111000D03*
D16*
X60960000Y-32385000D03*
D14*
G36*
X55783513Y-30638611D02*
G01*
X55856318Y-30649411D01*
X55927714Y-30667295D01*
X55997013Y-30692090D01*
X56063548Y-30723559D01*
X56126678Y-30761398D01*
X56185795Y-30805242D01*
X56240330Y-30854670D01*
X56289758Y-30909205D01*
X56333602Y-30968322D01*
X56371441Y-31031452D01*
X56402910Y-31097987D01*
X56427705Y-31167286D01*
X56445589Y-31238682D01*
X56456389Y-31311487D01*
X56460000Y-31385000D01*
X56460000Y-33385000D01*
X56456389Y-33458513D01*
X56445589Y-33531318D01*
X56427705Y-33602714D01*
X56402910Y-33672013D01*
X56371441Y-33738548D01*
X56333602Y-33801678D01*
X56289758Y-33860795D01*
X56240330Y-33915330D01*
X56185795Y-33964758D01*
X56126678Y-34008602D01*
X56063548Y-34046441D01*
X55997013Y-34077910D01*
X55927714Y-34102705D01*
X55856318Y-34120589D01*
X55783513Y-34131389D01*
X55710000Y-34135000D01*
X54210000Y-34135000D01*
X54136487Y-34131389D01*
X54063682Y-34120589D01*
X53992286Y-34102705D01*
X53922987Y-34077910D01*
X53856452Y-34046441D01*
X53793322Y-34008602D01*
X53734205Y-33964758D01*
X53679670Y-33915330D01*
X53630242Y-33860795D01*
X53586398Y-33801678D01*
X53548559Y-33738548D01*
X53517090Y-33672013D01*
X53492295Y-33602714D01*
X53474411Y-33531318D01*
X53463611Y-33458513D01*
X53460000Y-33385000D01*
X53460000Y-31385000D01*
X53463611Y-31311487D01*
X53474411Y-31238682D01*
X53492295Y-31167286D01*
X53517090Y-31097987D01*
X53548559Y-31031452D01*
X53586398Y-30968322D01*
X53630242Y-30909205D01*
X53679670Y-30854670D01*
X53734205Y-30805242D01*
X53793322Y-30761398D01*
X53856452Y-30723559D01*
X53922987Y-30692090D01*
X53992286Y-30667295D01*
X54063682Y-30649411D01*
X54136487Y-30638611D01*
X54210000Y-30635000D01*
X55710000Y-30635000D01*
X55783513Y-30638611D01*
X55783513Y-30638611D01*
G37*
D17*
X54960000Y-32385000D03*
D14*
G36*
X58920765Y-35339213D02*
G01*
X59005704Y-35351813D01*
X59088999Y-35372677D01*
X59169848Y-35401605D01*
X59247472Y-35438319D01*
X59321124Y-35482464D01*
X59390094Y-35533616D01*
X59453718Y-35591282D01*
X59511384Y-35654906D01*
X59562536Y-35723876D01*
X59606681Y-35797528D01*
X59643395Y-35875152D01*
X59672323Y-35956001D01*
X59693187Y-36039296D01*
X59705787Y-36124235D01*
X59710000Y-36210000D01*
X59710000Y-37960000D01*
X59705787Y-38045765D01*
X59693187Y-38130704D01*
X59672323Y-38213999D01*
X59643395Y-38294848D01*
X59606681Y-38372472D01*
X59562536Y-38446124D01*
X59511384Y-38515094D01*
X59453718Y-38578718D01*
X59390094Y-38636384D01*
X59321124Y-38687536D01*
X59247472Y-38731681D01*
X59169848Y-38768395D01*
X59088999Y-38797323D01*
X59005704Y-38818187D01*
X58920765Y-38830787D01*
X58835000Y-38835000D01*
X57085000Y-38835000D01*
X56999235Y-38830787D01*
X56914296Y-38818187D01*
X56831001Y-38797323D01*
X56750152Y-38768395D01*
X56672528Y-38731681D01*
X56598876Y-38687536D01*
X56529906Y-38636384D01*
X56466282Y-38578718D01*
X56408616Y-38515094D01*
X56357464Y-38446124D01*
X56313319Y-38372472D01*
X56276605Y-38294848D01*
X56247677Y-38213999D01*
X56226813Y-38130704D01*
X56214213Y-38045765D01*
X56210000Y-37960000D01*
X56210000Y-36210000D01*
X56214213Y-36124235D01*
X56226813Y-36039296D01*
X56247677Y-35956001D01*
X56276605Y-35875152D01*
X56313319Y-35797528D01*
X56357464Y-35723876D01*
X56408616Y-35654906D01*
X56466282Y-35591282D01*
X56529906Y-35533616D01*
X56598876Y-35482464D01*
X56672528Y-35438319D01*
X56750152Y-35401605D01*
X56831001Y-35372677D01*
X56914296Y-35351813D01*
X56999235Y-35339213D01*
X57085000Y-35335000D01*
X58835000Y-35335000D01*
X58920765Y-35339213D01*
X58920765Y-35339213D01*
G37*
D18*
X57960000Y-37085000D03*
D14*
G36*
X58920765Y-60104213D02*
G01*
X59005704Y-60116813D01*
X59088999Y-60137677D01*
X59169848Y-60166605D01*
X59247472Y-60203319D01*
X59321124Y-60247464D01*
X59390094Y-60298616D01*
X59453718Y-60356282D01*
X59511384Y-60419906D01*
X59562536Y-60488876D01*
X59606681Y-60562528D01*
X59643395Y-60640152D01*
X59672323Y-60721001D01*
X59693187Y-60804296D01*
X59705787Y-60889235D01*
X59710000Y-60975000D01*
X59710000Y-62725000D01*
X59705787Y-62810765D01*
X59693187Y-62895704D01*
X59672323Y-62978999D01*
X59643395Y-63059848D01*
X59606681Y-63137472D01*
X59562536Y-63211124D01*
X59511384Y-63280094D01*
X59453718Y-63343718D01*
X59390094Y-63401384D01*
X59321124Y-63452536D01*
X59247472Y-63496681D01*
X59169848Y-63533395D01*
X59088999Y-63562323D01*
X59005704Y-63583187D01*
X58920765Y-63595787D01*
X58835000Y-63600000D01*
X57085000Y-63600000D01*
X56999235Y-63595787D01*
X56914296Y-63583187D01*
X56831001Y-63562323D01*
X56750152Y-63533395D01*
X56672528Y-63496681D01*
X56598876Y-63452536D01*
X56529906Y-63401384D01*
X56466282Y-63343718D01*
X56408616Y-63280094D01*
X56357464Y-63211124D01*
X56313319Y-63137472D01*
X56276605Y-63059848D01*
X56247677Y-62978999D01*
X56226813Y-62895704D01*
X56214213Y-62810765D01*
X56210000Y-62725000D01*
X56210000Y-60975000D01*
X56214213Y-60889235D01*
X56226813Y-60804296D01*
X56247677Y-60721001D01*
X56276605Y-60640152D01*
X56313319Y-60562528D01*
X56357464Y-60488876D01*
X56408616Y-60419906D01*
X56466282Y-60356282D01*
X56529906Y-60298616D01*
X56598876Y-60247464D01*
X56672528Y-60203319D01*
X56750152Y-60166605D01*
X56831001Y-60137677D01*
X56914296Y-60116813D01*
X56999235Y-60104213D01*
X57085000Y-60100000D01*
X58835000Y-60100000D01*
X58920765Y-60104213D01*
X58920765Y-60104213D01*
G37*
D18*
X57960000Y-61850000D03*
D14*
G36*
X55783513Y-55403611D02*
G01*
X55856318Y-55414411D01*
X55927714Y-55432295D01*
X55997013Y-55457090D01*
X56063548Y-55488559D01*
X56126678Y-55526398D01*
X56185795Y-55570242D01*
X56240330Y-55619670D01*
X56289758Y-55674205D01*
X56333602Y-55733322D01*
X56371441Y-55796452D01*
X56402910Y-55862987D01*
X56427705Y-55932286D01*
X56445589Y-56003682D01*
X56456389Y-56076487D01*
X56460000Y-56150000D01*
X56460000Y-58150000D01*
X56456389Y-58223513D01*
X56445589Y-58296318D01*
X56427705Y-58367714D01*
X56402910Y-58437013D01*
X56371441Y-58503548D01*
X56333602Y-58566678D01*
X56289758Y-58625795D01*
X56240330Y-58680330D01*
X56185795Y-58729758D01*
X56126678Y-58773602D01*
X56063548Y-58811441D01*
X55997013Y-58842910D01*
X55927714Y-58867705D01*
X55856318Y-58885589D01*
X55783513Y-58896389D01*
X55710000Y-58900000D01*
X54210000Y-58900000D01*
X54136487Y-58896389D01*
X54063682Y-58885589D01*
X53992286Y-58867705D01*
X53922987Y-58842910D01*
X53856452Y-58811441D01*
X53793322Y-58773602D01*
X53734205Y-58729758D01*
X53679670Y-58680330D01*
X53630242Y-58625795D01*
X53586398Y-58566678D01*
X53548559Y-58503548D01*
X53517090Y-58437013D01*
X53492295Y-58367714D01*
X53474411Y-58296318D01*
X53463611Y-58223513D01*
X53460000Y-58150000D01*
X53460000Y-56150000D01*
X53463611Y-56076487D01*
X53474411Y-56003682D01*
X53492295Y-55932286D01*
X53517090Y-55862987D01*
X53548559Y-55796452D01*
X53586398Y-55733322D01*
X53630242Y-55674205D01*
X53679670Y-55619670D01*
X53734205Y-55570242D01*
X53793322Y-55526398D01*
X53856452Y-55488559D01*
X53922987Y-55457090D01*
X53992286Y-55432295D01*
X54063682Y-55414411D01*
X54136487Y-55403611D01*
X54210000Y-55400000D01*
X55710000Y-55400000D01*
X55783513Y-55403611D01*
X55783513Y-55403611D01*
G37*
D17*
X54960000Y-57150000D03*
D16*
X60960000Y-57150000D03*
D11*
X68072000Y-57912000D03*
X70612000Y-57912000D03*
X68072000Y-60452000D03*
D10*
X70612000Y-60452000D03*
D11*
X94996000Y-35814000D03*
X94996000Y-33274000D03*
X94996000Y-30734000D03*
D10*
X94996000Y-28194000D03*
D14*
G36*
X69181505Y-42107204D02*
G01*
X69205773Y-42110804D01*
X69229572Y-42116765D01*
X69252671Y-42125030D01*
X69274850Y-42135520D01*
X69295893Y-42148132D01*
X69315599Y-42162747D01*
X69333777Y-42179223D01*
X69350253Y-42197401D01*
X69364868Y-42217107D01*
X69377480Y-42238150D01*
X69387970Y-42260329D01*
X69396235Y-42283428D01*
X69402196Y-42307227D01*
X69405796Y-42331495D01*
X69407000Y-42355999D01*
X69407000Y-43006001D01*
X69405796Y-43030505D01*
X69402196Y-43054773D01*
X69396235Y-43078572D01*
X69387970Y-43101671D01*
X69377480Y-43123850D01*
X69364868Y-43144893D01*
X69350253Y-43164599D01*
X69333777Y-43182777D01*
X69315599Y-43199253D01*
X69295893Y-43213868D01*
X69274850Y-43226480D01*
X69252671Y-43236970D01*
X69229572Y-43245235D01*
X69205773Y-43251196D01*
X69181505Y-43254796D01*
X69157001Y-43256000D01*
X68256999Y-43256000D01*
X68232495Y-43254796D01*
X68208227Y-43251196D01*
X68184428Y-43245235D01*
X68161329Y-43236970D01*
X68139150Y-43226480D01*
X68118107Y-43213868D01*
X68098401Y-43199253D01*
X68080223Y-43182777D01*
X68063747Y-43164599D01*
X68049132Y-43144893D01*
X68036520Y-43123850D01*
X68026030Y-43101671D01*
X68017765Y-43078572D01*
X68011804Y-43054773D01*
X68008204Y-43030505D01*
X68007000Y-43006001D01*
X68007000Y-42355999D01*
X68008204Y-42331495D01*
X68011804Y-42307227D01*
X68017765Y-42283428D01*
X68026030Y-42260329D01*
X68036520Y-42238150D01*
X68049132Y-42217107D01*
X68063747Y-42197401D01*
X68080223Y-42179223D01*
X68098401Y-42162747D01*
X68118107Y-42148132D01*
X68139150Y-42135520D01*
X68161329Y-42125030D01*
X68184428Y-42116765D01*
X68208227Y-42110804D01*
X68232495Y-42107204D01*
X68256999Y-42106000D01*
X69157001Y-42106000D01*
X69181505Y-42107204D01*
X69181505Y-42107204D01*
G37*
D15*
X68707000Y-42681000D03*
D14*
G36*
X69181505Y-40057204D02*
G01*
X69205773Y-40060804D01*
X69229572Y-40066765D01*
X69252671Y-40075030D01*
X69274850Y-40085520D01*
X69295893Y-40098132D01*
X69315599Y-40112747D01*
X69333777Y-40129223D01*
X69350253Y-40147401D01*
X69364868Y-40167107D01*
X69377480Y-40188150D01*
X69387970Y-40210329D01*
X69396235Y-40233428D01*
X69402196Y-40257227D01*
X69405796Y-40281495D01*
X69407000Y-40305999D01*
X69407000Y-40956001D01*
X69405796Y-40980505D01*
X69402196Y-41004773D01*
X69396235Y-41028572D01*
X69387970Y-41051671D01*
X69377480Y-41073850D01*
X69364868Y-41094893D01*
X69350253Y-41114599D01*
X69333777Y-41132777D01*
X69315599Y-41149253D01*
X69295893Y-41163868D01*
X69274850Y-41176480D01*
X69252671Y-41186970D01*
X69229572Y-41195235D01*
X69205773Y-41201196D01*
X69181505Y-41204796D01*
X69157001Y-41206000D01*
X68256999Y-41206000D01*
X68232495Y-41204796D01*
X68208227Y-41201196D01*
X68184428Y-41195235D01*
X68161329Y-41186970D01*
X68139150Y-41176480D01*
X68118107Y-41163868D01*
X68098401Y-41149253D01*
X68080223Y-41132777D01*
X68063747Y-41114599D01*
X68049132Y-41094893D01*
X68036520Y-41073850D01*
X68026030Y-41051671D01*
X68017765Y-41028572D01*
X68011804Y-41004773D01*
X68008204Y-40980505D01*
X68007000Y-40956001D01*
X68007000Y-40305999D01*
X68008204Y-40281495D01*
X68011804Y-40257227D01*
X68017765Y-40233428D01*
X68026030Y-40210329D01*
X68036520Y-40188150D01*
X68049132Y-40167107D01*
X68063747Y-40147401D01*
X68080223Y-40129223D01*
X68098401Y-40112747D01*
X68118107Y-40098132D01*
X68139150Y-40085520D01*
X68161329Y-40075030D01*
X68184428Y-40066765D01*
X68208227Y-40060804D01*
X68232495Y-40057204D01*
X68256999Y-40056000D01*
X69157001Y-40056000D01*
X69181505Y-40057204D01*
X69181505Y-40057204D01*
G37*
D15*
X68707000Y-40631000D03*
D14*
G36*
X69181505Y-35231204D02*
G01*
X69205773Y-35234804D01*
X69229572Y-35240765D01*
X69252671Y-35249030D01*
X69274850Y-35259520D01*
X69295893Y-35272132D01*
X69315599Y-35286747D01*
X69333777Y-35303223D01*
X69350253Y-35321401D01*
X69364868Y-35341107D01*
X69377480Y-35362150D01*
X69387970Y-35384329D01*
X69396235Y-35407428D01*
X69402196Y-35431227D01*
X69405796Y-35455495D01*
X69407000Y-35479999D01*
X69407000Y-36130001D01*
X69405796Y-36154505D01*
X69402196Y-36178773D01*
X69396235Y-36202572D01*
X69387970Y-36225671D01*
X69377480Y-36247850D01*
X69364868Y-36268893D01*
X69350253Y-36288599D01*
X69333777Y-36306777D01*
X69315599Y-36323253D01*
X69295893Y-36337868D01*
X69274850Y-36350480D01*
X69252671Y-36360970D01*
X69229572Y-36369235D01*
X69205773Y-36375196D01*
X69181505Y-36378796D01*
X69157001Y-36380000D01*
X68256999Y-36380000D01*
X68232495Y-36378796D01*
X68208227Y-36375196D01*
X68184428Y-36369235D01*
X68161329Y-36360970D01*
X68139150Y-36350480D01*
X68118107Y-36337868D01*
X68098401Y-36323253D01*
X68080223Y-36306777D01*
X68063747Y-36288599D01*
X68049132Y-36268893D01*
X68036520Y-36247850D01*
X68026030Y-36225671D01*
X68017765Y-36202572D01*
X68011804Y-36178773D01*
X68008204Y-36154505D01*
X68007000Y-36130001D01*
X68007000Y-35479999D01*
X68008204Y-35455495D01*
X68011804Y-35431227D01*
X68017765Y-35407428D01*
X68026030Y-35384329D01*
X68036520Y-35362150D01*
X68049132Y-35341107D01*
X68063747Y-35321401D01*
X68080223Y-35303223D01*
X68098401Y-35286747D01*
X68118107Y-35272132D01*
X68139150Y-35259520D01*
X68161329Y-35249030D01*
X68184428Y-35240765D01*
X68208227Y-35234804D01*
X68232495Y-35231204D01*
X68256999Y-35230000D01*
X69157001Y-35230000D01*
X69181505Y-35231204D01*
X69181505Y-35231204D01*
G37*
D15*
X68707000Y-35805000D03*
D14*
G36*
X69181505Y-37281204D02*
G01*
X69205773Y-37284804D01*
X69229572Y-37290765D01*
X69252671Y-37299030D01*
X69274850Y-37309520D01*
X69295893Y-37322132D01*
X69315599Y-37336747D01*
X69333777Y-37353223D01*
X69350253Y-37371401D01*
X69364868Y-37391107D01*
X69377480Y-37412150D01*
X69387970Y-37434329D01*
X69396235Y-37457428D01*
X69402196Y-37481227D01*
X69405796Y-37505495D01*
X69407000Y-37529999D01*
X69407000Y-38180001D01*
X69405796Y-38204505D01*
X69402196Y-38228773D01*
X69396235Y-38252572D01*
X69387970Y-38275671D01*
X69377480Y-38297850D01*
X69364868Y-38318893D01*
X69350253Y-38338599D01*
X69333777Y-38356777D01*
X69315599Y-38373253D01*
X69295893Y-38387868D01*
X69274850Y-38400480D01*
X69252671Y-38410970D01*
X69229572Y-38419235D01*
X69205773Y-38425196D01*
X69181505Y-38428796D01*
X69157001Y-38430000D01*
X68256999Y-38430000D01*
X68232495Y-38428796D01*
X68208227Y-38425196D01*
X68184428Y-38419235D01*
X68161329Y-38410970D01*
X68139150Y-38400480D01*
X68118107Y-38387868D01*
X68098401Y-38373253D01*
X68080223Y-38356777D01*
X68063747Y-38338599D01*
X68049132Y-38318893D01*
X68036520Y-38297850D01*
X68026030Y-38275671D01*
X68017765Y-38252572D01*
X68011804Y-38228773D01*
X68008204Y-38204505D01*
X68007000Y-38180001D01*
X68007000Y-37529999D01*
X68008204Y-37505495D01*
X68011804Y-37481227D01*
X68017765Y-37457428D01*
X68026030Y-37434329D01*
X68036520Y-37412150D01*
X68049132Y-37391107D01*
X68063747Y-37371401D01*
X68080223Y-37353223D01*
X68098401Y-37336747D01*
X68118107Y-37322132D01*
X68139150Y-37309520D01*
X68161329Y-37299030D01*
X68184428Y-37290765D01*
X68208227Y-37284804D01*
X68232495Y-37281204D01*
X68256999Y-37280000D01*
X69157001Y-37280000D01*
X69181505Y-37281204D01*
X69181505Y-37281204D01*
G37*
D15*
X68707000Y-37855000D03*
D14*
G36*
X91914505Y-45409204D02*
G01*
X91938773Y-45412804D01*
X91962572Y-45418765D01*
X91985671Y-45427030D01*
X92007850Y-45437520D01*
X92028893Y-45450132D01*
X92048599Y-45464747D01*
X92066777Y-45481223D01*
X92083253Y-45499401D01*
X92097868Y-45519107D01*
X92110480Y-45540150D01*
X92120970Y-45562329D01*
X92129235Y-45585428D01*
X92135196Y-45609227D01*
X92138796Y-45633495D01*
X92140000Y-45657999D01*
X92140000Y-46308001D01*
X92138796Y-46332505D01*
X92135196Y-46356773D01*
X92129235Y-46380572D01*
X92120970Y-46403671D01*
X92110480Y-46425850D01*
X92097868Y-46446893D01*
X92083253Y-46466599D01*
X92066777Y-46484777D01*
X92048599Y-46501253D01*
X92028893Y-46515868D01*
X92007850Y-46528480D01*
X91985671Y-46538970D01*
X91962572Y-46547235D01*
X91938773Y-46553196D01*
X91914505Y-46556796D01*
X91890001Y-46558000D01*
X90989999Y-46558000D01*
X90965495Y-46556796D01*
X90941227Y-46553196D01*
X90917428Y-46547235D01*
X90894329Y-46538970D01*
X90872150Y-46528480D01*
X90851107Y-46515868D01*
X90831401Y-46501253D01*
X90813223Y-46484777D01*
X90796747Y-46466599D01*
X90782132Y-46446893D01*
X90769520Y-46425850D01*
X90759030Y-46403671D01*
X90750765Y-46380572D01*
X90744804Y-46356773D01*
X90741204Y-46332505D01*
X90740000Y-46308001D01*
X90740000Y-45657999D01*
X90741204Y-45633495D01*
X90744804Y-45609227D01*
X90750765Y-45585428D01*
X90759030Y-45562329D01*
X90769520Y-45540150D01*
X90782132Y-45519107D01*
X90796747Y-45499401D01*
X90813223Y-45481223D01*
X90831401Y-45464747D01*
X90851107Y-45450132D01*
X90872150Y-45437520D01*
X90894329Y-45427030D01*
X90917428Y-45418765D01*
X90941227Y-45412804D01*
X90965495Y-45409204D01*
X90989999Y-45408000D01*
X91890001Y-45408000D01*
X91914505Y-45409204D01*
X91914505Y-45409204D01*
G37*
D15*
X91440000Y-45983000D03*
D14*
G36*
X91914505Y-43359204D02*
G01*
X91938773Y-43362804D01*
X91962572Y-43368765D01*
X91985671Y-43377030D01*
X92007850Y-43387520D01*
X92028893Y-43400132D01*
X92048599Y-43414747D01*
X92066777Y-43431223D01*
X92083253Y-43449401D01*
X92097868Y-43469107D01*
X92110480Y-43490150D01*
X92120970Y-43512329D01*
X92129235Y-43535428D01*
X92135196Y-43559227D01*
X92138796Y-43583495D01*
X92140000Y-43607999D01*
X92140000Y-44258001D01*
X92138796Y-44282505D01*
X92135196Y-44306773D01*
X92129235Y-44330572D01*
X92120970Y-44353671D01*
X92110480Y-44375850D01*
X92097868Y-44396893D01*
X92083253Y-44416599D01*
X92066777Y-44434777D01*
X92048599Y-44451253D01*
X92028893Y-44465868D01*
X92007850Y-44478480D01*
X91985671Y-44488970D01*
X91962572Y-44497235D01*
X91938773Y-44503196D01*
X91914505Y-44506796D01*
X91890001Y-44508000D01*
X90989999Y-44508000D01*
X90965495Y-44506796D01*
X90941227Y-44503196D01*
X90917428Y-44497235D01*
X90894329Y-44488970D01*
X90872150Y-44478480D01*
X90851107Y-44465868D01*
X90831401Y-44451253D01*
X90813223Y-44434777D01*
X90796747Y-44416599D01*
X90782132Y-44396893D01*
X90769520Y-44375850D01*
X90759030Y-44353671D01*
X90750765Y-44330572D01*
X90744804Y-44306773D01*
X90741204Y-44282505D01*
X90740000Y-44258001D01*
X90740000Y-43607999D01*
X90741204Y-43583495D01*
X90744804Y-43559227D01*
X90750765Y-43535428D01*
X90759030Y-43512329D01*
X90769520Y-43490150D01*
X90782132Y-43469107D01*
X90796747Y-43449401D01*
X90813223Y-43431223D01*
X90831401Y-43414747D01*
X90851107Y-43400132D01*
X90872150Y-43387520D01*
X90894329Y-43377030D01*
X90917428Y-43368765D01*
X90941227Y-43362804D01*
X90965495Y-43359204D01*
X90989999Y-43358000D01*
X91890001Y-43358000D01*
X91914505Y-43359204D01*
X91914505Y-43359204D01*
G37*
D15*
X91440000Y-43933000D03*
D14*
G36*
X91914505Y-49455204D02*
G01*
X91938773Y-49458804D01*
X91962572Y-49464765D01*
X91985671Y-49473030D01*
X92007850Y-49483520D01*
X92028893Y-49496132D01*
X92048599Y-49510747D01*
X92066777Y-49527223D01*
X92083253Y-49545401D01*
X92097868Y-49565107D01*
X92110480Y-49586150D01*
X92120970Y-49608329D01*
X92129235Y-49631428D01*
X92135196Y-49655227D01*
X92138796Y-49679495D01*
X92140000Y-49703999D01*
X92140000Y-50354001D01*
X92138796Y-50378505D01*
X92135196Y-50402773D01*
X92129235Y-50426572D01*
X92120970Y-50449671D01*
X92110480Y-50471850D01*
X92097868Y-50492893D01*
X92083253Y-50512599D01*
X92066777Y-50530777D01*
X92048599Y-50547253D01*
X92028893Y-50561868D01*
X92007850Y-50574480D01*
X91985671Y-50584970D01*
X91962572Y-50593235D01*
X91938773Y-50599196D01*
X91914505Y-50602796D01*
X91890001Y-50604000D01*
X90989999Y-50604000D01*
X90965495Y-50602796D01*
X90941227Y-50599196D01*
X90917428Y-50593235D01*
X90894329Y-50584970D01*
X90872150Y-50574480D01*
X90851107Y-50561868D01*
X90831401Y-50547253D01*
X90813223Y-50530777D01*
X90796747Y-50512599D01*
X90782132Y-50492893D01*
X90769520Y-50471850D01*
X90759030Y-50449671D01*
X90750765Y-50426572D01*
X90744804Y-50402773D01*
X90741204Y-50378505D01*
X90740000Y-50354001D01*
X90740000Y-49703999D01*
X90741204Y-49679495D01*
X90744804Y-49655227D01*
X90750765Y-49631428D01*
X90759030Y-49608329D01*
X90769520Y-49586150D01*
X90782132Y-49565107D01*
X90796747Y-49545401D01*
X90813223Y-49527223D01*
X90831401Y-49510747D01*
X90851107Y-49496132D01*
X90872150Y-49483520D01*
X90894329Y-49473030D01*
X90917428Y-49464765D01*
X90941227Y-49458804D01*
X90965495Y-49455204D01*
X90989999Y-49454000D01*
X91890001Y-49454000D01*
X91914505Y-49455204D01*
X91914505Y-49455204D01*
G37*
D15*
X91440000Y-50029000D03*
D14*
G36*
X91914505Y-51505204D02*
G01*
X91938773Y-51508804D01*
X91962572Y-51514765D01*
X91985671Y-51523030D01*
X92007850Y-51533520D01*
X92028893Y-51546132D01*
X92048599Y-51560747D01*
X92066777Y-51577223D01*
X92083253Y-51595401D01*
X92097868Y-51615107D01*
X92110480Y-51636150D01*
X92120970Y-51658329D01*
X92129235Y-51681428D01*
X92135196Y-51705227D01*
X92138796Y-51729495D01*
X92140000Y-51753999D01*
X92140000Y-52404001D01*
X92138796Y-52428505D01*
X92135196Y-52452773D01*
X92129235Y-52476572D01*
X92120970Y-52499671D01*
X92110480Y-52521850D01*
X92097868Y-52542893D01*
X92083253Y-52562599D01*
X92066777Y-52580777D01*
X92048599Y-52597253D01*
X92028893Y-52611868D01*
X92007850Y-52624480D01*
X91985671Y-52634970D01*
X91962572Y-52643235D01*
X91938773Y-52649196D01*
X91914505Y-52652796D01*
X91890001Y-52654000D01*
X90989999Y-52654000D01*
X90965495Y-52652796D01*
X90941227Y-52649196D01*
X90917428Y-52643235D01*
X90894329Y-52634970D01*
X90872150Y-52624480D01*
X90851107Y-52611868D01*
X90831401Y-52597253D01*
X90813223Y-52580777D01*
X90796747Y-52562599D01*
X90782132Y-52542893D01*
X90769520Y-52521850D01*
X90759030Y-52499671D01*
X90750765Y-52476572D01*
X90744804Y-52452773D01*
X90741204Y-52428505D01*
X90740000Y-52404001D01*
X90740000Y-51753999D01*
X90741204Y-51729495D01*
X90744804Y-51705227D01*
X90750765Y-51681428D01*
X90759030Y-51658329D01*
X90769520Y-51636150D01*
X90782132Y-51615107D01*
X90796747Y-51595401D01*
X90813223Y-51577223D01*
X90831401Y-51560747D01*
X90851107Y-51546132D01*
X90872150Y-51533520D01*
X90894329Y-51523030D01*
X90917428Y-51514765D01*
X90941227Y-51508804D01*
X90965495Y-51505204D01*
X90989999Y-51504000D01*
X91890001Y-51504000D01*
X91914505Y-51505204D01*
X91914505Y-51505204D01*
G37*
D15*
X91440000Y-52079000D03*
D19*
X72664000Y-37902000D03*
X72664000Y-39902000D03*
X72664000Y-41902000D03*
X72664000Y-43902000D03*
X72664000Y-45902000D03*
X72664000Y-47902000D03*
X72664000Y-49902000D03*
X72664000Y-51902000D03*
D20*
X75264000Y-53402000D03*
X77264000Y-53402000D03*
X79264000Y-53402000D03*
X81264000Y-53402000D03*
X83264000Y-53402000D03*
X85264000Y-53402000D03*
D19*
X87864000Y-51902000D03*
X87864000Y-49902000D03*
X87864000Y-47902000D03*
X87864000Y-45902000D03*
X87864000Y-43902000D03*
X87864000Y-41902000D03*
X87864000Y-39902000D03*
X87864000Y-37902000D03*
D10*
X81280000Y-62738000D03*
D11*
X81280000Y-60198000D03*
X83820000Y-62738000D03*
X83820000Y-60198000D03*
X86360000Y-62738000D03*
X86360000Y-60198000D03*
X88900000Y-62738000D03*
X88900000Y-60198000D03*
X91440000Y-62738000D03*
X91440000Y-60198000D03*
D21*
X94615000Y-69215000D03*
D22*
X96266000Y-64008000D03*
D13*
X66548000Y-27940000D03*
D22*
X66049000Y-54111000D03*
D13*
X79248000Y-36576000D03*
D22*
X77470000Y-43942000D03*
X91440000Y-55626000D03*
X82042000Y-55626000D03*
X63500000Y-27940000D03*
X61493400Y-27940000D03*
X59055000Y-27940000D03*
X57035000Y-28460000D03*
X78740000Y-55880000D03*
X91440000Y-53975000D03*
X92456000Y-35814000D03*
X90170000Y-35814000D03*
X78740000Y-71755000D03*
X72767000Y-72013000D03*
X78740000Y-50800000D03*
X92964000Y-43942000D03*
X67310000Y-50038000D03*
X68580000Y-33782000D03*
X84582000Y-44450000D03*
X80518000Y-40640000D03*
X94488000Y-54102000D03*
X93472000Y-55372000D03*
D23*
X66548000Y-55270400D02*
X66497200Y-55270400D01*
X70612000Y-60452000D02*
X70612000Y-61556000D01*
X70612000Y-61556000D02*
X70612000Y-63246000D01*
X70612000Y-63246000D02*
X72644000Y-65278000D01*
X72644000Y-65278000D02*
X94996000Y-65278000D01*
X94996000Y-65278000D02*
X96266000Y-64008000D01*
X96266000Y-64008000D02*
X96266000Y-64008000D01*
X91263000Y-51902000D02*
X91440000Y-52079000D01*
X87864000Y-51902000D02*
X91263000Y-51902000D01*
D24*
X68698000Y-54102000D02*
X68707000Y-54111000D01*
X67310000Y-54111000D02*
X69469000Y-54111000D01*
X67310000Y-54111000D02*
X66049000Y-54111000D01*
D23*
X79248000Y-36576000D02*
X78248001Y-37575999D01*
X78248001Y-37575999D02*
X76962000Y-38862000D01*
X76962000Y-38862000D02*
X76962000Y-43434000D01*
X76962000Y-43434000D02*
X77470000Y-43942000D01*
X77470000Y-43942000D02*
X77470000Y-43942000D01*
D25*
X96198081Y-35814000D02*
X94996000Y-35814000D01*
X97790000Y-37405919D02*
X96198081Y-35814000D01*
X97790000Y-57658000D02*
X97790000Y-37405919D01*
X95250000Y-60198000D02*
X97790000Y-57658000D01*
X91440000Y-60198000D02*
X95250000Y-60198000D01*
D23*
X91440000Y-54610000D02*
X91440000Y-53975000D01*
X91440000Y-54610000D02*
X91440000Y-55626000D01*
X82042000Y-55626000D02*
X91440000Y-55626000D01*
X91440000Y-53975000D02*
X91440000Y-52079000D01*
D26*
X59690000Y-55880000D02*
X60960000Y-57150000D01*
X59690000Y-46355000D02*
X59690000Y-55880000D01*
X60960000Y-32385000D02*
X61087000Y-32385000D01*
X61087000Y-32385000D02*
X62738000Y-34036000D01*
X59690000Y-43323000D02*
X59690000Y-46355000D01*
X62738000Y-40275000D02*
X59690000Y-43323000D01*
X62738000Y-34036000D02*
X62738000Y-40275000D01*
D23*
X92955000Y-43933000D02*
X92964000Y-43942000D01*
X91440000Y-43933000D02*
X92955000Y-43933000D01*
X67310000Y-52061000D02*
X67310000Y-51386000D01*
D24*
X67310000Y-50038000D02*
X67310000Y-52061000D01*
X72505000Y-52061000D02*
X72664000Y-51902000D01*
X67310000Y-52061000D02*
X72505000Y-52061000D01*
X68707000Y-40631000D02*
X67555000Y-40631000D01*
X67555000Y-40631000D02*
X66802000Y-39878000D01*
X66802000Y-39878000D02*
X66802000Y-36830000D01*
X67827000Y-35805000D02*
X68707000Y-35805000D01*
X66802000Y-36830000D02*
X67827000Y-35805000D01*
X94615000Y-28575000D02*
X94996000Y-28194000D01*
X70485000Y-28575000D02*
X94615000Y-28575000D01*
X68707000Y-35805000D02*
X68707000Y-30353000D01*
X68707000Y-30353000D02*
X70485000Y-28575000D01*
D23*
X67382000Y-45902000D02*
X72664000Y-45902000D01*
X64770000Y-48514000D02*
X67382000Y-45902000D01*
X68072000Y-57912000D02*
X64770000Y-54610000D01*
X64770000Y-54610000D02*
X64770000Y-48514000D01*
X71914000Y-43902000D02*
X72664000Y-43902000D01*
X64262000Y-56642000D02*
X65151000Y-57531000D01*
X64262000Y-47498000D02*
X64262000Y-56642000D01*
X65151000Y-57531000D02*
X65024000Y-57404000D01*
X68072000Y-60452000D02*
X65151000Y-57531000D01*
X72664000Y-43902000D02*
X70398000Y-43902000D01*
X70398000Y-43902000D02*
X69596000Y-44704000D01*
X69596000Y-44704000D02*
X67056000Y-44704000D01*
X67056000Y-44704000D02*
X64262000Y-47498000D01*
X84582000Y-44450000D02*
X84582000Y-44450000D01*
X85598000Y-37338000D02*
X85598000Y-43434000D01*
X85217000Y-43815000D02*
X84582000Y-44450000D01*
X85344000Y-43688000D02*
X85217000Y-43815000D01*
X94996000Y-33274000D02*
X87884000Y-33274000D01*
X87884000Y-33274000D02*
X87376000Y-33782000D01*
X87376000Y-33782000D02*
X87376000Y-35560000D01*
X85598000Y-43434000D02*
X85217000Y-43815000D01*
X87376000Y-35560000D02*
X85598000Y-37338000D01*
X80518000Y-40640000D02*
X80518000Y-40640000D01*
X83820000Y-40132000D02*
X81026000Y-40132000D01*
X84582000Y-39370000D02*
X83820000Y-40132000D01*
X93218000Y-32512000D02*
X88003933Y-32512000D01*
X94996000Y-30734000D02*
X93218000Y-32512000D01*
X81026000Y-40132000D02*
X80518000Y-40640000D01*
X88003933Y-32512000D02*
X86868000Y-33647933D01*
X86868000Y-33647933D02*
X86868000Y-35306000D01*
X86868000Y-35306000D02*
X84582000Y-37592000D01*
X84582000Y-37592000D02*
X84582000Y-39370000D01*
X88614000Y-37902000D02*
X87864000Y-37902000D01*
X94544000Y-37902000D02*
X87864000Y-37902000D01*
X95814000Y-37902000D02*
X94544000Y-37902000D01*
X83820000Y-58166000D02*
X84582000Y-57404000D01*
X83820000Y-60198000D02*
X83820000Y-58166000D01*
X84582000Y-57404000D02*
X94996000Y-57404000D01*
X94996000Y-57404000D02*
X96520000Y-55880000D01*
X96520000Y-55880000D02*
X96520000Y-38608000D01*
X96520000Y-38608000D02*
X95814000Y-37902000D01*
X81280000Y-60198000D02*
X81280000Y-57912000D01*
X82550000Y-56642000D02*
X94742000Y-56642000D01*
X94742000Y-56642000D02*
X95758000Y-55626000D01*
X95758000Y-55626000D02*
X95758000Y-40894000D01*
X94766000Y-39902000D02*
X87864000Y-39902000D01*
X81280000Y-57912000D02*
X82550000Y-56642000D01*
X95758000Y-40894000D02*
X94766000Y-39902000D01*
X68707000Y-42681000D02*
X70095000Y-42681000D01*
X70874000Y-41902000D02*
X72664000Y-41902000D01*
X70095000Y-42681000D02*
X70874000Y-41902000D01*
X91359000Y-45902000D02*
X91440000Y-45983000D01*
X87864000Y-45902000D02*
X91359000Y-45902000D01*
X94488000Y-54102000D02*
X94488000Y-46990000D01*
X94488000Y-46990000D02*
X93472000Y-45974000D01*
X93463000Y-45983000D02*
X91440000Y-45983000D01*
X93472000Y-45974000D02*
X93463000Y-45983000D01*
X93472000Y-55372000D02*
X93472000Y-49022000D01*
X92352000Y-47902000D02*
X87864000Y-47902000D01*
X93472000Y-49022000D02*
X92352000Y-47902000D01*
X72617000Y-37855000D02*
X72664000Y-37902000D01*
X68707000Y-37855000D02*
X72617000Y-37855000D01*
X91313000Y-49902000D02*
X91440000Y-50029000D01*
X87864000Y-49902000D02*
X91313000Y-49902000D01*
G36*
X98400000Y-73000000D02*
G01*
X51460000Y-73000000D01*
X51460000Y-69254000D01*
X56423928Y-69254000D01*
X56423928Y-70954000D01*
X56436188Y-71078482D01*
X56472498Y-71198180D01*
X56531463Y-71308494D01*
X56610815Y-71405185D01*
X56707506Y-71484537D01*
X56817820Y-71543502D01*
X56937518Y-71579812D01*
X57062000Y-71592072D01*
X58762000Y-71592072D01*
X58886482Y-71579812D01*
X59006180Y-71543502D01*
X59116494Y-71484537D01*
X59213185Y-71405185D01*
X59292537Y-71308494D01*
X59351502Y-71198180D01*
X59387812Y-71078482D01*
X59400072Y-70954000D01*
X59400072Y-69254000D01*
X59387812Y-69129518D01*
X59351502Y-69009820D01*
X59296131Y-68906229D01*
X91480000Y-68906229D01*
X91480000Y-69523771D01*
X91600476Y-70129446D01*
X91836799Y-70699979D01*
X92179886Y-71213446D01*
X92616554Y-71650114D01*
X93130021Y-71993201D01*
X93700554Y-72229524D01*
X94306229Y-72350000D01*
X94923771Y-72350000D01*
X95529446Y-72229524D01*
X96099979Y-71993201D01*
X96613446Y-71650114D01*
X97050114Y-71213446D01*
X97393201Y-70699979D01*
X97629524Y-70129446D01*
X97750000Y-69523771D01*
X97750000Y-68906229D01*
X97629524Y-68300554D01*
X97393201Y-67730021D01*
X97050114Y-67216554D01*
X96613446Y-66779886D01*
X96099979Y-66436799D01*
X95529446Y-66200476D01*
X94923771Y-66080000D01*
X94306229Y-66080000D01*
X93700554Y-66200476D01*
X93130021Y-66436799D01*
X92616554Y-66779886D01*
X92179886Y-67216554D01*
X91836799Y-67730021D01*
X91600476Y-68300554D01*
X91480000Y-68906229D01*
X59296131Y-68906229D01*
X59292537Y-68899506D01*
X59213185Y-68802815D01*
X59116494Y-68723463D01*
X59006180Y-68664498D01*
X58925534Y-68640034D01*
X59009588Y-68564269D01*
X59183641Y-68330920D01*
X59308825Y-68068099D01*
X59353476Y-67920890D01*
X59232155Y-67691000D01*
X58039000Y-67691000D01*
X58039000Y-67711000D01*
X57785000Y-67711000D01*
X57785000Y-67691000D01*
X56591845Y-67691000D01*
X56470524Y-67920890D01*
X56515175Y-68068099D01*
X56640359Y-68330920D01*
X56814412Y-68564269D01*
X56898466Y-68640034D01*
X56817820Y-68664498D01*
X56707506Y-68723463D01*
X56610815Y-68802815D01*
X56531463Y-68899506D01*
X56472498Y-69009820D01*
X56436188Y-69129518D01*
X56423928Y-69254000D01*
X51460000Y-69254000D01*
X51460000Y-67207110D01*
X56470524Y-67207110D01*
X56591845Y-67437000D01*
X57785000Y-67437000D01*
X57785000Y-66243186D01*
X58039000Y-66243186D01*
X58039000Y-67437000D01*
X59232155Y-67437000D01*
X59353476Y-67207110D01*
X59308825Y-67059901D01*
X59183641Y-66797080D01*
X59009588Y-66563731D01*
X58793355Y-66368822D01*
X58543252Y-66219843D01*
X58268891Y-66122519D01*
X58039000Y-66243186D01*
X57785000Y-66243186D01*
X57555109Y-66122519D01*
X57280748Y-66219843D01*
X57030645Y-66368822D01*
X56814412Y-66563731D01*
X56640359Y-66797080D01*
X56515175Y-67059901D01*
X56470524Y-67207110D01*
X51460000Y-67207110D01*
X51460000Y-58900000D01*
X52821928Y-58900000D01*
X52834188Y-59024482D01*
X52870498Y-59144180D01*
X52929463Y-59254494D01*
X53008815Y-59351185D01*
X53105506Y-59430537D01*
X53215820Y-59489502D01*
X53335518Y-59525812D01*
X53460000Y-59538072D01*
X54674250Y-59535000D01*
X54833000Y-59376250D01*
X54833000Y-57277000D01*
X55087000Y-57277000D01*
X55087000Y-59376250D01*
X55245750Y-59535000D01*
X56460000Y-59538072D01*
X56584482Y-59525812D01*
X56704180Y-59489502D01*
X56814494Y-59430537D01*
X56911185Y-59351185D01*
X56990537Y-59254494D01*
X57049502Y-59144180D01*
X57085812Y-59024482D01*
X57098072Y-58900000D01*
X57095000Y-57435750D01*
X56936250Y-57277000D01*
X55087000Y-57277000D01*
X54833000Y-57277000D01*
X52983750Y-57277000D01*
X52825000Y-57435750D01*
X52821928Y-58900000D01*
X51460000Y-58900000D01*
X51460000Y-55400000D01*
X52821928Y-55400000D01*
X52825000Y-56864250D01*
X52983750Y-57023000D01*
X54833000Y-57023000D01*
X54833000Y-54923750D01*
X55087000Y-54923750D01*
X55087000Y-57023000D01*
X56936250Y-57023000D01*
X57095000Y-56864250D01*
X57098072Y-55400000D01*
X57085812Y-55275518D01*
X57049502Y-55155820D01*
X56990537Y-55045506D01*
X56911185Y-54948815D01*
X56814494Y-54869463D01*
X56704180Y-54810498D01*
X56584482Y-54774188D01*
X56460000Y-54761928D01*
X55245750Y-54765000D01*
X55087000Y-54923750D01*
X54833000Y-54923750D01*
X54674250Y-54765000D01*
X53460000Y-54761928D01*
X53335518Y-54774188D01*
X53215820Y-54810498D01*
X53105506Y-54869463D01*
X53008815Y-54948815D01*
X52929463Y-55045506D01*
X52870498Y-55155820D01*
X52834188Y-55275518D01*
X52821928Y-55400000D01*
X51460000Y-55400000D01*
X51460000Y-47490413D01*
X53734192Y-47490413D01*
X53829956Y-47754814D01*
X54119571Y-47895704D01*
X54431108Y-47977384D01*
X54752595Y-47996718D01*
X55071675Y-47952961D01*
X55376088Y-47847795D01*
X55550044Y-47754814D01*
X55645808Y-47490413D01*
X54690000Y-46534605D01*
X53734192Y-47490413D01*
X51460000Y-47490413D01*
X51460000Y-46417595D01*
X53048282Y-46417595D01*
X53092039Y-46736675D01*
X53197205Y-47041088D01*
X53290186Y-47215044D01*
X53554587Y-47310808D01*
X54510395Y-46355000D01*
X54869605Y-46355000D01*
X55825413Y-47310808D01*
X56089814Y-47215044D01*
X56230704Y-46925429D01*
X56312384Y-46613892D01*
X56331718Y-46292405D01*
X56287961Y-45973325D01*
X56182795Y-45668912D01*
X56089814Y-45494956D01*
X55825413Y-45399192D01*
X54869605Y-46355000D01*
X54510395Y-46355000D01*
X53554587Y-45399192D01*
X53290186Y-45494956D01*
X53149296Y-45784571D01*
X53067616Y-46096108D01*
X53048282Y-46417595D01*
X51460000Y-46417595D01*
X51460000Y-45219587D01*
X53734192Y-45219587D01*
X54690000Y-46175395D01*
X55645808Y-45219587D01*
X55550044Y-44955186D01*
X55260429Y-44814296D01*
X54948892Y-44732616D01*
X54627405Y-44713282D01*
X54308325Y-44757039D01*
X54003912Y-44862205D01*
X53829956Y-44955186D01*
X53734192Y-45219587D01*
X51460000Y-45219587D01*
X51460000Y-36210000D01*
X55571928Y-36210000D01*
X55571928Y-37960000D01*
X55601001Y-38255186D01*
X55687104Y-38539028D01*
X55826927Y-38800618D01*
X56015097Y-39029903D01*
X56244382Y-39218073D01*
X56505972Y-39357896D01*
X56789814Y-39443999D01*
X57085000Y-39473072D01*
X58835000Y-39473072D01*
X59130186Y-39443999D01*
X59414028Y-39357896D01*
X59675618Y-39218073D01*
X59904903Y-39029903D01*
X60093073Y-38800618D01*
X60232896Y-38539028D01*
X60318999Y-38255186D01*
X60348072Y-37960000D01*
X60348072Y-36210000D01*
X60318999Y-35914814D01*
X60232896Y-35630972D01*
X60093073Y-35369382D01*
X59904903Y-35140097D01*
X59675618Y-34951927D01*
X59414028Y-34812104D01*
X59285357Y-34773072D01*
X61087000Y-34773072D01*
X61087001Y-39591132D01*
X58579921Y-42098213D01*
X58516918Y-42149918D01*
X58310602Y-42401317D01*
X58157295Y-42688134D01*
X58062889Y-42999348D01*
X58040605Y-43225599D01*
X58031012Y-43323000D01*
X58039000Y-43404101D01*
X58039001Y-46273887D01*
X58039000Y-46273897D01*
X58039001Y-55798889D01*
X58031012Y-55880000D01*
X58050388Y-56076721D01*
X58062890Y-56203653D01*
X58119929Y-56391686D01*
X58157296Y-56514867D01*
X58305095Y-56791379D01*
X58310603Y-56801684D01*
X58516919Y-57053082D01*
X58571928Y-57098226D01*
X58571928Y-58900000D01*
X58584188Y-59024482D01*
X58620498Y-59144180D01*
X58679463Y-59254494D01*
X58758815Y-59351185D01*
X58855506Y-59430537D01*
X58932131Y-59471494D01*
X58835000Y-59461928D01*
X57085000Y-59461928D01*
X56789814Y-59491001D01*
X56505972Y-59577104D01*
X56244382Y-59716927D01*
X56015097Y-59905097D01*
X55826927Y-60134382D01*
X55687104Y-60395972D01*
X55601001Y-60679814D01*
X55571928Y-60975000D01*
X55571928Y-62725000D01*
X55601001Y-63020186D01*
X55687104Y-63304028D01*
X55826927Y-63565618D01*
X56015097Y-63794903D01*
X56244382Y-63983073D01*
X56505972Y-64122896D01*
X56789814Y-64208999D01*
X57085000Y-64238072D01*
X58835000Y-64238072D01*
X59130186Y-64208999D01*
X59414028Y-64122896D01*
X59675618Y-63983073D01*
X59904903Y-63794903D01*
X60093073Y-63565618D01*
X60232896Y-63304028D01*
X60318999Y-63020186D01*
X60348072Y-62725000D01*
X60348072Y-60975000D01*
X60318999Y-60679814D01*
X60232896Y-60395972D01*
X60093073Y-60134382D01*
X59904903Y-59905097D01*
X59675618Y-59716927D01*
X59414028Y-59577104D01*
X59285357Y-59538072D01*
X62710000Y-59538072D01*
X62834482Y-59525812D01*
X62954180Y-59489502D01*
X63064494Y-59430537D01*
X63161185Y-59351185D01*
X63240537Y-59254494D01*
X63299502Y-59144180D01*
X63335812Y-59024482D01*
X63348072Y-58900000D01*
X63348072Y-55400000D01*
X63335812Y-55275518D01*
X63299502Y-55155820D01*
X63240537Y-55045506D01*
X63161185Y-54948815D01*
X63064494Y-54869463D01*
X62954180Y-54810498D01*
X62834482Y-54774188D01*
X62710000Y-54761928D01*
X61341000Y-54761928D01*
X61341000Y-47498000D01*
X63496314Y-47498000D01*
X63500000Y-47535423D01*
X63500001Y-56604567D01*
X63496314Y-56642000D01*
X63511027Y-56791378D01*
X63554599Y-56935015D01*
X63625355Y-57067392D01*
X63696721Y-57154351D01*
X63720579Y-57183422D01*
X63749649Y-57207279D01*
X64638648Y-58096279D01*
X64638653Y-58096283D01*
X66630545Y-60088175D01*
X66608487Y-60160889D01*
X66579815Y-60452000D01*
X66608487Y-60743111D01*
X66693401Y-61023034D01*
X66831294Y-61281014D01*
X67016866Y-61507134D01*
X67242986Y-61692706D01*
X67500966Y-61830599D01*
X67780889Y-61915513D01*
X67999050Y-61937000D01*
X68144950Y-61937000D01*
X68363111Y-61915513D01*
X68643034Y-61830599D01*
X68901014Y-61692706D01*
X69127134Y-61507134D01*
X69151607Y-61477313D01*
X69172498Y-61546180D01*
X69231463Y-61656494D01*
X69310815Y-61753185D01*
X69407506Y-61832537D01*
X69517820Y-61891502D01*
X69637518Y-61927812D01*
X69762000Y-61940072D01*
X69850000Y-61940072D01*
X69850001Y-63208567D01*
X69846314Y-63246000D01*
X69861027Y-63395378D01*
X69904599Y-63539015D01*
X69975355Y-63671392D01*
X70046721Y-63758351D01*
X70070579Y-63787422D01*
X70099649Y-63811279D01*
X72078721Y-65790352D01*
X72102578Y-65819422D01*
X72131648Y-65843279D01*
X72218607Y-65914645D01*
X72289364Y-65952465D01*
X72350985Y-65985402D01*
X72494622Y-66028974D01*
X72606574Y-66040000D01*
X72606577Y-66040000D01*
X72644000Y-66043686D01*
X72681423Y-66040000D01*
X94958577Y-66040000D01*
X94996000Y-66043686D01*
X95033423Y-66040000D01*
X95033426Y-66040000D01*
X95145378Y-66028974D01*
X95289015Y-65985402D01*
X95421392Y-65914645D01*
X95537422Y-65819422D01*
X95561284Y-65790346D01*
X96308631Y-65043000D01*
X96367939Y-65043000D01*
X96567898Y-65003226D01*
X96756256Y-64925205D01*
X96925774Y-64811937D01*
X97069937Y-64667774D01*
X97183205Y-64498256D01*
X97261226Y-64309898D01*
X97301000Y-64109939D01*
X97301000Y-63906061D01*
X97261226Y-63706102D01*
X97183205Y-63517744D01*
X97069937Y-63348226D01*
X96925774Y-63204063D01*
X96756256Y-63090795D01*
X96567898Y-63012774D01*
X96367939Y-62973000D01*
X96164061Y-62973000D01*
X95964102Y-63012774D01*
X95775744Y-63090795D01*
X95606226Y-63204063D01*
X95462063Y-63348226D01*
X95348795Y-63517744D01*
X95270774Y-63706102D01*
X95231000Y-63906061D01*
X95231000Y-63965369D01*
X94680370Y-64516000D01*
X72959631Y-64516000D01*
X71374000Y-62930370D01*
X71374000Y-61940072D01*
X71462000Y-61940072D01*
X71586482Y-61927812D01*
X71706180Y-61891502D01*
X71816494Y-61832537D01*
X71913185Y-61753185D01*
X71992537Y-61656494D01*
X72051502Y-61546180D01*
X72087812Y-61426482D01*
X72100072Y-61302000D01*
X72100072Y-59602000D01*
X72087812Y-59477518D01*
X72051502Y-59357820D01*
X71992537Y-59247506D01*
X71913185Y-59150815D01*
X71816494Y-59071463D01*
X71706180Y-59012498D01*
X71637313Y-58991607D01*
X71667134Y-58967134D01*
X71852706Y-58741014D01*
X71990599Y-58483034D01*
X72075513Y-58203111D01*
X72104185Y-57912000D01*
X72075513Y-57620889D01*
X71990599Y-57340966D01*
X71852706Y-57082986D01*
X71667134Y-56856866D01*
X71441014Y-56671294D01*
X71183034Y-56533401D01*
X70903111Y-56448487D01*
X70684950Y-56427000D01*
X70539050Y-56427000D01*
X70320889Y-56448487D01*
X70040966Y-56533401D01*
X69782986Y-56671294D01*
X69556866Y-56856866D01*
X69371294Y-57082986D01*
X69342000Y-57137791D01*
X69312706Y-57082986D01*
X69127134Y-56856866D01*
X68901014Y-56671294D01*
X68643034Y-56533401D01*
X68363111Y-56448487D01*
X68144950Y-56427000D01*
X67999050Y-56427000D01*
X67780889Y-56448487D01*
X67708175Y-56470545D01*
X67067469Y-55829838D01*
X67089422Y-55811822D01*
X67184645Y-55695792D01*
X67255402Y-55563415D01*
X67298974Y-55419778D01*
X67313686Y-55270400D01*
X67298974Y-55121022D01*
X67255402Y-54977385D01*
X67184645Y-54845008D01*
X67183000Y-54843004D01*
X67183000Y-54238000D01*
X67437000Y-54238000D01*
X67437000Y-55162250D01*
X67595750Y-55321000D01*
X68010000Y-55324072D01*
X68134482Y-55311812D01*
X68254180Y-55275502D01*
X68364494Y-55216537D01*
X68389500Y-55196015D01*
X68414506Y-55216537D01*
X68524820Y-55275502D01*
X68644518Y-55311812D01*
X68769000Y-55324072D01*
X69183250Y-55321000D01*
X69342000Y-55162250D01*
X69342000Y-54238000D01*
X69596000Y-54238000D01*
X69596000Y-55162250D01*
X69754750Y-55321000D01*
X70169000Y-55324072D01*
X70293482Y-55311812D01*
X70413180Y-55275502D01*
X70523494Y-55216537D01*
X70620185Y-55137185D01*
X70699537Y-55040494D01*
X70758502Y-54930180D01*
X70794812Y-54810482D01*
X70807072Y-54686000D01*
X70804000Y-54396750D01*
X70645250Y-54238000D01*
X69596000Y-54238000D01*
X69342000Y-54238000D01*
X67437000Y-54238000D01*
X67183000Y-54238000D01*
X66133750Y-54238000D01*
X65975000Y-54396750D01*
X65971928Y-54686000D01*
X65974637Y-54713501D01*
X65961726Y-54724096D01*
X65532000Y-54294370D01*
X65532000Y-48829630D01*
X67697631Y-46664000D01*
X70834023Y-46664000D01*
X70883463Y-46756494D01*
X70962815Y-46853185D01*
X71022296Y-46902000D01*
X70962815Y-46950815D01*
X70883463Y-47047506D01*
X70824498Y-47157820D01*
X70788188Y-47277518D01*
X70775928Y-47402000D01*
X70775928Y-48402000D01*
X70788188Y-48526482D01*
X70824498Y-48646180D01*
X70883463Y-48756494D01*
X70962815Y-48853185D01*
X71022296Y-48902000D01*
X70962815Y-48950815D01*
X70883463Y-49047506D01*
X70824498Y-49157820D01*
X70788188Y-49277518D01*
X70775928Y-49402000D01*
X70775928Y-50402000D01*
X70788188Y-50526482D01*
X70824498Y-50646180D01*
X70883463Y-50756494D01*
X70962815Y-50853185D01*
X71022296Y-50902000D01*
X70962815Y-50950815D01*
X70883463Y-51047506D01*
X70824498Y-51157820D01*
X70820197Y-51172000D01*
X70599454Y-51172000D01*
X70546962Y-51108038D01*
X70412387Y-50997595D01*
X70258851Y-50915528D01*
X70092255Y-50864992D01*
X69919001Y-50847928D01*
X69018999Y-50847928D01*
X68845745Y-50864992D01*
X68679149Y-50915528D01*
X68525613Y-50997595D01*
X68391038Y-51108038D01*
X68389500Y-51109912D01*
X68387962Y-51108038D01*
X68253387Y-50997595D01*
X68199000Y-50968524D01*
X68199000Y-50570468D01*
X68227205Y-50528256D01*
X68305226Y-50339898D01*
X68345000Y-50139939D01*
X68345000Y-49936061D01*
X68305226Y-49736102D01*
X68227205Y-49547744D01*
X68113937Y-49378226D01*
X67969774Y-49234063D01*
X67800256Y-49120795D01*
X67611898Y-49042774D01*
X67411939Y-49003000D01*
X67208061Y-49003000D01*
X67008102Y-49042774D01*
X66819744Y-49120795D01*
X66650226Y-49234063D01*
X66506063Y-49378226D01*
X66392795Y-49547744D01*
X66314774Y-49736102D01*
X66275000Y-49936061D01*
X66275000Y-50139939D01*
X66314774Y-50339898D01*
X66392795Y-50528256D01*
X66421000Y-50570468D01*
X66421000Y-50968524D01*
X66366613Y-50997595D01*
X66232038Y-51108038D01*
X66121595Y-51242613D01*
X66039528Y-51396149D01*
X65988992Y-51562745D01*
X65971928Y-51735999D01*
X65971928Y-52386001D01*
X65988992Y-52559255D01*
X66039528Y-52725851D01*
X66121595Y-52879387D01*
X66232038Y-53013962D01*
X66238594Y-53019342D01*
X66158815Y-53084815D01*
X66079463Y-53181506D01*
X66020498Y-53291820D01*
X65984188Y-53411518D01*
X65971928Y-53536000D01*
X65975000Y-53825250D01*
X66133750Y-53984000D01*
X67183000Y-53984000D01*
X67183000Y-53964000D01*
X67437000Y-53964000D01*
X67437000Y-53984000D01*
X69342000Y-53984000D01*
X69342000Y-53964000D01*
X69596000Y-53964000D01*
X69596000Y-53984000D01*
X70645250Y-53984000D01*
X70804000Y-53825250D01*
X70807072Y-53536000D01*
X70794812Y-53411518D01*
X70758502Y-53291820D01*
X70699537Y-53181506D01*
X70620185Y-53084815D01*
X70540406Y-53019342D01*
X70546962Y-53013962D01*
X70599454Y-52950000D01*
X71092176Y-52950000D01*
X71169820Y-52991502D01*
X71289518Y-53027812D01*
X71414000Y-53040072D01*
X73914000Y-53040072D01*
X74038482Y-53027812D01*
X74125928Y-53001286D01*
X74125928Y-54302000D01*
X74138188Y-54426482D01*
X74174498Y-54546180D01*
X74233463Y-54656494D01*
X74312815Y-54753185D01*
X74409506Y-54832537D01*
X74519820Y-54891502D01*
X74639518Y-54927812D01*
X74764000Y-54940072D01*
X75764000Y-54940072D01*
X75888482Y-54927812D01*
X76008180Y-54891502D01*
X76118494Y-54832537D01*
X76215185Y-54753185D01*
X76264000Y-54693704D01*
X76312815Y-54753185D01*
X76409506Y-54832537D01*
X76519820Y-54891502D01*
X76639518Y-54927812D01*
X76764000Y-54940072D01*
X77764000Y-54940072D01*
X77888482Y-54927812D01*
X78008180Y-54891502D01*
X78118494Y-54832537D01*
X78215185Y-54753185D01*
X78264000Y-54693704D01*
X78312815Y-54753185D01*
X78409506Y-54832537D01*
X78519820Y-54891502D01*
X78639518Y-54927812D01*
X78764000Y-54940072D01*
X79764000Y-54940072D01*
X79888482Y-54927812D01*
X80008180Y-54891502D01*
X80118494Y-54832537D01*
X80215185Y-54753185D01*
X80264000Y-54693704D01*
X80312815Y-54753185D01*
X80409506Y-54832537D01*
X80519820Y-54891502D01*
X80639518Y-54927812D01*
X80764000Y-54940072D01*
X81764000Y-54940072D01*
X81888482Y-54927812D01*
X82008180Y-54891502D01*
X82118494Y-54832537D01*
X82215185Y-54753185D01*
X82264000Y-54693704D01*
X82312815Y-54753185D01*
X82409506Y-54832537D01*
X82519820Y-54891502D01*
X82639518Y-54927812D01*
X82764000Y-54940072D01*
X83764000Y-54940072D01*
X83888482Y-54927812D01*
X84008180Y-54891502D01*
X84118494Y-54832537D01*
X84215185Y-54753185D01*
X84264000Y-54693704D01*
X84312815Y-54753185D01*
X84409506Y-54832537D01*
X84519820Y-54891502D01*
X84639518Y-54927812D01*
X84764000Y-54940072D01*
X85764000Y-54940072D01*
X85888482Y-54927812D01*
X86008180Y-54891502D01*
X86118494Y-54832537D01*
X86215185Y-54753185D01*
X86294537Y-54656494D01*
X86353502Y-54546180D01*
X86389812Y-54426482D01*
X86402072Y-54302000D01*
X86402072Y-53001286D01*
X86489518Y-53027812D01*
X86614000Y-53040072D01*
X87578250Y-53037000D01*
X87737000Y-52878250D01*
X87737000Y-52029000D01*
X87991000Y-52029000D01*
X87991000Y-52878250D01*
X88149750Y-53037000D01*
X89114000Y-53040072D01*
X89238482Y-53027812D01*
X89358180Y-52991502D01*
X89468494Y-52932537D01*
X89565185Y-52853185D01*
X89644537Y-52756494D01*
X89699322Y-52654000D01*
X90101928Y-52654000D01*
X90114188Y-52778482D01*
X90150498Y-52898180D01*
X90209463Y-53008494D01*
X90288815Y-53105185D01*
X90385506Y-53184537D01*
X90495820Y-53243502D01*
X90615518Y-53279812D01*
X90740000Y-53292072D01*
X91154250Y-53289000D01*
X91313000Y-53130250D01*
X91313000Y-52206000D01*
X90263750Y-52206000D01*
X90105000Y-52364750D01*
X90101928Y-52654000D01*
X89699322Y-52654000D01*
X89703502Y-52646180D01*
X89739812Y-52526482D01*
X89752072Y-52402000D01*
X89749000Y-52187750D01*
X89590250Y-52029000D01*
X87991000Y-52029000D01*
X87737000Y-52029000D01*
X86188603Y-52029000D01*
X86118494Y-51971463D01*
X86008180Y-51912498D01*
X85888482Y-51876188D01*
X85764000Y-51863928D01*
X84764000Y-51863928D01*
X84639518Y-51876188D01*
X84519820Y-51912498D01*
X84409506Y-51971463D01*
X84312815Y-52050815D01*
X84264000Y-52110296D01*
X84215185Y-52050815D01*
X84118494Y-51971463D01*
X84008180Y-51912498D01*
X83888482Y-51876188D01*
X83764000Y-51863928D01*
X82764000Y-51863928D01*
X82639518Y-51876188D01*
X82519820Y-51912498D01*
X82409506Y-51971463D01*
X82312815Y-52050815D01*
X82264000Y-52110296D01*
X82215185Y-52050815D01*
X82118494Y-51971463D01*
X82008180Y-51912498D01*
X81888482Y-51876188D01*
X81764000Y-51863928D01*
X80764000Y-51863928D01*
X80639518Y-51876188D01*
X80519820Y-51912498D01*
X80409506Y-51971463D01*
X80312815Y-52050815D01*
X80264000Y-52110296D01*
X80215185Y-52050815D01*
X80118494Y-51971463D01*
X80008180Y-51912498D01*
X79888482Y-51876188D01*
X79764000Y-51863928D01*
X78764000Y-51863928D01*
X78639518Y-51876188D01*
X78519820Y-51912498D01*
X78409506Y-51971463D01*
X78312815Y-52050815D01*
X78264000Y-52110296D01*
X78215185Y-52050815D01*
X78118494Y-51971463D01*
X78008180Y-51912498D01*
X77888482Y-51876188D01*
X77764000Y-51863928D01*
X76764000Y-51863928D01*
X76639518Y-51876188D01*
X76519820Y-51912498D01*
X76409506Y-51971463D01*
X76312815Y-52050815D01*
X76264000Y-52110296D01*
X76215185Y-52050815D01*
X76118494Y-51971463D01*
X76008180Y-51912498D01*
X75888482Y-51876188D01*
X75764000Y-51863928D01*
X74764000Y-51863928D01*
X74639518Y-51876188D01*
X74552072Y-51902714D01*
X74552072Y-51402000D01*
X74539812Y-51277518D01*
X74503502Y-51157820D01*
X74444537Y-51047506D01*
X74365185Y-50950815D01*
X74305704Y-50902000D01*
X74365185Y-50853185D01*
X74444537Y-50756494D01*
X74503502Y-50646180D01*
X74539812Y-50526482D01*
X74552072Y-50402000D01*
X74552072Y-49402000D01*
X74539812Y-49277518D01*
X74503502Y-49157820D01*
X74444537Y-49047506D01*
X74365185Y-48950815D01*
X74305704Y-48902000D01*
X74365185Y-48853185D01*
X74444537Y-48756494D01*
X74503502Y-48646180D01*
X74539812Y-48526482D01*
X74552072Y-48402000D01*
X74552072Y-47402000D01*
X74539812Y-47277518D01*
X74503502Y-47157820D01*
X74444537Y-47047506D01*
X74365185Y-46950815D01*
X74305704Y-46902000D01*
X74365185Y-46853185D01*
X74444537Y-46756494D01*
X74503502Y-46646180D01*
X74539812Y-46526482D01*
X74552072Y-46402000D01*
X74552072Y-45402000D01*
X74539812Y-45277518D01*
X74503502Y-45157820D01*
X74444537Y-45047506D01*
X74365185Y-44950815D01*
X74305704Y-44902000D01*
X74365185Y-44853185D01*
X74444537Y-44756494D01*
X74503502Y-44646180D01*
X74539812Y-44526482D01*
X74552072Y-44402000D01*
X74552072Y-43402000D01*
X74539812Y-43277518D01*
X74503502Y-43157820D01*
X74444537Y-43047506D01*
X74365185Y-42950815D01*
X74305704Y-42902000D01*
X74365185Y-42853185D01*
X74444537Y-42756494D01*
X74503502Y-42646180D01*
X74539812Y-42526482D01*
X74552072Y-42402000D01*
X74552072Y-41402000D01*
X74539812Y-41277518D01*
X74503502Y-41157820D01*
X74444537Y-41047506D01*
X74365185Y-40950815D01*
X74305704Y-40902000D01*
X74365185Y-40853185D01*
X74444537Y-40756494D01*
X74503502Y-40646180D01*
X74539812Y-40526482D01*
X74552072Y-40402000D01*
X74552072Y-39402000D01*
X74539812Y-39277518D01*
X74503502Y-39157820D01*
X74444537Y-39047506D01*
X74365185Y-38950815D01*
X74305704Y-38902000D01*
X74365185Y-38853185D01*
X74444537Y-38756494D01*
X74503502Y-38646180D01*
X74539812Y-38526482D01*
X74552072Y-38402000D01*
X74552072Y-37402000D01*
X74539812Y-37277518D01*
X74503502Y-37157820D01*
X74444537Y-37047506D01*
X74370261Y-36957000D01*
X84139370Y-36957000D01*
X84069654Y-37026716D01*
X84040578Y-37050578D01*
X84008789Y-37089314D01*
X83945355Y-37166608D01*
X83930394Y-37194599D01*
X83874598Y-37298986D01*
X83831026Y-37442623D01*
X83820000Y-37554574D01*
X83816314Y-37592000D01*
X83820000Y-37629424D01*
X83820001Y-39054368D01*
X83504370Y-39370000D01*
X81063415Y-39370000D01*
X81025999Y-39366315D01*
X80988583Y-39370000D01*
X80988574Y-39370000D01*
X80876622Y-39381026D01*
X80732985Y-39424598D01*
X80600608Y-39495355D01*
X80484578Y-39590578D01*
X80472742Y-39605000D01*
X80416061Y-39605000D01*
X80216102Y-39644774D01*
X80027744Y-39722795D01*
X79858226Y-39836063D01*
X79714063Y-39980226D01*
X79600795Y-40149744D01*
X79522774Y-40338102D01*
X79483000Y-40538061D01*
X79483000Y-40741939D01*
X79522774Y-40941898D01*
X79600795Y-41130256D01*
X79714063Y-41299774D01*
X79858226Y-41443937D01*
X80027744Y-41557205D01*
X80216102Y-41635226D01*
X80416061Y-41675000D01*
X80619939Y-41675000D01*
X80819898Y-41635226D01*
X81008256Y-41557205D01*
X81177774Y-41443937D01*
X81321937Y-41299774D01*
X81435205Y-41130256D01*
X81513226Y-40941898D01*
X81522753Y-40894000D01*
X83782577Y-40894000D01*
X83820000Y-40897686D01*
X83857423Y-40894000D01*
X83857426Y-40894000D01*
X83969378Y-40882974D01*
X84113015Y-40839402D01*
X84245392Y-40768645D01*
X84361422Y-40673422D01*
X84385284Y-40644347D01*
X84836000Y-40193630D01*
X84836001Y-43118369D01*
X84539370Y-43415000D01*
X84480061Y-43415000D01*
X84280102Y-43454774D01*
X84091744Y-43532795D01*
X83922226Y-43646063D01*
X83778063Y-43790226D01*
X83664795Y-43959744D01*
X83586774Y-44148102D01*
X83547000Y-44348061D01*
X83547000Y-44551939D01*
X83586774Y-44751898D01*
X83664795Y-44940256D01*
X83778063Y-45109774D01*
X83922226Y-45253937D01*
X84091744Y-45367205D01*
X84280102Y-45445226D01*
X84480061Y-45485000D01*
X84683939Y-45485000D01*
X84883898Y-45445226D01*
X85072256Y-45367205D01*
X85241774Y-45253937D01*
X85385937Y-45109774D01*
X85499205Y-44940256D01*
X85577226Y-44751898D01*
X85617000Y-44551939D01*
X85617000Y-44492630D01*
X85975928Y-44133702D01*
X85975928Y-44402000D01*
X85988188Y-44526482D01*
X86024498Y-44646180D01*
X86083463Y-44756494D01*
X86162815Y-44853185D01*
X86222296Y-44902000D01*
X86162815Y-44950815D01*
X86083463Y-45047506D01*
X86024498Y-45157820D01*
X85988188Y-45277518D01*
X85975928Y-45402000D01*
X85975928Y-46402000D01*
X85988188Y-46526482D01*
X86024498Y-46646180D01*
X86083463Y-46756494D01*
X86162815Y-46853185D01*
X86222296Y-46902000D01*
X86162815Y-46950815D01*
X86083463Y-47047506D01*
X86024498Y-47157820D01*
X85988188Y-47277518D01*
X85975928Y-47402000D01*
X85975928Y-48402000D01*
X85988188Y-48526482D01*
X86024498Y-48646180D01*
X86083463Y-48756494D01*
X86162815Y-48853185D01*
X86222296Y-48902000D01*
X86162815Y-48950815D01*
X86083463Y-49047506D01*
X86024498Y-49157820D01*
X85988188Y-49277518D01*
X85975928Y-49402000D01*
X85975928Y-50402000D01*
X85988188Y-50526482D01*
X86024498Y-50646180D01*
X86083463Y-50756494D01*
X86162815Y-50853185D01*
X86222296Y-50902000D01*
X86162815Y-50950815D01*
X86083463Y-51047506D01*
X86024498Y-51157820D01*
X85988188Y-51277518D01*
X85975928Y-51402000D01*
X85979000Y-51616250D01*
X86137750Y-51775000D01*
X87737000Y-51775000D01*
X87737000Y-51755000D01*
X87991000Y-51755000D01*
X87991000Y-51775000D01*
X89590250Y-51775000D01*
X89749000Y-51616250D01*
X89752072Y-51402000D01*
X89739812Y-51277518D01*
X89703502Y-51157820D01*
X89644537Y-51047506D01*
X89565185Y-50950815D01*
X89505704Y-50902000D01*
X89565185Y-50853185D01*
X89644537Y-50756494D01*
X89693977Y-50664000D01*
X90160473Y-50664000D01*
X90169528Y-50693851D01*
X90251595Y-50847387D01*
X90362038Y-50981962D01*
X90368594Y-50987342D01*
X90288815Y-51052815D01*
X90209463Y-51149506D01*
X90150498Y-51259820D01*
X90114188Y-51379518D01*
X90101928Y-51504000D01*
X90105000Y-51793250D01*
X90263750Y-51952000D01*
X91313000Y-51952000D01*
X91313000Y-51932000D01*
X91567000Y-51932000D01*
X91567000Y-51952000D01*
X91587000Y-51952000D01*
X91587000Y-52206000D01*
X91567000Y-52206000D01*
X91567000Y-53130250D01*
X91725750Y-53289000D01*
X92140000Y-53292072D01*
X92264482Y-53279812D01*
X92384180Y-53243502D01*
X92494494Y-53184537D01*
X92591185Y-53105185D01*
X92670537Y-53008494D01*
X92710000Y-52934664D01*
X92710000Y-54670289D01*
X92668063Y-54712226D01*
X92554795Y-54881744D01*
X92476774Y-55070102D01*
X92437000Y-55270061D01*
X92437000Y-55473939D01*
X92476774Y-55673898D01*
X92554795Y-55862256D01*
X92566651Y-55880000D01*
X82587422Y-55880000D01*
X82549999Y-55876314D01*
X82512576Y-55880000D01*
X82512574Y-55880000D01*
X82400622Y-55891026D01*
X82256985Y-55934598D01*
X82124608Y-56005355D01*
X82008578Y-56100578D01*
X81984721Y-56129648D01*
X80767649Y-57346721D01*
X80738579Y-57370578D01*
X80714722Y-57399648D01*
X80714721Y-57399649D01*
X80643355Y-57486608D01*
X80572599Y-57618985D01*
X80529027Y-57762622D01*
X80514314Y-57912000D01*
X80518001Y-57949433D01*
X80518001Y-58921474D01*
X80450986Y-58957294D01*
X80224866Y-59142866D01*
X80039294Y-59368986D01*
X79901401Y-59626966D01*
X79816487Y-59906889D01*
X79787815Y-60198000D01*
X79816487Y-60489111D01*
X79901401Y-60769034D01*
X80039294Y-61027014D01*
X80224866Y-61253134D01*
X80254687Y-61277607D01*
X80185820Y-61298498D01*
X80075506Y-61357463D01*
X79978815Y-61436815D01*
X79899463Y-61533506D01*
X79840498Y-61643820D01*
X79804188Y-61763518D01*
X79791928Y-61888000D01*
X79791928Y-63588000D01*
X79804188Y-63712482D01*
X79840498Y-63832180D01*
X79899463Y-63942494D01*
X79978815Y-64039185D01*
X80075506Y-64118537D01*
X80185820Y-64177502D01*
X80305518Y-64213812D01*
X80430000Y-64226072D01*
X82130000Y-64226072D01*
X82254482Y-64213812D01*
X82374180Y-64177502D01*
X82484494Y-64118537D01*
X82581185Y-64039185D01*
X82660537Y-63942494D01*
X82719502Y-63832180D01*
X82740393Y-63763313D01*
X82764866Y-63793134D01*
X82990986Y-63978706D01*
X83248966Y-64116599D01*
X83528889Y-64201513D01*
X83747050Y-64223000D01*
X83892950Y-64223000D01*
X84111111Y-64201513D01*
X84391034Y-64116599D01*
X84649014Y-63978706D01*
X84875134Y-63793134D01*
X85060706Y-63567014D01*
X85090000Y-63512209D01*
X85119294Y-63567014D01*
X85304866Y-63793134D01*
X85530986Y-63978706D01*
X85788966Y-64116599D01*
X86068889Y-64201513D01*
X86287050Y-64223000D01*
X86432950Y-64223000D01*
X86651111Y-64201513D01*
X86931034Y-64116599D01*
X87189014Y-63978706D01*
X87415134Y-63793134D01*
X87600706Y-63567014D01*
X87630000Y-63512209D01*
X87659294Y-63567014D01*
X87844866Y-63793134D01*
X88070986Y-63978706D01*
X88328966Y-64116599D01*
X88608889Y-64201513D01*
X88827050Y-64223000D01*
X88972950Y-64223000D01*
X89191111Y-64201513D01*
X89471034Y-64116599D01*
X89729014Y-63978706D01*
X89955134Y-63793134D01*
X90140706Y-63567014D01*
X90170000Y-63512209D01*
X90199294Y-63567014D01*
X90384866Y-63793134D01*
X90610986Y-63978706D01*
X90868966Y-64116599D01*
X91148889Y-64201513D01*
X91367050Y-64223000D01*
X91512950Y-64223000D01*
X91731111Y-64201513D01*
X92011034Y-64116599D01*
X92269014Y-63978706D01*
X92495134Y-63793134D01*
X92680706Y-63567014D01*
X92818599Y-63309034D01*
X92903513Y-63029111D01*
X92932185Y-62738000D01*
X92903513Y-62446889D01*
X92818599Y-62166966D01*
X92680706Y-61908986D01*
X92495134Y-61682866D01*
X92269014Y-61497294D01*
X92211244Y-61466416D01*
X92440269Y-61295588D01*
X92635178Y-61079355D01*
X92784157Y-60829252D01*
X92881481Y-60554891D01*
X92760814Y-60325000D01*
X91567000Y-60325000D01*
X91567000Y-60345000D01*
X91313000Y-60345000D01*
X91313000Y-60325000D01*
X91293000Y-60325000D01*
X91293000Y-60071000D01*
X91313000Y-60071000D01*
X91313000Y-58877845D01*
X91567000Y-58877845D01*
X91567000Y-60071000D01*
X92760814Y-60071000D01*
X92881481Y-59841109D01*
X92784157Y-59566748D01*
X92635178Y-59316645D01*
X92440269Y-59100412D01*
X92206920Y-58926359D01*
X91944099Y-58801175D01*
X91796890Y-58756524D01*
X91567000Y-58877845D01*
X91313000Y-58877845D01*
X91083110Y-58756524D01*
X90935901Y-58801175D01*
X90673080Y-58926359D01*
X90439731Y-59100412D01*
X90244822Y-59316645D01*
X90175201Y-59433523D01*
X90140706Y-59368986D01*
X89955134Y-59142866D01*
X89729014Y-58957294D01*
X89471034Y-58819401D01*
X89191111Y-58734487D01*
X88972950Y-58713000D01*
X88827050Y-58713000D01*
X88608889Y-58734487D01*
X88328966Y-58819401D01*
X88070986Y-58957294D01*
X87844866Y-59142866D01*
X87659294Y-59368986D01*
X87630000Y-59423791D01*
X87600706Y-59368986D01*
X87415134Y-59142866D01*
X87189014Y-58957294D01*
X86931034Y-58819401D01*
X86651111Y-58734487D01*
X86432950Y-58713000D01*
X86287050Y-58713000D01*
X86068889Y-58734487D01*
X85788966Y-58819401D01*
X85530986Y-58957294D01*
X85304866Y-59142866D01*
X85119294Y-59368986D01*
X85090000Y-59423791D01*
X85060706Y-59368986D01*
X84875134Y-59142866D01*
X84649014Y-58957294D01*
X84582000Y-58921474D01*
X84582000Y-58481630D01*
X84897631Y-58166000D01*
X94958577Y-58166000D01*
X94996000Y-58169686D01*
X95033423Y-58166000D01*
X95033426Y-58166000D01*
X95145378Y-58154974D01*
X95289015Y-58111402D01*
X95421392Y-58040645D01*
X95537422Y-57945422D01*
X95561284Y-57916346D01*
X97032353Y-56445278D01*
X97061422Y-56421422D01*
X97156645Y-56305392D01*
X97227402Y-56173015D01*
X97270974Y-56029378D01*
X97282000Y-55917426D01*
X97282000Y-55917424D01*
X97285686Y-55880001D01*
X97282000Y-55842578D01*
X97282000Y-38645423D01*
X97285686Y-38608000D01*
X97274226Y-38491645D01*
X97270974Y-38458622D01*
X97227402Y-38314985D01*
X97163277Y-38195015D01*
X97156645Y-38182607D01*
X97085279Y-38095648D01*
X97061422Y-38066578D01*
X97032351Y-38042720D01*
X96379283Y-37389653D01*
X96355422Y-37360578D01*
X96239392Y-37265355D01*
X96107015Y-37194598D01*
X95963378Y-37151026D01*
X95851426Y-37140000D01*
X95851423Y-37140000D01*
X95814000Y-37136314D01*
X95776577Y-37140000D01*
X95657734Y-37140000D01*
X95877355Y-37009178D01*
X96093588Y-36814269D01*
X96267641Y-36580920D01*
X96392825Y-36318099D01*
X96437476Y-36170890D01*
X96316155Y-35941000D01*
X95123000Y-35941000D01*
X95123000Y-35961000D01*
X94869000Y-35961000D01*
X94869000Y-35941000D01*
X93675845Y-35941000D01*
X93554524Y-36170890D01*
X93599175Y-36318099D01*
X93724359Y-36580920D01*
X93898412Y-36814269D01*
X94114645Y-37009178D01*
X94334266Y-37140000D01*
X89693977Y-37140000D01*
X89644537Y-37047506D01*
X89565185Y-36950815D01*
X89468494Y-36871463D01*
X89358180Y-36812498D01*
X89238482Y-36776188D01*
X89114000Y-36763928D01*
X88392000Y-36763928D01*
X88392000Y-34036000D01*
X93719474Y-34036000D01*
X93755294Y-34103014D01*
X93940866Y-34329134D01*
X94166986Y-34514706D01*
X94231523Y-34549201D01*
X94114645Y-34618822D01*
X93898412Y-34813731D01*
X93724359Y-35047080D01*
X93599175Y-35309901D01*
X93554524Y-35457110D01*
X93675845Y-35687000D01*
X94869000Y-35687000D01*
X94869000Y-35667000D01*
X95123000Y-35667000D01*
X95123000Y-35687000D01*
X96316155Y-35687000D01*
X96437476Y-35457110D01*
X96392825Y-35309901D01*
X96267641Y-35047080D01*
X96093588Y-34813731D01*
X95877355Y-34618822D01*
X95760477Y-34549201D01*
X95825014Y-34514706D01*
X96051134Y-34329134D01*
X96236706Y-34103014D01*
X96374599Y-33845034D01*
X96459513Y-33565111D01*
X96488185Y-33274000D01*
X96459513Y-32982889D01*
X96374599Y-32702966D01*
X96236706Y-32444986D01*
X96051134Y-32218866D01*
X95825014Y-32033294D01*
X95770209Y-32004000D01*
X95825014Y-31974706D01*
X96051134Y-31789134D01*
X96236706Y-31563014D01*
X96374599Y-31305034D01*
X96459513Y-31025111D01*
X96488185Y-30734000D01*
X96459513Y-30442889D01*
X96374599Y-30162966D01*
X96236706Y-29904986D01*
X96051134Y-29678866D01*
X96021313Y-29654393D01*
X96090180Y-29633502D01*
X96200494Y-29574537D01*
X96297185Y-29495185D01*
X96376537Y-29398494D01*
X96435502Y-29288180D01*
X96471812Y-29168482D01*
X96484072Y-29044000D01*
X96484072Y-27344000D01*
X96471812Y-27219518D01*
X96435502Y-27099820D01*
X96376537Y-26989506D01*
X96297185Y-26892815D01*
X96200494Y-26813463D01*
X96090180Y-26754498D01*
X95970482Y-26718188D01*
X95846000Y-26705928D01*
X94146000Y-26705928D01*
X94021518Y-26718188D01*
X93901820Y-26754498D01*
X93791506Y-26813463D01*
X93694815Y-26892815D01*
X93615463Y-26989506D01*
X93556498Y-27099820D01*
X93520188Y-27219518D01*
X93507928Y-27344000D01*
X93507928Y-27686000D01*
X70528660Y-27686000D01*
X70485000Y-27681700D01*
X70441340Y-27686000D01*
X70441333Y-27686000D01*
X70327325Y-27697229D01*
X70310725Y-27698864D01*
X70259892Y-27714284D01*
X70143149Y-27749697D01*
X69988709Y-27832247D01*
X69853341Y-27943341D01*
X69825506Y-27977258D01*
X68109259Y-29693506D01*
X68075342Y-29721341D01*
X68047507Y-29755258D01*
X68047505Y-29755260D01*
X67964248Y-29856709D01*
X67881698Y-30011148D01*
X67830864Y-30178726D01*
X67813700Y-30353000D01*
X67818001Y-30396670D01*
X67818000Y-33080289D01*
X67776063Y-33122226D01*
X67662795Y-33291744D01*
X67584774Y-33480102D01*
X67545000Y-33680061D01*
X67545000Y-33883939D01*
X67584774Y-34083898D01*
X67662795Y-34272256D01*
X67776063Y-34441774D01*
X67818000Y-34483711D01*
X67818000Y-34712524D01*
X67763613Y-34741595D01*
X67629038Y-34852038D01*
X67537238Y-34963896D01*
X67485149Y-34979697D01*
X67330709Y-35062247D01*
X67195341Y-35173341D01*
X67167505Y-35207259D01*
X66204259Y-36170506D01*
X66170342Y-36198341D01*
X66142507Y-36232258D01*
X66142505Y-36232260D01*
X66059248Y-36333709D01*
X65976698Y-36488148D01*
X65925864Y-36655726D01*
X65908700Y-36830000D01*
X65913001Y-36873670D01*
X65913000Y-39834340D01*
X65908700Y-39878000D01*
X65913000Y-39921660D01*
X65913000Y-39921666D01*
X65918768Y-39980226D01*
X65925864Y-40052274D01*
X65939910Y-40098578D01*
X65976697Y-40219850D01*
X66059247Y-40374290D01*
X66170341Y-40509659D01*
X66204263Y-40537499D01*
X66895505Y-41228741D01*
X66923341Y-41262659D01*
X67058709Y-41373753D01*
X67213149Y-41456303D01*
X67280087Y-41476608D01*
X67380725Y-41507136D01*
X67397325Y-41508771D01*
X67511333Y-41520000D01*
X67511340Y-41520000D01*
X67555000Y-41524300D01*
X67578199Y-41522015D01*
X67629038Y-41583962D01*
X67716816Y-41656000D01*
X67629038Y-41728038D01*
X67518595Y-41862613D01*
X67436528Y-42016149D01*
X67385992Y-42182745D01*
X67368928Y-42355999D01*
X67368928Y-43006001D01*
X67385992Y-43179255D01*
X67436528Y-43345851D01*
X67518595Y-43499387D01*
X67629038Y-43633962D01*
X67763613Y-43744405D01*
X67917149Y-43826472D01*
X68083745Y-43877008D01*
X68256999Y-43894072D01*
X69157001Y-43894072D01*
X69330255Y-43877008D01*
X69351940Y-43870430D01*
X69280370Y-43942000D01*
X67093423Y-43942000D01*
X67056000Y-43938314D01*
X67018577Y-43942000D01*
X67018574Y-43942000D01*
X66906622Y-43953026D01*
X66762985Y-43996598D01*
X66710582Y-44024608D01*
X66630607Y-44067355D01*
X66588219Y-44102143D01*
X66514578Y-44162578D01*
X66490716Y-44191654D01*
X63749654Y-46932716D01*
X63720578Y-46956578D01*
X63664983Y-47024322D01*
X63625355Y-47072608D01*
X63591304Y-47136314D01*
X63554598Y-47204986D01*
X63511026Y-47348623D01*
X63504450Y-47415392D01*
X63496314Y-47498000D01*
X61341000Y-47498000D01*
X61341000Y-44006866D01*
X63848085Y-41499782D01*
X63911082Y-41448082D01*
X64117398Y-41196684D01*
X64270705Y-40909867D01*
X64365111Y-40598653D01*
X64389000Y-40356104D01*
X64389000Y-40356101D01*
X64396988Y-40275000D01*
X64389000Y-40193899D01*
X64389000Y-34117101D01*
X64396988Y-34036000D01*
X64387626Y-33940948D01*
X64365111Y-33712347D01*
X64277453Y-33423378D01*
X64270705Y-33401132D01*
X64117398Y-33114316D01*
X64110993Y-33106511D01*
X63911082Y-32862918D01*
X63848080Y-32811214D01*
X63348072Y-32311206D01*
X63348072Y-30635000D01*
X63335812Y-30510518D01*
X63299502Y-30390820D01*
X63240537Y-30280506D01*
X63161185Y-30183815D01*
X63064494Y-30104463D01*
X62954180Y-30045498D01*
X62834482Y-30009188D01*
X62710000Y-29996928D01*
X59210000Y-29996928D01*
X59085518Y-30009188D01*
X58965820Y-30045498D01*
X58855506Y-30104463D01*
X58758815Y-30183815D01*
X58679463Y-30280506D01*
X58620498Y-30390820D01*
X58584188Y-30510518D01*
X58571928Y-30635000D01*
X58571928Y-34135000D01*
X58584188Y-34259482D01*
X58620498Y-34379180D01*
X58679463Y-34489494D01*
X58758815Y-34586185D01*
X58855506Y-34665537D01*
X58932131Y-34706494D01*
X58835000Y-34696928D01*
X57085000Y-34696928D01*
X56789814Y-34726001D01*
X56505972Y-34812104D01*
X56244382Y-34951927D01*
X56015097Y-35140097D01*
X55826927Y-35369382D01*
X55687104Y-35630972D01*
X55601001Y-35914814D01*
X55571928Y-36210000D01*
X51460000Y-36210000D01*
X51460000Y-34135000D01*
X52821928Y-34135000D01*
X52834188Y-34259482D01*
X52870498Y-34379180D01*
X52929463Y-34489494D01*
X53008815Y-34586185D01*
X53105506Y-34665537D01*
X53215820Y-34724502D01*
X53335518Y-34760812D01*
X53460000Y-34773072D01*
X54674250Y-34770000D01*
X54833000Y-34611250D01*
X54833000Y-32512000D01*
X55087000Y-32512000D01*
X55087000Y-34611250D01*
X55245750Y-34770000D01*
X56460000Y-34773072D01*
X56584482Y-34760812D01*
X56704180Y-34724502D01*
X56814494Y-34665537D01*
X56911185Y-34586185D01*
X56990537Y-34489494D01*
X57049502Y-34379180D01*
X57085812Y-34259482D01*
X57098072Y-34135000D01*
X57095000Y-32670750D01*
X56936250Y-32512000D01*
X55087000Y-32512000D01*
X54833000Y-32512000D01*
X52983750Y-32512000D01*
X52825000Y-32670750D01*
X52821928Y-34135000D01*
X51460000Y-34135000D01*
X51460000Y-30635000D01*
X52821928Y-30635000D01*
X52825000Y-32099250D01*
X52983750Y-32258000D01*
X54833000Y-32258000D01*
X54833000Y-30158750D01*
X55087000Y-30158750D01*
X55087000Y-32258000D01*
X56936250Y-32258000D01*
X57095000Y-32099250D01*
X57098072Y-30635000D01*
X57085812Y-30510518D01*
X57049502Y-30390820D01*
X56990537Y-30280506D01*
X56911185Y-30183815D01*
X56814494Y-30104463D01*
X56704180Y-30045498D01*
X56584482Y-30009188D01*
X56460000Y-29996928D01*
X55245750Y-30000000D01*
X55087000Y-30158750D01*
X54833000Y-30158750D01*
X54674250Y-30000000D01*
X53460000Y-29996928D01*
X53335518Y-30009188D01*
X53215820Y-30045498D01*
X53105506Y-30104463D01*
X53008815Y-30183815D01*
X52929463Y-30280506D01*
X52870498Y-30390820D01*
X52834188Y-30510518D01*
X52821928Y-30635000D01*
X51460000Y-30635000D01*
X51460000Y-26060000D01*
X98400001Y-26060000D01*
X98400000Y-73000000D01*
X98400000Y-73000000D01*
G37*
X98400000Y-73000000D02*
X51460000Y-73000000D01*
X51460000Y-69254000D01*
X56423928Y-69254000D01*
X56423928Y-70954000D01*
X56436188Y-71078482D01*
X56472498Y-71198180D01*
X56531463Y-71308494D01*
X56610815Y-71405185D01*
X56707506Y-71484537D01*
X56817820Y-71543502D01*
X56937518Y-71579812D01*
X57062000Y-71592072D01*
X58762000Y-71592072D01*
X58886482Y-71579812D01*
X59006180Y-71543502D01*
X59116494Y-71484537D01*
X59213185Y-71405185D01*
X59292537Y-71308494D01*
X59351502Y-71198180D01*
X59387812Y-71078482D01*
X59400072Y-70954000D01*
X59400072Y-69254000D01*
X59387812Y-69129518D01*
X59351502Y-69009820D01*
X59296131Y-68906229D01*
X91480000Y-68906229D01*
X91480000Y-69523771D01*
X91600476Y-70129446D01*
X91836799Y-70699979D01*
X92179886Y-71213446D01*
X92616554Y-71650114D01*
X93130021Y-71993201D01*
X93700554Y-72229524D01*
X94306229Y-72350000D01*
X94923771Y-72350000D01*
X95529446Y-72229524D01*
X96099979Y-71993201D01*
X96613446Y-71650114D01*
X97050114Y-71213446D01*
X97393201Y-70699979D01*
X97629524Y-70129446D01*
X97750000Y-69523771D01*
X97750000Y-68906229D01*
X97629524Y-68300554D01*
X97393201Y-67730021D01*
X97050114Y-67216554D01*
X96613446Y-66779886D01*
X96099979Y-66436799D01*
X95529446Y-66200476D01*
X94923771Y-66080000D01*
X94306229Y-66080000D01*
X93700554Y-66200476D01*
X93130021Y-66436799D01*
X92616554Y-66779886D01*
X92179886Y-67216554D01*
X91836799Y-67730021D01*
X91600476Y-68300554D01*
X91480000Y-68906229D01*
X59296131Y-68906229D01*
X59292537Y-68899506D01*
X59213185Y-68802815D01*
X59116494Y-68723463D01*
X59006180Y-68664498D01*
X58925534Y-68640034D01*
X59009588Y-68564269D01*
X59183641Y-68330920D01*
X59308825Y-68068099D01*
X59353476Y-67920890D01*
X59232155Y-67691000D01*
X58039000Y-67691000D01*
X58039000Y-67711000D01*
X57785000Y-67711000D01*
X57785000Y-67691000D01*
X56591845Y-67691000D01*
X56470524Y-67920890D01*
X56515175Y-68068099D01*
X56640359Y-68330920D01*
X56814412Y-68564269D01*
X56898466Y-68640034D01*
X56817820Y-68664498D01*
X56707506Y-68723463D01*
X56610815Y-68802815D01*
X56531463Y-68899506D01*
X56472498Y-69009820D01*
X56436188Y-69129518D01*
X56423928Y-69254000D01*
X51460000Y-69254000D01*
X51460000Y-67207110D01*
X56470524Y-67207110D01*
X56591845Y-67437000D01*
X57785000Y-67437000D01*
X57785000Y-66243186D01*
X58039000Y-66243186D01*
X58039000Y-67437000D01*
X59232155Y-67437000D01*
X59353476Y-67207110D01*
X59308825Y-67059901D01*
X59183641Y-66797080D01*
X59009588Y-66563731D01*
X58793355Y-66368822D01*
X58543252Y-66219843D01*
X58268891Y-66122519D01*
X58039000Y-66243186D01*
X57785000Y-66243186D01*
X57555109Y-66122519D01*
X57280748Y-66219843D01*
X57030645Y-66368822D01*
X56814412Y-66563731D01*
X56640359Y-66797080D01*
X56515175Y-67059901D01*
X56470524Y-67207110D01*
X51460000Y-67207110D01*
X51460000Y-58900000D01*
X52821928Y-58900000D01*
X52834188Y-59024482D01*
X52870498Y-59144180D01*
X52929463Y-59254494D01*
X53008815Y-59351185D01*
X53105506Y-59430537D01*
X53215820Y-59489502D01*
X53335518Y-59525812D01*
X53460000Y-59538072D01*
X54674250Y-59535000D01*
X54833000Y-59376250D01*
X54833000Y-57277000D01*
X55087000Y-57277000D01*
X55087000Y-59376250D01*
X55245750Y-59535000D01*
X56460000Y-59538072D01*
X56584482Y-59525812D01*
X56704180Y-59489502D01*
X56814494Y-59430537D01*
X56911185Y-59351185D01*
X56990537Y-59254494D01*
X57049502Y-59144180D01*
X57085812Y-59024482D01*
X57098072Y-58900000D01*
X57095000Y-57435750D01*
X56936250Y-57277000D01*
X55087000Y-57277000D01*
X54833000Y-57277000D01*
X52983750Y-57277000D01*
X52825000Y-57435750D01*
X52821928Y-58900000D01*
X51460000Y-58900000D01*
X51460000Y-55400000D01*
X52821928Y-55400000D01*
X52825000Y-56864250D01*
X52983750Y-57023000D01*
X54833000Y-57023000D01*
X54833000Y-54923750D01*
X55087000Y-54923750D01*
X55087000Y-57023000D01*
X56936250Y-57023000D01*
X57095000Y-56864250D01*
X57098072Y-55400000D01*
X57085812Y-55275518D01*
X57049502Y-55155820D01*
X56990537Y-55045506D01*
X56911185Y-54948815D01*
X56814494Y-54869463D01*
X56704180Y-54810498D01*
X56584482Y-54774188D01*
X56460000Y-54761928D01*
X55245750Y-54765000D01*
X55087000Y-54923750D01*
X54833000Y-54923750D01*
X54674250Y-54765000D01*
X53460000Y-54761928D01*
X53335518Y-54774188D01*
X53215820Y-54810498D01*
X53105506Y-54869463D01*
X53008815Y-54948815D01*
X52929463Y-55045506D01*
X52870498Y-55155820D01*
X52834188Y-55275518D01*
X52821928Y-55400000D01*
X51460000Y-55400000D01*
X51460000Y-47490413D01*
X53734192Y-47490413D01*
X53829956Y-47754814D01*
X54119571Y-47895704D01*
X54431108Y-47977384D01*
X54752595Y-47996718D01*
X55071675Y-47952961D01*
X55376088Y-47847795D01*
X55550044Y-47754814D01*
X55645808Y-47490413D01*
X54690000Y-46534605D01*
X53734192Y-47490413D01*
X51460000Y-47490413D01*
X51460000Y-46417595D01*
X53048282Y-46417595D01*
X53092039Y-46736675D01*
X53197205Y-47041088D01*
X53290186Y-47215044D01*
X53554587Y-47310808D01*
X54510395Y-46355000D01*
X54869605Y-46355000D01*
X55825413Y-47310808D01*
X56089814Y-47215044D01*
X56230704Y-46925429D01*
X56312384Y-46613892D01*
X56331718Y-46292405D01*
X56287961Y-45973325D01*
X56182795Y-45668912D01*
X56089814Y-45494956D01*
X55825413Y-45399192D01*
X54869605Y-46355000D01*
X54510395Y-46355000D01*
X53554587Y-45399192D01*
X53290186Y-45494956D01*
X53149296Y-45784571D01*
X53067616Y-46096108D01*
X53048282Y-46417595D01*
X51460000Y-46417595D01*
X51460000Y-45219587D01*
X53734192Y-45219587D01*
X54690000Y-46175395D01*
X55645808Y-45219587D01*
X55550044Y-44955186D01*
X55260429Y-44814296D01*
X54948892Y-44732616D01*
X54627405Y-44713282D01*
X54308325Y-44757039D01*
X54003912Y-44862205D01*
X53829956Y-44955186D01*
X53734192Y-45219587D01*
X51460000Y-45219587D01*
X51460000Y-36210000D01*
X55571928Y-36210000D01*
X55571928Y-37960000D01*
X55601001Y-38255186D01*
X55687104Y-38539028D01*
X55826927Y-38800618D01*
X56015097Y-39029903D01*
X56244382Y-39218073D01*
X56505972Y-39357896D01*
X56789814Y-39443999D01*
X57085000Y-39473072D01*
X58835000Y-39473072D01*
X59130186Y-39443999D01*
X59414028Y-39357896D01*
X59675618Y-39218073D01*
X59904903Y-39029903D01*
X60093073Y-38800618D01*
X60232896Y-38539028D01*
X60318999Y-38255186D01*
X60348072Y-37960000D01*
X60348072Y-36210000D01*
X60318999Y-35914814D01*
X60232896Y-35630972D01*
X60093073Y-35369382D01*
X59904903Y-35140097D01*
X59675618Y-34951927D01*
X59414028Y-34812104D01*
X59285357Y-34773072D01*
X61087000Y-34773072D01*
X61087001Y-39591132D01*
X58579921Y-42098213D01*
X58516918Y-42149918D01*
X58310602Y-42401317D01*
X58157295Y-42688134D01*
X58062889Y-42999348D01*
X58040605Y-43225599D01*
X58031012Y-43323000D01*
X58039000Y-43404101D01*
X58039001Y-46273887D01*
X58039000Y-46273897D01*
X58039001Y-55798889D01*
X58031012Y-55880000D01*
X58050388Y-56076721D01*
X58062890Y-56203653D01*
X58119929Y-56391686D01*
X58157296Y-56514867D01*
X58305095Y-56791379D01*
X58310603Y-56801684D01*
X58516919Y-57053082D01*
X58571928Y-57098226D01*
X58571928Y-58900000D01*
X58584188Y-59024482D01*
X58620498Y-59144180D01*
X58679463Y-59254494D01*
X58758815Y-59351185D01*
X58855506Y-59430537D01*
X58932131Y-59471494D01*
X58835000Y-59461928D01*
X57085000Y-59461928D01*
X56789814Y-59491001D01*
X56505972Y-59577104D01*
X56244382Y-59716927D01*
X56015097Y-59905097D01*
X55826927Y-60134382D01*
X55687104Y-60395972D01*
X55601001Y-60679814D01*
X55571928Y-60975000D01*
X55571928Y-62725000D01*
X55601001Y-63020186D01*
X55687104Y-63304028D01*
X55826927Y-63565618D01*
X56015097Y-63794903D01*
X56244382Y-63983073D01*
X56505972Y-64122896D01*
X56789814Y-64208999D01*
X57085000Y-64238072D01*
X58835000Y-64238072D01*
X59130186Y-64208999D01*
X59414028Y-64122896D01*
X59675618Y-63983073D01*
X59904903Y-63794903D01*
X60093073Y-63565618D01*
X60232896Y-63304028D01*
X60318999Y-63020186D01*
X60348072Y-62725000D01*
X60348072Y-60975000D01*
X60318999Y-60679814D01*
X60232896Y-60395972D01*
X60093073Y-60134382D01*
X59904903Y-59905097D01*
X59675618Y-59716927D01*
X59414028Y-59577104D01*
X59285357Y-59538072D01*
X62710000Y-59538072D01*
X62834482Y-59525812D01*
X62954180Y-59489502D01*
X63064494Y-59430537D01*
X63161185Y-59351185D01*
X63240537Y-59254494D01*
X63299502Y-59144180D01*
X63335812Y-59024482D01*
X63348072Y-58900000D01*
X63348072Y-55400000D01*
X63335812Y-55275518D01*
X63299502Y-55155820D01*
X63240537Y-55045506D01*
X63161185Y-54948815D01*
X63064494Y-54869463D01*
X62954180Y-54810498D01*
X62834482Y-54774188D01*
X62710000Y-54761928D01*
X61341000Y-54761928D01*
X61341000Y-47498000D01*
X63496314Y-47498000D01*
X63500000Y-47535423D01*
X63500001Y-56604567D01*
X63496314Y-56642000D01*
X63511027Y-56791378D01*
X63554599Y-56935015D01*
X63625355Y-57067392D01*
X63696721Y-57154351D01*
X63720579Y-57183422D01*
X63749649Y-57207279D01*
X64638648Y-58096279D01*
X64638653Y-58096283D01*
X66630545Y-60088175D01*
X66608487Y-60160889D01*
X66579815Y-60452000D01*
X66608487Y-60743111D01*
X66693401Y-61023034D01*
X66831294Y-61281014D01*
X67016866Y-61507134D01*
X67242986Y-61692706D01*
X67500966Y-61830599D01*
X67780889Y-61915513D01*
X67999050Y-61937000D01*
X68144950Y-61937000D01*
X68363111Y-61915513D01*
X68643034Y-61830599D01*
X68901014Y-61692706D01*
X69127134Y-61507134D01*
X69151607Y-61477313D01*
X69172498Y-61546180D01*
X69231463Y-61656494D01*
X69310815Y-61753185D01*
X69407506Y-61832537D01*
X69517820Y-61891502D01*
X69637518Y-61927812D01*
X69762000Y-61940072D01*
X69850000Y-61940072D01*
X69850001Y-63208567D01*
X69846314Y-63246000D01*
X69861027Y-63395378D01*
X69904599Y-63539015D01*
X69975355Y-63671392D01*
X70046721Y-63758351D01*
X70070579Y-63787422D01*
X70099649Y-63811279D01*
X72078721Y-65790352D01*
X72102578Y-65819422D01*
X72131648Y-65843279D01*
X72218607Y-65914645D01*
X72289364Y-65952465D01*
X72350985Y-65985402D01*
X72494622Y-66028974D01*
X72606574Y-66040000D01*
X72606577Y-66040000D01*
X72644000Y-66043686D01*
X72681423Y-66040000D01*
X94958577Y-66040000D01*
X94996000Y-66043686D01*
X95033423Y-66040000D01*
X95033426Y-66040000D01*
X95145378Y-66028974D01*
X95289015Y-65985402D01*
X95421392Y-65914645D01*
X95537422Y-65819422D01*
X95561284Y-65790346D01*
X96308631Y-65043000D01*
X96367939Y-65043000D01*
X96567898Y-65003226D01*
X96756256Y-64925205D01*
X96925774Y-64811937D01*
X97069937Y-64667774D01*
X97183205Y-64498256D01*
X97261226Y-64309898D01*
X97301000Y-64109939D01*
X97301000Y-63906061D01*
X97261226Y-63706102D01*
X97183205Y-63517744D01*
X97069937Y-63348226D01*
X96925774Y-63204063D01*
X96756256Y-63090795D01*
X96567898Y-63012774D01*
X96367939Y-62973000D01*
X96164061Y-62973000D01*
X95964102Y-63012774D01*
X95775744Y-63090795D01*
X95606226Y-63204063D01*
X95462063Y-63348226D01*
X95348795Y-63517744D01*
X95270774Y-63706102D01*
X95231000Y-63906061D01*
X95231000Y-63965369D01*
X94680370Y-64516000D01*
X72959631Y-64516000D01*
X71374000Y-62930370D01*
X71374000Y-61940072D01*
X71462000Y-61940072D01*
X71586482Y-61927812D01*
X71706180Y-61891502D01*
X71816494Y-61832537D01*
X71913185Y-61753185D01*
X71992537Y-61656494D01*
X72051502Y-61546180D01*
X72087812Y-61426482D01*
X72100072Y-61302000D01*
X72100072Y-59602000D01*
X72087812Y-59477518D01*
X72051502Y-59357820D01*
X71992537Y-59247506D01*
X71913185Y-59150815D01*
X71816494Y-59071463D01*
X71706180Y-59012498D01*
X71637313Y-58991607D01*
X71667134Y-58967134D01*
X71852706Y-58741014D01*
X71990599Y-58483034D01*
X72075513Y-58203111D01*
X72104185Y-57912000D01*
X72075513Y-57620889D01*
X71990599Y-57340966D01*
X71852706Y-57082986D01*
X71667134Y-56856866D01*
X71441014Y-56671294D01*
X71183034Y-56533401D01*
X70903111Y-56448487D01*
X70684950Y-56427000D01*
X70539050Y-56427000D01*
X70320889Y-56448487D01*
X70040966Y-56533401D01*
X69782986Y-56671294D01*
X69556866Y-56856866D01*
X69371294Y-57082986D01*
X69342000Y-57137791D01*
X69312706Y-57082986D01*
X69127134Y-56856866D01*
X68901014Y-56671294D01*
X68643034Y-56533401D01*
X68363111Y-56448487D01*
X68144950Y-56427000D01*
X67999050Y-56427000D01*
X67780889Y-56448487D01*
X67708175Y-56470545D01*
X67067469Y-55829838D01*
X67089422Y-55811822D01*
X67184645Y-55695792D01*
X67255402Y-55563415D01*
X67298974Y-55419778D01*
X67313686Y-55270400D01*
X67298974Y-55121022D01*
X67255402Y-54977385D01*
X67184645Y-54845008D01*
X67183000Y-54843004D01*
X67183000Y-54238000D01*
X67437000Y-54238000D01*
X67437000Y-55162250D01*
X67595750Y-55321000D01*
X68010000Y-55324072D01*
X68134482Y-55311812D01*
X68254180Y-55275502D01*
X68364494Y-55216537D01*
X68389500Y-55196015D01*
X68414506Y-55216537D01*
X68524820Y-55275502D01*
X68644518Y-55311812D01*
X68769000Y-55324072D01*
X69183250Y-55321000D01*
X69342000Y-55162250D01*
X69342000Y-54238000D01*
X69596000Y-54238000D01*
X69596000Y-55162250D01*
X69754750Y-55321000D01*
X70169000Y-55324072D01*
X70293482Y-55311812D01*
X70413180Y-55275502D01*
X70523494Y-55216537D01*
X70620185Y-55137185D01*
X70699537Y-55040494D01*
X70758502Y-54930180D01*
X70794812Y-54810482D01*
X70807072Y-54686000D01*
X70804000Y-54396750D01*
X70645250Y-54238000D01*
X69596000Y-54238000D01*
X69342000Y-54238000D01*
X67437000Y-54238000D01*
X67183000Y-54238000D01*
X66133750Y-54238000D01*
X65975000Y-54396750D01*
X65971928Y-54686000D01*
X65974637Y-54713501D01*
X65961726Y-54724096D01*
X65532000Y-54294370D01*
X65532000Y-48829630D01*
X67697631Y-46664000D01*
X70834023Y-46664000D01*
X70883463Y-46756494D01*
X70962815Y-46853185D01*
X71022296Y-46902000D01*
X70962815Y-46950815D01*
X70883463Y-47047506D01*
X70824498Y-47157820D01*
X70788188Y-47277518D01*
X70775928Y-47402000D01*
X70775928Y-48402000D01*
X70788188Y-48526482D01*
X70824498Y-48646180D01*
X70883463Y-48756494D01*
X70962815Y-48853185D01*
X71022296Y-48902000D01*
X70962815Y-48950815D01*
X70883463Y-49047506D01*
X70824498Y-49157820D01*
X70788188Y-49277518D01*
X70775928Y-49402000D01*
X70775928Y-50402000D01*
X70788188Y-50526482D01*
X70824498Y-50646180D01*
X70883463Y-50756494D01*
X70962815Y-50853185D01*
X71022296Y-50902000D01*
X70962815Y-50950815D01*
X70883463Y-51047506D01*
X70824498Y-51157820D01*
X70820197Y-51172000D01*
X70599454Y-51172000D01*
X70546962Y-51108038D01*
X70412387Y-50997595D01*
X70258851Y-50915528D01*
X70092255Y-50864992D01*
X69919001Y-50847928D01*
X69018999Y-50847928D01*
X68845745Y-50864992D01*
X68679149Y-50915528D01*
X68525613Y-50997595D01*
X68391038Y-51108038D01*
X68389500Y-51109912D01*
X68387962Y-51108038D01*
X68253387Y-50997595D01*
X68199000Y-50968524D01*
X68199000Y-50570468D01*
X68227205Y-50528256D01*
X68305226Y-50339898D01*
X68345000Y-50139939D01*
X68345000Y-49936061D01*
X68305226Y-49736102D01*
X68227205Y-49547744D01*
X68113937Y-49378226D01*
X67969774Y-49234063D01*
X67800256Y-49120795D01*
X67611898Y-49042774D01*
X67411939Y-49003000D01*
X67208061Y-49003000D01*
X67008102Y-49042774D01*
X66819744Y-49120795D01*
X66650226Y-49234063D01*
X66506063Y-49378226D01*
X66392795Y-49547744D01*
X66314774Y-49736102D01*
X66275000Y-49936061D01*
X66275000Y-50139939D01*
X66314774Y-50339898D01*
X66392795Y-50528256D01*
X66421000Y-50570468D01*
X66421000Y-50968524D01*
X66366613Y-50997595D01*
X66232038Y-51108038D01*
X66121595Y-51242613D01*
X66039528Y-51396149D01*
X65988992Y-51562745D01*
X65971928Y-51735999D01*
X65971928Y-52386001D01*
X65988992Y-52559255D01*
X66039528Y-52725851D01*
X66121595Y-52879387D01*
X66232038Y-53013962D01*
X66238594Y-53019342D01*
X66158815Y-53084815D01*
X66079463Y-53181506D01*
X66020498Y-53291820D01*
X65984188Y-53411518D01*
X65971928Y-53536000D01*
X65975000Y-53825250D01*
X66133750Y-53984000D01*
X67183000Y-53984000D01*
X67183000Y-53964000D01*
X67437000Y-53964000D01*
X67437000Y-53984000D01*
X69342000Y-53984000D01*
X69342000Y-53964000D01*
X69596000Y-53964000D01*
X69596000Y-53984000D01*
X70645250Y-53984000D01*
X70804000Y-53825250D01*
X70807072Y-53536000D01*
X70794812Y-53411518D01*
X70758502Y-53291820D01*
X70699537Y-53181506D01*
X70620185Y-53084815D01*
X70540406Y-53019342D01*
X70546962Y-53013962D01*
X70599454Y-52950000D01*
X71092176Y-52950000D01*
X71169820Y-52991502D01*
X71289518Y-53027812D01*
X71414000Y-53040072D01*
X73914000Y-53040072D01*
X74038482Y-53027812D01*
X74125928Y-53001286D01*
X74125928Y-54302000D01*
X74138188Y-54426482D01*
X74174498Y-54546180D01*
X74233463Y-54656494D01*
X74312815Y-54753185D01*
X74409506Y-54832537D01*
X74519820Y-54891502D01*
X74639518Y-54927812D01*
X74764000Y-54940072D01*
X75764000Y-54940072D01*
X75888482Y-54927812D01*
X76008180Y-54891502D01*
X76118494Y-54832537D01*
X76215185Y-54753185D01*
X76264000Y-54693704D01*
X76312815Y-54753185D01*
X76409506Y-54832537D01*
X76519820Y-54891502D01*
X76639518Y-54927812D01*
X76764000Y-54940072D01*
X77764000Y-54940072D01*
X77888482Y-54927812D01*
X78008180Y-54891502D01*
X78118494Y-54832537D01*
X78215185Y-54753185D01*
X78264000Y-54693704D01*
X78312815Y-54753185D01*
X78409506Y-54832537D01*
X78519820Y-54891502D01*
X78639518Y-54927812D01*
X78764000Y-54940072D01*
X79764000Y-54940072D01*
X79888482Y-54927812D01*
X80008180Y-54891502D01*
X80118494Y-54832537D01*
X80215185Y-54753185D01*
X80264000Y-54693704D01*
X80312815Y-54753185D01*
X80409506Y-54832537D01*
X80519820Y-54891502D01*
X80639518Y-54927812D01*
X80764000Y-54940072D01*
X81764000Y-54940072D01*
X81888482Y-54927812D01*
X82008180Y-54891502D01*
X82118494Y-54832537D01*
X82215185Y-54753185D01*
X82264000Y-54693704D01*
X82312815Y-54753185D01*
X82409506Y-54832537D01*
X82519820Y-54891502D01*
X82639518Y-54927812D01*
X82764000Y-54940072D01*
X83764000Y-54940072D01*
X83888482Y-54927812D01*
X84008180Y-54891502D01*
X84118494Y-54832537D01*
X84215185Y-54753185D01*
X84264000Y-54693704D01*
X84312815Y-54753185D01*
X84409506Y-54832537D01*
X84519820Y-54891502D01*
X84639518Y-54927812D01*
X84764000Y-54940072D01*
X85764000Y-54940072D01*
X85888482Y-54927812D01*
X86008180Y-54891502D01*
X86118494Y-54832537D01*
X86215185Y-54753185D01*
X86294537Y-54656494D01*
X86353502Y-54546180D01*
X86389812Y-54426482D01*
X86402072Y-54302000D01*
X86402072Y-53001286D01*
X86489518Y-53027812D01*
X86614000Y-53040072D01*
X87578250Y-53037000D01*
X87737000Y-52878250D01*
X87737000Y-52029000D01*
X87991000Y-52029000D01*
X87991000Y-52878250D01*
X88149750Y-53037000D01*
X89114000Y-53040072D01*
X89238482Y-53027812D01*
X89358180Y-52991502D01*
X89468494Y-52932537D01*
X89565185Y-52853185D01*
X89644537Y-52756494D01*
X89699322Y-52654000D01*
X90101928Y-52654000D01*
X90114188Y-52778482D01*
X90150498Y-52898180D01*
X90209463Y-53008494D01*
X90288815Y-53105185D01*
X90385506Y-53184537D01*
X90495820Y-53243502D01*
X90615518Y-53279812D01*
X90740000Y-53292072D01*
X91154250Y-53289000D01*
X91313000Y-53130250D01*
X91313000Y-52206000D01*
X90263750Y-52206000D01*
X90105000Y-52364750D01*
X90101928Y-52654000D01*
X89699322Y-52654000D01*
X89703502Y-52646180D01*
X89739812Y-52526482D01*
X89752072Y-52402000D01*
X89749000Y-52187750D01*
X89590250Y-52029000D01*
X87991000Y-52029000D01*
X87737000Y-52029000D01*
X86188603Y-52029000D01*
X86118494Y-51971463D01*
X86008180Y-51912498D01*
X85888482Y-51876188D01*
X85764000Y-51863928D01*
X84764000Y-51863928D01*
X84639518Y-51876188D01*
X84519820Y-51912498D01*
X84409506Y-51971463D01*
X84312815Y-52050815D01*
X84264000Y-52110296D01*
X84215185Y-52050815D01*
X84118494Y-51971463D01*
X84008180Y-51912498D01*
X83888482Y-51876188D01*
X83764000Y-51863928D01*
X82764000Y-51863928D01*
X82639518Y-51876188D01*
X82519820Y-51912498D01*
X82409506Y-51971463D01*
X82312815Y-52050815D01*
X82264000Y-52110296D01*
X82215185Y-52050815D01*
X82118494Y-51971463D01*
X82008180Y-51912498D01*
X81888482Y-51876188D01*
X81764000Y-51863928D01*
X80764000Y-51863928D01*
X80639518Y-51876188D01*
X80519820Y-51912498D01*
X80409506Y-51971463D01*
X80312815Y-52050815D01*
X80264000Y-52110296D01*
X80215185Y-52050815D01*
X80118494Y-51971463D01*
X80008180Y-51912498D01*
X79888482Y-51876188D01*
X79764000Y-51863928D01*
X78764000Y-51863928D01*
X78639518Y-51876188D01*
X78519820Y-51912498D01*
X78409506Y-51971463D01*
X78312815Y-52050815D01*
X78264000Y-52110296D01*
X78215185Y-52050815D01*
X78118494Y-51971463D01*
X78008180Y-51912498D01*
X77888482Y-51876188D01*
X77764000Y-51863928D01*
X76764000Y-51863928D01*
X76639518Y-51876188D01*
X76519820Y-51912498D01*
X76409506Y-51971463D01*
X76312815Y-52050815D01*
X76264000Y-52110296D01*
X76215185Y-52050815D01*
X76118494Y-51971463D01*
X76008180Y-51912498D01*
X75888482Y-51876188D01*
X75764000Y-51863928D01*
X74764000Y-51863928D01*
X74639518Y-51876188D01*
X74552072Y-51902714D01*
X74552072Y-51402000D01*
X74539812Y-51277518D01*
X74503502Y-51157820D01*
X74444537Y-51047506D01*
X74365185Y-50950815D01*
X74305704Y-50902000D01*
X74365185Y-50853185D01*
X74444537Y-50756494D01*
X74503502Y-50646180D01*
X74539812Y-50526482D01*
X74552072Y-50402000D01*
X74552072Y-49402000D01*
X74539812Y-49277518D01*
X74503502Y-49157820D01*
X74444537Y-49047506D01*
X74365185Y-48950815D01*
X74305704Y-48902000D01*
X74365185Y-48853185D01*
X74444537Y-48756494D01*
X74503502Y-48646180D01*
X74539812Y-48526482D01*
X74552072Y-48402000D01*
X74552072Y-47402000D01*
X74539812Y-47277518D01*
X74503502Y-47157820D01*
X74444537Y-47047506D01*
X74365185Y-46950815D01*
X74305704Y-46902000D01*
X74365185Y-46853185D01*
X74444537Y-46756494D01*
X74503502Y-46646180D01*
X74539812Y-46526482D01*
X74552072Y-46402000D01*
X74552072Y-45402000D01*
X74539812Y-45277518D01*
X74503502Y-45157820D01*
X74444537Y-45047506D01*
X74365185Y-44950815D01*
X74305704Y-44902000D01*
X74365185Y-44853185D01*
X74444537Y-44756494D01*
X74503502Y-44646180D01*
X74539812Y-44526482D01*
X74552072Y-44402000D01*
X74552072Y-43402000D01*
X74539812Y-43277518D01*
X74503502Y-43157820D01*
X74444537Y-43047506D01*
X74365185Y-42950815D01*
X74305704Y-42902000D01*
X74365185Y-42853185D01*
X74444537Y-42756494D01*
X74503502Y-42646180D01*
X74539812Y-42526482D01*
X74552072Y-42402000D01*
X74552072Y-41402000D01*
X74539812Y-41277518D01*
X74503502Y-41157820D01*
X74444537Y-41047506D01*
X74365185Y-40950815D01*
X74305704Y-40902000D01*
X74365185Y-40853185D01*
X74444537Y-40756494D01*
X74503502Y-40646180D01*
X74539812Y-40526482D01*
X74552072Y-40402000D01*
X74552072Y-39402000D01*
X74539812Y-39277518D01*
X74503502Y-39157820D01*
X74444537Y-39047506D01*
X74365185Y-38950815D01*
X74305704Y-38902000D01*
X74365185Y-38853185D01*
X74444537Y-38756494D01*
X74503502Y-38646180D01*
X74539812Y-38526482D01*
X74552072Y-38402000D01*
X74552072Y-37402000D01*
X74539812Y-37277518D01*
X74503502Y-37157820D01*
X74444537Y-37047506D01*
X74370261Y-36957000D01*
X84139370Y-36957000D01*
X84069654Y-37026716D01*
X84040578Y-37050578D01*
X84008789Y-37089314D01*
X83945355Y-37166608D01*
X83930394Y-37194599D01*
X83874598Y-37298986D01*
X83831026Y-37442623D01*
X83820000Y-37554574D01*
X83816314Y-37592000D01*
X83820000Y-37629424D01*
X83820001Y-39054368D01*
X83504370Y-39370000D01*
X81063415Y-39370000D01*
X81025999Y-39366315D01*
X80988583Y-39370000D01*
X80988574Y-39370000D01*
X80876622Y-39381026D01*
X80732985Y-39424598D01*
X80600608Y-39495355D01*
X80484578Y-39590578D01*
X80472742Y-39605000D01*
X80416061Y-39605000D01*
X80216102Y-39644774D01*
X80027744Y-39722795D01*
X79858226Y-39836063D01*
X79714063Y-39980226D01*
X79600795Y-40149744D01*
X79522774Y-40338102D01*
X79483000Y-40538061D01*
X79483000Y-40741939D01*
X79522774Y-40941898D01*
X79600795Y-41130256D01*
X79714063Y-41299774D01*
X79858226Y-41443937D01*
X80027744Y-41557205D01*
X80216102Y-41635226D01*
X80416061Y-41675000D01*
X80619939Y-41675000D01*
X80819898Y-41635226D01*
X81008256Y-41557205D01*
X81177774Y-41443937D01*
X81321937Y-41299774D01*
X81435205Y-41130256D01*
X81513226Y-40941898D01*
X81522753Y-40894000D01*
X83782577Y-40894000D01*
X83820000Y-40897686D01*
X83857423Y-40894000D01*
X83857426Y-40894000D01*
X83969378Y-40882974D01*
X84113015Y-40839402D01*
X84245392Y-40768645D01*
X84361422Y-40673422D01*
X84385284Y-40644347D01*
X84836000Y-40193630D01*
X84836001Y-43118369D01*
X84539370Y-43415000D01*
X84480061Y-43415000D01*
X84280102Y-43454774D01*
X84091744Y-43532795D01*
X83922226Y-43646063D01*
X83778063Y-43790226D01*
X83664795Y-43959744D01*
X83586774Y-44148102D01*
X83547000Y-44348061D01*
X83547000Y-44551939D01*
X83586774Y-44751898D01*
X83664795Y-44940256D01*
X83778063Y-45109774D01*
X83922226Y-45253937D01*
X84091744Y-45367205D01*
X84280102Y-45445226D01*
X84480061Y-45485000D01*
X84683939Y-45485000D01*
X84883898Y-45445226D01*
X85072256Y-45367205D01*
X85241774Y-45253937D01*
X85385937Y-45109774D01*
X85499205Y-44940256D01*
X85577226Y-44751898D01*
X85617000Y-44551939D01*
X85617000Y-44492630D01*
X85975928Y-44133702D01*
X85975928Y-44402000D01*
X85988188Y-44526482D01*
X86024498Y-44646180D01*
X86083463Y-44756494D01*
X86162815Y-44853185D01*
X86222296Y-44902000D01*
X86162815Y-44950815D01*
X86083463Y-45047506D01*
X86024498Y-45157820D01*
X85988188Y-45277518D01*
X85975928Y-45402000D01*
X85975928Y-46402000D01*
X85988188Y-46526482D01*
X86024498Y-46646180D01*
X86083463Y-46756494D01*
X86162815Y-46853185D01*
X86222296Y-46902000D01*
X86162815Y-46950815D01*
X86083463Y-47047506D01*
X86024498Y-47157820D01*
X85988188Y-47277518D01*
X85975928Y-47402000D01*
X85975928Y-48402000D01*
X85988188Y-48526482D01*
X86024498Y-48646180D01*
X86083463Y-48756494D01*
X86162815Y-48853185D01*
X86222296Y-48902000D01*
X86162815Y-48950815D01*
X86083463Y-49047506D01*
X86024498Y-49157820D01*
X85988188Y-49277518D01*
X85975928Y-49402000D01*
X85975928Y-50402000D01*
X85988188Y-50526482D01*
X86024498Y-50646180D01*
X86083463Y-50756494D01*
X86162815Y-50853185D01*
X86222296Y-50902000D01*
X86162815Y-50950815D01*
X86083463Y-51047506D01*
X86024498Y-51157820D01*
X85988188Y-51277518D01*
X85975928Y-51402000D01*
X85979000Y-51616250D01*
X86137750Y-51775000D01*
X87737000Y-51775000D01*
X87737000Y-51755000D01*
X87991000Y-51755000D01*
X87991000Y-51775000D01*
X89590250Y-51775000D01*
X89749000Y-51616250D01*
X89752072Y-51402000D01*
X89739812Y-51277518D01*
X89703502Y-51157820D01*
X89644537Y-51047506D01*
X89565185Y-50950815D01*
X89505704Y-50902000D01*
X89565185Y-50853185D01*
X89644537Y-50756494D01*
X89693977Y-50664000D01*
X90160473Y-50664000D01*
X90169528Y-50693851D01*
X90251595Y-50847387D01*
X90362038Y-50981962D01*
X90368594Y-50987342D01*
X90288815Y-51052815D01*
X90209463Y-51149506D01*
X90150498Y-51259820D01*
X90114188Y-51379518D01*
X90101928Y-51504000D01*
X90105000Y-51793250D01*
X90263750Y-51952000D01*
X91313000Y-51952000D01*
X91313000Y-51932000D01*
X91567000Y-51932000D01*
X91567000Y-51952000D01*
X91587000Y-51952000D01*
X91587000Y-52206000D01*
X91567000Y-52206000D01*
X91567000Y-53130250D01*
X91725750Y-53289000D01*
X92140000Y-53292072D01*
X92264482Y-53279812D01*
X92384180Y-53243502D01*
X92494494Y-53184537D01*
X92591185Y-53105185D01*
X92670537Y-53008494D01*
X92710000Y-52934664D01*
X92710000Y-54670289D01*
X92668063Y-54712226D01*
X92554795Y-54881744D01*
X92476774Y-55070102D01*
X92437000Y-55270061D01*
X92437000Y-55473939D01*
X92476774Y-55673898D01*
X92554795Y-55862256D01*
X92566651Y-55880000D01*
X82587422Y-55880000D01*
X82549999Y-55876314D01*
X82512576Y-55880000D01*
X82512574Y-55880000D01*
X82400622Y-55891026D01*
X82256985Y-55934598D01*
X82124608Y-56005355D01*
X82008578Y-56100578D01*
X81984721Y-56129648D01*
X80767649Y-57346721D01*
X80738579Y-57370578D01*
X80714722Y-57399648D01*
X80714721Y-57399649D01*
X80643355Y-57486608D01*
X80572599Y-57618985D01*
X80529027Y-57762622D01*
X80514314Y-57912000D01*
X80518001Y-57949433D01*
X80518001Y-58921474D01*
X80450986Y-58957294D01*
X80224866Y-59142866D01*
X80039294Y-59368986D01*
X79901401Y-59626966D01*
X79816487Y-59906889D01*
X79787815Y-60198000D01*
X79816487Y-60489111D01*
X79901401Y-60769034D01*
X80039294Y-61027014D01*
X80224866Y-61253134D01*
X80254687Y-61277607D01*
X80185820Y-61298498D01*
X80075506Y-61357463D01*
X79978815Y-61436815D01*
X79899463Y-61533506D01*
X79840498Y-61643820D01*
X79804188Y-61763518D01*
X79791928Y-61888000D01*
X79791928Y-63588000D01*
X79804188Y-63712482D01*
X79840498Y-63832180D01*
X79899463Y-63942494D01*
X79978815Y-64039185D01*
X80075506Y-64118537D01*
X80185820Y-64177502D01*
X80305518Y-64213812D01*
X80430000Y-64226072D01*
X82130000Y-64226072D01*
X82254482Y-64213812D01*
X82374180Y-64177502D01*
X82484494Y-64118537D01*
X82581185Y-64039185D01*
X82660537Y-63942494D01*
X82719502Y-63832180D01*
X82740393Y-63763313D01*
X82764866Y-63793134D01*
X82990986Y-63978706D01*
X83248966Y-64116599D01*
X83528889Y-64201513D01*
X83747050Y-64223000D01*
X83892950Y-64223000D01*
X84111111Y-64201513D01*
X84391034Y-64116599D01*
X84649014Y-63978706D01*
X84875134Y-63793134D01*
X85060706Y-63567014D01*
X85090000Y-63512209D01*
X85119294Y-63567014D01*
X85304866Y-63793134D01*
X85530986Y-63978706D01*
X85788966Y-64116599D01*
X86068889Y-64201513D01*
X86287050Y-64223000D01*
X86432950Y-64223000D01*
X86651111Y-64201513D01*
X86931034Y-64116599D01*
X87189014Y-63978706D01*
X87415134Y-63793134D01*
X87600706Y-63567014D01*
X87630000Y-63512209D01*
X87659294Y-63567014D01*
X87844866Y-63793134D01*
X88070986Y-63978706D01*
X88328966Y-64116599D01*
X88608889Y-64201513D01*
X88827050Y-64223000D01*
X88972950Y-64223000D01*
X89191111Y-64201513D01*
X89471034Y-64116599D01*
X89729014Y-63978706D01*
X89955134Y-63793134D01*
X90140706Y-63567014D01*
X90170000Y-63512209D01*
X90199294Y-63567014D01*
X90384866Y-63793134D01*
X90610986Y-63978706D01*
X90868966Y-64116599D01*
X91148889Y-64201513D01*
X91367050Y-64223000D01*
X91512950Y-64223000D01*
X91731111Y-64201513D01*
X92011034Y-64116599D01*
X92269014Y-63978706D01*
X92495134Y-63793134D01*
X92680706Y-63567014D01*
X92818599Y-63309034D01*
X92903513Y-63029111D01*
X92932185Y-62738000D01*
X92903513Y-62446889D01*
X92818599Y-62166966D01*
X92680706Y-61908986D01*
X92495134Y-61682866D01*
X92269014Y-61497294D01*
X92211244Y-61466416D01*
X92440269Y-61295588D01*
X92635178Y-61079355D01*
X92784157Y-60829252D01*
X92881481Y-60554891D01*
X92760814Y-60325000D01*
X91567000Y-60325000D01*
X91567000Y-60345000D01*
X91313000Y-60345000D01*
X91313000Y-60325000D01*
X91293000Y-60325000D01*
X91293000Y-60071000D01*
X91313000Y-60071000D01*
X91313000Y-58877845D01*
X91567000Y-58877845D01*
X91567000Y-60071000D01*
X92760814Y-60071000D01*
X92881481Y-59841109D01*
X92784157Y-59566748D01*
X92635178Y-59316645D01*
X92440269Y-59100412D01*
X92206920Y-58926359D01*
X91944099Y-58801175D01*
X91796890Y-58756524D01*
X91567000Y-58877845D01*
X91313000Y-58877845D01*
X91083110Y-58756524D01*
X90935901Y-58801175D01*
X90673080Y-58926359D01*
X90439731Y-59100412D01*
X90244822Y-59316645D01*
X90175201Y-59433523D01*
X90140706Y-59368986D01*
X89955134Y-59142866D01*
X89729014Y-58957294D01*
X89471034Y-58819401D01*
X89191111Y-58734487D01*
X88972950Y-58713000D01*
X88827050Y-58713000D01*
X88608889Y-58734487D01*
X88328966Y-58819401D01*
X88070986Y-58957294D01*
X87844866Y-59142866D01*
X87659294Y-59368986D01*
X87630000Y-59423791D01*
X87600706Y-59368986D01*
X87415134Y-59142866D01*
X87189014Y-58957294D01*
X86931034Y-58819401D01*
X86651111Y-58734487D01*
X86432950Y-58713000D01*
X86287050Y-58713000D01*
X86068889Y-58734487D01*
X85788966Y-58819401D01*
X85530986Y-58957294D01*
X85304866Y-59142866D01*
X85119294Y-59368986D01*
X85090000Y-59423791D01*
X85060706Y-59368986D01*
X84875134Y-59142866D01*
X84649014Y-58957294D01*
X84582000Y-58921474D01*
X84582000Y-58481630D01*
X84897631Y-58166000D01*
X94958577Y-58166000D01*
X94996000Y-58169686D01*
X95033423Y-58166000D01*
X95033426Y-58166000D01*
X95145378Y-58154974D01*
X95289015Y-58111402D01*
X95421392Y-58040645D01*
X95537422Y-57945422D01*
X95561284Y-57916346D01*
X97032353Y-56445278D01*
X97061422Y-56421422D01*
X97156645Y-56305392D01*
X97227402Y-56173015D01*
X97270974Y-56029378D01*
X97282000Y-55917426D01*
X97282000Y-55917424D01*
X97285686Y-55880001D01*
X97282000Y-55842578D01*
X97282000Y-38645423D01*
X97285686Y-38608000D01*
X97274226Y-38491645D01*
X97270974Y-38458622D01*
X97227402Y-38314985D01*
X97163277Y-38195015D01*
X97156645Y-38182607D01*
X97085279Y-38095648D01*
X97061422Y-38066578D01*
X97032351Y-38042720D01*
X96379283Y-37389653D01*
X96355422Y-37360578D01*
X96239392Y-37265355D01*
X96107015Y-37194598D01*
X95963378Y-37151026D01*
X95851426Y-37140000D01*
X95851423Y-37140000D01*
X95814000Y-37136314D01*
X95776577Y-37140000D01*
X95657734Y-37140000D01*
X95877355Y-37009178D01*
X96093588Y-36814269D01*
X96267641Y-36580920D01*
X96392825Y-36318099D01*
X96437476Y-36170890D01*
X96316155Y-35941000D01*
X95123000Y-35941000D01*
X95123000Y-35961000D01*
X94869000Y-35961000D01*
X94869000Y-35941000D01*
X93675845Y-35941000D01*
X93554524Y-36170890D01*
X93599175Y-36318099D01*
X93724359Y-36580920D01*
X93898412Y-36814269D01*
X94114645Y-37009178D01*
X94334266Y-37140000D01*
X89693977Y-37140000D01*
X89644537Y-37047506D01*
X89565185Y-36950815D01*
X89468494Y-36871463D01*
X89358180Y-36812498D01*
X89238482Y-36776188D01*
X89114000Y-36763928D01*
X88392000Y-36763928D01*
X88392000Y-34036000D01*
X93719474Y-34036000D01*
X93755294Y-34103014D01*
X93940866Y-34329134D01*
X94166986Y-34514706D01*
X94231523Y-34549201D01*
X94114645Y-34618822D01*
X93898412Y-34813731D01*
X93724359Y-35047080D01*
X93599175Y-35309901D01*
X93554524Y-35457110D01*
X93675845Y-35687000D01*
X94869000Y-35687000D01*
X94869000Y-35667000D01*
X95123000Y-35667000D01*
X95123000Y-35687000D01*
X96316155Y-35687000D01*
X96437476Y-35457110D01*
X96392825Y-35309901D01*
X96267641Y-35047080D01*
X96093588Y-34813731D01*
X95877355Y-34618822D01*
X95760477Y-34549201D01*
X95825014Y-34514706D01*
X96051134Y-34329134D01*
X96236706Y-34103014D01*
X96374599Y-33845034D01*
X96459513Y-33565111D01*
X96488185Y-33274000D01*
X96459513Y-32982889D01*
X96374599Y-32702966D01*
X96236706Y-32444986D01*
X96051134Y-32218866D01*
X95825014Y-32033294D01*
X95770209Y-32004000D01*
X95825014Y-31974706D01*
X96051134Y-31789134D01*
X96236706Y-31563014D01*
X96374599Y-31305034D01*
X96459513Y-31025111D01*
X96488185Y-30734000D01*
X96459513Y-30442889D01*
X96374599Y-30162966D01*
X96236706Y-29904986D01*
X96051134Y-29678866D01*
X96021313Y-29654393D01*
X96090180Y-29633502D01*
X96200494Y-29574537D01*
X96297185Y-29495185D01*
X96376537Y-29398494D01*
X96435502Y-29288180D01*
X96471812Y-29168482D01*
X96484072Y-29044000D01*
X96484072Y-27344000D01*
X96471812Y-27219518D01*
X96435502Y-27099820D01*
X96376537Y-26989506D01*
X96297185Y-26892815D01*
X96200494Y-26813463D01*
X96090180Y-26754498D01*
X95970482Y-26718188D01*
X95846000Y-26705928D01*
X94146000Y-26705928D01*
X94021518Y-26718188D01*
X93901820Y-26754498D01*
X93791506Y-26813463D01*
X93694815Y-26892815D01*
X93615463Y-26989506D01*
X93556498Y-27099820D01*
X93520188Y-27219518D01*
X93507928Y-27344000D01*
X93507928Y-27686000D01*
X70528660Y-27686000D01*
X70485000Y-27681700D01*
X70441340Y-27686000D01*
X70441333Y-27686000D01*
X70327325Y-27697229D01*
X70310725Y-27698864D01*
X70259892Y-27714284D01*
X70143149Y-27749697D01*
X69988709Y-27832247D01*
X69853341Y-27943341D01*
X69825506Y-27977258D01*
X68109259Y-29693506D01*
X68075342Y-29721341D01*
X68047507Y-29755258D01*
X68047505Y-29755260D01*
X67964248Y-29856709D01*
X67881698Y-30011148D01*
X67830864Y-30178726D01*
X67813700Y-30353000D01*
X67818001Y-30396670D01*
X67818000Y-33080289D01*
X67776063Y-33122226D01*
X67662795Y-33291744D01*
X67584774Y-33480102D01*
X67545000Y-33680061D01*
X67545000Y-33883939D01*
X67584774Y-34083898D01*
X67662795Y-34272256D01*
X67776063Y-34441774D01*
X67818000Y-34483711D01*
X67818000Y-34712524D01*
X67763613Y-34741595D01*
X67629038Y-34852038D01*
X67537238Y-34963896D01*
X67485149Y-34979697D01*
X67330709Y-35062247D01*
X67195341Y-35173341D01*
X67167505Y-35207259D01*
X66204259Y-36170506D01*
X66170342Y-36198341D01*
X66142507Y-36232258D01*
X66142505Y-36232260D01*
X66059248Y-36333709D01*
X65976698Y-36488148D01*
X65925864Y-36655726D01*
X65908700Y-36830000D01*
X65913001Y-36873670D01*
X65913000Y-39834340D01*
X65908700Y-39878000D01*
X65913000Y-39921660D01*
X65913000Y-39921666D01*
X65918768Y-39980226D01*
X65925864Y-40052274D01*
X65939910Y-40098578D01*
X65976697Y-40219850D01*
X66059247Y-40374290D01*
X66170341Y-40509659D01*
X66204263Y-40537499D01*
X66895505Y-41228741D01*
X66923341Y-41262659D01*
X67058709Y-41373753D01*
X67213149Y-41456303D01*
X67280087Y-41476608D01*
X67380725Y-41507136D01*
X67397325Y-41508771D01*
X67511333Y-41520000D01*
X67511340Y-41520000D01*
X67555000Y-41524300D01*
X67578199Y-41522015D01*
X67629038Y-41583962D01*
X67716816Y-41656000D01*
X67629038Y-41728038D01*
X67518595Y-41862613D01*
X67436528Y-42016149D01*
X67385992Y-42182745D01*
X67368928Y-42355999D01*
X67368928Y-43006001D01*
X67385992Y-43179255D01*
X67436528Y-43345851D01*
X67518595Y-43499387D01*
X67629038Y-43633962D01*
X67763613Y-43744405D01*
X67917149Y-43826472D01*
X68083745Y-43877008D01*
X68256999Y-43894072D01*
X69157001Y-43894072D01*
X69330255Y-43877008D01*
X69351940Y-43870430D01*
X69280370Y-43942000D01*
X67093423Y-43942000D01*
X67056000Y-43938314D01*
X67018577Y-43942000D01*
X67018574Y-43942000D01*
X66906622Y-43953026D01*
X66762985Y-43996598D01*
X66710582Y-44024608D01*
X66630607Y-44067355D01*
X66588219Y-44102143D01*
X66514578Y-44162578D01*
X66490716Y-44191654D01*
X63749654Y-46932716D01*
X63720578Y-46956578D01*
X63664983Y-47024322D01*
X63625355Y-47072608D01*
X63591304Y-47136314D01*
X63554598Y-47204986D01*
X63511026Y-47348623D01*
X63504450Y-47415392D01*
X63496314Y-47498000D01*
X61341000Y-47498000D01*
X61341000Y-44006866D01*
X63848085Y-41499782D01*
X63911082Y-41448082D01*
X64117398Y-41196684D01*
X64270705Y-40909867D01*
X64365111Y-40598653D01*
X64389000Y-40356104D01*
X64389000Y-40356101D01*
X64396988Y-40275000D01*
X64389000Y-40193899D01*
X64389000Y-34117101D01*
X64396988Y-34036000D01*
X64387626Y-33940948D01*
X64365111Y-33712347D01*
X64277453Y-33423378D01*
X64270705Y-33401132D01*
X64117398Y-33114316D01*
X64110993Y-33106511D01*
X63911082Y-32862918D01*
X63848080Y-32811214D01*
X63348072Y-32311206D01*
X63348072Y-30635000D01*
X63335812Y-30510518D01*
X63299502Y-30390820D01*
X63240537Y-30280506D01*
X63161185Y-30183815D01*
X63064494Y-30104463D01*
X62954180Y-30045498D01*
X62834482Y-30009188D01*
X62710000Y-29996928D01*
X59210000Y-29996928D01*
X59085518Y-30009188D01*
X58965820Y-30045498D01*
X58855506Y-30104463D01*
X58758815Y-30183815D01*
X58679463Y-30280506D01*
X58620498Y-30390820D01*
X58584188Y-30510518D01*
X58571928Y-30635000D01*
X58571928Y-34135000D01*
X58584188Y-34259482D01*
X58620498Y-34379180D01*
X58679463Y-34489494D01*
X58758815Y-34586185D01*
X58855506Y-34665537D01*
X58932131Y-34706494D01*
X58835000Y-34696928D01*
X57085000Y-34696928D01*
X56789814Y-34726001D01*
X56505972Y-34812104D01*
X56244382Y-34951927D01*
X56015097Y-35140097D01*
X55826927Y-35369382D01*
X55687104Y-35630972D01*
X55601001Y-35914814D01*
X55571928Y-36210000D01*
X51460000Y-36210000D01*
X51460000Y-34135000D01*
X52821928Y-34135000D01*
X52834188Y-34259482D01*
X52870498Y-34379180D01*
X52929463Y-34489494D01*
X53008815Y-34586185D01*
X53105506Y-34665537D01*
X53215820Y-34724502D01*
X53335518Y-34760812D01*
X53460000Y-34773072D01*
X54674250Y-34770000D01*
X54833000Y-34611250D01*
X54833000Y-32512000D01*
X55087000Y-32512000D01*
X55087000Y-34611250D01*
X55245750Y-34770000D01*
X56460000Y-34773072D01*
X56584482Y-34760812D01*
X56704180Y-34724502D01*
X56814494Y-34665537D01*
X56911185Y-34586185D01*
X56990537Y-34489494D01*
X57049502Y-34379180D01*
X57085812Y-34259482D01*
X57098072Y-34135000D01*
X57095000Y-32670750D01*
X56936250Y-32512000D01*
X55087000Y-32512000D01*
X54833000Y-32512000D01*
X52983750Y-32512000D01*
X52825000Y-32670750D01*
X52821928Y-34135000D01*
X51460000Y-34135000D01*
X51460000Y-30635000D01*
X52821928Y-30635000D01*
X52825000Y-32099250D01*
X52983750Y-32258000D01*
X54833000Y-32258000D01*
X54833000Y-30158750D01*
X55087000Y-30158750D01*
X55087000Y-32258000D01*
X56936250Y-32258000D01*
X57095000Y-32099250D01*
X57098072Y-30635000D01*
X57085812Y-30510518D01*
X57049502Y-30390820D01*
X56990537Y-30280506D01*
X56911185Y-30183815D01*
X56814494Y-30104463D01*
X56704180Y-30045498D01*
X56584482Y-30009188D01*
X56460000Y-29996928D01*
X55245750Y-30000000D01*
X55087000Y-30158750D01*
X54833000Y-30158750D01*
X54674250Y-30000000D01*
X53460000Y-29996928D01*
X53335518Y-30009188D01*
X53215820Y-30045498D01*
X53105506Y-30104463D01*
X53008815Y-30183815D01*
X52929463Y-30280506D01*
X52870498Y-30390820D01*
X52834188Y-30510518D01*
X52821928Y-30635000D01*
X51460000Y-30635000D01*
X51460000Y-26060000D01*
X98400001Y-26060000D01*
X98400000Y-73000000D01*
M02*
