G04 #@! TF.GenerationSoftware,KiCad,Pcbnew,(5.1.0-0)*
G04 #@! TF.CreationDate,2019-04-25T22:15:39+08:00*
G04 #@! TF.ProjectId,ws2812b,77733238-3132-4622-9e6b-696361645f70,rev?*
G04 #@! TF.SameCoordinates,Original*
G04 #@! TF.FileFunction,Soldermask,Bot*
G04 #@! TF.FilePolarity,Negative*
%FSLAX46Y46*%
G04 Gerber Fmt 4.6, Leading zero omitted, Abs format (unit mm)*
G04 Created by KiCad (PCBNEW (5.1.0-0)) date 2019-04-25 22:15:39*
%MOMM*%
%LPD*%
G04 APERTURE LIST*
%ADD10C,0.100000*%
G04 APERTURE END LIST*
D10*
G36*
X76916000Y-72289000D02*
G01*
X75064000Y-72289000D01*
X75064000Y-65887000D01*
X76916000Y-65887000D01*
X76916000Y-72289000D01*
X76916000Y-72289000D01*
G37*
G36*
X69716000Y-72289000D02*
G01*
X67864000Y-72289000D01*
X67864000Y-65887000D01*
X69716000Y-65887000D01*
X69716000Y-72289000D01*
X69716000Y-72289000D01*
G37*
G36*
X58813000Y-71005000D02*
G01*
X57011000Y-71005000D01*
X57011000Y-69203000D01*
X58813000Y-69203000D01*
X58813000Y-71005000D01*
X58813000Y-71005000D01*
G37*
G36*
X58022443Y-66669519D02*
G01*
X58088627Y-66676037D01*
X58258466Y-66727557D01*
X58414991Y-66811222D01*
X58450729Y-66840552D01*
X58552186Y-66923814D01*
X58608857Y-66992869D01*
X58664778Y-67061009D01*
X58748443Y-67217534D01*
X58799963Y-67387373D01*
X58817359Y-67564000D01*
X58799963Y-67740627D01*
X58748443Y-67910466D01*
X58664778Y-68066991D01*
X58635448Y-68102729D01*
X58552186Y-68204186D01*
X58450729Y-68287448D01*
X58414991Y-68316778D01*
X58258466Y-68400443D01*
X58088627Y-68451963D01*
X58022442Y-68458482D01*
X57956260Y-68465000D01*
X57867740Y-68465000D01*
X57801558Y-68458482D01*
X57735373Y-68451963D01*
X57565534Y-68400443D01*
X57409009Y-68316778D01*
X57373271Y-68287448D01*
X57271814Y-68204186D01*
X57188552Y-68102729D01*
X57159222Y-68066991D01*
X57075557Y-67910466D01*
X57024037Y-67740627D01*
X57006641Y-67564000D01*
X57024037Y-67387373D01*
X57075557Y-67217534D01*
X57159222Y-67061009D01*
X57215143Y-66992869D01*
X57271814Y-66923814D01*
X57373271Y-66840552D01*
X57409009Y-66811222D01*
X57565534Y-66727557D01*
X57735373Y-66676037D01*
X57801557Y-66669519D01*
X57867740Y-66663000D01*
X57956260Y-66663000D01*
X58022443Y-66669519D01*
X58022443Y-66669519D01*
G37*
G36*
X63580674Y-66951465D02*
G01*
X63618367Y-66962899D01*
X63653103Y-66981466D01*
X63683548Y-67006452D01*
X63708534Y-67036897D01*
X63727101Y-67071633D01*
X63738535Y-67109326D01*
X63743000Y-67154661D01*
X63743000Y-67991339D01*
X63738535Y-68036674D01*
X63727101Y-68074367D01*
X63708534Y-68109103D01*
X63683548Y-68139548D01*
X63653103Y-68164534D01*
X63618367Y-68183101D01*
X63580674Y-68194535D01*
X63535339Y-68199000D01*
X62448661Y-68199000D01*
X62403326Y-68194535D01*
X62365633Y-68183101D01*
X62330897Y-68164534D01*
X62300452Y-68139548D01*
X62275466Y-68109103D01*
X62256899Y-68074367D01*
X62245465Y-68036674D01*
X62241000Y-67991339D01*
X62241000Y-67154661D01*
X62245465Y-67109326D01*
X62256899Y-67071633D01*
X62275466Y-67036897D01*
X62300452Y-67006452D01*
X62330897Y-66981466D01*
X62365633Y-66962899D01*
X62403326Y-66951465D01*
X62448661Y-66947000D01*
X63535339Y-66947000D01*
X63580674Y-66951465D01*
X63580674Y-66951465D01*
G37*
G36*
X66027673Y-66951465D02*
G01*
X66065366Y-66962899D01*
X66100102Y-66981466D01*
X66130547Y-67006452D01*
X66155533Y-67036897D01*
X66174100Y-67071633D01*
X66185534Y-67109326D01*
X66189999Y-67154661D01*
X66189999Y-67991339D01*
X66185534Y-68036674D01*
X66174100Y-68074367D01*
X66155533Y-68109103D01*
X66130547Y-68139548D01*
X66100102Y-68164534D01*
X66065366Y-68183101D01*
X66027673Y-68194535D01*
X65982338Y-68199000D01*
X64895660Y-68199000D01*
X64850325Y-68194535D01*
X64812632Y-68183101D01*
X64777896Y-68164534D01*
X64747451Y-68139548D01*
X64722465Y-68109103D01*
X64703898Y-68074367D01*
X64692464Y-68036674D01*
X64687999Y-67991339D01*
X64687999Y-67154661D01*
X64692464Y-67109326D01*
X64703898Y-67071633D01*
X64722465Y-67036897D01*
X64747451Y-67006452D01*
X64777896Y-66981466D01*
X64812632Y-66962899D01*
X64850325Y-66951465D01*
X64895660Y-66947000D01*
X65982338Y-66947000D01*
X66027673Y-66951465D01*
X66027673Y-66951465D01*
G37*
G36*
X63580674Y-64901465D02*
G01*
X63618367Y-64912899D01*
X63653103Y-64931466D01*
X63683548Y-64956452D01*
X63708534Y-64986897D01*
X63727101Y-65021633D01*
X63738535Y-65059326D01*
X63743000Y-65104661D01*
X63743000Y-65941339D01*
X63738535Y-65986674D01*
X63727101Y-66024367D01*
X63708534Y-66059103D01*
X63683548Y-66089548D01*
X63653103Y-66114534D01*
X63618367Y-66133101D01*
X63580674Y-66144535D01*
X63535339Y-66149000D01*
X62448661Y-66149000D01*
X62403326Y-66144535D01*
X62365633Y-66133101D01*
X62330897Y-66114534D01*
X62300452Y-66089548D01*
X62275466Y-66059103D01*
X62256899Y-66024367D01*
X62245465Y-65986674D01*
X62241000Y-65941339D01*
X62241000Y-65104661D01*
X62245465Y-65059326D01*
X62256899Y-65021633D01*
X62275466Y-64986897D01*
X62300452Y-64956452D01*
X62330897Y-64931466D01*
X62365633Y-64912899D01*
X62403326Y-64901465D01*
X62448661Y-64897000D01*
X63535339Y-64897000D01*
X63580674Y-64901465D01*
X63580674Y-64901465D01*
G37*
G36*
X66027673Y-64901465D02*
G01*
X66065366Y-64912899D01*
X66100102Y-64931466D01*
X66130547Y-64956452D01*
X66155533Y-64986897D01*
X66174100Y-65021633D01*
X66185534Y-65059326D01*
X66189999Y-65104661D01*
X66189999Y-65941339D01*
X66185534Y-65986674D01*
X66174100Y-66024367D01*
X66155533Y-66059103D01*
X66130547Y-66089548D01*
X66100102Y-66114534D01*
X66065366Y-66133101D01*
X66027673Y-66144535D01*
X65982338Y-66149000D01*
X64895660Y-66149000D01*
X64850325Y-66144535D01*
X64812632Y-66133101D01*
X64777896Y-66114534D01*
X64747451Y-66089548D01*
X64722465Y-66059103D01*
X64703898Y-66024367D01*
X64692464Y-65986674D01*
X64687999Y-65941339D01*
X64687999Y-65104661D01*
X64692464Y-65059326D01*
X64703898Y-65021633D01*
X64722465Y-64986897D01*
X64747451Y-64956452D01*
X64777896Y-64931466D01*
X64812632Y-64912899D01*
X64850325Y-64901465D01*
X64895660Y-64897000D01*
X65982338Y-64897000D01*
X66027673Y-64901465D01*
X66027673Y-64901465D01*
G37*
G36*
X59086366Y-60065695D02*
G01*
X59243460Y-60113349D01*
X59388231Y-60190731D01*
X59515128Y-60294872D01*
X59619269Y-60421769D01*
X59696651Y-60566540D01*
X59744305Y-60723634D01*
X59761000Y-60893140D01*
X59761000Y-62806860D01*
X59744305Y-62976366D01*
X59696651Y-63133460D01*
X59619269Y-63278231D01*
X59515128Y-63405128D01*
X59388231Y-63509269D01*
X59243460Y-63586651D01*
X59086366Y-63634305D01*
X58916860Y-63651000D01*
X57003140Y-63651000D01*
X56833634Y-63634305D01*
X56676540Y-63586651D01*
X56531769Y-63509269D01*
X56404872Y-63405128D01*
X56300731Y-63278231D01*
X56223349Y-63133460D01*
X56175695Y-62976366D01*
X56159000Y-62806860D01*
X56159000Y-60893140D01*
X56175695Y-60723634D01*
X56223349Y-60566540D01*
X56300731Y-60421769D01*
X56404872Y-60294872D01*
X56531769Y-60190731D01*
X56676540Y-60113349D01*
X56833634Y-60065695D01*
X57003140Y-60049000D01*
X58916860Y-60049000D01*
X59086366Y-60065695D01*
X59086366Y-60065695D01*
G37*
G36*
X91550443Y-61843519D02*
G01*
X91616627Y-61850037D01*
X91786466Y-61901557D01*
X91942991Y-61985222D01*
X91978729Y-62014552D01*
X92080186Y-62097814D01*
X92163448Y-62199271D01*
X92192778Y-62235009D01*
X92276443Y-62391534D01*
X92327963Y-62561373D01*
X92345359Y-62738000D01*
X92327963Y-62914627D01*
X92276443Y-63084466D01*
X92192778Y-63240991D01*
X92184735Y-63250791D01*
X92080186Y-63378186D01*
X91978729Y-63461448D01*
X91942991Y-63490778D01*
X91786466Y-63574443D01*
X91616627Y-63625963D01*
X91550443Y-63632481D01*
X91484260Y-63639000D01*
X91395740Y-63639000D01*
X91329557Y-63632481D01*
X91263373Y-63625963D01*
X91093534Y-63574443D01*
X90937009Y-63490778D01*
X90901271Y-63461448D01*
X90799814Y-63378186D01*
X90695265Y-63250791D01*
X90687222Y-63240991D01*
X90603557Y-63084466D01*
X90552037Y-62914627D01*
X90534641Y-62738000D01*
X90552037Y-62561373D01*
X90603557Y-62391534D01*
X90687222Y-62235009D01*
X90716552Y-62199271D01*
X90799814Y-62097814D01*
X90901271Y-62014552D01*
X90937009Y-61985222D01*
X91093534Y-61901557D01*
X91263373Y-61850037D01*
X91329557Y-61843519D01*
X91395740Y-61837000D01*
X91484260Y-61837000D01*
X91550443Y-61843519D01*
X91550443Y-61843519D01*
G37*
G36*
X89010443Y-61843519D02*
G01*
X89076627Y-61850037D01*
X89246466Y-61901557D01*
X89402991Y-61985222D01*
X89438729Y-62014552D01*
X89540186Y-62097814D01*
X89623448Y-62199271D01*
X89652778Y-62235009D01*
X89736443Y-62391534D01*
X89787963Y-62561373D01*
X89805359Y-62738000D01*
X89787963Y-62914627D01*
X89736443Y-63084466D01*
X89652778Y-63240991D01*
X89644735Y-63250791D01*
X89540186Y-63378186D01*
X89438729Y-63461448D01*
X89402991Y-63490778D01*
X89246466Y-63574443D01*
X89076627Y-63625963D01*
X89010443Y-63632481D01*
X88944260Y-63639000D01*
X88855740Y-63639000D01*
X88789557Y-63632481D01*
X88723373Y-63625963D01*
X88553534Y-63574443D01*
X88397009Y-63490778D01*
X88361271Y-63461448D01*
X88259814Y-63378186D01*
X88155265Y-63250791D01*
X88147222Y-63240991D01*
X88063557Y-63084466D01*
X88012037Y-62914627D01*
X87994641Y-62738000D01*
X88012037Y-62561373D01*
X88063557Y-62391534D01*
X88147222Y-62235009D01*
X88176552Y-62199271D01*
X88259814Y-62097814D01*
X88361271Y-62014552D01*
X88397009Y-61985222D01*
X88553534Y-61901557D01*
X88723373Y-61850037D01*
X88789557Y-61843519D01*
X88855740Y-61837000D01*
X88944260Y-61837000D01*
X89010443Y-61843519D01*
X89010443Y-61843519D01*
G37*
G36*
X86470443Y-61843519D02*
G01*
X86536627Y-61850037D01*
X86706466Y-61901557D01*
X86862991Y-61985222D01*
X86898729Y-62014552D01*
X87000186Y-62097814D01*
X87083448Y-62199271D01*
X87112778Y-62235009D01*
X87196443Y-62391534D01*
X87247963Y-62561373D01*
X87265359Y-62738000D01*
X87247963Y-62914627D01*
X87196443Y-63084466D01*
X87112778Y-63240991D01*
X87104735Y-63250791D01*
X87000186Y-63378186D01*
X86898729Y-63461448D01*
X86862991Y-63490778D01*
X86706466Y-63574443D01*
X86536627Y-63625963D01*
X86470443Y-63632481D01*
X86404260Y-63639000D01*
X86315740Y-63639000D01*
X86249557Y-63632481D01*
X86183373Y-63625963D01*
X86013534Y-63574443D01*
X85857009Y-63490778D01*
X85821271Y-63461448D01*
X85719814Y-63378186D01*
X85615265Y-63250791D01*
X85607222Y-63240991D01*
X85523557Y-63084466D01*
X85472037Y-62914627D01*
X85454641Y-62738000D01*
X85472037Y-62561373D01*
X85523557Y-62391534D01*
X85607222Y-62235009D01*
X85636552Y-62199271D01*
X85719814Y-62097814D01*
X85821271Y-62014552D01*
X85857009Y-61985222D01*
X86013534Y-61901557D01*
X86183373Y-61850037D01*
X86249557Y-61843519D01*
X86315740Y-61837000D01*
X86404260Y-61837000D01*
X86470443Y-61843519D01*
X86470443Y-61843519D01*
G37*
G36*
X83930443Y-61843519D02*
G01*
X83996627Y-61850037D01*
X84166466Y-61901557D01*
X84322991Y-61985222D01*
X84358729Y-62014552D01*
X84460186Y-62097814D01*
X84543448Y-62199271D01*
X84572778Y-62235009D01*
X84656443Y-62391534D01*
X84707963Y-62561373D01*
X84725359Y-62738000D01*
X84707963Y-62914627D01*
X84656443Y-63084466D01*
X84572778Y-63240991D01*
X84564735Y-63250791D01*
X84460186Y-63378186D01*
X84358729Y-63461448D01*
X84322991Y-63490778D01*
X84166466Y-63574443D01*
X83996627Y-63625963D01*
X83930443Y-63632481D01*
X83864260Y-63639000D01*
X83775740Y-63639000D01*
X83709557Y-63632481D01*
X83643373Y-63625963D01*
X83473534Y-63574443D01*
X83317009Y-63490778D01*
X83281271Y-63461448D01*
X83179814Y-63378186D01*
X83075265Y-63250791D01*
X83067222Y-63240991D01*
X82983557Y-63084466D01*
X82932037Y-62914627D01*
X82914641Y-62738000D01*
X82932037Y-62561373D01*
X82983557Y-62391534D01*
X83067222Y-62235009D01*
X83096552Y-62199271D01*
X83179814Y-62097814D01*
X83281271Y-62014552D01*
X83317009Y-61985222D01*
X83473534Y-61901557D01*
X83643373Y-61850037D01*
X83709557Y-61843519D01*
X83775740Y-61837000D01*
X83864260Y-61837000D01*
X83930443Y-61843519D01*
X83930443Y-61843519D01*
G37*
G36*
X82181000Y-63639000D02*
G01*
X80379000Y-63639000D01*
X80379000Y-61837000D01*
X82181000Y-61837000D01*
X82181000Y-63639000D01*
X82181000Y-63639000D01*
G37*
G36*
X71513000Y-61353000D02*
G01*
X69711000Y-61353000D01*
X69711000Y-59551000D01*
X71513000Y-59551000D01*
X71513000Y-61353000D01*
X71513000Y-61353000D01*
G37*
G36*
X68182443Y-59557519D02*
G01*
X68248627Y-59564037D01*
X68418466Y-59615557D01*
X68574991Y-59699222D01*
X68610729Y-59728552D01*
X68712186Y-59811814D01*
X68795448Y-59913271D01*
X68824778Y-59949009D01*
X68908443Y-60105534D01*
X68959963Y-60275373D01*
X68977359Y-60452000D01*
X68959963Y-60628627D01*
X68908443Y-60798466D01*
X68824778Y-60954991D01*
X68795448Y-60990729D01*
X68712186Y-61092186D01*
X68610729Y-61175448D01*
X68574991Y-61204778D01*
X68418466Y-61288443D01*
X68248627Y-61339963D01*
X68182443Y-61346481D01*
X68116260Y-61353000D01*
X68027740Y-61353000D01*
X67961557Y-61346481D01*
X67895373Y-61339963D01*
X67725534Y-61288443D01*
X67569009Y-61204778D01*
X67533271Y-61175448D01*
X67431814Y-61092186D01*
X67348552Y-60990729D01*
X67319222Y-60954991D01*
X67235557Y-60798466D01*
X67184037Y-60628627D01*
X67166641Y-60452000D01*
X67184037Y-60275373D01*
X67235557Y-60105534D01*
X67319222Y-59949009D01*
X67348552Y-59913271D01*
X67431814Y-59811814D01*
X67533271Y-59728552D01*
X67569009Y-59699222D01*
X67725534Y-59615557D01*
X67895373Y-59564037D01*
X67961557Y-59557519D01*
X68027740Y-59551000D01*
X68116260Y-59551000D01*
X68182443Y-59557519D01*
X68182443Y-59557519D01*
G37*
G36*
X91550442Y-59303518D02*
G01*
X91616627Y-59310037D01*
X91786466Y-59361557D01*
X91942991Y-59445222D01*
X91978729Y-59474552D01*
X92080186Y-59557814D01*
X92163448Y-59659271D01*
X92192778Y-59695009D01*
X92276443Y-59851534D01*
X92327963Y-60021373D01*
X92345359Y-60198000D01*
X92327963Y-60374627D01*
X92276443Y-60544466D01*
X92192778Y-60700991D01*
X92174195Y-60723634D01*
X92080186Y-60838186D01*
X92013223Y-60893140D01*
X91942991Y-60950778D01*
X91786466Y-61034443D01*
X91616627Y-61085963D01*
X91553453Y-61092185D01*
X91484260Y-61099000D01*
X91395740Y-61099000D01*
X91326547Y-61092185D01*
X91263373Y-61085963D01*
X91093534Y-61034443D01*
X90937009Y-60950778D01*
X90866777Y-60893140D01*
X90799814Y-60838186D01*
X90705805Y-60723634D01*
X90687222Y-60700991D01*
X90603557Y-60544466D01*
X90552037Y-60374627D01*
X90534641Y-60198000D01*
X90552037Y-60021373D01*
X90603557Y-59851534D01*
X90687222Y-59695009D01*
X90716552Y-59659271D01*
X90799814Y-59557814D01*
X90901271Y-59474552D01*
X90937009Y-59445222D01*
X91093534Y-59361557D01*
X91263373Y-59310037D01*
X91329558Y-59303518D01*
X91395740Y-59297000D01*
X91484260Y-59297000D01*
X91550442Y-59303518D01*
X91550442Y-59303518D01*
G37*
G36*
X89010442Y-59303518D02*
G01*
X89076627Y-59310037D01*
X89246466Y-59361557D01*
X89402991Y-59445222D01*
X89438729Y-59474552D01*
X89540186Y-59557814D01*
X89623448Y-59659271D01*
X89652778Y-59695009D01*
X89736443Y-59851534D01*
X89787963Y-60021373D01*
X89805359Y-60198000D01*
X89787963Y-60374627D01*
X89736443Y-60544466D01*
X89652778Y-60700991D01*
X89634195Y-60723634D01*
X89540186Y-60838186D01*
X89473223Y-60893140D01*
X89402991Y-60950778D01*
X89246466Y-61034443D01*
X89076627Y-61085963D01*
X89013453Y-61092185D01*
X88944260Y-61099000D01*
X88855740Y-61099000D01*
X88786547Y-61092185D01*
X88723373Y-61085963D01*
X88553534Y-61034443D01*
X88397009Y-60950778D01*
X88326777Y-60893140D01*
X88259814Y-60838186D01*
X88165805Y-60723634D01*
X88147222Y-60700991D01*
X88063557Y-60544466D01*
X88012037Y-60374627D01*
X87994641Y-60198000D01*
X88012037Y-60021373D01*
X88063557Y-59851534D01*
X88147222Y-59695009D01*
X88176552Y-59659271D01*
X88259814Y-59557814D01*
X88361271Y-59474552D01*
X88397009Y-59445222D01*
X88553534Y-59361557D01*
X88723373Y-59310037D01*
X88789558Y-59303518D01*
X88855740Y-59297000D01*
X88944260Y-59297000D01*
X89010442Y-59303518D01*
X89010442Y-59303518D01*
G37*
G36*
X86470442Y-59303518D02*
G01*
X86536627Y-59310037D01*
X86706466Y-59361557D01*
X86862991Y-59445222D01*
X86898729Y-59474552D01*
X87000186Y-59557814D01*
X87083448Y-59659271D01*
X87112778Y-59695009D01*
X87196443Y-59851534D01*
X87247963Y-60021373D01*
X87265359Y-60198000D01*
X87247963Y-60374627D01*
X87196443Y-60544466D01*
X87112778Y-60700991D01*
X87094195Y-60723634D01*
X87000186Y-60838186D01*
X86933223Y-60893140D01*
X86862991Y-60950778D01*
X86706466Y-61034443D01*
X86536627Y-61085963D01*
X86473453Y-61092185D01*
X86404260Y-61099000D01*
X86315740Y-61099000D01*
X86246547Y-61092185D01*
X86183373Y-61085963D01*
X86013534Y-61034443D01*
X85857009Y-60950778D01*
X85786777Y-60893140D01*
X85719814Y-60838186D01*
X85625805Y-60723634D01*
X85607222Y-60700991D01*
X85523557Y-60544466D01*
X85472037Y-60374627D01*
X85454641Y-60198000D01*
X85472037Y-60021373D01*
X85523557Y-59851534D01*
X85607222Y-59695009D01*
X85636552Y-59659271D01*
X85719814Y-59557814D01*
X85821271Y-59474552D01*
X85857009Y-59445222D01*
X86013534Y-59361557D01*
X86183373Y-59310037D01*
X86249558Y-59303518D01*
X86315740Y-59297000D01*
X86404260Y-59297000D01*
X86470442Y-59303518D01*
X86470442Y-59303518D01*
G37*
G36*
X83930442Y-59303518D02*
G01*
X83996627Y-59310037D01*
X84166466Y-59361557D01*
X84322991Y-59445222D01*
X84358729Y-59474552D01*
X84460186Y-59557814D01*
X84543448Y-59659271D01*
X84572778Y-59695009D01*
X84656443Y-59851534D01*
X84707963Y-60021373D01*
X84725359Y-60198000D01*
X84707963Y-60374627D01*
X84656443Y-60544466D01*
X84572778Y-60700991D01*
X84554195Y-60723634D01*
X84460186Y-60838186D01*
X84393223Y-60893140D01*
X84322991Y-60950778D01*
X84166466Y-61034443D01*
X83996627Y-61085963D01*
X83933453Y-61092185D01*
X83864260Y-61099000D01*
X83775740Y-61099000D01*
X83706547Y-61092185D01*
X83643373Y-61085963D01*
X83473534Y-61034443D01*
X83317009Y-60950778D01*
X83246777Y-60893140D01*
X83179814Y-60838186D01*
X83085805Y-60723634D01*
X83067222Y-60700991D01*
X82983557Y-60544466D01*
X82932037Y-60374627D01*
X82914641Y-60198000D01*
X82932037Y-60021373D01*
X82983557Y-59851534D01*
X83067222Y-59695009D01*
X83096552Y-59659271D01*
X83179814Y-59557814D01*
X83281271Y-59474552D01*
X83317009Y-59445222D01*
X83473534Y-59361557D01*
X83643373Y-59310037D01*
X83709558Y-59303518D01*
X83775740Y-59297000D01*
X83864260Y-59297000D01*
X83930442Y-59303518D01*
X83930442Y-59303518D01*
G37*
G36*
X81390442Y-59303518D02*
G01*
X81456627Y-59310037D01*
X81626466Y-59361557D01*
X81782991Y-59445222D01*
X81818729Y-59474552D01*
X81920186Y-59557814D01*
X82003448Y-59659271D01*
X82032778Y-59695009D01*
X82116443Y-59851534D01*
X82167963Y-60021373D01*
X82185359Y-60198000D01*
X82167963Y-60374627D01*
X82116443Y-60544466D01*
X82032778Y-60700991D01*
X82014195Y-60723634D01*
X81920186Y-60838186D01*
X81853223Y-60893140D01*
X81782991Y-60950778D01*
X81626466Y-61034443D01*
X81456627Y-61085963D01*
X81393453Y-61092185D01*
X81324260Y-61099000D01*
X81235740Y-61099000D01*
X81166547Y-61092185D01*
X81103373Y-61085963D01*
X80933534Y-61034443D01*
X80777009Y-60950778D01*
X80706777Y-60893140D01*
X80639814Y-60838186D01*
X80545805Y-60723634D01*
X80527222Y-60700991D01*
X80443557Y-60544466D01*
X80392037Y-60374627D01*
X80374641Y-60198000D01*
X80392037Y-60021373D01*
X80443557Y-59851534D01*
X80527222Y-59695009D01*
X80556552Y-59659271D01*
X80639814Y-59557814D01*
X80741271Y-59474552D01*
X80777009Y-59445222D01*
X80933534Y-59361557D01*
X81103373Y-59310037D01*
X81169558Y-59303518D01*
X81235740Y-59297000D01*
X81324260Y-59297000D01*
X81390442Y-59303518D01*
X81390442Y-59303518D01*
G37*
G36*
X55936979Y-55363293D02*
G01*
X56070625Y-55403834D01*
X56193784Y-55469664D01*
X56301740Y-55558260D01*
X56390336Y-55666216D01*
X56456166Y-55789375D01*
X56496707Y-55923021D01*
X56511000Y-56068140D01*
X56511000Y-58231860D01*
X56496707Y-58376979D01*
X56456166Y-58510625D01*
X56390336Y-58633784D01*
X56301740Y-58741740D01*
X56193784Y-58830336D01*
X56070625Y-58896166D01*
X55936979Y-58936707D01*
X55791860Y-58951000D01*
X54128140Y-58951000D01*
X53983021Y-58936707D01*
X53849375Y-58896166D01*
X53726216Y-58830336D01*
X53618260Y-58741740D01*
X53529664Y-58633784D01*
X53463834Y-58510625D01*
X53423293Y-58376979D01*
X53409000Y-58231860D01*
X53409000Y-56068140D01*
X53423293Y-55923021D01*
X53463834Y-55789375D01*
X53529664Y-55666216D01*
X53618260Y-55558260D01*
X53726216Y-55469664D01*
X53849375Y-55403834D01*
X53983021Y-55363293D01*
X54128140Y-55349000D01*
X55791860Y-55349000D01*
X55936979Y-55363293D01*
X55936979Y-55363293D01*
G37*
G36*
X62761000Y-58951000D02*
G01*
X59159000Y-58951000D01*
X59159000Y-55349000D01*
X62761000Y-55349000D01*
X62761000Y-58951000D01*
X62761000Y-58951000D01*
G37*
G36*
X68182442Y-57017518D02*
G01*
X68248627Y-57024037D01*
X68418466Y-57075557D01*
X68574991Y-57159222D01*
X68610729Y-57188552D01*
X68712186Y-57271814D01*
X68795448Y-57373271D01*
X68824778Y-57409009D01*
X68908443Y-57565534D01*
X68959963Y-57735373D01*
X68977359Y-57912000D01*
X68959963Y-58088627D01*
X68908443Y-58258466D01*
X68824778Y-58414991D01*
X68795448Y-58450729D01*
X68712186Y-58552186D01*
X68612757Y-58633784D01*
X68574991Y-58664778D01*
X68418466Y-58748443D01*
X68248627Y-58799963D01*
X68182442Y-58806482D01*
X68116260Y-58813000D01*
X68027740Y-58813000D01*
X67961558Y-58806482D01*
X67895373Y-58799963D01*
X67725534Y-58748443D01*
X67569009Y-58664778D01*
X67531243Y-58633784D01*
X67431814Y-58552186D01*
X67348552Y-58450729D01*
X67319222Y-58414991D01*
X67235557Y-58258466D01*
X67184037Y-58088627D01*
X67166641Y-57912000D01*
X67184037Y-57735373D01*
X67235557Y-57565534D01*
X67319222Y-57409009D01*
X67348552Y-57373271D01*
X67431814Y-57271814D01*
X67533271Y-57188552D01*
X67569009Y-57159222D01*
X67725534Y-57075557D01*
X67895373Y-57024037D01*
X67961558Y-57017518D01*
X68027740Y-57011000D01*
X68116260Y-57011000D01*
X68182442Y-57017518D01*
X68182442Y-57017518D01*
G37*
G36*
X70722442Y-57017518D02*
G01*
X70788627Y-57024037D01*
X70958466Y-57075557D01*
X71114991Y-57159222D01*
X71150729Y-57188552D01*
X71252186Y-57271814D01*
X71335448Y-57373271D01*
X71364778Y-57409009D01*
X71448443Y-57565534D01*
X71499963Y-57735373D01*
X71517359Y-57912000D01*
X71499963Y-58088627D01*
X71448443Y-58258466D01*
X71364778Y-58414991D01*
X71335448Y-58450729D01*
X71252186Y-58552186D01*
X71152757Y-58633784D01*
X71114991Y-58664778D01*
X70958466Y-58748443D01*
X70788627Y-58799963D01*
X70722442Y-58806482D01*
X70656260Y-58813000D01*
X70567740Y-58813000D01*
X70501558Y-58806482D01*
X70435373Y-58799963D01*
X70265534Y-58748443D01*
X70109009Y-58664778D01*
X70071243Y-58633784D01*
X69971814Y-58552186D01*
X69888552Y-58450729D01*
X69859222Y-58414991D01*
X69775557Y-58258466D01*
X69724037Y-58088627D01*
X69706641Y-57912000D01*
X69724037Y-57735373D01*
X69775557Y-57565534D01*
X69859222Y-57409009D01*
X69888552Y-57373271D01*
X69971814Y-57271814D01*
X70073271Y-57188552D01*
X70109009Y-57159222D01*
X70265534Y-57075557D01*
X70435373Y-57024037D01*
X70501558Y-57017518D01*
X70567740Y-57011000D01*
X70656260Y-57011000D01*
X70722442Y-57017518D01*
X70722442Y-57017518D01*
G37*
G36*
X66481000Y-53139000D02*
G01*
X64379000Y-53139000D01*
X64379000Y-51537000D01*
X66481000Y-51537000D01*
X66481000Y-53139000D01*
X66481000Y-53139000D01*
G37*
G36*
X72781000Y-51989000D02*
G01*
X70679000Y-51989000D01*
X70679000Y-48087000D01*
X72781000Y-48087000D01*
X72781000Y-51989000D01*
X72781000Y-51989000D01*
G37*
G36*
X80732295Y-49603323D02*
G01*
X80739309Y-49605451D01*
X80753077Y-49612810D01*
X80775716Y-49622187D01*
X80799749Y-49626967D01*
X80824253Y-49626967D01*
X80848286Y-49622186D01*
X80870923Y-49612810D01*
X80884691Y-49605451D01*
X80891705Y-49603323D01*
X80905140Y-49602000D01*
X81218860Y-49602000D01*
X81232295Y-49603323D01*
X81239309Y-49605451D01*
X81253077Y-49612810D01*
X81275716Y-49622187D01*
X81299749Y-49626967D01*
X81324253Y-49626967D01*
X81348286Y-49622186D01*
X81370923Y-49612810D01*
X81384691Y-49605451D01*
X81391705Y-49603323D01*
X81405140Y-49602000D01*
X81718860Y-49602000D01*
X81732295Y-49603323D01*
X81739309Y-49605451D01*
X81753077Y-49612810D01*
X81775716Y-49622187D01*
X81799749Y-49626967D01*
X81824253Y-49626967D01*
X81848286Y-49622186D01*
X81870923Y-49612810D01*
X81884691Y-49605451D01*
X81891705Y-49603323D01*
X81905140Y-49602000D01*
X82218860Y-49602000D01*
X82232295Y-49603323D01*
X82239309Y-49605451D01*
X82253077Y-49612810D01*
X82275716Y-49622187D01*
X82299749Y-49626967D01*
X82324253Y-49626967D01*
X82348286Y-49622186D01*
X82370923Y-49612810D01*
X82384691Y-49605451D01*
X82391705Y-49603323D01*
X82405140Y-49602000D01*
X82718860Y-49602000D01*
X82732295Y-49603323D01*
X82739309Y-49605451D01*
X82753077Y-49612810D01*
X82775716Y-49622187D01*
X82799749Y-49626967D01*
X82824253Y-49626967D01*
X82848286Y-49622186D01*
X82870923Y-49612810D01*
X82884691Y-49605451D01*
X82891705Y-49603323D01*
X82905140Y-49602000D01*
X83218860Y-49602000D01*
X83232295Y-49603323D01*
X83239309Y-49605451D01*
X83253077Y-49612810D01*
X83275716Y-49622187D01*
X83299749Y-49626967D01*
X83324253Y-49626967D01*
X83348286Y-49622186D01*
X83370923Y-49612810D01*
X83384691Y-49605451D01*
X83391705Y-49603323D01*
X83405140Y-49602000D01*
X83718860Y-49602000D01*
X83732295Y-49603323D01*
X83739309Y-49605451D01*
X83753077Y-49612810D01*
X83775716Y-49622187D01*
X83799749Y-49626967D01*
X83824253Y-49626967D01*
X83848286Y-49622186D01*
X83870923Y-49612810D01*
X83884691Y-49605451D01*
X83891705Y-49603323D01*
X83905140Y-49602000D01*
X84218860Y-49602000D01*
X84232295Y-49603323D01*
X84239309Y-49605451D01*
X84253077Y-49612810D01*
X84275716Y-49622187D01*
X84299749Y-49626967D01*
X84324253Y-49626967D01*
X84348286Y-49622186D01*
X84370923Y-49612810D01*
X84384691Y-49605451D01*
X84391705Y-49603323D01*
X84405140Y-49602000D01*
X84718860Y-49602000D01*
X84732295Y-49603323D01*
X84739309Y-49605451D01*
X84753077Y-49612810D01*
X84775716Y-49622187D01*
X84799749Y-49626967D01*
X84824253Y-49626967D01*
X84848286Y-49622186D01*
X84870923Y-49612810D01*
X84884691Y-49605451D01*
X84891705Y-49603323D01*
X84905140Y-49602000D01*
X85218860Y-49602000D01*
X85232295Y-49603323D01*
X85239309Y-49605451D01*
X85253077Y-49612810D01*
X85275716Y-49622187D01*
X85299749Y-49626967D01*
X85324253Y-49626967D01*
X85348286Y-49622186D01*
X85370923Y-49612810D01*
X85384691Y-49605451D01*
X85391705Y-49603323D01*
X85405140Y-49602000D01*
X85718860Y-49602000D01*
X85732295Y-49603323D01*
X85739309Y-49605451D01*
X85753077Y-49612810D01*
X85775716Y-49622187D01*
X85799749Y-49626967D01*
X85824253Y-49626967D01*
X85848286Y-49622186D01*
X85870923Y-49612810D01*
X85884691Y-49605451D01*
X85891705Y-49603323D01*
X85905140Y-49602000D01*
X86218860Y-49602000D01*
X86232295Y-49603323D01*
X86239310Y-49605451D01*
X86245776Y-49608908D01*
X86251442Y-49613558D01*
X86256092Y-49619224D01*
X86259549Y-49625690D01*
X86261677Y-49632705D01*
X86263000Y-49646140D01*
X86263000Y-51134860D01*
X86261677Y-51148295D01*
X86259549Y-51155310D01*
X86256092Y-51161776D01*
X86251442Y-51167442D01*
X86245776Y-51172092D01*
X86239310Y-51175549D01*
X86232295Y-51177677D01*
X86218860Y-51179000D01*
X85905140Y-51179000D01*
X85891705Y-51177677D01*
X85884691Y-51175549D01*
X85870923Y-51168190D01*
X85848284Y-51158813D01*
X85824251Y-51154033D01*
X85799747Y-51154033D01*
X85775714Y-51158814D01*
X85753077Y-51168190D01*
X85739309Y-51175549D01*
X85732295Y-51177677D01*
X85718860Y-51179000D01*
X85405140Y-51179000D01*
X85391705Y-51177677D01*
X85384691Y-51175549D01*
X85370923Y-51168190D01*
X85348284Y-51158813D01*
X85324251Y-51154033D01*
X85299747Y-51154033D01*
X85275714Y-51158814D01*
X85253077Y-51168190D01*
X85239309Y-51175549D01*
X85232295Y-51177677D01*
X85218860Y-51179000D01*
X84905140Y-51179000D01*
X84891705Y-51177677D01*
X84884691Y-51175549D01*
X84870923Y-51168190D01*
X84848284Y-51158813D01*
X84824251Y-51154033D01*
X84799747Y-51154033D01*
X84775714Y-51158814D01*
X84753077Y-51168190D01*
X84739309Y-51175549D01*
X84732295Y-51177677D01*
X84718860Y-51179000D01*
X84405140Y-51179000D01*
X84391705Y-51177677D01*
X84384691Y-51175549D01*
X84370923Y-51168190D01*
X84348284Y-51158813D01*
X84324251Y-51154033D01*
X84299747Y-51154033D01*
X84275714Y-51158814D01*
X84253077Y-51168190D01*
X84239309Y-51175549D01*
X84232295Y-51177677D01*
X84218860Y-51179000D01*
X83905140Y-51179000D01*
X83891705Y-51177677D01*
X83884691Y-51175549D01*
X83870923Y-51168190D01*
X83848284Y-51158813D01*
X83824251Y-51154033D01*
X83799747Y-51154033D01*
X83775714Y-51158814D01*
X83753077Y-51168190D01*
X83739309Y-51175549D01*
X83732295Y-51177677D01*
X83718860Y-51179000D01*
X83405140Y-51179000D01*
X83391705Y-51177677D01*
X83384691Y-51175549D01*
X83370923Y-51168190D01*
X83348284Y-51158813D01*
X83324251Y-51154033D01*
X83299747Y-51154033D01*
X83275714Y-51158814D01*
X83253077Y-51168190D01*
X83239309Y-51175549D01*
X83232295Y-51177677D01*
X83218860Y-51179000D01*
X82905140Y-51179000D01*
X82891705Y-51177677D01*
X82884691Y-51175549D01*
X82870923Y-51168190D01*
X82848284Y-51158813D01*
X82824251Y-51154033D01*
X82799747Y-51154033D01*
X82775714Y-51158814D01*
X82753077Y-51168190D01*
X82739309Y-51175549D01*
X82732295Y-51177677D01*
X82718860Y-51179000D01*
X82405140Y-51179000D01*
X82391705Y-51177677D01*
X82384691Y-51175549D01*
X82370923Y-51168190D01*
X82348284Y-51158813D01*
X82324251Y-51154033D01*
X82299747Y-51154033D01*
X82275714Y-51158814D01*
X82253077Y-51168190D01*
X82239309Y-51175549D01*
X82232295Y-51177677D01*
X82218860Y-51179000D01*
X81905140Y-51179000D01*
X81891705Y-51177677D01*
X81884691Y-51175549D01*
X81870923Y-51168190D01*
X81848284Y-51158813D01*
X81824251Y-51154033D01*
X81799747Y-51154033D01*
X81775714Y-51158814D01*
X81753077Y-51168190D01*
X81739309Y-51175549D01*
X81732295Y-51177677D01*
X81718860Y-51179000D01*
X81405140Y-51179000D01*
X81391705Y-51177677D01*
X81384691Y-51175549D01*
X81370923Y-51168190D01*
X81348284Y-51158813D01*
X81324251Y-51154033D01*
X81299747Y-51154033D01*
X81275714Y-51158814D01*
X81253077Y-51168190D01*
X81239309Y-51175549D01*
X81232295Y-51177677D01*
X81218860Y-51179000D01*
X80905140Y-51179000D01*
X80891705Y-51177677D01*
X80884691Y-51175549D01*
X80870923Y-51168190D01*
X80848284Y-51158813D01*
X80824251Y-51154033D01*
X80799747Y-51154033D01*
X80775714Y-51158814D01*
X80753077Y-51168190D01*
X80739309Y-51175549D01*
X80732295Y-51177677D01*
X80718860Y-51179000D01*
X80405140Y-51179000D01*
X80391705Y-51177677D01*
X80384690Y-51175549D01*
X80378224Y-51172092D01*
X80372558Y-51167442D01*
X80367908Y-51161776D01*
X80364451Y-51155310D01*
X80362323Y-51148295D01*
X80361000Y-51134860D01*
X80361000Y-49646140D01*
X80362323Y-49632705D01*
X80364451Y-49625690D01*
X80367908Y-49619224D01*
X80372558Y-49613558D01*
X80378224Y-49608908D01*
X80384690Y-49605451D01*
X80391705Y-49603323D01*
X80405140Y-49602000D01*
X80718860Y-49602000D01*
X80732295Y-49603323D01*
X80732295Y-49603323D01*
G37*
G36*
X66481000Y-50839000D02*
G01*
X64379000Y-50839000D01*
X64379000Y-49237000D01*
X66481000Y-49237000D01*
X66481000Y-50839000D01*
X66481000Y-50839000D01*
G37*
G36*
X91012674Y-48155465D02*
G01*
X91050367Y-48166899D01*
X91085103Y-48185466D01*
X91115548Y-48210452D01*
X91140534Y-48240897D01*
X91159101Y-48275633D01*
X91170535Y-48313326D01*
X91175000Y-48358661D01*
X91175000Y-49195339D01*
X91170535Y-49240674D01*
X91159101Y-49278367D01*
X91140534Y-49313103D01*
X91115548Y-49343548D01*
X91085103Y-49368534D01*
X91050367Y-49387101D01*
X91012674Y-49398535D01*
X90967339Y-49403000D01*
X89880661Y-49403000D01*
X89835326Y-49398535D01*
X89797633Y-49387101D01*
X89762897Y-49368534D01*
X89732452Y-49343548D01*
X89707466Y-49313103D01*
X89688899Y-49278367D01*
X89677465Y-49240674D01*
X89673000Y-49195339D01*
X89673000Y-48358661D01*
X89677465Y-48313326D01*
X89688899Y-48275633D01*
X89707466Y-48240897D01*
X89732452Y-48210452D01*
X89762897Y-48185466D01*
X89797633Y-48166899D01*
X89835326Y-48155465D01*
X89880661Y-48151000D01*
X90967339Y-48151000D01*
X91012674Y-48155465D01*
X91012674Y-48155465D01*
G37*
G36*
X79907295Y-43278323D02*
G01*
X79914310Y-43280451D01*
X79920776Y-43283908D01*
X79926442Y-43288558D01*
X79931092Y-43294224D01*
X79934549Y-43300690D01*
X79936677Y-43307705D01*
X79938000Y-43321140D01*
X79938000Y-43634860D01*
X79936677Y-43648295D01*
X79934549Y-43655309D01*
X79927190Y-43669077D01*
X79917813Y-43691716D01*
X79913033Y-43715749D01*
X79913033Y-43740253D01*
X79917814Y-43764286D01*
X79927190Y-43786923D01*
X79934549Y-43800691D01*
X79936677Y-43807705D01*
X79938000Y-43821140D01*
X79938000Y-44134860D01*
X79936677Y-44148295D01*
X79934549Y-44155309D01*
X79927190Y-44169077D01*
X79917813Y-44191716D01*
X79913033Y-44215749D01*
X79913033Y-44240253D01*
X79917814Y-44264286D01*
X79927190Y-44286923D01*
X79934549Y-44300691D01*
X79936677Y-44307705D01*
X79938000Y-44321140D01*
X79938000Y-44634860D01*
X79936677Y-44648295D01*
X79934549Y-44655309D01*
X79927190Y-44669077D01*
X79917813Y-44691716D01*
X79913033Y-44715749D01*
X79913033Y-44740253D01*
X79917814Y-44764286D01*
X79927190Y-44786923D01*
X79934549Y-44800691D01*
X79936677Y-44807705D01*
X79938000Y-44821140D01*
X79938000Y-45134860D01*
X79936677Y-45148295D01*
X79934549Y-45155309D01*
X79927190Y-45169077D01*
X79917813Y-45191716D01*
X79913033Y-45215749D01*
X79913033Y-45240253D01*
X79917814Y-45264286D01*
X79927190Y-45286923D01*
X79934549Y-45300691D01*
X79936677Y-45307705D01*
X79938000Y-45321140D01*
X79938000Y-45634860D01*
X79936677Y-45648295D01*
X79934549Y-45655309D01*
X79927190Y-45669077D01*
X79917813Y-45691716D01*
X79913033Y-45715749D01*
X79913033Y-45740253D01*
X79917814Y-45764286D01*
X79927190Y-45786923D01*
X79934549Y-45800691D01*
X79936677Y-45807705D01*
X79938000Y-45821140D01*
X79938000Y-46134860D01*
X79936677Y-46148295D01*
X79934549Y-46155309D01*
X79927190Y-46169077D01*
X79917813Y-46191716D01*
X79913033Y-46215749D01*
X79913033Y-46240253D01*
X79917814Y-46264286D01*
X79927190Y-46286923D01*
X79934549Y-46300691D01*
X79936677Y-46307705D01*
X79938000Y-46321140D01*
X79938000Y-46634860D01*
X79936677Y-46648295D01*
X79934549Y-46655309D01*
X79927190Y-46669077D01*
X79917813Y-46691716D01*
X79913033Y-46715749D01*
X79913033Y-46740253D01*
X79917814Y-46764286D01*
X79927190Y-46786923D01*
X79934549Y-46800691D01*
X79936677Y-46807705D01*
X79938000Y-46821140D01*
X79938000Y-47134860D01*
X79936677Y-47148295D01*
X79934549Y-47155309D01*
X79927190Y-47169077D01*
X79917813Y-47191716D01*
X79913033Y-47215749D01*
X79913033Y-47240253D01*
X79917814Y-47264286D01*
X79927190Y-47286923D01*
X79934549Y-47300691D01*
X79936677Y-47307705D01*
X79938000Y-47321140D01*
X79938000Y-47634860D01*
X79936677Y-47648295D01*
X79934549Y-47655309D01*
X79927190Y-47669077D01*
X79917813Y-47691716D01*
X79913033Y-47715749D01*
X79913033Y-47740253D01*
X79917814Y-47764286D01*
X79927190Y-47786923D01*
X79934549Y-47800691D01*
X79936677Y-47807705D01*
X79938000Y-47821140D01*
X79938000Y-48134860D01*
X79936677Y-48148295D01*
X79934549Y-48155309D01*
X79927190Y-48169077D01*
X79917813Y-48191716D01*
X79913033Y-48215749D01*
X79913033Y-48240253D01*
X79917814Y-48264286D01*
X79927190Y-48286923D01*
X79934549Y-48300691D01*
X79936677Y-48307705D01*
X79938000Y-48321140D01*
X79938000Y-48634860D01*
X79936677Y-48648295D01*
X79934549Y-48655309D01*
X79927190Y-48669077D01*
X79917813Y-48691716D01*
X79913033Y-48715749D01*
X79913033Y-48740253D01*
X79917814Y-48764286D01*
X79927190Y-48786923D01*
X79934549Y-48800691D01*
X79936677Y-48807705D01*
X79938000Y-48821140D01*
X79938000Y-49134860D01*
X79936677Y-49148295D01*
X79934549Y-49155310D01*
X79931092Y-49161776D01*
X79926442Y-49167442D01*
X79920776Y-49172092D01*
X79914310Y-49175549D01*
X79907295Y-49177677D01*
X79893860Y-49179000D01*
X78405140Y-49179000D01*
X78391705Y-49177677D01*
X78384690Y-49175549D01*
X78378224Y-49172092D01*
X78372558Y-49167442D01*
X78367908Y-49161776D01*
X78364451Y-49155310D01*
X78362323Y-49148295D01*
X78361000Y-49134860D01*
X78361000Y-48821140D01*
X78362323Y-48807705D01*
X78364451Y-48800691D01*
X78371810Y-48786923D01*
X78381187Y-48764284D01*
X78385967Y-48740251D01*
X78385967Y-48715747D01*
X78381186Y-48691714D01*
X78371810Y-48669077D01*
X78364451Y-48655309D01*
X78362323Y-48648295D01*
X78361000Y-48634860D01*
X78361000Y-48321140D01*
X78362323Y-48307705D01*
X78364451Y-48300691D01*
X78371810Y-48286923D01*
X78381187Y-48264284D01*
X78385967Y-48240251D01*
X78385967Y-48215747D01*
X78381186Y-48191714D01*
X78371810Y-48169077D01*
X78364451Y-48155309D01*
X78362323Y-48148295D01*
X78361000Y-48134860D01*
X78361000Y-47821140D01*
X78362323Y-47807705D01*
X78364451Y-47800691D01*
X78371810Y-47786923D01*
X78381187Y-47764284D01*
X78385967Y-47740251D01*
X78385967Y-47715747D01*
X78381186Y-47691714D01*
X78371810Y-47669077D01*
X78364451Y-47655309D01*
X78362323Y-47648295D01*
X78361000Y-47634860D01*
X78361000Y-47321140D01*
X78362323Y-47307705D01*
X78364451Y-47300691D01*
X78371810Y-47286923D01*
X78381187Y-47264284D01*
X78385967Y-47240251D01*
X78385967Y-47215747D01*
X78381186Y-47191714D01*
X78371810Y-47169077D01*
X78364451Y-47155309D01*
X78362323Y-47148295D01*
X78361000Y-47134860D01*
X78361000Y-46821140D01*
X78362323Y-46807705D01*
X78364451Y-46800691D01*
X78371810Y-46786923D01*
X78381187Y-46764284D01*
X78385967Y-46740251D01*
X78385967Y-46715747D01*
X78381186Y-46691714D01*
X78371810Y-46669077D01*
X78364451Y-46655309D01*
X78362323Y-46648295D01*
X78361000Y-46634860D01*
X78361000Y-46321140D01*
X78362323Y-46307705D01*
X78364451Y-46300691D01*
X78371810Y-46286923D01*
X78381187Y-46264284D01*
X78385967Y-46240251D01*
X78385967Y-46215747D01*
X78381186Y-46191714D01*
X78371810Y-46169077D01*
X78364451Y-46155309D01*
X78362323Y-46148295D01*
X78361000Y-46134860D01*
X78361000Y-45821140D01*
X78362323Y-45807705D01*
X78364451Y-45800691D01*
X78371810Y-45786923D01*
X78381187Y-45764284D01*
X78385967Y-45740251D01*
X78385967Y-45715747D01*
X78381186Y-45691714D01*
X78371810Y-45669077D01*
X78364451Y-45655309D01*
X78362323Y-45648295D01*
X78361000Y-45634860D01*
X78361000Y-45321140D01*
X78362323Y-45307705D01*
X78364451Y-45300691D01*
X78371810Y-45286923D01*
X78381187Y-45264284D01*
X78385967Y-45240251D01*
X78385967Y-45215747D01*
X78381186Y-45191714D01*
X78371810Y-45169077D01*
X78364451Y-45155309D01*
X78362323Y-45148295D01*
X78361000Y-45134860D01*
X78361000Y-44821140D01*
X78362323Y-44807705D01*
X78364451Y-44800691D01*
X78371810Y-44786923D01*
X78381187Y-44764284D01*
X78385967Y-44740251D01*
X78385967Y-44715747D01*
X78381186Y-44691714D01*
X78371810Y-44669077D01*
X78364451Y-44655309D01*
X78362323Y-44648295D01*
X78361000Y-44634860D01*
X78361000Y-44321140D01*
X78362323Y-44307705D01*
X78364451Y-44300691D01*
X78371810Y-44286923D01*
X78381187Y-44264284D01*
X78385967Y-44240251D01*
X78385967Y-44215747D01*
X78381186Y-44191714D01*
X78371810Y-44169077D01*
X78364451Y-44155309D01*
X78362323Y-44148295D01*
X78361000Y-44134860D01*
X78361000Y-43821140D01*
X78362323Y-43807705D01*
X78364451Y-43800691D01*
X78371810Y-43786923D01*
X78381187Y-43764284D01*
X78385967Y-43740251D01*
X78385967Y-43715747D01*
X78381186Y-43691714D01*
X78371810Y-43669077D01*
X78364451Y-43655309D01*
X78362323Y-43648295D01*
X78361000Y-43634860D01*
X78361000Y-43321140D01*
X78362323Y-43307705D01*
X78364451Y-43300690D01*
X78367908Y-43294224D01*
X78372558Y-43288558D01*
X78378224Y-43283908D01*
X78384690Y-43280451D01*
X78391705Y-43278323D01*
X78405140Y-43277000D01*
X79893860Y-43277000D01*
X79907295Y-43278323D01*
X79907295Y-43278323D01*
G37*
G36*
X88232295Y-43278323D02*
G01*
X88239310Y-43280451D01*
X88245776Y-43283908D01*
X88251442Y-43288558D01*
X88256092Y-43294224D01*
X88259549Y-43300690D01*
X88261677Y-43307705D01*
X88263000Y-43321140D01*
X88263000Y-43634860D01*
X88261677Y-43648295D01*
X88259549Y-43655309D01*
X88252190Y-43669077D01*
X88242813Y-43691716D01*
X88238033Y-43715749D01*
X88238033Y-43740253D01*
X88242814Y-43764286D01*
X88252190Y-43786923D01*
X88259549Y-43800691D01*
X88261677Y-43807705D01*
X88263000Y-43821140D01*
X88263000Y-44134860D01*
X88261677Y-44148295D01*
X88259549Y-44155309D01*
X88252190Y-44169077D01*
X88242813Y-44191716D01*
X88238033Y-44215749D01*
X88238033Y-44240253D01*
X88242814Y-44264286D01*
X88252190Y-44286923D01*
X88259549Y-44300691D01*
X88261677Y-44307705D01*
X88263000Y-44321140D01*
X88263000Y-44634860D01*
X88261677Y-44648295D01*
X88259549Y-44655309D01*
X88252190Y-44669077D01*
X88242813Y-44691716D01*
X88238033Y-44715749D01*
X88238033Y-44740253D01*
X88242814Y-44764286D01*
X88252190Y-44786923D01*
X88259549Y-44800691D01*
X88261677Y-44807705D01*
X88263000Y-44821140D01*
X88263000Y-45134860D01*
X88261677Y-45148295D01*
X88259549Y-45155309D01*
X88252190Y-45169077D01*
X88242813Y-45191716D01*
X88238033Y-45215749D01*
X88238033Y-45240253D01*
X88242814Y-45264286D01*
X88252190Y-45286923D01*
X88259549Y-45300691D01*
X88261677Y-45307705D01*
X88263000Y-45321140D01*
X88263000Y-45634860D01*
X88261677Y-45648295D01*
X88259549Y-45655309D01*
X88252190Y-45669077D01*
X88242813Y-45691716D01*
X88238033Y-45715749D01*
X88238033Y-45740253D01*
X88242814Y-45764286D01*
X88252190Y-45786923D01*
X88259549Y-45800691D01*
X88261677Y-45807705D01*
X88263000Y-45821140D01*
X88263000Y-46134860D01*
X88261677Y-46148295D01*
X88259549Y-46155309D01*
X88252190Y-46169077D01*
X88242813Y-46191716D01*
X88238033Y-46215749D01*
X88238033Y-46240253D01*
X88242814Y-46264286D01*
X88252190Y-46286923D01*
X88259549Y-46300691D01*
X88261677Y-46307705D01*
X88263000Y-46321140D01*
X88263000Y-46634860D01*
X88261677Y-46648295D01*
X88259549Y-46655309D01*
X88252190Y-46669077D01*
X88242813Y-46691716D01*
X88238033Y-46715749D01*
X88238033Y-46740253D01*
X88242814Y-46764286D01*
X88252190Y-46786923D01*
X88259549Y-46800691D01*
X88261677Y-46807705D01*
X88263000Y-46821140D01*
X88263000Y-47134860D01*
X88261677Y-47148295D01*
X88259549Y-47155309D01*
X88252190Y-47169077D01*
X88242813Y-47191716D01*
X88238033Y-47215749D01*
X88238033Y-47240253D01*
X88242814Y-47264286D01*
X88252190Y-47286923D01*
X88259549Y-47300691D01*
X88261677Y-47307705D01*
X88263000Y-47321140D01*
X88263000Y-47634860D01*
X88261677Y-47648295D01*
X88259549Y-47655309D01*
X88252190Y-47669077D01*
X88242813Y-47691716D01*
X88238033Y-47715749D01*
X88238033Y-47740253D01*
X88242814Y-47764286D01*
X88252190Y-47786923D01*
X88259549Y-47800691D01*
X88261677Y-47807705D01*
X88263000Y-47821140D01*
X88263000Y-48134860D01*
X88261677Y-48148295D01*
X88259549Y-48155309D01*
X88252190Y-48169077D01*
X88242813Y-48191716D01*
X88238033Y-48215749D01*
X88238033Y-48240253D01*
X88242814Y-48264286D01*
X88252190Y-48286923D01*
X88259549Y-48300691D01*
X88261677Y-48307705D01*
X88263000Y-48321140D01*
X88263000Y-48634860D01*
X88261677Y-48648295D01*
X88259549Y-48655309D01*
X88252190Y-48669077D01*
X88242813Y-48691716D01*
X88238033Y-48715749D01*
X88238033Y-48740253D01*
X88242814Y-48764286D01*
X88252190Y-48786923D01*
X88259549Y-48800691D01*
X88261677Y-48807705D01*
X88263000Y-48821140D01*
X88263000Y-49134860D01*
X88261677Y-49148295D01*
X88259549Y-49155310D01*
X88256092Y-49161776D01*
X88251442Y-49167442D01*
X88245776Y-49172092D01*
X88239310Y-49175549D01*
X88232295Y-49177677D01*
X88218860Y-49179000D01*
X86730140Y-49179000D01*
X86716705Y-49177677D01*
X86709690Y-49175549D01*
X86703224Y-49172092D01*
X86697558Y-49167442D01*
X86692908Y-49161776D01*
X86689451Y-49155310D01*
X86687323Y-49148295D01*
X86686000Y-49134860D01*
X86686000Y-48821140D01*
X86687323Y-48807705D01*
X86689451Y-48800691D01*
X86696810Y-48786923D01*
X86706187Y-48764284D01*
X86710967Y-48740251D01*
X86710967Y-48715747D01*
X86706186Y-48691714D01*
X86696810Y-48669077D01*
X86689451Y-48655309D01*
X86687323Y-48648295D01*
X86686000Y-48634860D01*
X86686000Y-48321140D01*
X86687323Y-48307705D01*
X86689451Y-48300691D01*
X86696810Y-48286923D01*
X86706187Y-48264284D01*
X86710967Y-48240251D01*
X86710967Y-48215747D01*
X86706186Y-48191714D01*
X86696810Y-48169077D01*
X86689451Y-48155309D01*
X86687323Y-48148295D01*
X86686000Y-48134860D01*
X86686000Y-47821140D01*
X86687323Y-47807705D01*
X86689451Y-47800691D01*
X86696810Y-47786923D01*
X86706187Y-47764284D01*
X86710967Y-47740251D01*
X86710967Y-47715747D01*
X86706186Y-47691714D01*
X86696810Y-47669077D01*
X86689451Y-47655309D01*
X86687323Y-47648295D01*
X86686000Y-47634860D01*
X86686000Y-47321140D01*
X86687323Y-47307705D01*
X86689451Y-47300691D01*
X86696810Y-47286923D01*
X86706187Y-47264284D01*
X86710967Y-47240251D01*
X86710967Y-47215747D01*
X86706186Y-47191714D01*
X86696810Y-47169077D01*
X86689451Y-47155309D01*
X86687323Y-47148295D01*
X86686000Y-47134860D01*
X86686000Y-46821140D01*
X86687323Y-46807705D01*
X86689451Y-46800691D01*
X86696810Y-46786923D01*
X86706187Y-46764284D01*
X86710967Y-46740251D01*
X86710967Y-46715747D01*
X86706186Y-46691714D01*
X86696810Y-46669077D01*
X86689451Y-46655309D01*
X86687323Y-46648295D01*
X86686000Y-46634860D01*
X86686000Y-46321140D01*
X86687323Y-46307705D01*
X86689451Y-46300691D01*
X86696810Y-46286923D01*
X86706187Y-46264284D01*
X86710967Y-46240251D01*
X86710967Y-46215747D01*
X86706186Y-46191714D01*
X86696810Y-46169077D01*
X86689451Y-46155309D01*
X86687323Y-46148295D01*
X86686000Y-46134860D01*
X86686000Y-45821140D01*
X86687323Y-45807705D01*
X86689451Y-45800691D01*
X86696810Y-45786923D01*
X86706187Y-45764284D01*
X86710967Y-45740251D01*
X86710967Y-45715747D01*
X86706186Y-45691714D01*
X86696810Y-45669077D01*
X86689451Y-45655309D01*
X86687323Y-45648295D01*
X86686000Y-45634860D01*
X86686000Y-45321140D01*
X86687323Y-45307705D01*
X86689451Y-45300691D01*
X86696810Y-45286923D01*
X86706187Y-45264284D01*
X86710967Y-45240251D01*
X86710967Y-45215747D01*
X86706186Y-45191714D01*
X86696810Y-45169077D01*
X86689451Y-45155309D01*
X86687323Y-45148295D01*
X86686000Y-45134860D01*
X86686000Y-44821140D01*
X86687323Y-44807705D01*
X86689451Y-44800691D01*
X86696810Y-44786923D01*
X86706187Y-44764284D01*
X86710967Y-44740251D01*
X86710967Y-44715747D01*
X86706186Y-44691714D01*
X86696810Y-44669077D01*
X86689451Y-44655309D01*
X86687323Y-44648295D01*
X86686000Y-44634860D01*
X86686000Y-44321140D01*
X86687323Y-44307705D01*
X86689451Y-44300691D01*
X86696810Y-44286923D01*
X86706187Y-44264284D01*
X86710967Y-44240251D01*
X86710967Y-44215747D01*
X86706186Y-44191714D01*
X86696810Y-44169077D01*
X86689451Y-44155309D01*
X86687323Y-44148295D01*
X86686000Y-44134860D01*
X86686000Y-43821140D01*
X86687323Y-43807705D01*
X86689451Y-43800691D01*
X86696810Y-43786923D01*
X86706187Y-43764284D01*
X86710967Y-43740251D01*
X86710967Y-43715747D01*
X86706186Y-43691714D01*
X86696810Y-43669077D01*
X86689451Y-43655309D01*
X86687323Y-43648295D01*
X86686000Y-43634860D01*
X86686000Y-43321140D01*
X86687323Y-43307705D01*
X86689451Y-43300690D01*
X86692908Y-43294224D01*
X86697558Y-43288558D01*
X86703224Y-43283908D01*
X86709690Y-43280451D01*
X86716705Y-43278323D01*
X86730140Y-43277000D01*
X88218860Y-43277000D01*
X88232295Y-43278323D01*
X88232295Y-43278323D01*
G37*
G36*
X66481000Y-48539000D02*
G01*
X64379000Y-48539000D01*
X64379000Y-46937000D01*
X66481000Y-46937000D01*
X66481000Y-48539000D01*
X66481000Y-48539000D01*
G37*
G36*
X60741000Y-47406000D02*
G01*
X58639000Y-47406000D01*
X58639000Y-45304000D01*
X60741000Y-45304000D01*
X60741000Y-47406000D01*
X60741000Y-47406000D01*
G37*
G36*
X54996564Y-45344389D02*
G01*
X55187833Y-45423615D01*
X55187835Y-45423616D01*
X55359973Y-45538635D01*
X55506365Y-45685027D01*
X55597664Y-45821665D01*
X55621385Y-45857167D01*
X55700611Y-46048436D01*
X55741000Y-46251484D01*
X55741000Y-46458516D01*
X55700611Y-46661564D01*
X55634295Y-46821665D01*
X55621384Y-46852835D01*
X55506365Y-47024973D01*
X55359973Y-47171365D01*
X55187835Y-47286384D01*
X55187834Y-47286385D01*
X55187833Y-47286385D01*
X54996564Y-47365611D01*
X54793516Y-47406000D01*
X54586484Y-47406000D01*
X54383436Y-47365611D01*
X54192167Y-47286385D01*
X54192166Y-47286385D01*
X54192165Y-47286384D01*
X54020027Y-47171365D01*
X53873635Y-47024973D01*
X53758616Y-46852835D01*
X53745705Y-46821665D01*
X53679389Y-46661564D01*
X53639000Y-46458516D01*
X53639000Y-46251484D01*
X53679389Y-46048436D01*
X53758615Y-45857167D01*
X53782337Y-45821665D01*
X53873635Y-45685027D01*
X54020027Y-45538635D01*
X54192165Y-45423616D01*
X54192167Y-45423615D01*
X54383436Y-45344389D01*
X54586484Y-45304000D01*
X54793516Y-45304000D01*
X54996564Y-45344389D01*
X54996564Y-45344389D01*
G37*
G36*
X91012674Y-46105465D02*
G01*
X91050367Y-46116899D01*
X91085103Y-46135466D01*
X91115548Y-46160452D01*
X91140534Y-46190897D01*
X91159101Y-46225633D01*
X91170535Y-46263326D01*
X91175000Y-46308661D01*
X91175000Y-47145339D01*
X91170535Y-47190674D01*
X91159101Y-47228367D01*
X91140534Y-47263103D01*
X91115548Y-47293548D01*
X91085103Y-47318534D01*
X91050367Y-47337101D01*
X91012674Y-47348535D01*
X90967339Y-47353000D01*
X89880661Y-47353000D01*
X89835326Y-47348535D01*
X89797633Y-47337101D01*
X89762897Y-47318534D01*
X89732452Y-47293548D01*
X89707466Y-47263103D01*
X89688899Y-47228367D01*
X89677465Y-47190674D01*
X89673000Y-47145339D01*
X89673000Y-46308661D01*
X89677465Y-46263326D01*
X89688899Y-46225633D01*
X89707466Y-46190897D01*
X89732452Y-46160452D01*
X89762897Y-46135466D01*
X89797633Y-46116899D01*
X89835326Y-46105465D01*
X89880661Y-46101000D01*
X90967339Y-46101000D01*
X91012674Y-46105465D01*
X91012674Y-46105465D01*
G37*
G36*
X91012674Y-44091465D02*
G01*
X91050367Y-44102899D01*
X91085103Y-44121466D01*
X91115548Y-44146452D01*
X91140534Y-44176897D01*
X91159101Y-44211633D01*
X91170535Y-44249326D01*
X91175000Y-44294661D01*
X91175000Y-45131339D01*
X91170535Y-45176674D01*
X91159101Y-45214367D01*
X91140534Y-45249103D01*
X91115548Y-45279548D01*
X91085103Y-45304534D01*
X91050367Y-45323101D01*
X91012674Y-45334535D01*
X90967339Y-45339000D01*
X89880661Y-45339000D01*
X89835326Y-45334535D01*
X89797633Y-45323101D01*
X89762897Y-45304534D01*
X89732452Y-45279548D01*
X89707466Y-45249103D01*
X89688899Y-45214367D01*
X89677465Y-45176674D01*
X89673000Y-45131339D01*
X89673000Y-44294661D01*
X89677465Y-44249326D01*
X89688899Y-44211633D01*
X89707466Y-44176897D01*
X89732452Y-44146452D01*
X89762897Y-44121466D01*
X89797633Y-44102899D01*
X89835326Y-44091465D01*
X89880661Y-44087000D01*
X90967339Y-44087000D01*
X91012674Y-44091465D01*
X91012674Y-44091465D01*
G37*
G36*
X69052674Y-43195465D02*
G01*
X69090367Y-43206899D01*
X69125103Y-43225466D01*
X69155548Y-43250452D01*
X69180534Y-43280897D01*
X69199101Y-43315633D01*
X69210535Y-43353326D01*
X69215000Y-43398661D01*
X69215000Y-44485339D01*
X69210535Y-44530674D01*
X69199101Y-44568367D01*
X69180534Y-44603103D01*
X69155548Y-44633548D01*
X69125103Y-44658534D01*
X69090367Y-44677101D01*
X69052674Y-44688535D01*
X69007339Y-44693000D01*
X68170661Y-44693000D01*
X68125326Y-44688535D01*
X68087633Y-44677101D01*
X68052897Y-44658534D01*
X68022452Y-44633548D01*
X67997466Y-44603103D01*
X67978899Y-44568367D01*
X67967465Y-44530674D01*
X67963000Y-44485339D01*
X67963000Y-43398661D01*
X67967465Y-43353326D01*
X67978899Y-43315633D01*
X67997466Y-43280897D01*
X68022452Y-43250452D01*
X68052897Y-43225466D01*
X68087633Y-43206899D01*
X68125326Y-43195465D01*
X68170661Y-43191000D01*
X69007339Y-43191000D01*
X69052674Y-43195465D01*
X69052674Y-43195465D01*
G37*
G36*
X67002674Y-43195465D02*
G01*
X67040367Y-43206899D01*
X67075103Y-43225466D01*
X67105548Y-43250452D01*
X67130534Y-43280897D01*
X67149101Y-43315633D01*
X67160535Y-43353326D01*
X67165000Y-43398661D01*
X67165000Y-44485339D01*
X67160535Y-44530674D01*
X67149101Y-44568367D01*
X67130534Y-44603103D01*
X67105548Y-44633548D01*
X67075103Y-44658534D01*
X67040367Y-44677101D01*
X67002674Y-44688535D01*
X66957339Y-44693000D01*
X66120661Y-44693000D01*
X66075326Y-44688535D01*
X66037633Y-44677101D01*
X66002897Y-44658534D01*
X65972452Y-44633548D01*
X65947466Y-44603103D01*
X65928899Y-44568367D01*
X65917465Y-44530674D01*
X65913000Y-44485339D01*
X65913000Y-43398661D01*
X65917465Y-43353326D01*
X65928899Y-43315633D01*
X65947466Y-43280897D01*
X65972452Y-43250452D01*
X66002897Y-43225466D01*
X66037633Y-43206899D01*
X66075326Y-43195465D01*
X66120661Y-43191000D01*
X66957339Y-43191000D01*
X67002674Y-43195465D01*
X67002674Y-43195465D01*
G37*
G36*
X91012674Y-42041465D02*
G01*
X91050367Y-42052899D01*
X91085103Y-42071466D01*
X91115548Y-42096452D01*
X91140534Y-42126897D01*
X91159101Y-42161633D01*
X91170535Y-42199326D01*
X91175000Y-42244661D01*
X91175000Y-43081339D01*
X91170535Y-43126674D01*
X91159101Y-43164367D01*
X91140534Y-43199103D01*
X91115548Y-43229548D01*
X91085103Y-43254534D01*
X91050367Y-43273101D01*
X91012674Y-43284535D01*
X90967339Y-43289000D01*
X89880661Y-43289000D01*
X89835326Y-43284535D01*
X89797633Y-43273101D01*
X89762897Y-43254534D01*
X89732452Y-43229548D01*
X89707466Y-43199103D01*
X89688899Y-43164367D01*
X89677465Y-43126674D01*
X89673000Y-43081339D01*
X89673000Y-42244661D01*
X89677465Y-42199326D01*
X89688899Y-42161633D01*
X89707466Y-42126897D01*
X89732452Y-42096452D01*
X89762897Y-42071466D01*
X89797633Y-42052899D01*
X89835326Y-42041465D01*
X89880661Y-42037000D01*
X90967339Y-42037000D01*
X91012674Y-42041465D01*
X91012674Y-42041465D01*
G37*
G36*
X80732295Y-41278323D02*
G01*
X80739309Y-41280451D01*
X80753077Y-41287810D01*
X80775716Y-41297187D01*
X80799749Y-41301967D01*
X80824253Y-41301967D01*
X80848286Y-41297186D01*
X80870923Y-41287810D01*
X80884691Y-41280451D01*
X80891705Y-41278323D01*
X80905140Y-41277000D01*
X81218860Y-41277000D01*
X81232295Y-41278323D01*
X81239309Y-41280451D01*
X81253077Y-41287810D01*
X81275716Y-41297187D01*
X81299749Y-41301967D01*
X81324253Y-41301967D01*
X81348286Y-41297186D01*
X81370923Y-41287810D01*
X81384691Y-41280451D01*
X81391705Y-41278323D01*
X81405140Y-41277000D01*
X81718860Y-41277000D01*
X81732295Y-41278323D01*
X81739309Y-41280451D01*
X81753077Y-41287810D01*
X81775716Y-41297187D01*
X81799749Y-41301967D01*
X81824253Y-41301967D01*
X81848286Y-41297186D01*
X81870923Y-41287810D01*
X81884691Y-41280451D01*
X81891705Y-41278323D01*
X81905140Y-41277000D01*
X82218860Y-41277000D01*
X82232295Y-41278323D01*
X82239309Y-41280451D01*
X82253077Y-41287810D01*
X82275716Y-41297187D01*
X82299749Y-41301967D01*
X82324253Y-41301967D01*
X82348286Y-41297186D01*
X82370923Y-41287810D01*
X82384691Y-41280451D01*
X82391705Y-41278323D01*
X82405140Y-41277000D01*
X82718860Y-41277000D01*
X82732295Y-41278323D01*
X82739309Y-41280451D01*
X82753077Y-41287810D01*
X82775716Y-41297187D01*
X82799749Y-41301967D01*
X82824253Y-41301967D01*
X82848286Y-41297186D01*
X82870923Y-41287810D01*
X82884691Y-41280451D01*
X82891705Y-41278323D01*
X82905140Y-41277000D01*
X83218860Y-41277000D01*
X83232295Y-41278323D01*
X83239309Y-41280451D01*
X83253077Y-41287810D01*
X83275716Y-41297187D01*
X83299749Y-41301967D01*
X83324253Y-41301967D01*
X83348286Y-41297186D01*
X83370923Y-41287810D01*
X83384691Y-41280451D01*
X83391705Y-41278323D01*
X83405140Y-41277000D01*
X83718860Y-41277000D01*
X83732295Y-41278323D01*
X83739309Y-41280451D01*
X83753077Y-41287810D01*
X83775716Y-41297187D01*
X83799749Y-41301967D01*
X83824253Y-41301967D01*
X83848286Y-41297186D01*
X83870923Y-41287810D01*
X83884691Y-41280451D01*
X83891705Y-41278323D01*
X83905140Y-41277000D01*
X84218860Y-41277000D01*
X84232295Y-41278323D01*
X84239309Y-41280451D01*
X84253077Y-41287810D01*
X84275716Y-41297187D01*
X84299749Y-41301967D01*
X84324253Y-41301967D01*
X84348286Y-41297186D01*
X84370923Y-41287810D01*
X84384691Y-41280451D01*
X84391705Y-41278323D01*
X84405140Y-41277000D01*
X84718860Y-41277000D01*
X84732295Y-41278323D01*
X84739309Y-41280451D01*
X84753077Y-41287810D01*
X84775716Y-41297187D01*
X84799749Y-41301967D01*
X84824253Y-41301967D01*
X84848286Y-41297186D01*
X84870923Y-41287810D01*
X84884691Y-41280451D01*
X84891705Y-41278323D01*
X84905140Y-41277000D01*
X85218860Y-41277000D01*
X85232295Y-41278323D01*
X85239309Y-41280451D01*
X85253077Y-41287810D01*
X85275716Y-41297187D01*
X85299749Y-41301967D01*
X85324253Y-41301967D01*
X85348286Y-41297186D01*
X85370923Y-41287810D01*
X85384691Y-41280451D01*
X85391705Y-41278323D01*
X85405140Y-41277000D01*
X85718860Y-41277000D01*
X85732295Y-41278323D01*
X85739309Y-41280451D01*
X85753077Y-41287810D01*
X85775716Y-41297187D01*
X85799749Y-41301967D01*
X85824253Y-41301967D01*
X85848286Y-41297186D01*
X85870923Y-41287810D01*
X85884691Y-41280451D01*
X85891705Y-41278323D01*
X85905140Y-41277000D01*
X86218860Y-41277000D01*
X86232295Y-41278323D01*
X86239310Y-41280451D01*
X86245776Y-41283908D01*
X86251442Y-41288558D01*
X86256092Y-41294224D01*
X86259549Y-41300690D01*
X86261677Y-41307705D01*
X86263000Y-41321140D01*
X86263000Y-42809860D01*
X86261677Y-42823295D01*
X86259549Y-42830310D01*
X86256092Y-42836776D01*
X86251442Y-42842442D01*
X86245776Y-42847092D01*
X86239310Y-42850549D01*
X86232295Y-42852677D01*
X86218860Y-42854000D01*
X85905140Y-42854000D01*
X85891705Y-42852677D01*
X85884691Y-42850549D01*
X85870923Y-42843190D01*
X85848284Y-42833813D01*
X85824251Y-42829033D01*
X85799747Y-42829033D01*
X85775714Y-42833814D01*
X85753077Y-42843190D01*
X85739309Y-42850549D01*
X85732295Y-42852677D01*
X85718860Y-42854000D01*
X85405140Y-42854000D01*
X85391705Y-42852677D01*
X85384691Y-42850549D01*
X85370923Y-42843190D01*
X85348284Y-42833813D01*
X85324251Y-42829033D01*
X85299747Y-42829033D01*
X85275714Y-42833814D01*
X85253077Y-42843190D01*
X85239309Y-42850549D01*
X85232295Y-42852677D01*
X85218860Y-42854000D01*
X84905140Y-42854000D01*
X84891705Y-42852677D01*
X84884691Y-42850549D01*
X84870923Y-42843190D01*
X84848284Y-42833813D01*
X84824251Y-42829033D01*
X84799747Y-42829033D01*
X84775714Y-42833814D01*
X84753077Y-42843190D01*
X84739309Y-42850549D01*
X84732295Y-42852677D01*
X84718860Y-42854000D01*
X84405140Y-42854000D01*
X84391705Y-42852677D01*
X84384691Y-42850549D01*
X84370923Y-42843190D01*
X84348284Y-42833813D01*
X84324251Y-42829033D01*
X84299747Y-42829033D01*
X84275714Y-42833814D01*
X84253077Y-42843190D01*
X84239309Y-42850549D01*
X84232295Y-42852677D01*
X84218860Y-42854000D01*
X83905140Y-42854000D01*
X83891705Y-42852677D01*
X83884691Y-42850549D01*
X83870923Y-42843190D01*
X83848284Y-42833813D01*
X83824251Y-42829033D01*
X83799747Y-42829033D01*
X83775714Y-42833814D01*
X83753077Y-42843190D01*
X83739309Y-42850549D01*
X83732295Y-42852677D01*
X83718860Y-42854000D01*
X83405140Y-42854000D01*
X83391705Y-42852677D01*
X83384691Y-42850549D01*
X83370923Y-42843190D01*
X83348284Y-42833813D01*
X83324251Y-42829033D01*
X83299747Y-42829033D01*
X83275714Y-42833814D01*
X83253077Y-42843190D01*
X83239309Y-42850549D01*
X83232295Y-42852677D01*
X83218860Y-42854000D01*
X82905140Y-42854000D01*
X82891705Y-42852677D01*
X82884691Y-42850549D01*
X82870923Y-42843190D01*
X82848284Y-42833813D01*
X82824251Y-42829033D01*
X82799747Y-42829033D01*
X82775714Y-42833814D01*
X82753077Y-42843190D01*
X82739309Y-42850549D01*
X82732295Y-42852677D01*
X82718860Y-42854000D01*
X82405140Y-42854000D01*
X82391705Y-42852677D01*
X82384691Y-42850549D01*
X82370923Y-42843190D01*
X82348284Y-42833813D01*
X82324251Y-42829033D01*
X82299747Y-42829033D01*
X82275714Y-42833814D01*
X82253077Y-42843190D01*
X82239309Y-42850549D01*
X82232295Y-42852677D01*
X82218860Y-42854000D01*
X81905140Y-42854000D01*
X81891705Y-42852677D01*
X81884691Y-42850549D01*
X81870923Y-42843190D01*
X81848284Y-42833813D01*
X81824251Y-42829033D01*
X81799747Y-42829033D01*
X81775714Y-42833814D01*
X81753077Y-42843190D01*
X81739309Y-42850549D01*
X81732295Y-42852677D01*
X81718860Y-42854000D01*
X81405140Y-42854000D01*
X81391705Y-42852677D01*
X81384691Y-42850549D01*
X81370923Y-42843190D01*
X81348284Y-42833813D01*
X81324251Y-42829033D01*
X81299747Y-42829033D01*
X81275714Y-42833814D01*
X81253077Y-42843190D01*
X81239309Y-42850549D01*
X81232295Y-42852677D01*
X81218860Y-42854000D01*
X80905140Y-42854000D01*
X80891705Y-42852677D01*
X80884691Y-42850549D01*
X80870923Y-42843190D01*
X80848284Y-42833813D01*
X80824251Y-42829033D01*
X80799747Y-42829033D01*
X80775714Y-42833814D01*
X80753077Y-42843190D01*
X80739309Y-42850549D01*
X80732295Y-42852677D01*
X80718860Y-42854000D01*
X80405140Y-42854000D01*
X80391705Y-42852677D01*
X80384690Y-42850549D01*
X80378224Y-42847092D01*
X80372558Y-42842442D01*
X80367908Y-42836776D01*
X80364451Y-42830310D01*
X80362323Y-42823295D01*
X80361000Y-42809860D01*
X80361000Y-41321140D01*
X80362323Y-41307705D01*
X80364451Y-41300690D01*
X80367908Y-41294224D01*
X80372558Y-41288558D01*
X80378224Y-41283908D01*
X80384690Y-41280451D01*
X80391705Y-41278323D01*
X80405140Y-41277000D01*
X80718860Y-41277000D01*
X80732295Y-41278323D01*
X80732295Y-41278323D01*
G37*
G36*
X69052674Y-40655465D02*
G01*
X69090367Y-40666899D01*
X69125103Y-40685466D01*
X69155548Y-40710452D01*
X69180534Y-40740897D01*
X69199101Y-40775633D01*
X69210535Y-40813326D01*
X69215000Y-40858661D01*
X69215000Y-41945339D01*
X69210535Y-41990674D01*
X69199101Y-42028367D01*
X69180534Y-42063103D01*
X69155548Y-42093548D01*
X69125103Y-42118534D01*
X69090367Y-42137101D01*
X69052674Y-42148535D01*
X69007339Y-42153000D01*
X68170661Y-42153000D01*
X68125326Y-42148535D01*
X68087633Y-42137101D01*
X68052897Y-42118534D01*
X68022452Y-42093548D01*
X67997466Y-42063103D01*
X67978899Y-42028367D01*
X67967465Y-41990674D01*
X67963000Y-41945339D01*
X67963000Y-40858661D01*
X67967465Y-40813326D01*
X67978899Y-40775633D01*
X67997466Y-40740897D01*
X68022452Y-40710452D01*
X68052897Y-40685466D01*
X68087633Y-40666899D01*
X68125326Y-40655465D01*
X68170661Y-40651000D01*
X69007339Y-40651000D01*
X69052674Y-40655465D01*
X69052674Y-40655465D01*
G37*
G36*
X67002674Y-40655465D02*
G01*
X67040367Y-40666899D01*
X67075103Y-40685466D01*
X67105548Y-40710452D01*
X67130534Y-40740897D01*
X67149101Y-40775633D01*
X67160535Y-40813326D01*
X67165000Y-40858661D01*
X67165000Y-41945339D01*
X67160535Y-41990674D01*
X67149101Y-42028367D01*
X67130534Y-42063103D01*
X67105548Y-42093548D01*
X67075103Y-42118534D01*
X67040367Y-42137101D01*
X67002674Y-42148535D01*
X66957339Y-42153000D01*
X66120661Y-42153000D01*
X66075326Y-42148535D01*
X66037633Y-42137101D01*
X66002897Y-42118534D01*
X65972452Y-42093548D01*
X65947466Y-42063103D01*
X65928899Y-42028367D01*
X65917465Y-41990674D01*
X65913000Y-41945339D01*
X65913000Y-40858661D01*
X65917465Y-40813326D01*
X65928899Y-40775633D01*
X65947466Y-40740897D01*
X65972452Y-40710452D01*
X66002897Y-40685466D01*
X66037633Y-40666899D01*
X66075326Y-40655465D01*
X66120661Y-40651000D01*
X66957339Y-40651000D01*
X67002674Y-40655465D01*
X67002674Y-40655465D01*
G37*
G36*
X93552674Y-40027465D02*
G01*
X93590367Y-40038899D01*
X93625103Y-40057466D01*
X93655548Y-40082452D01*
X93680534Y-40112897D01*
X93699101Y-40147633D01*
X93710535Y-40185326D01*
X93715000Y-40230661D01*
X93715000Y-41067339D01*
X93710535Y-41112674D01*
X93699101Y-41150367D01*
X93680534Y-41185103D01*
X93655548Y-41215548D01*
X93625103Y-41240534D01*
X93590367Y-41259101D01*
X93552674Y-41270535D01*
X93507339Y-41275000D01*
X92420661Y-41275000D01*
X92375326Y-41270535D01*
X92337633Y-41259101D01*
X92302897Y-41240534D01*
X92272452Y-41215548D01*
X92247466Y-41185103D01*
X92228899Y-41150367D01*
X92217465Y-41112674D01*
X92213000Y-41067339D01*
X92213000Y-40230661D01*
X92217465Y-40185326D01*
X92228899Y-40147633D01*
X92247466Y-40112897D01*
X92272452Y-40082452D01*
X92302897Y-40057466D01*
X92337633Y-40038899D01*
X92375326Y-40027465D01*
X92420661Y-40023000D01*
X93507339Y-40023000D01*
X93552674Y-40027465D01*
X93552674Y-40027465D01*
G37*
G36*
X91012674Y-40027465D02*
G01*
X91050367Y-40038899D01*
X91085103Y-40057466D01*
X91115548Y-40082452D01*
X91140534Y-40112897D01*
X91159101Y-40147633D01*
X91170535Y-40185326D01*
X91175000Y-40230661D01*
X91175000Y-41067339D01*
X91170535Y-41112674D01*
X91159101Y-41150367D01*
X91140534Y-41185103D01*
X91115548Y-41215548D01*
X91085103Y-41240534D01*
X91050367Y-41259101D01*
X91012674Y-41270535D01*
X90967339Y-41275000D01*
X89880661Y-41275000D01*
X89835326Y-41270535D01*
X89797633Y-41259101D01*
X89762897Y-41240534D01*
X89732452Y-41215548D01*
X89707466Y-41185103D01*
X89688899Y-41150367D01*
X89677465Y-41112674D01*
X89673000Y-41067339D01*
X89673000Y-40230661D01*
X89677465Y-40185326D01*
X89688899Y-40147633D01*
X89707466Y-40112897D01*
X89732452Y-40082452D01*
X89762897Y-40057466D01*
X89797633Y-40038899D01*
X89835326Y-40027465D01*
X89880661Y-40023000D01*
X90967339Y-40023000D01*
X91012674Y-40027465D01*
X91012674Y-40027465D01*
G37*
G36*
X84274674Y-37861465D02*
G01*
X84312367Y-37872899D01*
X84347103Y-37891466D01*
X84377548Y-37916452D01*
X84402534Y-37946897D01*
X84421101Y-37981633D01*
X84432535Y-38019326D01*
X84437000Y-38064661D01*
X84437000Y-39151339D01*
X84432535Y-39196674D01*
X84421101Y-39234367D01*
X84402534Y-39269103D01*
X84377548Y-39299548D01*
X84347103Y-39324534D01*
X84312367Y-39343101D01*
X84274674Y-39354535D01*
X84229339Y-39359000D01*
X83392661Y-39359000D01*
X83347326Y-39354535D01*
X83309633Y-39343101D01*
X83274897Y-39324534D01*
X83244452Y-39299548D01*
X83219466Y-39269103D01*
X83200899Y-39234367D01*
X83189465Y-39196674D01*
X83185000Y-39151339D01*
X83185000Y-38064661D01*
X83189465Y-38019326D01*
X83200899Y-37981633D01*
X83219466Y-37946897D01*
X83244452Y-37916452D01*
X83274897Y-37891466D01*
X83309633Y-37872899D01*
X83347326Y-37861465D01*
X83392661Y-37857000D01*
X84229339Y-37857000D01*
X84274674Y-37861465D01*
X84274674Y-37861465D01*
G37*
G36*
X86324674Y-37861465D02*
G01*
X86362367Y-37872899D01*
X86397103Y-37891466D01*
X86427548Y-37916452D01*
X86452534Y-37946897D01*
X86471101Y-37981633D01*
X86482535Y-38019326D01*
X86487000Y-38064661D01*
X86487000Y-39151339D01*
X86482535Y-39196674D01*
X86471101Y-39234367D01*
X86452534Y-39269103D01*
X86427548Y-39299548D01*
X86397103Y-39324534D01*
X86362367Y-39343101D01*
X86324674Y-39354535D01*
X86279339Y-39359000D01*
X85442661Y-39359000D01*
X85397326Y-39354535D01*
X85359633Y-39343101D01*
X85324897Y-39324534D01*
X85294452Y-39299548D01*
X85269466Y-39269103D01*
X85250899Y-39234367D01*
X85239465Y-39196674D01*
X85235000Y-39151339D01*
X85235000Y-38064661D01*
X85239465Y-38019326D01*
X85250899Y-37981633D01*
X85269466Y-37946897D01*
X85294452Y-37916452D01*
X85324897Y-37891466D01*
X85359633Y-37872899D01*
X85397326Y-37861465D01*
X85442661Y-37857000D01*
X86279339Y-37857000D01*
X86324674Y-37861465D01*
X86324674Y-37861465D01*
G37*
G36*
X67002674Y-37861465D02*
G01*
X67040367Y-37872899D01*
X67075103Y-37891466D01*
X67105548Y-37916452D01*
X67130534Y-37946897D01*
X67149101Y-37981633D01*
X67160535Y-38019326D01*
X67165000Y-38064661D01*
X67165000Y-39151339D01*
X67160535Y-39196674D01*
X67149101Y-39234367D01*
X67130534Y-39269103D01*
X67105548Y-39299548D01*
X67075103Y-39324534D01*
X67040367Y-39343101D01*
X67002674Y-39354535D01*
X66957339Y-39359000D01*
X66120661Y-39359000D01*
X66075326Y-39354535D01*
X66037633Y-39343101D01*
X66002897Y-39324534D01*
X65972452Y-39299548D01*
X65947466Y-39269103D01*
X65928899Y-39234367D01*
X65917465Y-39196674D01*
X65913000Y-39151339D01*
X65913000Y-38064661D01*
X65917465Y-38019326D01*
X65928899Y-37981633D01*
X65947466Y-37946897D01*
X65972452Y-37916452D01*
X66002897Y-37891466D01*
X66037633Y-37872899D01*
X66075326Y-37861465D01*
X66120661Y-37857000D01*
X66957339Y-37857000D01*
X67002674Y-37861465D01*
X67002674Y-37861465D01*
G37*
G36*
X69052674Y-37861465D02*
G01*
X69090367Y-37872899D01*
X69125103Y-37891466D01*
X69155548Y-37916452D01*
X69180534Y-37946897D01*
X69199101Y-37981633D01*
X69210535Y-38019326D01*
X69215000Y-38064661D01*
X69215000Y-39151339D01*
X69210535Y-39196674D01*
X69199101Y-39234367D01*
X69180534Y-39269103D01*
X69155548Y-39299548D01*
X69125103Y-39324534D01*
X69090367Y-39343101D01*
X69052674Y-39354535D01*
X69007339Y-39359000D01*
X68170661Y-39359000D01*
X68125326Y-39354535D01*
X68087633Y-39343101D01*
X68052897Y-39324534D01*
X68022452Y-39299548D01*
X67997466Y-39269103D01*
X67978899Y-39234367D01*
X67967465Y-39196674D01*
X67963000Y-39151339D01*
X67963000Y-38064661D01*
X67967465Y-38019326D01*
X67978899Y-37981633D01*
X67997466Y-37946897D01*
X68022452Y-37916452D01*
X68052897Y-37891466D01*
X68087633Y-37872899D01*
X68125326Y-37861465D01*
X68170661Y-37857000D01*
X69007339Y-37857000D01*
X69052674Y-37861465D01*
X69052674Y-37861465D01*
G37*
G36*
X91012674Y-37977465D02*
G01*
X91050367Y-37988899D01*
X91085103Y-38007466D01*
X91115548Y-38032452D01*
X91140534Y-38062897D01*
X91159101Y-38097633D01*
X91170535Y-38135326D01*
X91175000Y-38180661D01*
X91175000Y-39017339D01*
X91170535Y-39062674D01*
X91159101Y-39100367D01*
X91140534Y-39135103D01*
X91115548Y-39165548D01*
X91085103Y-39190534D01*
X91050367Y-39209101D01*
X91012674Y-39220535D01*
X90967339Y-39225000D01*
X89880661Y-39225000D01*
X89835326Y-39220535D01*
X89797633Y-39209101D01*
X89762897Y-39190534D01*
X89732452Y-39165548D01*
X89707466Y-39135103D01*
X89688899Y-39100367D01*
X89677465Y-39062674D01*
X89673000Y-39017339D01*
X89673000Y-38180661D01*
X89677465Y-38135326D01*
X89688899Y-38097633D01*
X89707466Y-38062897D01*
X89732452Y-38032452D01*
X89762897Y-38007466D01*
X89797633Y-37988899D01*
X89835326Y-37977465D01*
X89880661Y-37973000D01*
X90967339Y-37973000D01*
X91012674Y-37977465D01*
X91012674Y-37977465D01*
G37*
G36*
X93552674Y-37977465D02*
G01*
X93590367Y-37988899D01*
X93625103Y-38007466D01*
X93655548Y-38032452D01*
X93680534Y-38062897D01*
X93699101Y-38097633D01*
X93710535Y-38135326D01*
X93715000Y-38180661D01*
X93715000Y-39017339D01*
X93710535Y-39062674D01*
X93699101Y-39100367D01*
X93680534Y-39135103D01*
X93655548Y-39165548D01*
X93625103Y-39190534D01*
X93590367Y-39209101D01*
X93552674Y-39220535D01*
X93507339Y-39225000D01*
X92420661Y-39225000D01*
X92375326Y-39220535D01*
X92337633Y-39209101D01*
X92302897Y-39190534D01*
X92272452Y-39165548D01*
X92247466Y-39135103D01*
X92228899Y-39100367D01*
X92217465Y-39062674D01*
X92213000Y-39017339D01*
X92213000Y-38180661D01*
X92217465Y-38135326D01*
X92228899Y-38097633D01*
X92247466Y-38062897D01*
X92272452Y-38032452D01*
X92302897Y-38007466D01*
X92337633Y-37988899D01*
X92375326Y-37977465D01*
X92420661Y-37973000D01*
X93507339Y-37973000D01*
X93552674Y-37977465D01*
X93552674Y-37977465D01*
G37*
G36*
X59086366Y-35300695D02*
G01*
X59243460Y-35348349D01*
X59388231Y-35425731D01*
X59515128Y-35529872D01*
X59619269Y-35656769D01*
X59696651Y-35801540D01*
X59744305Y-35958634D01*
X59761000Y-36128140D01*
X59761000Y-38041860D01*
X59744305Y-38211366D01*
X59696651Y-38368460D01*
X59619269Y-38513231D01*
X59515128Y-38640128D01*
X59388231Y-38744269D01*
X59243460Y-38821651D01*
X59086366Y-38869305D01*
X58916860Y-38886000D01*
X57003140Y-38886000D01*
X56833634Y-38869305D01*
X56676540Y-38821651D01*
X56531769Y-38744269D01*
X56404872Y-38640128D01*
X56300731Y-38513231D01*
X56223349Y-38368460D01*
X56175695Y-38211366D01*
X56159000Y-38041860D01*
X56159000Y-36128140D01*
X56175695Y-35958634D01*
X56223349Y-35801540D01*
X56300731Y-35656769D01*
X56404872Y-35529872D01*
X56531769Y-35425731D01*
X56676540Y-35348349D01*
X56833634Y-35300695D01*
X57003140Y-35284000D01*
X58916860Y-35284000D01*
X59086366Y-35300695D01*
X59086366Y-35300695D01*
G37*
G36*
X67136674Y-35963465D02*
G01*
X67174367Y-35974899D01*
X67209103Y-35993466D01*
X67239548Y-36018452D01*
X67264534Y-36048897D01*
X67283101Y-36083633D01*
X67294535Y-36121326D01*
X67299000Y-36166661D01*
X67299000Y-37003339D01*
X67294535Y-37048674D01*
X67283101Y-37086367D01*
X67264534Y-37121103D01*
X67239548Y-37151548D01*
X67209103Y-37176534D01*
X67174367Y-37195101D01*
X67136674Y-37206535D01*
X67091339Y-37211000D01*
X66004661Y-37211000D01*
X65959326Y-37206535D01*
X65921633Y-37195101D01*
X65886897Y-37176534D01*
X65856452Y-37151548D01*
X65831466Y-37121103D01*
X65812899Y-37086367D01*
X65801465Y-37048674D01*
X65797000Y-37003339D01*
X65797000Y-36166661D01*
X65801465Y-36121326D01*
X65812899Y-36083633D01*
X65831466Y-36048897D01*
X65856452Y-36018452D01*
X65886897Y-35993466D01*
X65921633Y-35974899D01*
X65959326Y-35963465D01*
X66004661Y-35959000D01*
X67091339Y-35959000D01*
X67136674Y-35963465D01*
X67136674Y-35963465D01*
G37*
G36*
X95106442Y-34919518D02*
G01*
X95172627Y-34926037D01*
X95342466Y-34977557D01*
X95498991Y-35061222D01*
X95523434Y-35081282D01*
X95636186Y-35173814D01*
X95719448Y-35275271D01*
X95748778Y-35311009D01*
X95832443Y-35467534D01*
X95883963Y-35637373D01*
X95901359Y-35814000D01*
X95883963Y-35990627D01*
X95842249Y-36128140D01*
X95832442Y-36160468D01*
X95794649Y-36231173D01*
X95748778Y-36316991D01*
X95719448Y-36352729D01*
X95636186Y-36454186D01*
X95534729Y-36537448D01*
X95498991Y-36566778D01*
X95342466Y-36650443D01*
X95172627Y-36701963D01*
X95106443Y-36708481D01*
X95040260Y-36715000D01*
X94951740Y-36715000D01*
X94885557Y-36708481D01*
X94819373Y-36701963D01*
X94649534Y-36650443D01*
X94493009Y-36566778D01*
X94457271Y-36537448D01*
X94355814Y-36454186D01*
X94272552Y-36352729D01*
X94243222Y-36316991D01*
X94197351Y-36231173D01*
X94159558Y-36160468D01*
X94149751Y-36128140D01*
X94108037Y-35990627D01*
X94090641Y-35814000D01*
X94108037Y-35637373D01*
X94159557Y-35467534D01*
X94243222Y-35311009D01*
X94272552Y-35275271D01*
X94355814Y-35173814D01*
X94468566Y-35081282D01*
X94493009Y-35061222D01*
X94649534Y-34977557D01*
X94819373Y-34926037D01*
X94885558Y-34919518D01*
X94951740Y-34913000D01*
X95040260Y-34913000D01*
X95106442Y-34919518D01*
X95106442Y-34919518D01*
G37*
G36*
X67136674Y-33913465D02*
G01*
X67174367Y-33924899D01*
X67209103Y-33943466D01*
X67239548Y-33968452D01*
X67264534Y-33998897D01*
X67283101Y-34033633D01*
X67294535Y-34071326D01*
X67299000Y-34116661D01*
X67299000Y-34953339D01*
X67294535Y-34998674D01*
X67283101Y-35036367D01*
X67264534Y-35071103D01*
X67239548Y-35101548D01*
X67209103Y-35126534D01*
X67174367Y-35145101D01*
X67136674Y-35156535D01*
X67091339Y-35161000D01*
X66004661Y-35161000D01*
X65959326Y-35156535D01*
X65921633Y-35145101D01*
X65886897Y-35126534D01*
X65856452Y-35101548D01*
X65831466Y-35071103D01*
X65812899Y-35036367D01*
X65801465Y-34998674D01*
X65797000Y-34953339D01*
X65797000Y-34116661D01*
X65801465Y-34071326D01*
X65812899Y-34033633D01*
X65831466Y-33998897D01*
X65856452Y-33968452D01*
X65886897Y-33943466D01*
X65921633Y-33924899D01*
X65959326Y-33913465D01*
X66004661Y-33909000D01*
X67091339Y-33909000D01*
X67136674Y-33913465D01*
X67136674Y-33913465D01*
G37*
G36*
X55936979Y-30598293D02*
G01*
X56070625Y-30638834D01*
X56193784Y-30704664D01*
X56301740Y-30793260D01*
X56390336Y-30901216D01*
X56456166Y-31024375D01*
X56496707Y-31158021D01*
X56511000Y-31303140D01*
X56511000Y-33466860D01*
X56496707Y-33611979D01*
X56456166Y-33745625D01*
X56390336Y-33868784D01*
X56301740Y-33976740D01*
X56193784Y-34065336D01*
X56070625Y-34131166D01*
X55936979Y-34171707D01*
X55791860Y-34186000D01*
X54128140Y-34186000D01*
X53983021Y-34171707D01*
X53849375Y-34131166D01*
X53726216Y-34065336D01*
X53618260Y-33976740D01*
X53529664Y-33868784D01*
X53463834Y-33745625D01*
X53423293Y-33611979D01*
X53409000Y-33466860D01*
X53409000Y-31303140D01*
X53423293Y-31158021D01*
X53463834Y-31024375D01*
X53529664Y-30901216D01*
X53618260Y-30793260D01*
X53726216Y-30704664D01*
X53849375Y-30638834D01*
X53983021Y-30598293D01*
X54128140Y-30584000D01*
X55791860Y-30584000D01*
X55936979Y-30598293D01*
X55936979Y-30598293D01*
G37*
G36*
X62761000Y-34186000D02*
G01*
X59159000Y-34186000D01*
X59159000Y-30584000D01*
X62761000Y-30584000D01*
X62761000Y-34186000D01*
X62761000Y-34186000D01*
G37*
G36*
X95106442Y-32379518D02*
G01*
X95172627Y-32386037D01*
X95342466Y-32437557D01*
X95498991Y-32521222D01*
X95534729Y-32550552D01*
X95636186Y-32633814D01*
X95719448Y-32735271D01*
X95748778Y-32771009D01*
X95832443Y-32927534D01*
X95883963Y-33097373D01*
X95901359Y-33274000D01*
X95883963Y-33450627D01*
X95832443Y-33620466D01*
X95748778Y-33776991D01*
X95719448Y-33812729D01*
X95636186Y-33914186D01*
X95545367Y-33988718D01*
X95498991Y-34026778D01*
X95342466Y-34110443D01*
X95172627Y-34161963D01*
X95106442Y-34168482D01*
X95040260Y-34175000D01*
X94951740Y-34175000D01*
X94885558Y-34168482D01*
X94819373Y-34161963D01*
X94649534Y-34110443D01*
X94493009Y-34026778D01*
X94446633Y-33988718D01*
X94355814Y-33914186D01*
X94272552Y-33812729D01*
X94243222Y-33776991D01*
X94159557Y-33620466D01*
X94108037Y-33450627D01*
X94090641Y-33274000D01*
X94108037Y-33097373D01*
X94159557Y-32927534D01*
X94243222Y-32771009D01*
X94272552Y-32735271D01*
X94355814Y-32633814D01*
X94457271Y-32550552D01*
X94493009Y-32521222D01*
X94649534Y-32437557D01*
X94819373Y-32386037D01*
X94885558Y-32379518D01*
X94951740Y-32373000D01*
X95040260Y-32373000D01*
X95106442Y-32379518D01*
X95106442Y-32379518D01*
G37*
G36*
X95106443Y-29839519D02*
G01*
X95172627Y-29846037D01*
X95342466Y-29897557D01*
X95498991Y-29981222D01*
X95534729Y-30010552D01*
X95636186Y-30093814D01*
X95719448Y-30195271D01*
X95748778Y-30231009D01*
X95832443Y-30387534D01*
X95883963Y-30557373D01*
X95901359Y-30734000D01*
X95883963Y-30910627D01*
X95832443Y-31080466D01*
X95748778Y-31236991D01*
X95719448Y-31272729D01*
X95636186Y-31374186D01*
X95534729Y-31457448D01*
X95498991Y-31486778D01*
X95342466Y-31570443D01*
X95172627Y-31621963D01*
X95106443Y-31628481D01*
X95040260Y-31635000D01*
X94951740Y-31635000D01*
X94885557Y-31628481D01*
X94819373Y-31621963D01*
X94649534Y-31570443D01*
X94493009Y-31486778D01*
X94457271Y-31457448D01*
X94355814Y-31374186D01*
X94272552Y-31272729D01*
X94243222Y-31236991D01*
X94159557Y-31080466D01*
X94108037Y-30910627D01*
X94090641Y-30734000D01*
X94108037Y-30557373D01*
X94159557Y-30387534D01*
X94243222Y-30231009D01*
X94272552Y-30195271D01*
X94355814Y-30093814D01*
X94457271Y-30010552D01*
X94493009Y-29981222D01*
X94649534Y-29897557D01*
X94819373Y-29846037D01*
X94885557Y-29839519D01*
X94951740Y-29833000D01*
X95040260Y-29833000D01*
X95106443Y-29839519D01*
X95106443Y-29839519D01*
G37*
G36*
X95897000Y-29095000D02*
G01*
X94095000Y-29095000D01*
X94095000Y-27293000D01*
X95897000Y-27293000D01*
X95897000Y-29095000D01*
X95897000Y-29095000D01*
G37*
M02*
