G04 #@! TF.GenerationSoftware,KiCad,Pcbnew,(5.1.0-0)*
G04 #@! TF.CreationDate,2019-04-25T22:15:39+08:00*
G04 #@! TF.ProjectId,ws2812b,77733238-3132-4622-9e6b-696361645f70,rev?*
G04 #@! TF.SameCoordinates,Original*
G04 #@! TF.FileFunction,Legend,Bot*
G04 #@! TF.FilePolarity,Positive*
%FSLAX46Y46*%
G04 Gerber Fmt 4.6, Leading zero omitted, Abs format (unit mm)*
G04 Created by KiCad (PCBNEW (5.1.0-0)) date 2019-04-25 22:15:39*
%MOMM*%
%LPD*%
G04 APERTURE LIST*
%ADD10C,0.120000*%
%ADD11C,0.150000*%
G04 APERTURE END LIST*
D10*
X80152000Y-49838000D02*
X79702000Y-49838000D01*
X79702000Y-49838000D02*
X79702000Y-49388000D01*
X86472000Y-49838000D02*
X86922000Y-49838000D01*
X86922000Y-49838000D02*
X86922000Y-49388000D01*
X80152000Y-42618000D02*
X79702000Y-42618000D01*
X79702000Y-42618000D02*
X79702000Y-43068000D01*
X86472000Y-42618000D02*
X86922000Y-42618000D01*
X86922000Y-42618000D02*
X86922000Y-43068000D01*
X86922000Y-43068000D02*
X88212000Y-43068000D01*
X89714000Y-47490748D02*
X89714000Y-48013252D01*
X91134000Y-47490748D02*
X91134000Y-48013252D01*
X67825252Y-44652000D02*
X67302748Y-44652000D01*
X67825252Y-43232000D02*
X67302748Y-43232000D01*
X67825252Y-40692000D02*
X67302748Y-40692000D01*
X67825252Y-42112000D02*
X67302748Y-42112000D01*
X92254000Y-39885252D02*
X92254000Y-39362748D01*
X93674000Y-39885252D02*
X93674000Y-39362748D01*
X91134000Y-39885252D02*
X91134000Y-39362748D01*
X89714000Y-39885252D02*
X89714000Y-39362748D01*
X63702000Y-66286748D02*
X63702000Y-66809252D01*
X62282000Y-66286748D02*
X62282000Y-66809252D01*
X64728999Y-66286748D02*
X64728999Y-66809252D01*
X66148999Y-66286748D02*
X66148999Y-66809252D01*
X68564000Y-39568000D02*
X65704000Y-39568000D01*
X65704000Y-39568000D02*
X65704000Y-37648000D01*
X65704000Y-37648000D02*
X68564000Y-37648000D01*
X89714000Y-43426748D02*
X89714000Y-43949252D01*
X91134000Y-43426748D02*
X91134000Y-43949252D01*
X84574748Y-39318000D02*
X85097252Y-39318000D01*
X84574748Y-37898000D02*
X85097252Y-37898000D01*
X65838000Y-35821252D02*
X65838000Y-35298748D01*
X67258000Y-35821252D02*
X67258000Y-35298748D01*
X70490000Y-46628000D02*
X70490000Y-47888000D01*
X70490000Y-53448000D02*
X70490000Y-52188000D01*
X66730000Y-46628000D02*
X70490000Y-46628000D01*
X64480000Y-53448000D02*
X70490000Y-53448000D01*
D11*
X75265000Y-65263000D02*
X75265000Y-65613000D01*
X69515000Y-65263000D02*
X69515000Y-65713000D01*
X69515000Y-72913000D02*
X69515000Y-72463000D01*
X75265000Y-72913000D02*
X75265000Y-72463000D01*
X75265000Y-65263000D02*
X69515000Y-65263000D01*
X75265000Y-72913000D02*
X69515000Y-72913000D01*
X75265000Y-65613000D02*
X76865000Y-65613000D01*
X78485904Y-41009880D02*
X78485904Y-41819404D01*
X78438285Y-41914642D01*
X78390666Y-41962261D01*
X78295428Y-42009880D01*
X78104952Y-42009880D01*
X78009714Y-41962261D01*
X77962095Y-41914642D01*
X77914476Y-41819404D01*
X77914476Y-41009880D01*
X77533523Y-41009880D02*
X76914476Y-41009880D01*
X77247809Y-41390833D01*
X77104952Y-41390833D01*
X77009714Y-41438452D01*
X76962095Y-41486071D01*
X76914476Y-41581309D01*
X76914476Y-41819404D01*
X76962095Y-41914642D01*
X77009714Y-41962261D01*
X77104952Y-42009880D01*
X77390666Y-42009880D01*
X77485904Y-41962261D01*
X77533523Y-41914642D01*
X92813142Y-47585333D02*
X92860761Y-47537714D01*
X92908380Y-47394857D01*
X92908380Y-47299619D01*
X92860761Y-47156761D01*
X92765523Y-47061523D01*
X92670285Y-47013904D01*
X92479809Y-46966285D01*
X92336952Y-46966285D01*
X92146476Y-47013904D01*
X92051238Y-47061523D01*
X91956000Y-47156761D01*
X91908380Y-47299619D01*
X91908380Y-47394857D01*
X91956000Y-47537714D01*
X92003619Y-47585333D01*
X92908380Y-48537714D02*
X92908380Y-47966285D01*
X92908380Y-48252000D02*
X91908380Y-48252000D01*
X92051238Y-48156761D01*
X92146476Y-48061523D01*
X92194095Y-47966285D01*
X64619142Y-43775333D02*
X64666761Y-43727714D01*
X64714380Y-43584857D01*
X64714380Y-43489619D01*
X64666761Y-43346761D01*
X64571523Y-43251523D01*
X64476285Y-43203904D01*
X64285809Y-43156285D01*
X64142952Y-43156285D01*
X63952476Y-43203904D01*
X63857238Y-43251523D01*
X63762000Y-43346761D01*
X63714380Y-43489619D01*
X63714380Y-43584857D01*
X63762000Y-43727714D01*
X63809619Y-43775333D01*
X64047714Y-44632476D02*
X64714380Y-44632476D01*
X63666761Y-44394380D02*
X64381047Y-44156285D01*
X64381047Y-44775333D01*
X64619142Y-41235333D02*
X64666761Y-41187714D01*
X64714380Y-41044857D01*
X64714380Y-40949619D01*
X64666761Y-40806761D01*
X64571523Y-40711523D01*
X64476285Y-40663904D01*
X64285809Y-40616285D01*
X64142952Y-40616285D01*
X63952476Y-40663904D01*
X63857238Y-40711523D01*
X63762000Y-40806761D01*
X63714380Y-40949619D01*
X63714380Y-41044857D01*
X63762000Y-41187714D01*
X63809619Y-41235333D01*
X63714380Y-42140095D02*
X63714380Y-41663904D01*
X64190571Y-41616285D01*
X64142952Y-41663904D01*
X64095333Y-41759142D01*
X64095333Y-41997238D01*
X64142952Y-42092476D01*
X64190571Y-42140095D01*
X64285809Y-42187714D01*
X64523904Y-42187714D01*
X64619142Y-42140095D01*
X64666761Y-42092476D01*
X64714380Y-41997238D01*
X64714380Y-41759142D01*
X64666761Y-41663904D01*
X64619142Y-41616285D01*
X95353142Y-39457333D02*
X95400761Y-39409714D01*
X95448380Y-39266857D01*
X95448380Y-39171619D01*
X95400761Y-39028761D01*
X95305523Y-38933523D01*
X95210285Y-38885904D01*
X95019809Y-38838285D01*
X94876952Y-38838285D01*
X94686476Y-38885904D01*
X94591238Y-38933523D01*
X94496000Y-39028761D01*
X94448380Y-39171619D01*
X94448380Y-39266857D01*
X94496000Y-39409714D01*
X94543619Y-39457333D01*
X94448380Y-39790666D02*
X94448380Y-40457333D01*
X95448380Y-40028761D01*
X90781142Y-36155333D02*
X90828761Y-36107714D01*
X90876380Y-35964857D01*
X90876380Y-35869619D01*
X90828761Y-35726761D01*
X90733523Y-35631523D01*
X90638285Y-35583904D01*
X90447809Y-35536285D01*
X90304952Y-35536285D01*
X90114476Y-35583904D01*
X90019238Y-35631523D01*
X89924000Y-35726761D01*
X89876380Y-35869619D01*
X89876380Y-35964857D01*
X89924000Y-36107714D01*
X89971619Y-36155333D01*
X90304952Y-36726761D02*
X90257333Y-36631523D01*
X90209714Y-36583904D01*
X90114476Y-36536285D01*
X90066857Y-36536285D01*
X89971619Y-36583904D01*
X89924000Y-36631523D01*
X89876380Y-36726761D01*
X89876380Y-36917238D01*
X89924000Y-37012476D01*
X89971619Y-37060095D01*
X90066857Y-37107714D01*
X90114476Y-37107714D01*
X90209714Y-37060095D01*
X90257333Y-37012476D01*
X90304952Y-36917238D01*
X90304952Y-36726761D01*
X90352571Y-36631523D01*
X90400190Y-36583904D01*
X90495428Y-36536285D01*
X90685904Y-36536285D01*
X90781142Y-36583904D01*
X90828761Y-36631523D01*
X90876380Y-36726761D01*
X90876380Y-36917238D01*
X90828761Y-37012476D01*
X90781142Y-37060095D01*
X90685904Y-37107714D01*
X90495428Y-37107714D01*
X90400190Y-37060095D01*
X90352571Y-37012476D01*
X90304952Y-36917238D01*
X63349142Y-69937333D02*
X63396761Y-69889714D01*
X63444380Y-69746857D01*
X63444380Y-69651619D01*
X63396761Y-69508761D01*
X63301523Y-69413523D01*
X63206285Y-69365904D01*
X63015809Y-69318285D01*
X62872952Y-69318285D01*
X62682476Y-69365904D01*
X62587238Y-69413523D01*
X62492000Y-69508761D01*
X62444380Y-69651619D01*
X62444380Y-69746857D01*
X62492000Y-69889714D01*
X62539619Y-69937333D01*
X63444380Y-70413523D02*
X63444380Y-70604000D01*
X63396761Y-70699238D01*
X63349142Y-70746857D01*
X63206285Y-70842095D01*
X63015809Y-70889714D01*
X62634857Y-70889714D01*
X62539619Y-70842095D01*
X62492000Y-70794476D01*
X62444380Y-70699238D01*
X62444380Y-70508761D01*
X62492000Y-70413523D01*
X62539619Y-70365904D01*
X62634857Y-70318285D01*
X62872952Y-70318285D01*
X62968190Y-70365904D01*
X63015809Y-70413523D01*
X63063428Y-70508761D01*
X63063428Y-70699238D01*
X63015809Y-70794476D01*
X62968190Y-70842095D01*
X62872952Y-70889714D01*
X65889142Y-69969142D02*
X65936761Y-69921523D01*
X65984380Y-69778666D01*
X65984380Y-69683428D01*
X65936761Y-69540571D01*
X65841523Y-69445333D01*
X65746285Y-69397714D01*
X65555809Y-69350095D01*
X65412952Y-69350095D01*
X65222476Y-69397714D01*
X65127238Y-69445333D01*
X65032000Y-69540571D01*
X64984380Y-69683428D01*
X64984380Y-69778666D01*
X65032000Y-69921523D01*
X65079619Y-69969142D01*
X65984380Y-70921523D02*
X65984380Y-70350095D01*
X65984380Y-70635809D02*
X64984380Y-70635809D01*
X65127238Y-70540571D01*
X65222476Y-70445333D01*
X65270095Y-70350095D01*
X64984380Y-71540571D02*
X64984380Y-71635809D01*
X65032000Y-71731047D01*
X65079619Y-71778666D01*
X65174857Y-71826285D01*
X65365333Y-71873904D01*
X65603428Y-71873904D01*
X65793904Y-71826285D01*
X65889142Y-71778666D01*
X65936761Y-71731047D01*
X65984380Y-71635809D01*
X65984380Y-71540571D01*
X65936761Y-71445333D01*
X65889142Y-71397714D01*
X65793904Y-71350095D01*
X65603428Y-71302476D01*
X65365333Y-71302476D01*
X65174857Y-71350095D01*
X65079619Y-71397714D01*
X65032000Y-71445333D01*
X64984380Y-71540571D01*
X64714380Y-37869904D02*
X63714380Y-37869904D01*
X63714380Y-38108000D01*
X63762000Y-38250857D01*
X63857238Y-38346095D01*
X63952476Y-38393714D01*
X64142952Y-38441333D01*
X64285809Y-38441333D01*
X64476285Y-38393714D01*
X64571523Y-38346095D01*
X64666761Y-38250857D01*
X64714380Y-38108000D01*
X64714380Y-37869904D01*
X64714380Y-39393714D02*
X64714380Y-38822285D01*
X64714380Y-39108000D02*
X63714380Y-39108000D01*
X63857238Y-39012761D01*
X63952476Y-38917523D01*
X64000095Y-38822285D01*
X92908380Y-43775333D02*
X92432190Y-43442000D01*
X92908380Y-43203904D02*
X91908380Y-43203904D01*
X91908380Y-43584857D01*
X91956000Y-43680095D01*
X92003619Y-43727714D01*
X92098857Y-43775333D01*
X92241714Y-43775333D01*
X92336952Y-43727714D01*
X92384571Y-43680095D01*
X92432190Y-43584857D01*
X92432190Y-43203904D01*
X92003619Y-44156285D02*
X91956000Y-44203904D01*
X91908380Y-44299142D01*
X91908380Y-44537238D01*
X91956000Y-44632476D01*
X92003619Y-44680095D01*
X92098857Y-44727714D01*
X92194095Y-44727714D01*
X92336952Y-44680095D01*
X92908380Y-44108666D01*
X92908380Y-44727714D01*
X85002666Y-36774380D02*
X85336000Y-36298190D01*
X85574095Y-36774380D02*
X85574095Y-35774380D01*
X85193142Y-35774380D01*
X85097904Y-35822000D01*
X85050285Y-35869619D01*
X85002666Y-35964857D01*
X85002666Y-36107714D01*
X85050285Y-36202952D01*
X85097904Y-36250571D01*
X85193142Y-36298190D01*
X85574095Y-36298190D01*
X84145523Y-36107714D02*
X84145523Y-36774380D01*
X84383619Y-35726761D02*
X84621714Y-36441047D01*
X84002666Y-36441047D01*
X64714380Y-35647333D02*
X64238190Y-35314000D01*
X64714380Y-35075904D02*
X63714380Y-35075904D01*
X63714380Y-35456857D01*
X63762000Y-35552095D01*
X63809619Y-35599714D01*
X63904857Y-35647333D01*
X64047714Y-35647333D01*
X64142952Y-35599714D01*
X64190571Y-35552095D01*
X64238190Y-35456857D01*
X64238190Y-35075904D01*
X63714380Y-35980666D02*
X63714380Y-36647333D01*
X64714380Y-36218761D01*
X69595904Y-54570380D02*
X69595904Y-55379904D01*
X69548285Y-55475142D01*
X69500666Y-55522761D01*
X69405428Y-55570380D01*
X69214952Y-55570380D01*
X69119714Y-55522761D01*
X69072095Y-55475142D01*
X69024476Y-55379904D01*
X69024476Y-54570380D01*
X68024476Y-55570380D02*
X68595904Y-55570380D01*
X68310190Y-55570380D02*
X68310190Y-54570380D01*
X68405428Y-54713238D01*
X68500666Y-54808476D01*
X68595904Y-54856095D01*
X73151904Y-63790380D02*
X73151904Y-64599904D01*
X73104285Y-64695142D01*
X73056666Y-64742761D01*
X72961428Y-64790380D01*
X72770952Y-64790380D01*
X72675714Y-64742761D01*
X72628095Y-64695142D01*
X72580476Y-64599904D01*
X72580476Y-63790380D01*
X71675714Y-64123714D02*
X71675714Y-64790380D01*
X71913809Y-63742761D02*
X72151904Y-64457047D01*
X71532857Y-64457047D01*
M02*
