G04 #@! TF.GenerationSoftware,KiCad,Pcbnew,(5.1.0-0)*
G04 #@! TF.CreationDate,2019-04-25T22:15:39+08:00*
G04 #@! TF.ProjectId,ws2812b,77733238-3132-4622-9e6b-696361645f70,rev?*
G04 #@! TF.SameCoordinates,Original*
G04 #@! TF.FileFunction,Soldermask,Top*
G04 #@! TF.FilePolarity,Negative*
%FSLAX46Y46*%
G04 Gerber Fmt 4.6, Leading zero omitted, Abs format (unit mm)*
G04 Created by KiCad (PCBNEW (5.1.0-0)) date 2019-04-25 22:15:39*
%MOMM*%
%LPD*%
G04 APERTURE LIST*
%ADD10C,0.100000*%
G04 APERTURE END LIST*
D10*
G36*
X58813000Y-71005000D02*
G01*
X57011000Y-71005000D01*
X57011000Y-69203000D01*
X58813000Y-69203000D01*
X58813000Y-71005000D01*
X58813000Y-71005000D01*
G37*
G36*
X58022443Y-66669519D02*
G01*
X58088627Y-66676037D01*
X58258466Y-66727557D01*
X58414991Y-66811222D01*
X58450729Y-66840552D01*
X58552186Y-66923814D01*
X58635448Y-67025271D01*
X58664778Y-67061009D01*
X58748443Y-67217534D01*
X58799963Y-67387373D01*
X58817359Y-67564000D01*
X58799963Y-67740627D01*
X58748443Y-67910466D01*
X58664778Y-68066991D01*
X58635448Y-68102729D01*
X58552186Y-68204186D01*
X58450729Y-68287448D01*
X58414991Y-68316778D01*
X58258466Y-68400443D01*
X58088627Y-68451963D01*
X58022442Y-68458482D01*
X57956260Y-68465000D01*
X57867740Y-68465000D01*
X57801558Y-68458482D01*
X57735373Y-68451963D01*
X57565534Y-68400443D01*
X57409009Y-68316778D01*
X57373271Y-68287448D01*
X57271814Y-68204186D01*
X57188552Y-68102729D01*
X57159222Y-68066991D01*
X57075557Y-67910466D01*
X57024037Y-67740627D01*
X57006641Y-67564000D01*
X57024037Y-67387373D01*
X57075557Y-67217534D01*
X57159222Y-67061009D01*
X57188552Y-67025271D01*
X57271814Y-66923814D01*
X57373271Y-66840552D01*
X57409009Y-66811222D01*
X57565534Y-66727557D01*
X57735373Y-66676037D01*
X57801557Y-66669519D01*
X57867740Y-66663000D01*
X57956260Y-66663000D01*
X58022443Y-66669519D01*
X58022443Y-66669519D01*
G37*
G36*
X59086366Y-60065695D02*
G01*
X59243460Y-60113349D01*
X59388231Y-60190731D01*
X59515128Y-60294872D01*
X59619269Y-60421769D01*
X59696651Y-60566540D01*
X59744305Y-60723634D01*
X59761000Y-60893140D01*
X59761000Y-62806860D01*
X59744305Y-62976366D01*
X59696651Y-63133460D01*
X59619269Y-63278231D01*
X59515128Y-63405128D01*
X59388231Y-63509269D01*
X59243460Y-63586651D01*
X59086366Y-63634305D01*
X58916860Y-63651000D01*
X57003140Y-63651000D01*
X56833634Y-63634305D01*
X56676540Y-63586651D01*
X56531769Y-63509269D01*
X56404872Y-63405128D01*
X56300731Y-63278231D01*
X56223349Y-63133460D01*
X56175695Y-62976366D01*
X56159000Y-62806860D01*
X56159000Y-60893140D01*
X56175695Y-60723634D01*
X56223349Y-60566540D01*
X56300731Y-60421769D01*
X56404872Y-60294872D01*
X56531769Y-60190731D01*
X56676540Y-60113349D01*
X56833634Y-60065695D01*
X57003140Y-60049000D01*
X58916860Y-60049000D01*
X59086366Y-60065695D01*
X59086366Y-60065695D01*
G37*
G36*
X86470443Y-61843519D02*
G01*
X86536627Y-61850037D01*
X86706466Y-61901557D01*
X86862991Y-61985222D01*
X86898729Y-62014552D01*
X87000186Y-62097814D01*
X87083448Y-62199271D01*
X87112778Y-62235009D01*
X87196443Y-62391534D01*
X87247963Y-62561373D01*
X87265359Y-62738000D01*
X87247963Y-62914627D01*
X87196443Y-63084466D01*
X87112778Y-63240991D01*
X87104735Y-63250791D01*
X87000186Y-63378186D01*
X86898729Y-63461448D01*
X86862991Y-63490778D01*
X86706466Y-63574443D01*
X86536627Y-63625963D01*
X86470443Y-63632481D01*
X86404260Y-63639000D01*
X86315740Y-63639000D01*
X86249557Y-63632481D01*
X86183373Y-63625963D01*
X86013534Y-63574443D01*
X85857009Y-63490778D01*
X85821271Y-63461448D01*
X85719814Y-63378186D01*
X85615265Y-63250791D01*
X85607222Y-63240991D01*
X85523557Y-63084466D01*
X85472037Y-62914627D01*
X85454641Y-62738000D01*
X85472037Y-62561373D01*
X85523557Y-62391534D01*
X85607222Y-62235009D01*
X85636552Y-62199271D01*
X85719814Y-62097814D01*
X85821271Y-62014552D01*
X85857009Y-61985222D01*
X86013534Y-61901557D01*
X86183373Y-61850037D01*
X86249557Y-61843519D01*
X86315740Y-61837000D01*
X86404260Y-61837000D01*
X86470443Y-61843519D01*
X86470443Y-61843519D01*
G37*
G36*
X83930443Y-61843519D02*
G01*
X83996627Y-61850037D01*
X84166466Y-61901557D01*
X84322991Y-61985222D01*
X84358729Y-62014552D01*
X84460186Y-62097814D01*
X84543448Y-62199271D01*
X84572778Y-62235009D01*
X84656443Y-62391534D01*
X84707963Y-62561373D01*
X84725359Y-62738000D01*
X84707963Y-62914627D01*
X84656443Y-63084466D01*
X84572778Y-63240991D01*
X84564735Y-63250791D01*
X84460186Y-63378186D01*
X84358729Y-63461448D01*
X84322991Y-63490778D01*
X84166466Y-63574443D01*
X83996627Y-63625963D01*
X83930443Y-63632481D01*
X83864260Y-63639000D01*
X83775740Y-63639000D01*
X83709557Y-63632481D01*
X83643373Y-63625963D01*
X83473534Y-63574443D01*
X83317009Y-63490778D01*
X83281271Y-63461448D01*
X83179814Y-63378186D01*
X83075265Y-63250791D01*
X83067222Y-63240991D01*
X82983557Y-63084466D01*
X82932037Y-62914627D01*
X82914641Y-62738000D01*
X82932037Y-62561373D01*
X82983557Y-62391534D01*
X83067222Y-62235009D01*
X83096552Y-62199271D01*
X83179814Y-62097814D01*
X83281271Y-62014552D01*
X83317009Y-61985222D01*
X83473534Y-61901557D01*
X83643373Y-61850037D01*
X83709557Y-61843519D01*
X83775740Y-61837000D01*
X83864260Y-61837000D01*
X83930443Y-61843519D01*
X83930443Y-61843519D01*
G37*
G36*
X82181000Y-63639000D02*
G01*
X80379000Y-63639000D01*
X80379000Y-61837000D01*
X82181000Y-61837000D01*
X82181000Y-63639000D01*
X82181000Y-63639000D01*
G37*
G36*
X91550443Y-61843519D02*
G01*
X91616627Y-61850037D01*
X91786466Y-61901557D01*
X91942991Y-61985222D01*
X91978729Y-62014552D01*
X92080186Y-62097814D01*
X92163448Y-62199271D01*
X92192778Y-62235009D01*
X92276443Y-62391534D01*
X92327963Y-62561373D01*
X92345359Y-62738000D01*
X92327963Y-62914627D01*
X92276443Y-63084466D01*
X92192778Y-63240991D01*
X92184735Y-63250791D01*
X92080186Y-63378186D01*
X91978729Y-63461448D01*
X91942991Y-63490778D01*
X91786466Y-63574443D01*
X91616627Y-63625963D01*
X91550443Y-63632481D01*
X91484260Y-63639000D01*
X91395740Y-63639000D01*
X91329557Y-63632481D01*
X91263373Y-63625963D01*
X91093534Y-63574443D01*
X90937009Y-63490778D01*
X90901271Y-63461448D01*
X90799814Y-63378186D01*
X90695265Y-63250791D01*
X90687222Y-63240991D01*
X90603557Y-63084466D01*
X90552037Y-62914627D01*
X90534641Y-62738000D01*
X90552037Y-62561373D01*
X90603557Y-62391534D01*
X90687222Y-62235009D01*
X90716552Y-62199271D01*
X90799814Y-62097814D01*
X90901271Y-62014552D01*
X90937009Y-61985222D01*
X91093534Y-61901557D01*
X91263373Y-61850037D01*
X91329557Y-61843519D01*
X91395740Y-61837000D01*
X91484260Y-61837000D01*
X91550443Y-61843519D01*
X91550443Y-61843519D01*
G37*
G36*
X89010443Y-61843519D02*
G01*
X89076627Y-61850037D01*
X89246466Y-61901557D01*
X89402991Y-61985222D01*
X89438729Y-62014552D01*
X89540186Y-62097814D01*
X89623448Y-62199271D01*
X89652778Y-62235009D01*
X89736443Y-62391534D01*
X89787963Y-62561373D01*
X89805359Y-62738000D01*
X89787963Y-62914627D01*
X89736443Y-63084466D01*
X89652778Y-63240991D01*
X89644735Y-63250791D01*
X89540186Y-63378186D01*
X89438729Y-63461448D01*
X89402991Y-63490778D01*
X89246466Y-63574443D01*
X89076627Y-63625963D01*
X89010443Y-63632481D01*
X88944260Y-63639000D01*
X88855740Y-63639000D01*
X88789557Y-63632481D01*
X88723373Y-63625963D01*
X88553534Y-63574443D01*
X88397009Y-63490778D01*
X88361271Y-63461448D01*
X88259814Y-63378186D01*
X88155265Y-63250791D01*
X88147222Y-63240991D01*
X88063557Y-63084466D01*
X88012037Y-62914627D01*
X87994641Y-62738000D01*
X88012037Y-62561373D01*
X88063557Y-62391534D01*
X88147222Y-62235009D01*
X88176552Y-62199271D01*
X88259814Y-62097814D01*
X88361271Y-62014552D01*
X88397009Y-61985222D01*
X88553534Y-61901557D01*
X88723373Y-61850037D01*
X88789557Y-61843519D01*
X88855740Y-61837000D01*
X88944260Y-61837000D01*
X89010443Y-61843519D01*
X89010443Y-61843519D01*
G37*
G36*
X71513000Y-61353000D02*
G01*
X69711000Y-61353000D01*
X69711000Y-59551000D01*
X71513000Y-59551000D01*
X71513000Y-61353000D01*
X71513000Y-61353000D01*
G37*
G36*
X68182443Y-59557519D02*
G01*
X68248627Y-59564037D01*
X68418466Y-59615557D01*
X68574991Y-59699222D01*
X68610729Y-59728552D01*
X68712186Y-59811814D01*
X68795448Y-59913271D01*
X68824778Y-59949009D01*
X68908443Y-60105534D01*
X68959963Y-60275373D01*
X68977359Y-60452000D01*
X68959963Y-60628627D01*
X68908443Y-60798466D01*
X68824778Y-60954991D01*
X68795448Y-60990729D01*
X68712186Y-61092186D01*
X68610729Y-61175448D01*
X68574991Y-61204778D01*
X68418466Y-61288443D01*
X68248627Y-61339963D01*
X68182443Y-61346481D01*
X68116260Y-61353000D01*
X68027740Y-61353000D01*
X67961557Y-61346481D01*
X67895373Y-61339963D01*
X67725534Y-61288443D01*
X67569009Y-61204778D01*
X67533271Y-61175448D01*
X67431814Y-61092186D01*
X67348552Y-60990729D01*
X67319222Y-60954991D01*
X67235557Y-60798466D01*
X67184037Y-60628627D01*
X67166641Y-60452000D01*
X67184037Y-60275373D01*
X67235557Y-60105534D01*
X67319222Y-59949009D01*
X67348552Y-59913271D01*
X67431814Y-59811814D01*
X67533271Y-59728552D01*
X67569009Y-59699222D01*
X67725534Y-59615557D01*
X67895373Y-59564037D01*
X67961557Y-59557519D01*
X68027740Y-59551000D01*
X68116260Y-59551000D01*
X68182443Y-59557519D01*
X68182443Y-59557519D01*
G37*
G36*
X91550442Y-59303518D02*
G01*
X91616627Y-59310037D01*
X91786466Y-59361557D01*
X91942991Y-59445222D01*
X91978729Y-59474552D01*
X92080186Y-59557814D01*
X92163448Y-59659271D01*
X92192778Y-59695009D01*
X92276443Y-59851534D01*
X92327963Y-60021373D01*
X92345359Y-60198000D01*
X92327963Y-60374627D01*
X92276443Y-60544466D01*
X92192778Y-60700991D01*
X92174195Y-60723634D01*
X92080186Y-60838186D01*
X92013223Y-60893140D01*
X91942991Y-60950778D01*
X91786466Y-61034443D01*
X91616627Y-61085963D01*
X91553453Y-61092185D01*
X91484260Y-61099000D01*
X91395740Y-61099000D01*
X91326547Y-61092185D01*
X91263373Y-61085963D01*
X91093534Y-61034443D01*
X90937009Y-60950778D01*
X90866777Y-60893140D01*
X90799814Y-60838186D01*
X90705805Y-60723634D01*
X90687222Y-60700991D01*
X90603557Y-60544466D01*
X90552037Y-60374627D01*
X90534641Y-60198000D01*
X90552037Y-60021373D01*
X90603557Y-59851534D01*
X90687222Y-59695009D01*
X90716552Y-59659271D01*
X90799814Y-59557814D01*
X90901271Y-59474552D01*
X90937009Y-59445222D01*
X91093534Y-59361557D01*
X91263373Y-59310037D01*
X91329558Y-59303518D01*
X91395740Y-59297000D01*
X91484260Y-59297000D01*
X91550442Y-59303518D01*
X91550442Y-59303518D01*
G37*
G36*
X81390442Y-59303518D02*
G01*
X81456627Y-59310037D01*
X81626466Y-59361557D01*
X81782991Y-59445222D01*
X81818729Y-59474552D01*
X81920186Y-59557814D01*
X82003448Y-59659271D01*
X82032778Y-59695009D01*
X82116443Y-59851534D01*
X82167963Y-60021373D01*
X82185359Y-60198000D01*
X82167963Y-60374627D01*
X82116443Y-60544466D01*
X82032778Y-60700991D01*
X82014195Y-60723634D01*
X81920186Y-60838186D01*
X81853223Y-60893140D01*
X81782991Y-60950778D01*
X81626466Y-61034443D01*
X81456627Y-61085963D01*
X81393453Y-61092185D01*
X81324260Y-61099000D01*
X81235740Y-61099000D01*
X81166547Y-61092185D01*
X81103373Y-61085963D01*
X80933534Y-61034443D01*
X80777009Y-60950778D01*
X80706777Y-60893140D01*
X80639814Y-60838186D01*
X80545805Y-60723634D01*
X80527222Y-60700991D01*
X80443557Y-60544466D01*
X80392037Y-60374627D01*
X80374641Y-60198000D01*
X80392037Y-60021373D01*
X80443557Y-59851534D01*
X80527222Y-59695009D01*
X80556552Y-59659271D01*
X80639814Y-59557814D01*
X80741271Y-59474552D01*
X80777009Y-59445222D01*
X80933534Y-59361557D01*
X81103373Y-59310037D01*
X81169558Y-59303518D01*
X81235740Y-59297000D01*
X81324260Y-59297000D01*
X81390442Y-59303518D01*
X81390442Y-59303518D01*
G37*
G36*
X83930442Y-59303518D02*
G01*
X83996627Y-59310037D01*
X84166466Y-59361557D01*
X84322991Y-59445222D01*
X84358729Y-59474552D01*
X84460186Y-59557814D01*
X84543448Y-59659271D01*
X84572778Y-59695009D01*
X84656443Y-59851534D01*
X84707963Y-60021373D01*
X84725359Y-60198000D01*
X84707963Y-60374627D01*
X84656443Y-60544466D01*
X84572778Y-60700991D01*
X84554195Y-60723634D01*
X84460186Y-60838186D01*
X84393223Y-60893140D01*
X84322991Y-60950778D01*
X84166466Y-61034443D01*
X83996627Y-61085963D01*
X83933453Y-61092185D01*
X83864260Y-61099000D01*
X83775740Y-61099000D01*
X83706547Y-61092185D01*
X83643373Y-61085963D01*
X83473534Y-61034443D01*
X83317009Y-60950778D01*
X83246777Y-60893140D01*
X83179814Y-60838186D01*
X83085805Y-60723634D01*
X83067222Y-60700991D01*
X82983557Y-60544466D01*
X82932037Y-60374627D01*
X82914641Y-60198000D01*
X82932037Y-60021373D01*
X82983557Y-59851534D01*
X83067222Y-59695009D01*
X83096552Y-59659271D01*
X83179814Y-59557814D01*
X83281271Y-59474552D01*
X83317009Y-59445222D01*
X83473534Y-59361557D01*
X83643373Y-59310037D01*
X83709558Y-59303518D01*
X83775740Y-59297000D01*
X83864260Y-59297000D01*
X83930442Y-59303518D01*
X83930442Y-59303518D01*
G37*
G36*
X89010442Y-59303518D02*
G01*
X89076627Y-59310037D01*
X89246466Y-59361557D01*
X89402991Y-59445222D01*
X89438729Y-59474552D01*
X89540186Y-59557814D01*
X89623448Y-59659271D01*
X89652778Y-59695009D01*
X89736443Y-59851534D01*
X89787963Y-60021373D01*
X89805359Y-60198000D01*
X89787963Y-60374627D01*
X89736443Y-60544466D01*
X89652778Y-60700991D01*
X89634195Y-60723634D01*
X89540186Y-60838186D01*
X89473223Y-60893140D01*
X89402991Y-60950778D01*
X89246466Y-61034443D01*
X89076627Y-61085963D01*
X89013453Y-61092185D01*
X88944260Y-61099000D01*
X88855740Y-61099000D01*
X88786547Y-61092185D01*
X88723373Y-61085963D01*
X88553534Y-61034443D01*
X88397009Y-60950778D01*
X88326777Y-60893140D01*
X88259814Y-60838186D01*
X88165805Y-60723634D01*
X88147222Y-60700991D01*
X88063557Y-60544466D01*
X88012037Y-60374627D01*
X87994641Y-60198000D01*
X88012037Y-60021373D01*
X88063557Y-59851534D01*
X88147222Y-59695009D01*
X88176552Y-59659271D01*
X88259814Y-59557814D01*
X88361271Y-59474552D01*
X88397009Y-59445222D01*
X88553534Y-59361557D01*
X88723373Y-59310037D01*
X88789558Y-59303518D01*
X88855740Y-59297000D01*
X88944260Y-59297000D01*
X89010442Y-59303518D01*
X89010442Y-59303518D01*
G37*
G36*
X86470442Y-59303518D02*
G01*
X86536627Y-59310037D01*
X86706466Y-59361557D01*
X86862991Y-59445222D01*
X86898729Y-59474552D01*
X87000186Y-59557814D01*
X87083448Y-59659271D01*
X87112778Y-59695009D01*
X87196443Y-59851534D01*
X87247963Y-60021373D01*
X87265359Y-60198000D01*
X87247963Y-60374627D01*
X87196443Y-60544466D01*
X87112778Y-60700991D01*
X87094195Y-60723634D01*
X87000186Y-60838186D01*
X86933223Y-60893140D01*
X86862991Y-60950778D01*
X86706466Y-61034443D01*
X86536627Y-61085963D01*
X86473453Y-61092185D01*
X86404260Y-61099000D01*
X86315740Y-61099000D01*
X86246547Y-61092185D01*
X86183373Y-61085963D01*
X86013534Y-61034443D01*
X85857009Y-60950778D01*
X85786777Y-60893140D01*
X85719814Y-60838186D01*
X85625805Y-60723634D01*
X85607222Y-60700991D01*
X85523557Y-60544466D01*
X85472037Y-60374627D01*
X85454641Y-60198000D01*
X85472037Y-60021373D01*
X85523557Y-59851534D01*
X85607222Y-59695009D01*
X85636552Y-59659271D01*
X85719814Y-59557814D01*
X85821271Y-59474552D01*
X85857009Y-59445222D01*
X86013534Y-59361557D01*
X86183373Y-59310037D01*
X86249558Y-59303518D01*
X86315740Y-59297000D01*
X86404260Y-59297000D01*
X86470442Y-59303518D01*
X86470442Y-59303518D01*
G37*
G36*
X55936979Y-55363293D02*
G01*
X56070625Y-55403834D01*
X56193784Y-55469664D01*
X56301740Y-55558260D01*
X56390336Y-55666216D01*
X56456166Y-55789375D01*
X56496707Y-55923021D01*
X56511000Y-56068140D01*
X56511000Y-58231860D01*
X56496707Y-58376979D01*
X56456166Y-58510625D01*
X56390336Y-58633784D01*
X56301740Y-58741740D01*
X56193784Y-58830336D01*
X56070625Y-58896166D01*
X55936979Y-58936707D01*
X55791860Y-58951000D01*
X54128140Y-58951000D01*
X53983021Y-58936707D01*
X53849375Y-58896166D01*
X53726216Y-58830336D01*
X53618260Y-58741740D01*
X53529664Y-58633784D01*
X53463834Y-58510625D01*
X53423293Y-58376979D01*
X53409000Y-58231860D01*
X53409000Y-56068140D01*
X53423293Y-55923021D01*
X53463834Y-55789375D01*
X53529664Y-55666216D01*
X53618260Y-55558260D01*
X53726216Y-55469664D01*
X53849375Y-55403834D01*
X53983021Y-55363293D01*
X54128140Y-55349000D01*
X55791860Y-55349000D01*
X55936979Y-55363293D01*
X55936979Y-55363293D01*
G37*
G36*
X62761000Y-58951000D02*
G01*
X59159000Y-58951000D01*
X59159000Y-55349000D01*
X62761000Y-55349000D01*
X62761000Y-58951000D01*
X62761000Y-58951000D01*
G37*
G36*
X70722442Y-57017518D02*
G01*
X70788627Y-57024037D01*
X70958466Y-57075557D01*
X71114991Y-57159222D01*
X71150729Y-57188552D01*
X71252186Y-57271814D01*
X71335448Y-57373271D01*
X71364778Y-57409009D01*
X71448443Y-57565534D01*
X71499963Y-57735373D01*
X71517359Y-57912000D01*
X71499963Y-58088627D01*
X71448443Y-58258466D01*
X71364778Y-58414991D01*
X71335448Y-58450729D01*
X71252186Y-58552186D01*
X71152757Y-58633784D01*
X71114991Y-58664778D01*
X70958466Y-58748443D01*
X70788627Y-58799963D01*
X70722442Y-58806482D01*
X70656260Y-58813000D01*
X70567740Y-58813000D01*
X70501558Y-58806482D01*
X70435373Y-58799963D01*
X70265534Y-58748443D01*
X70109009Y-58664778D01*
X70071243Y-58633784D01*
X69971814Y-58552186D01*
X69888552Y-58450729D01*
X69859222Y-58414991D01*
X69775557Y-58258466D01*
X69724037Y-58088627D01*
X69706641Y-57912000D01*
X69724037Y-57735373D01*
X69775557Y-57565534D01*
X69859222Y-57409009D01*
X69888552Y-57373271D01*
X69971814Y-57271814D01*
X70073271Y-57188552D01*
X70109009Y-57159222D01*
X70265534Y-57075557D01*
X70435373Y-57024037D01*
X70501558Y-57017518D01*
X70567740Y-57011000D01*
X70656260Y-57011000D01*
X70722442Y-57017518D01*
X70722442Y-57017518D01*
G37*
G36*
X68182442Y-57017518D02*
G01*
X68248627Y-57024037D01*
X68418466Y-57075557D01*
X68574991Y-57159222D01*
X68610729Y-57188552D01*
X68712186Y-57271814D01*
X68795448Y-57373271D01*
X68824778Y-57409009D01*
X68908443Y-57565534D01*
X68959963Y-57735373D01*
X68977359Y-57912000D01*
X68959963Y-58088627D01*
X68908443Y-58258466D01*
X68824778Y-58414991D01*
X68795448Y-58450729D01*
X68712186Y-58552186D01*
X68612757Y-58633784D01*
X68574991Y-58664778D01*
X68418466Y-58748443D01*
X68248627Y-58799963D01*
X68182442Y-58806482D01*
X68116260Y-58813000D01*
X68027740Y-58813000D01*
X67961558Y-58806482D01*
X67895373Y-58799963D01*
X67725534Y-58748443D01*
X67569009Y-58664778D01*
X67531243Y-58633784D01*
X67431814Y-58552186D01*
X67348552Y-58450729D01*
X67319222Y-58414991D01*
X67235557Y-58258466D01*
X67184037Y-58088627D01*
X67166641Y-57912000D01*
X67184037Y-57735373D01*
X67235557Y-57565534D01*
X67319222Y-57409009D01*
X67348552Y-57373271D01*
X67431814Y-57271814D01*
X67533271Y-57188552D01*
X67569009Y-57159222D01*
X67725534Y-57075557D01*
X67895373Y-57024037D01*
X67961558Y-57017518D01*
X68027740Y-57011000D01*
X68116260Y-57011000D01*
X68182442Y-57017518D01*
X68182442Y-57017518D01*
G37*
G36*
X67898674Y-53489465D02*
G01*
X67936367Y-53500899D01*
X67971103Y-53519466D01*
X68001548Y-53544452D01*
X68026534Y-53574897D01*
X68045101Y-53609633D01*
X68056535Y-53647326D01*
X68061000Y-53692661D01*
X68061000Y-54529339D01*
X68056535Y-54574674D01*
X68045101Y-54612367D01*
X68026534Y-54647103D01*
X68001548Y-54677548D01*
X67971103Y-54702534D01*
X67936367Y-54721101D01*
X67898674Y-54732535D01*
X67853339Y-54737000D01*
X66766661Y-54737000D01*
X66721326Y-54732535D01*
X66683633Y-54721101D01*
X66648897Y-54702534D01*
X66618452Y-54677548D01*
X66593466Y-54647103D01*
X66574899Y-54612367D01*
X66563465Y-54574674D01*
X66559000Y-54529339D01*
X66559000Y-53692661D01*
X66563465Y-53647326D01*
X66574899Y-53609633D01*
X66593466Y-53574897D01*
X66618452Y-53544452D01*
X66648897Y-53519466D01*
X66683633Y-53500899D01*
X66721326Y-53489465D01*
X66766661Y-53485000D01*
X67853339Y-53485000D01*
X67898674Y-53489465D01*
X67898674Y-53489465D01*
G37*
G36*
X70057674Y-53489465D02*
G01*
X70095367Y-53500899D01*
X70130103Y-53519466D01*
X70160548Y-53544452D01*
X70185534Y-53574897D01*
X70204101Y-53609633D01*
X70215535Y-53647326D01*
X70220000Y-53692661D01*
X70220000Y-54529339D01*
X70215535Y-54574674D01*
X70204101Y-54612367D01*
X70185534Y-54647103D01*
X70160548Y-54677548D01*
X70130103Y-54702534D01*
X70095367Y-54721101D01*
X70057674Y-54732535D01*
X70012339Y-54737000D01*
X68925661Y-54737000D01*
X68880326Y-54732535D01*
X68842633Y-54721101D01*
X68807897Y-54702534D01*
X68777452Y-54677548D01*
X68752466Y-54647103D01*
X68733899Y-54612367D01*
X68722465Y-54574674D01*
X68718000Y-54529339D01*
X68718000Y-53692661D01*
X68722465Y-53647326D01*
X68733899Y-53609633D01*
X68752466Y-53574897D01*
X68777452Y-53544452D01*
X68807897Y-53519466D01*
X68842633Y-53500899D01*
X68880326Y-53489465D01*
X68925661Y-53485000D01*
X70012339Y-53485000D01*
X70057674Y-53489465D01*
X70057674Y-53489465D01*
G37*
G36*
X85815000Y-54353000D02*
G01*
X84713000Y-54353000D01*
X84713000Y-52451000D01*
X85815000Y-52451000D01*
X85815000Y-54353000D01*
X85815000Y-54353000D01*
G37*
G36*
X83815000Y-54353000D02*
G01*
X82713000Y-54353000D01*
X82713000Y-52451000D01*
X83815000Y-52451000D01*
X83815000Y-54353000D01*
X83815000Y-54353000D01*
G37*
G36*
X81815000Y-54353000D02*
G01*
X80713000Y-54353000D01*
X80713000Y-52451000D01*
X81815000Y-52451000D01*
X81815000Y-54353000D01*
X81815000Y-54353000D01*
G37*
G36*
X79815000Y-54353000D02*
G01*
X78713000Y-54353000D01*
X78713000Y-52451000D01*
X79815000Y-52451000D01*
X79815000Y-54353000D01*
X79815000Y-54353000D01*
G37*
G36*
X77815000Y-54353000D02*
G01*
X76713000Y-54353000D01*
X76713000Y-52451000D01*
X77815000Y-52451000D01*
X77815000Y-54353000D01*
X77815000Y-54353000D01*
G37*
G36*
X75815000Y-54353000D02*
G01*
X74713000Y-54353000D01*
X74713000Y-52451000D01*
X75815000Y-52451000D01*
X75815000Y-54353000D01*
X75815000Y-54353000D01*
G37*
G36*
X92028674Y-51457465D02*
G01*
X92066367Y-51468899D01*
X92101103Y-51487466D01*
X92131548Y-51512452D01*
X92156534Y-51542897D01*
X92175101Y-51577633D01*
X92186535Y-51615326D01*
X92191000Y-51660661D01*
X92191000Y-52497339D01*
X92186535Y-52542674D01*
X92175101Y-52580367D01*
X92156534Y-52615103D01*
X92131548Y-52645548D01*
X92101103Y-52670534D01*
X92066367Y-52689101D01*
X92028674Y-52700535D01*
X91983339Y-52705000D01*
X90896661Y-52705000D01*
X90851326Y-52700535D01*
X90813633Y-52689101D01*
X90778897Y-52670534D01*
X90748452Y-52645548D01*
X90723466Y-52615103D01*
X90704899Y-52580367D01*
X90693465Y-52542674D01*
X90689000Y-52497339D01*
X90689000Y-51660661D01*
X90693465Y-51615326D01*
X90704899Y-51577633D01*
X90723466Y-51542897D01*
X90748452Y-51512452D01*
X90778897Y-51487466D01*
X90813633Y-51468899D01*
X90851326Y-51457465D01*
X90896661Y-51453000D01*
X91983339Y-51453000D01*
X92028674Y-51457465D01*
X92028674Y-51457465D01*
G37*
G36*
X67898674Y-51439465D02*
G01*
X67936367Y-51450899D01*
X67971103Y-51469466D01*
X68001548Y-51494452D01*
X68026534Y-51524897D01*
X68045101Y-51559633D01*
X68056535Y-51597326D01*
X68061000Y-51642661D01*
X68061000Y-52479339D01*
X68056535Y-52524674D01*
X68045101Y-52562367D01*
X68026534Y-52597103D01*
X68001548Y-52627548D01*
X67971103Y-52652534D01*
X67936367Y-52671101D01*
X67898674Y-52682535D01*
X67853339Y-52687000D01*
X66766661Y-52687000D01*
X66721326Y-52682535D01*
X66683633Y-52671101D01*
X66648897Y-52652534D01*
X66618452Y-52627548D01*
X66593466Y-52597103D01*
X66574899Y-52562367D01*
X66563465Y-52524674D01*
X66559000Y-52479339D01*
X66559000Y-51642661D01*
X66563465Y-51597326D01*
X66574899Y-51559633D01*
X66593466Y-51524897D01*
X66618452Y-51494452D01*
X66648897Y-51469466D01*
X66683633Y-51450899D01*
X66721326Y-51439465D01*
X66766661Y-51435000D01*
X67853339Y-51435000D01*
X67898674Y-51439465D01*
X67898674Y-51439465D01*
G37*
G36*
X70057674Y-51439465D02*
G01*
X70095367Y-51450899D01*
X70130103Y-51469466D01*
X70160548Y-51494452D01*
X70185534Y-51524897D01*
X70204101Y-51559633D01*
X70215535Y-51597326D01*
X70220000Y-51642661D01*
X70220000Y-52479339D01*
X70215535Y-52524674D01*
X70204101Y-52562367D01*
X70185534Y-52597103D01*
X70160548Y-52627548D01*
X70130103Y-52652534D01*
X70095367Y-52671101D01*
X70057674Y-52682535D01*
X70012339Y-52687000D01*
X68925661Y-52687000D01*
X68880326Y-52682535D01*
X68842633Y-52671101D01*
X68807897Y-52652534D01*
X68777452Y-52627548D01*
X68752466Y-52597103D01*
X68733899Y-52562367D01*
X68722465Y-52524674D01*
X68718000Y-52479339D01*
X68718000Y-51642661D01*
X68722465Y-51597326D01*
X68733899Y-51559633D01*
X68752466Y-51524897D01*
X68777452Y-51494452D01*
X68807897Y-51469466D01*
X68842633Y-51450899D01*
X68880326Y-51439465D01*
X68925661Y-51435000D01*
X70012339Y-51435000D01*
X70057674Y-51439465D01*
X70057674Y-51439465D01*
G37*
G36*
X89165000Y-52453000D02*
G01*
X86563000Y-52453000D01*
X86563000Y-51351000D01*
X89165000Y-51351000D01*
X89165000Y-52453000D01*
X89165000Y-52453000D01*
G37*
G36*
X73965000Y-52453000D02*
G01*
X71363000Y-52453000D01*
X71363000Y-51351000D01*
X73965000Y-51351000D01*
X73965000Y-52453000D01*
X73965000Y-52453000D01*
G37*
G36*
X92028674Y-49407465D02*
G01*
X92066367Y-49418899D01*
X92101103Y-49437466D01*
X92131548Y-49462452D01*
X92156534Y-49492897D01*
X92175101Y-49527633D01*
X92186535Y-49565326D01*
X92191000Y-49610661D01*
X92191000Y-50447339D01*
X92186535Y-50492674D01*
X92175101Y-50530367D01*
X92156534Y-50565103D01*
X92131548Y-50595548D01*
X92101103Y-50620534D01*
X92066367Y-50639101D01*
X92028674Y-50650535D01*
X91983339Y-50655000D01*
X90896661Y-50655000D01*
X90851326Y-50650535D01*
X90813633Y-50639101D01*
X90778897Y-50620534D01*
X90748452Y-50595548D01*
X90723466Y-50565103D01*
X90704899Y-50530367D01*
X90693465Y-50492674D01*
X90689000Y-50447339D01*
X90689000Y-49610661D01*
X90693465Y-49565326D01*
X90704899Y-49527633D01*
X90723466Y-49492897D01*
X90748452Y-49462452D01*
X90778897Y-49437466D01*
X90813633Y-49418899D01*
X90851326Y-49407465D01*
X90896661Y-49403000D01*
X91983339Y-49403000D01*
X92028674Y-49407465D01*
X92028674Y-49407465D01*
G37*
G36*
X89165000Y-50453000D02*
G01*
X86563000Y-50453000D01*
X86563000Y-49351000D01*
X89165000Y-49351000D01*
X89165000Y-50453000D01*
X89165000Y-50453000D01*
G37*
G36*
X73965000Y-50453000D02*
G01*
X71363000Y-50453000D01*
X71363000Y-49351000D01*
X73965000Y-49351000D01*
X73965000Y-50453000D01*
X73965000Y-50453000D01*
G37*
G36*
X73965000Y-48453000D02*
G01*
X71363000Y-48453000D01*
X71363000Y-47351000D01*
X73965000Y-47351000D01*
X73965000Y-48453000D01*
X73965000Y-48453000D01*
G37*
G36*
X89165000Y-48453000D02*
G01*
X86563000Y-48453000D01*
X86563000Y-47351000D01*
X89165000Y-47351000D01*
X89165000Y-48453000D01*
X89165000Y-48453000D01*
G37*
G36*
X60741000Y-47406000D02*
G01*
X58639000Y-47406000D01*
X58639000Y-45304000D01*
X60741000Y-45304000D01*
X60741000Y-47406000D01*
X60741000Y-47406000D01*
G37*
G36*
X54996564Y-45344389D02*
G01*
X55187833Y-45423615D01*
X55187835Y-45423616D01*
X55331075Y-45519326D01*
X55359973Y-45538635D01*
X55506365Y-45685027D01*
X55621385Y-45857167D01*
X55700611Y-46048436D01*
X55741000Y-46251484D01*
X55741000Y-46458516D01*
X55700611Y-46661564D01*
X55621385Y-46852833D01*
X55621384Y-46852835D01*
X55506365Y-47024973D01*
X55359973Y-47171365D01*
X55187835Y-47286384D01*
X55187834Y-47286385D01*
X55187833Y-47286385D01*
X54996564Y-47365611D01*
X54793516Y-47406000D01*
X54586484Y-47406000D01*
X54383436Y-47365611D01*
X54192167Y-47286385D01*
X54192166Y-47286385D01*
X54192165Y-47286384D01*
X54020027Y-47171365D01*
X53873635Y-47024973D01*
X53758616Y-46852835D01*
X53758615Y-46852833D01*
X53679389Y-46661564D01*
X53639000Y-46458516D01*
X53639000Y-46251484D01*
X53679389Y-46048436D01*
X53758615Y-45857167D01*
X53873635Y-45685027D01*
X54020027Y-45538635D01*
X54048925Y-45519326D01*
X54192165Y-45423616D01*
X54192167Y-45423615D01*
X54383436Y-45344389D01*
X54586484Y-45304000D01*
X54793516Y-45304000D01*
X54996564Y-45344389D01*
X54996564Y-45344389D01*
G37*
G36*
X92028674Y-45361465D02*
G01*
X92066367Y-45372899D01*
X92101103Y-45391466D01*
X92131548Y-45416452D01*
X92156534Y-45446897D01*
X92175101Y-45481633D01*
X92186535Y-45519326D01*
X92191000Y-45564661D01*
X92191000Y-46401339D01*
X92186535Y-46446674D01*
X92175101Y-46484367D01*
X92156534Y-46519103D01*
X92131548Y-46549548D01*
X92101103Y-46574534D01*
X92066367Y-46593101D01*
X92028674Y-46604535D01*
X91983339Y-46609000D01*
X90896661Y-46609000D01*
X90851326Y-46604535D01*
X90813633Y-46593101D01*
X90778897Y-46574534D01*
X90748452Y-46549548D01*
X90723466Y-46519103D01*
X90704899Y-46484367D01*
X90693465Y-46446674D01*
X90689000Y-46401339D01*
X90689000Y-45564661D01*
X90693465Y-45519326D01*
X90704899Y-45481633D01*
X90723466Y-45446897D01*
X90748452Y-45416452D01*
X90778897Y-45391466D01*
X90813633Y-45372899D01*
X90851326Y-45361465D01*
X90896661Y-45357000D01*
X91983339Y-45357000D01*
X92028674Y-45361465D01*
X92028674Y-45361465D01*
G37*
G36*
X89165000Y-46453000D02*
G01*
X86563000Y-46453000D01*
X86563000Y-45351000D01*
X89165000Y-45351000D01*
X89165000Y-46453000D01*
X89165000Y-46453000D01*
G37*
G36*
X73965000Y-46453000D02*
G01*
X71363000Y-46453000D01*
X71363000Y-45351000D01*
X73965000Y-45351000D01*
X73965000Y-46453000D01*
X73965000Y-46453000D01*
G37*
G36*
X92028674Y-43311465D02*
G01*
X92066367Y-43322899D01*
X92101103Y-43341466D01*
X92131548Y-43366452D01*
X92156534Y-43396897D01*
X92175101Y-43431633D01*
X92186535Y-43469326D01*
X92191000Y-43514661D01*
X92191000Y-44351339D01*
X92186535Y-44396674D01*
X92175101Y-44434367D01*
X92156534Y-44469103D01*
X92131548Y-44499548D01*
X92101103Y-44524534D01*
X92066367Y-44543101D01*
X92028674Y-44554535D01*
X91983339Y-44559000D01*
X90896661Y-44559000D01*
X90851326Y-44554535D01*
X90813633Y-44543101D01*
X90778897Y-44524534D01*
X90748452Y-44499548D01*
X90723466Y-44469103D01*
X90704899Y-44434367D01*
X90693465Y-44396674D01*
X90689000Y-44351339D01*
X90689000Y-43514661D01*
X90693465Y-43469326D01*
X90704899Y-43431633D01*
X90723466Y-43396897D01*
X90748452Y-43366452D01*
X90778897Y-43341466D01*
X90813633Y-43322899D01*
X90851326Y-43311465D01*
X90896661Y-43307000D01*
X91983339Y-43307000D01*
X92028674Y-43311465D01*
X92028674Y-43311465D01*
G37*
G36*
X89165000Y-44453000D02*
G01*
X86563000Y-44453000D01*
X86563000Y-43351000D01*
X89165000Y-43351000D01*
X89165000Y-44453000D01*
X89165000Y-44453000D01*
G37*
G36*
X73965000Y-44453000D02*
G01*
X71363000Y-44453000D01*
X71363000Y-43351000D01*
X73965000Y-43351000D01*
X73965000Y-44453000D01*
X73965000Y-44453000D01*
G37*
G36*
X69295674Y-42059465D02*
G01*
X69333367Y-42070899D01*
X69368103Y-42089466D01*
X69398548Y-42114452D01*
X69423534Y-42144897D01*
X69442101Y-42179633D01*
X69453535Y-42217326D01*
X69458000Y-42262661D01*
X69458000Y-43099339D01*
X69453535Y-43144674D01*
X69442101Y-43182367D01*
X69423534Y-43217103D01*
X69398548Y-43247548D01*
X69368103Y-43272534D01*
X69333367Y-43291101D01*
X69295674Y-43302535D01*
X69250339Y-43307000D01*
X68163661Y-43307000D01*
X68118326Y-43302535D01*
X68080633Y-43291101D01*
X68045897Y-43272534D01*
X68015452Y-43247548D01*
X67990466Y-43217103D01*
X67971899Y-43182367D01*
X67960465Y-43144674D01*
X67956000Y-43099339D01*
X67956000Y-42262661D01*
X67960465Y-42217326D01*
X67971899Y-42179633D01*
X67990466Y-42144897D01*
X68015452Y-42114452D01*
X68045897Y-42089466D01*
X68080633Y-42070899D01*
X68118326Y-42059465D01*
X68163661Y-42055000D01*
X69250339Y-42055000D01*
X69295674Y-42059465D01*
X69295674Y-42059465D01*
G37*
G36*
X89165000Y-42453000D02*
G01*
X86563000Y-42453000D01*
X86563000Y-41351000D01*
X89165000Y-41351000D01*
X89165000Y-42453000D01*
X89165000Y-42453000D01*
G37*
G36*
X73965000Y-42453000D02*
G01*
X71363000Y-42453000D01*
X71363000Y-41351000D01*
X73965000Y-41351000D01*
X73965000Y-42453000D01*
X73965000Y-42453000D01*
G37*
G36*
X69295674Y-40009465D02*
G01*
X69333367Y-40020899D01*
X69368103Y-40039466D01*
X69398548Y-40064452D01*
X69423534Y-40094897D01*
X69442101Y-40129633D01*
X69453535Y-40167326D01*
X69458000Y-40212661D01*
X69458000Y-41049339D01*
X69453535Y-41094674D01*
X69442101Y-41132367D01*
X69423534Y-41167103D01*
X69398548Y-41197548D01*
X69368103Y-41222534D01*
X69333367Y-41241101D01*
X69295674Y-41252535D01*
X69250339Y-41257000D01*
X68163661Y-41257000D01*
X68118326Y-41252535D01*
X68080633Y-41241101D01*
X68045897Y-41222534D01*
X68015452Y-41197548D01*
X67990466Y-41167103D01*
X67971899Y-41132367D01*
X67960465Y-41094674D01*
X67956000Y-41049339D01*
X67956000Y-40212661D01*
X67960465Y-40167326D01*
X67971899Y-40129633D01*
X67990466Y-40094897D01*
X68015452Y-40064452D01*
X68045897Y-40039466D01*
X68080633Y-40020899D01*
X68118326Y-40009465D01*
X68163661Y-40005000D01*
X69250339Y-40005000D01*
X69295674Y-40009465D01*
X69295674Y-40009465D01*
G37*
G36*
X73965000Y-40453000D02*
G01*
X71363000Y-40453000D01*
X71363000Y-39351000D01*
X73965000Y-39351000D01*
X73965000Y-40453000D01*
X73965000Y-40453000D01*
G37*
G36*
X89165000Y-40453000D02*
G01*
X86563000Y-40453000D01*
X86563000Y-39351000D01*
X89165000Y-39351000D01*
X89165000Y-40453000D01*
X89165000Y-40453000D01*
G37*
G36*
X59086366Y-35300695D02*
G01*
X59243460Y-35348349D01*
X59388231Y-35425731D01*
X59515128Y-35529872D01*
X59619269Y-35656769D01*
X59696651Y-35801540D01*
X59744305Y-35958634D01*
X59761000Y-36128140D01*
X59761000Y-38041860D01*
X59744305Y-38211366D01*
X59696651Y-38368460D01*
X59619269Y-38513231D01*
X59515128Y-38640128D01*
X59388231Y-38744269D01*
X59243460Y-38821651D01*
X59086366Y-38869305D01*
X58916860Y-38886000D01*
X57003140Y-38886000D01*
X56833634Y-38869305D01*
X56676540Y-38821651D01*
X56531769Y-38744269D01*
X56404872Y-38640128D01*
X56300731Y-38513231D01*
X56223349Y-38368460D01*
X56175695Y-38211366D01*
X56159000Y-38041860D01*
X56159000Y-36128140D01*
X56175695Y-35958634D01*
X56223349Y-35801540D01*
X56300731Y-35656769D01*
X56404872Y-35529872D01*
X56531769Y-35425731D01*
X56676540Y-35348349D01*
X56833634Y-35300695D01*
X57003140Y-35284000D01*
X58916860Y-35284000D01*
X59086366Y-35300695D01*
X59086366Y-35300695D01*
G37*
G36*
X69295674Y-37233465D02*
G01*
X69333367Y-37244899D01*
X69368103Y-37263466D01*
X69398548Y-37288452D01*
X69423534Y-37318897D01*
X69442101Y-37353633D01*
X69453535Y-37391326D01*
X69458000Y-37436661D01*
X69458000Y-38273339D01*
X69453535Y-38318674D01*
X69442101Y-38356367D01*
X69423534Y-38391103D01*
X69398548Y-38421548D01*
X69368103Y-38446534D01*
X69333367Y-38465101D01*
X69295674Y-38476535D01*
X69250339Y-38481000D01*
X68163661Y-38481000D01*
X68118326Y-38476535D01*
X68080633Y-38465101D01*
X68045897Y-38446534D01*
X68015452Y-38421548D01*
X67990466Y-38391103D01*
X67971899Y-38356367D01*
X67960465Y-38318674D01*
X67956000Y-38273339D01*
X67956000Y-37436661D01*
X67960465Y-37391326D01*
X67971899Y-37353633D01*
X67990466Y-37318897D01*
X68015452Y-37288452D01*
X68045897Y-37263466D01*
X68080633Y-37244899D01*
X68118326Y-37233465D01*
X68163661Y-37229000D01*
X69250339Y-37229000D01*
X69295674Y-37233465D01*
X69295674Y-37233465D01*
G37*
G36*
X89165000Y-38453000D02*
G01*
X86563000Y-38453000D01*
X86563000Y-37351000D01*
X89165000Y-37351000D01*
X89165000Y-38453000D01*
X89165000Y-38453000D01*
G37*
G36*
X73965000Y-38453000D02*
G01*
X71363000Y-38453000D01*
X71363000Y-37351000D01*
X73965000Y-37351000D01*
X73965000Y-38453000D01*
X73965000Y-38453000D01*
G37*
G36*
X95106442Y-34919518D02*
G01*
X95172627Y-34926037D01*
X95342466Y-34977557D01*
X95498991Y-35061222D01*
X95534729Y-35090552D01*
X95636186Y-35173814D01*
X95689232Y-35238452D01*
X95748778Y-35311009D01*
X95832443Y-35467534D01*
X95883963Y-35637373D01*
X95901359Y-35814000D01*
X95883963Y-35990627D01*
X95842249Y-36128140D01*
X95832442Y-36160468D01*
X95804937Y-36211925D01*
X95748778Y-36316991D01*
X95720636Y-36351282D01*
X95636186Y-36454186D01*
X95534729Y-36537448D01*
X95498991Y-36566778D01*
X95342466Y-36650443D01*
X95172627Y-36701963D01*
X95106443Y-36708481D01*
X95040260Y-36715000D01*
X94951740Y-36715000D01*
X94885557Y-36708481D01*
X94819373Y-36701963D01*
X94649534Y-36650443D01*
X94493009Y-36566778D01*
X94457271Y-36537448D01*
X94355814Y-36454186D01*
X94271364Y-36351282D01*
X94243222Y-36316991D01*
X94187063Y-36211925D01*
X94159558Y-36160468D01*
X94149751Y-36128140D01*
X94108037Y-35990627D01*
X94090641Y-35814000D01*
X94108037Y-35637373D01*
X94159557Y-35467534D01*
X94243222Y-35311009D01*
X94302768Y-35238452D01*
X94355814Y-35173814D01*
X94457271Y-35090552D01*
X94493009Y-35061222D01*
X94649534Y-34977557D01*
X94819373Y-34926037D01*
X94885558Y-34919518D01*
X94951740Y-34913000D01*
X95040260Y-34913000D01*
X95106442Y-34919518D01*
X95106442Y-34919518D01*
G37*
G36*
X69295674Y-35183465D02*
G01*
X69333367Y-35194899D01*
X69368103Y-35213466D01*
X69398548Y-35238452D01*
X69423534Y-35268897D01*
X69442101Y-35303633D01*
X69453535Y-35341326D01*
X69458000Y-35386661D01*
X69458000Y-36223339D01*
X69453535Y-36268674D01*
X69442101Y-36306367D01*
X69423534Y-36341103D01*
X69398548Y-36371548D01*
X69368103Y-36396534D01*
X69333367Y-36415101D01*
X69295674Y-36426535D01*
X69250339Y-36431000D01*
X68163661Y-36431000D01*
X68118326Y-36426535D01*
X68080633Y-36415101D01*
X68045897Y-36396534D01*
X68015452Y-36371548D01*
X67990466Y-36341103D01*
X67971899Y-36306367D01*
X67960465Y-36268674D01*
X67956000Y-36223339D01*
X67956000Y-35386661D01*
X67960465Y-35341326D01*
X67971899Y-35303633D01*
X67990466Y-35268897D01*
X68015452Y-35238452D01*
X68045897Y-35213466D01*
X68080633Y-35194899D01*
X68118326Y-35183465D01*
X68163661Y-35179000D01*
X69250339Y-35179000D01*
X69295674Y-35183465D01*
X69295674Y-35183465D01*
G37*
G36*
X62761000Y-34186000D02*
G01*
X59159000Y-34186000D01*
X59159000Y-30584000D01*
X62761000Y-30584000D01*
X62761000Y-34186000D01*
X62761000Y-34186000D01*
G37*
G36*
X55936979Y-30598293D02*
G01*
X56070625Y-30638834D01*
X56193784Y-30704664D01*
X56301740Y-30793260D01*
X56390336Y-30901216D01*
X56456166Y-31024375D01*
X56496707Y-31158021D01*
X56511000Y-31303140D01*
X56511000Y-33466860D01*
X56496707Y-33611979D01*
X56456166Y-33745625D01*
X56390336Y-33868784D01*
X56301740Y-33976740D01*
X56193784Y-34065336D01*
X56070625Y-34131166D01*
X55936979Y-34171707D01*
X55791860Y-34186000D01*
X54128140Y-34186000D01*
X53983021Y-34171707D01*
X53849375Y-34131166D01*
X53726216Y-34065336D01*
X53618260Y-33976740D01*
X53529664Y-33868784D01*
X53463834Y-33745625D01*
X53423293Y-33611979D01*
X53409000Y-33466860D01*
X53409000Y-31303140D01*
X53423293Y-31158021D01*
X53463834Y-31024375D01*
X53529664Y-30901216D01*
X53618260Y-30793260D01*
X53726216Y-30704664D01*
X53849375Y-30638834D01*
X53983021Y-30598293D01*
X54128140Y-30584000D01*
X55791860Y-30584000D01*
X55936979Y-30598293D01*
X55936979Y-30598293D01*
G37*
G36*
X95106442Y-32379518D02*
G01*
X95172627Y-32386037D01*
X95342466Y-32437557D01*
X95498991Y-32521222D01*
X95534729Y-32550552D01*
X95636186Y-32633814D01*
X95719448Y-32735271D01*
X95748778Y-32771009D01*
X95832443Y-32927534D01*
X95883963Y-33097373D01*
X95901359Y-33274000D01*
X95883963Y-33450627D01*
X95832443Y-33620466D01*
X95748778Y-33776991D01*
X95719448Y-33812729D01*
X95636186Y-33914186D01*
X95534729Y-33997448D01*
X95498991Y-34026778D01*
X95342466Y-34110443D01*
X95172627Y-34161963D01*
X95106442Y-34168482D01*
X95040260Y-34175000D01*
X94951740Y-34175000D01*
X94885558Y-34168482D01*
X94819373Y-34161963D01*
X94649534Y-34110443D01*
X94493009Y-34026778D01*
X94457271Y-33997448D01*
X94355814Y-33914186D01*
X94272552Y-33812729D01*
X94243222Y-33776991D01*
X94159557Y-33620466D01*
X94108037Y-33450627D01*
X94090641Y-33274000D01*
X94108037Y-33097373D01*
X94159557Y-32927534D01*
X94243222Y-32771009D01*
X94272552Y-32735271D01*
X94355814Y-32633814D01*
X94457271Y-32550552D01*
X94493009Y-32521222D01*
X94649534Y-32437557D01*
X94819373Y-32386037D01*
X94885558Y-32379518D01*
X94951740Y-32373000D01*
X95040260Y-32373000D01*
X95106442Y-32379518D01*
X95106442Y-32379518D01*
G37*
G36*
X95106443Y-29839519D02*
G01*
X95172627Y-29846037D01*
X95342466Y-29897557D01*
X95498991Y-29981222D01*
X95534729Y-30010552D01*
X95636186Y-30093814D01*
X95719448Y-30195271D01*
X95748778Y-30231009D01*
X95832443Y-30387534D01*
X95883963Y-30557373D01*
X95901359Y-30734000D01*
X95883963Y-30910627D01*
X95832443Y-31080466D01*
X95748778Y-31236991D01*
X95719448Y-31272729D01*
X95636186Y-31374186D01*
X95534729Y-31457448D01*
X95498991Y-31486778D01*
X95342466Y-31570443D01*
X95172627Y-31621963D01*
X95106443Y-31628481D01*
X95040260Y-31635000D01*
X94951740Y-31635000D01*
X94885557Y-31628481D01*
X94819373Y-31621963D01*
X94649534Y-31570443D01*
X94493009Y-31486778D01*
X94457271Y-31457448D01*
X94355814Y-31374186D01*
X94272552Y-31272729D01*
X94243222Y-31236991D01*
X94159557Y-31080466D01*
X94108037Y-30910627D01*
X94090641Y-30734000D01*
X94108037Y-30557373D01*
X94159557Y-30387534D01*
X94243222Y-30231009D01*
X94272552Y-30195271D01*
X94355814Y-30093814D01*
X94457271Y-30010552D01*
X94493009Y-29981222D01*
X94649534Y-29897557D01*
X94819373Y-29846037D01*
X94885557Y-29839519D01*
X94951740Y-29833000D01*
X95040260Y-29833000D01*
X95106443Y-29839519D01*
X95106443Y-29839519D01*
G37*
G36*
X95897000Y-29095000D02*
G01*
X94095000Y-29095000D01*
X94095000Y-27293000D01*
X95897000Y-27293000D01*
X95897000Y-29095000D01*
X95897000Y-29095000D01*
G37*
M02*
